<svg xmlns="http://www.w3.org/2000/svg" xmlns:xlink="http://www.w3.org/1999/xlink" version="1.1" class="marks" width="960" height="514" viewBox="0 0 960 514"><rect width="960" height="514" fill="white"/><g fill="none" stroke-miterlimit="10" transform="translate(55,34)"><g class="mark-group role-frame root" role="graphics-object" aria-roledescription="group mark container"><g transform="translate(0,0)"><path class="background" aria-hidden="true" d="M0,0h800v0h-800Z"/><g><g class="mark-group role-scope concat_0_group" role="graphics-object" aria-roledescription="group mark container"><g transform="translate(0,0)"><path class="background" aria-hidden="true" d="M0.5,0.5h800v400h-800Z" stroke="#ddd"/><g><g class="mark-group role-axis" aria-hidden="true"><g transform="translate(0.5,400.5)"><path class="background" aria-hidden="true" d="M0,0h0v0h0Z" pointer-events="none"/><g><g class="mark-rule role-axis-grid" pointer-events="none"><line transform="translate(0,-400)" x2="0" y2="400" stroke="#ddd" stroke-width="1" opacity="1"/><line transform="translate(51,-400)" x2="0" y2="400" stroke="#ddd" stroke-width="1" opacity="1"/><line transform="translate(102,-400)" x2="0" y2="400" stroke="#ddd" stroke-width="1" opacity="1"/><line transform="translate(153,-400)" x2="0" y2="400" stroke="#ddd" stroke-width="1" opacity="1"/><line transform="translate(204,-400)" x2="0" y2="400" stroke="#ddd" stroke-width="1" opacity="1"/><line transform="translate(255,-400)" x2="0" y2="400" stroke="#ddd" stroke-width="1" opacity="1"/><line transform="translate(306,-400)" x2="0" y2="400" stroke="#ddd" stroke-width="1" opacity="1"/><line transform="translate(357,-400)" x2="0" y2="400" stroke="#ddd" stroke-width="1" opacity="1"/><line transform="translate(409,-400)" x2="0" y2="400" stroke="#ddd" stroke-width="1" opacity="1"/><line transform="translate(460,-400)" x2="0" y2="400" stroke="#ddd" stroke-width="1" opacity="1"/><line transform="translate(511,-400)" x2="0" y2="400" stroke="#ddd" stroke-width="1" opacity="1"/><line transform="translate(562,-400)" x2="0" y2="400" stroke="#ddd" stroke-width="1" opacity="1"/><line transform="translate(613,-400)" x2="0" y2="400" stroke="#ddd" stroke-width="1" opacity="1"/><line transform="translate(664,-400)" x2="0" y2="400" stroke="#ddd" stroke-width="1" opacity="1"/><line transform="translate(715,-400)" x2="0" y2="400" stroke="#ddd" stroke-width="1" opacity="1"/><line transform="translate(766,-400)" x2="0" y2="400" stroke="#ddd" stroke-width="1" opacity="1"/></g></g><path class="foreground" aria-hidden="true" d="" pointer-events="none" display="none"/></g></g><g class="mark-group role-axis" aria-hidden="true"><g transform="translate(0.5,0.5)"><path class="background" aria-hidden="true" d="M0,0h0v0h0Z" pointer-events="none"/><g><g class="mark-rule role-axis-grid" pointer-events="none"><line transform="translate(0,400)" x2="800" y2="0" stroke="#ddd" stroke-width="1" opacity="1"/><line transform="translate(0,367)" x2="800" y2="0" stroke="#ddd" stroke-width="1" opacity="1"/><line transform="translate(0,333)" x2="800" y2="0" stroke="#ddd" stroke-width="1" opacity="1"/><line transform="translate(0,300)" x2="800" y2="0" stroke="#ddd" stroke-width="1" opacity="1"/><line transform="translate(0,267)" x2="800" y2="0" stroke="#ddd" stroke-width="1" opacity="1"/><line transform="translate(0,233)" x2="800" y2="0" stroke="#ddd" stroke-width="1" opacity="1"/><line transform="translate(0,200)" x2="800" y2="0" stroke="#ddd" stroke-width="1" opacity="1"/><line transform="translate(0,167)" x2="800" y2="0" stroke="#ddd" stroke-width="1" opacity="1"/><line transform="translate(0,133)" x2="800" y2="0" stroke="#ddd" stroke-width="1" opacity="1"/><line transform="translate(0,100)" x2="800" y2="0" stroke="#ddd" stroke-width="1" opacity="1"/><line transform="translate(0,67)" x2="800" y2="0" stroke="#ddd" stroke-width="1" opacity="1"/><line transform="translate(0,33)" x2="800" y2="0" stroke="#ddd" stroke-width="1" opacity="1"/><line transform="translate(0,0)" x2="800" y2="0" stroke="#ddd" stroke-width="1" opacity="1"/></g></g><path class="foreground" aria-hidden="true" d="" pointer-events="none" display="none"/></g></g><g class="mark-group role-axis" role="graphics-symbol" aria-roledescription="axis" aria-label="X-axis titled 'Year' for a time scale with values from Friday, 01 January 2010, 12:00:00 AM to Monday, 01 September 2025, 12:00:00 AM"><g transform="translate(0.5,400.5)"><path class="background" aria-hidden="true" d="M0,0h0v0h0Z" pointer-events="none"/><g><g class="mark-rule role-axis-tick" pointer-events="none"><line transform="translate(0,0)" x2="0" y2="5" stroke="#888" stroke-width="1" opacity="1"/><line transform="translate(51,0)" x2="0" y2="5" stroke="#888" stroke-width="1" opacity="1"/><line transform="translate(102,0)" x2="0" y2="5" stroke="#888" stroke-width="1" opacity="1"/><line transform="translate(153,0)" x2="0" y2="5" stroke="#888" stroke-width="1" opacity="1"/><line transform="translate(204,0)" x2="0" y2="5" stroke="#888" stroke-width="1" opacity="1"/><line transform="translate(255,0)" x2="0" y2="5" stroke="#888" stroke-width="1" opacity="1"/><line transform="translate(306,0)" x2="0" y2="5" stroke="#888" stroke-width="1" opacity="1"/><line transform="translate(357,0)" x2="0" y2="5" stroke="#888" stroke-width="1" opacity="1"/><line transform="translate(409,0)" x2="0" y2="5" stroke="#888" stroke-width="1" opacity="1"/><line transform="translate(460,0)" x2="0" y2="5" stroke="#888" stroke-width="1" opacity="1"/><line transform="translate(511,0)" x2="0" y2="5" stroke="#888" stroke-width="1" opacity="1"/><line transform="translate(562,0)" x2="0" y2="5" stroke="#888" stroke-width="1" opacity="1"/><line transform="translate(613,0)" x2="0" y2="5" stroke="#888" stroke-width="1" opacity="1"/><line transform="translate(664,0)" x2="0" y2="5" stroke="#888" stroke-width="1" opacity="1"/><line transform="translate(715,0)" x2="0" y2="5" stroke="#888" stroke-width="1" opacity="1"/><line transform="translate(766,0)" x2="0" y2="5" stroke="#888" stroke-width="1" opacity="1"/></g><g class="mark-text role-axis-label" pointer-events="none"><text text-anchor="start" transform="translate(0,17)" font-family="sans-serif" font-size="13px" fill="#000" opacity="1">2010</text><text text-anchor="middle" transform="translate(51.031479607069265,17)" font-family="sans-serif" font-size="13px" fill="#000" opacity="1">2011</text><text text-anchor="middle" transform="translate(102.06295921413853,17)" font-family="sans-serif" font-size="13px" fill="#000" opacity="1">2012</text><text text-anchor="middle" transform="translate(153.23425109410385,17)" font-family="sans-serif" font-size="13px" fill="#000" opacity="1">2013</text><text text-anchor="middle" transform="translate(204.26573070117314,17)" font-family="sans-serif" font-size="13px" fill="#000" opacity="1">2014</text><text text-anchor="middle" transform="translate(255.29721030824234,17)" font-family="sans-serif" font-size="13px" fill="#000" opacity="1">2015</text><text text-anchor="middle" transform="translate(306.3286899153116,17)" font-family="sans-serif" font-size="13px" fill="#000" opacity="1">2016</text><text text-anchor="middle" transform="translate(357.49998179527694,17)" font-family="sans-serif" font-size="13px" fill="#000" opacity="1">2017</text><text text-anchor="middle" transform="translate(408.5314614023463,17)" font-family="sans-serif" font-size="13px" fill="#000" opacity="1">2018</text><text text-anchor="middle" transform="translate(459.56294100941545,17)" font-family="sans-serif" font-size="13px" fill="#000" opacity="1">2019</text><text text-anchor="middle" transform="translate(510.5944206164847,17)" font-family="sans-serif" font-size="13px" fill="#000" opacity="1">2020</text><text text-anchor="middle" transform="translate(561.7657124964501,17)" font-family="sans-serif" font-size="13px" fill="#000" opacity="1">2021</text><text text-anchor="middle" transform="translate(612.7971921035194,17)" font-family="sans-serif" font-size="13px" fill="#000" opacity="1">2022</text><text text-anchor="middle" transform="translate(663.8286717105885,17)" font-family="sans-serif" font-size="13px" fill="#000" opacity="1">2023</text><text text-anchor="middle" transform="translate(714.8601513176578,17)" font-family="sans-serif" font-size="13px" fill="#000" opacity="1">2024</text><text text-anchor="middle" transform="translate(766.0314431976233,17)" font-family="sans-serif" font-size="13px" fill="#000" opacity="1">2025</text></g><g class="mark-rule role-axis-domain" pointer-events="none"><line transform="translate(0,0)" x2="800" y2="0" stroke="#888" stroke-width="1" opacity="1"/></g><g class="mark-text role-axis-title" pointer-events="none"><text text-anchor="middle" transform="translate(400,36)" font-family="sans-serif" font-size="15px" font-weight="600" fill="#000" opacity="1">Year</text></g></g><path class="foreground" aria-hidden="true" d="" pointer-events="none" display="none"/></g></g><g class="mark-group role-axis" role="graphics-symbol" aria-roledescription="axis" aria-label="Y-axis titled 'Temperature (°C)' for a linear scale with values from −70 to 50"><g transform="translate(0.5,0.5)"><path class="background" aria-hidden="true" d="M0,0h0v0h0Z" pointer-events="none"/><g><g class="mark-rule role-axis-tick" pointer-events="none"><line transform="translate(0,400)" x2="-5" y2="0" stroke="#888" stroke-width="1" opacity="1"/><line transform="translate(0,367)" x2="-5" y2="0" stroke="#888" stroke-width="1" opacity="1"/><line transform="translate(0,333)" x2="-5" y2="0" stroke="#888" stroke-width="1" opacity="1"/><line transform="translate(0,300)" x2="-5" y2="0" stroke="#888" stroke-width="1" opacity="1"/><line transform="translate(0,267)" x2="-5" y2="0" stroke="#888" stroke-width="1" opacity="1"/><line transform="translate(0,233)" x2="-5" y2="0" stroke="#888" stroke-width="1" opacity="1"/><line transform="translate(0,200)" x2="-5" y2="0" stroke="#888" stroke-width="1" opacity="1"/><line transform="translate(0,167)" x2="-5" y2="0" stroke="#888" stroke-width="1" opacity="1"/><line transform="translate(0,133)" x2="-5" y2="0" stroke="#888" stroke-width="1" opacity="1"/><line transform="translate(0,100)" x2="-5" y2="0" stroke="#888" stroke-width="1" opacity="1"/><line transform="translate(0,67)" x2="-5" y2="0" stroke="#888" stroke-width="1" opacity="1"/><line transform="translate(0,33)" x2="-5" y2="0" stroke="#888" stroke-width="1" opacity="1"/><line transform="translate(0,0)" x2="-5" y2="0" stroke="#888" stroke-width="1" opacity="1"/></g><g class="mark-text role-axis-label" pointer-events="none"><text text-anchor="end" transform="translate(-7,404)" font-family="sans-serif" font-size="13px" fill="#000" opacity="1">−70</text><text text-anchor="end" transform="translate(-7,370.66666666666663)" font-family="sans-serif" font-size="13px" fill="#000" opacity="1">−60</text><text text-anchor="end" transform="translate(-7,337.33333333333337)" font-family="sans-serif" font-size="13px" fill="#000" opacity="1">−50</text><text text-anchor="end" transform="translate(-7,304)" font-family="sans-serif" font-size="13px" fill="#000" opacity="1">−40</text><text text-anchor="end" transform="translate(-7,270.6666666666667)" font-family="sans-serif" font-size="13px" fill="#000" opacity="1">−30</text><text text-anchor="end" transform="translate(-7,237.33333333333331)" font-family="sans-serif" font-size="13px" fill="#000" opacity="1">−20</text><text text-anchor="end" transform="translate(-7,204)" font-family="sans-serif" font-size="13px" fill="#000" opacity="1">−10</text><text text-anchor="end" transform="translate(-7,170.66666666666666)" font-family="sans-serif" font-size="13px" fill="#000" opacity="1">0</text><text text-anchor="end" transform="translate(-7,137.33333333333334)" font-family="sans-serif" font-size="13px" fill="#000" opacity="1">10</text><text text-anchor="end" transform="translate(-7,104)" font-family="sans-serif" font-size="13px" fill="#000" opacity="1">20</text><text text-anchor="end" transform="translate(-7,70.66666666666666)" font-family="sans-serif" font-size="13px" fill="#000" opacity="1">30</text><text text-anchor="end" transform="translate(-7,37.33333333333335)" font-family="sans-serif" font-size="13px" fill="#000" opacity="1">40</text><text text-anchor="end" transform="translate(-7,4)" font-family="sans-serif" font-size="13px" fill="#000" opacity="1">50</text></g><g class="mark-rule role-axis-domain" pointer-events="none"><line transform="translate(0,400)" x2="0" y2="-400" stroke="#888" stroke-width="1" opacity="1"/></g><g class="mark-text role-axis-title" pointer-events="none"><text text-anchor="middle" transform="translate(-33.0517578125,200) rotate(-90) translate(0,-3)" font-family="sans-serif" font-size="15px" font-weight="600" fill="#000" opacity="1">Temperature (°C)</text></g></g><path class="foreground" aria-hidden="true" d="" pointer-events="none" display="none"/></g></g><g class="mark-area role-mark concat_0_layer_0_marks" role="graphics-symbol" aria-roledescription="area mark container"><path d="M0,209.51L4.334,213.383L8.249,196.653L12.577,170.173L16.772,146.293L21.106,128.807L25.3,118.823L29.634,125.6L33.969,143.513L38.163,162.573L42.497,192.033L46.697,205.197L51.031,210.777L55.366,216.657L59.28,196.283L63.609,168.45L67.803,145.3L72.137,127.34L76.332,120.693L80.666,124.92L85,140.037L89.194,159.977L93.529,196.263L97.729,201.927L102.063,209.25L106.397,213.767L110.452,196.783L114.78,169.887L118.974,146.113L123.309,125.617L127.503,119.727L131.837,125.41L136.171,138.51L140.366,167.527L144.7,197.263L148.9,208.973L153.234,205.987L157.568,210.873L161.483,202.313L165.812,175.08L170.006,147.453L174.34,125.527L178.534,119.01L182.869,122.71L187.203,143.197L191.397,164.877L195.731,190.32L199.932,201.013L204.266,207.143L208.6,219.51L212.515,195.877L216.843,169.5L221.037,147.347L225.372,127.407L229.566,120.393L233.9,121.987L238.234,143.907L242.429,169.847L246.763,197.65L250.963,203.943L255.297,206.323L259.631,206.927L263.546,191.46L267.874,169.4L272.069,145.673L276.403,126.363L280.597,121.097L284.932,124.983L289.266,142.737L293.46,165.887L297.794,194.84L301.995,197.573L306.329,208.577L310.663,203.07L314.717,189.35L319.046,167.983L323.24,145.913L327.574,125.957L331.769,118.843L336.103,123.06L340.437,137.1L344.631,169.343L348.966,197.637L353.166,202.34L357.5,204.463L361.834,208.587L365.749,188.81L370.077,170.623L374.272,149.857L378.606,127.307L382.8,119.04L387.134,121.653L391.469,141.79L395.663,165.617L399.997,194.203L404.197,201.543L408.531,206.49L412.866,213.397L416.78,198.39L421.109,173.547L425.303,148.067L429.637,126.22L433.832,118.56L438.166,124.003L442.5,141.847L446.694,164.293L451.029,196.097L455.229,201.343L459.563,207.087L463.897,212.93L467.812,187.803L472.14,169.747L476.335,148.293L480.669,125.7L484.863,119.187L489.197,122.66L493.531,140.65L497.726,165.1L502.06,195.643L506.26,198.377L510.594,201.26L514.929,202.497L518.983,190.08L523.312,169.373L527.506,145.35L531.84,124.673L536.034,119.277L540.369,121.983L544.703,137.423L548.897,166.353L553.231,189.673L557.432,203.257L561.766,206.333L566.1,216.403L570.015,192.52L574.343,169.69L578.537,148.22L582.872,124.893L587.066,118.353L591.4,122.107L595.734,142.693L599.929,162.567L604.263,190.76L608.463,202.123L612.797,205.367L617.131,208.057L621.046,194.843L625.374,171.96L629.569,147.333L633.903,125.17L638.097,117.103L642.432,123.737L646.766,141.2L650.96,161.46L655.294,195.953L659.494,203.11L663.829,205.2L668.163,207.27L672.078,193.943L676.406,174.163L680.6,145.417L684.934,125.29L689.129,116.15L693.463,118.25L697.797,135.403L701.992,160.47L706.326,191.877L710.526,200.667L714.86,207.403L719.194,210.657L723.249,193.247L727.577,169.92L731.772,147.293L736.106,124.05L740.3,117.1L744.634,119.277L748.969,137.067L753.163,161.977L757.497,186.197L761.697,196.977L766.031,200.63L770.366,209.18L774.28,191.753L778.609,168.91L782.803,146L787.137,126.78L791.332,118.86L795.666,120.15L800,135.133L800,41.9L795.666,29.78L791.332,30.123L787.137,38.613L782.803,41.203L778.609,43.287L774.28,50.51L770.366,46.85L766.031,43.883L761.697,50.583L757.497,52.373L753.163,44.533L748.969,41.24L744.634,29.593L740.3,24.83L736.106,31.857L731.772,40.107L727.577,44.607L723.249,47.227L719.194,41.463L714.86,44.423L710.526,45.063L706.326,49.137L701.992,43.667L697.797,38.833L693.463,29.847L689.129,27.727L684.934,28.44L680.6,41.313L676.406,46.663L672.078,53.643L668.163,48.89L663.829,51.587L659.494,50.133L655.294,53.523L650.96,45.777L646.766,41.137L642.432,29.35L638.097,31.747L633.903,34.283L629.569,40.017L625.374,40.79L621.046,51.75L617.131,54.097L612.797,43.52L608.463,44.293L604.263,52.933L599.929,49.137L595.734,41.943L591.4,31.343L587.066,27.533L582.872,32.773L578.537,42.987L574.343,46.983L570.015,51.423L566.1,54.457L561.766,50.157L557.432,52.053L553.231,48.697L548.897,47.507L544.703,40.327L540.369,31.11L536.034,27.143L531.84,32.663L527.506,40.283L523.312,46.72L518.983,52.373L514.929,48.097L510.594,51.003L506.26,42.847L502.06,49.453L497.726,51.847L493.531,40.95L489.197,31.327L484.863,29.46L480.669,32.667L476.335,39.753L472.14,47.76L467.812,49.867L463.897,42.343L459.563,42.113L455.229,42.58L451.029,49.76L446.694,47.893L442.5,40.493L438.166,33.3L433.832,29.393L429.637,32.92L425.303,41.153L421.109,46.963L416.78,51.277L412.866,49.697L408.531,46.887L404.197,50.807L399.997,50.597L395.663,48.24L391.469,40.3L387.134,27.713L382.8,26.36L378.606,32.997L374.272,42.303L370.077,44.823L365.749,49.24L361.834,51.557L357.5,48.937L353.166,53.317L348.966,50.853L344.631,45.867L340.437,40.583L336.103,29.1L331.769,30.797L327.574,36.417L323.24,40.547L319.046,46.63L314.717,47.023L310.663,50.303L306.329,54.96L301.995,47.013L297.794,48.337L293.46,43.427L289.266,40.497L284.932,29.033L280.597,30.413L276.403,36.987L272.069,42.113L267.874,48.833L263.546,50.39L259.631,44.883L255.297,47.24L250.963,48.097L246.763,51.28L242.429,53.213L238.234,41.497L233.9,33.71L229.566,31.357L225.372,37.89L221.037,43.273L216.843,43.637L212.515,51.19L208.6,49.823L204.266,51.193L199.932,53.113L195.731,53.797L191.397,48.313L187.203,43.26L182.869,37.763L178.534,33.17L174.34,33.38L170.006,40.097L165.812,51.16L161.483,51.583L157.568,50.653L153.234,46.033L148.9,51.93L144.7,52.127L140.366,46.98L136.171,41.923L131.837,32.357L127.503,29.563L123.309,36.88L118.974,40.217L114.78,47.653L110.452,52.087L106.397,52.327L102.063,51.227L97.729,50.767L93.529,60.89L89.194,48.323L85,42.287L80.666,33.47L76.332,31.157L72.137,32.573L67.803,41.76L63.609,47.573L59.28,53.423L55.366,55.753L51.031,46.2L46.697,54.077L42.497,52.867L38.163,46.543L33.969,43.097L29.634,29.85L25.3,30.21L21.106,35.867L16.772,39.997L12.577,43.7L8.249,50.607L4.334,43.08L0,44.04Z" fill="#fa4d56" opacity="0.3"/></g><g class="mark-area role-mark concat_0_layer_1_marks" role="graphics-symbol" aria-roledescription="area mark container"><path d="M0,313.213L4.334,318.54L8.249,358.863L12.577,388.707L16.772,383.983L21.106,390.313L25.3,392.82L29.634,398.08L33.969,376.05L38.163,355.273L42.497,322.34L46.697,304.227L51.031,320.113L55.366,311.053L59.28,355.807L63.609,368.217L67.803,383.7L72.137,392.527L76.332,367.757L80.666,364.433L85,376.983L89.194,363.767L93.529,309.757L97.729,322.953L102.063,304.49L106.397,323.93L110.452,361.94L114.78,375.033L118.974,375.363L123.309,388.62L127.503,392.52L131.837,394.987L136.171,393.077L140.366,350.977L144.7,310.37L148.9,304.363L153.234,321.607L157.568,325.327L161.483,369.507L165.812,386.007L170.006,387.037L174.34,369.59L178.534,383.45L182.869,368.613L187.203,354.16L191.397,348.86L195.731,305.34L199.932,302.933L204.266,322.667L208.6,320.583L212.515,365.297L216.843,375.823L221.037,365.7L225.372,374.33L229.566,396.793L233.9,380.047L238.234,363.717L242.429,357.25L246.763,308.327L250.963,317.707L255.297,305.593L259.631,321.067L263.546,353.51L267.874,373.833L272.069,386.99L276.403,382.593L280.597,386.11L284.932,397.153L289.266,386.86L293.46,348.45L297.794,306.397L301.995,314.607L306.329,307.667L310.663,325.427L314.717,361.347L319.046,378.263L323.24,367.787L327.574,397.87L331.769,393.543L336.103,366.94L340.437,389.227L344.631,354.043L348.966,307.767L353.166,307.203L357.5,310.303L361.834,315.65L365.749,358.18L370.077,380.813L374.272,367.377L378.606,394.567L382.8,383.787L387.134,387.297L391.469,387.46L395.663,348.323L399.997,310.987L404.197,316.737L408.531,308.607L412.866,320.083L416.78,359.863L421.109,366.52L425.303,376.4L429.637,378.35L433.832,378.353L438.166,373.63L442.5,384.83L446.694,351.713L451.029,315.393L455.229,306.13L459.563,313.44L463.897,311.68L467.812,356.233L472.14,379.787L476.335,391.333L480.669,392.717L484.863,371.497L489.197,389.83L493.531,388.51L497.726,347.797L502.06,312.85L506.26,309.5L510.594,320.347L514.929,320.687L518.983,363.097L523.312,362.663L527.506,367.83L531.84,380.93L536.034,372.663L540.369,377.53L544.703,363.19L548.897,357.487L553.231,302.063L557.432,311.823L561.766,328.1L566.1,325.623L570.015,349.98L574.343,370.607L578.537,383.533L582.872,392.133L587.066,376.497L591.4,379.717L595.734,364.08L599.929,352.067L604.263,310.563L608.463,317.937L612.797,308.917L617.131,314.923L621.046,346.327L625.374,375.41L629.569,386.97L633.903,360.253L638.097,373.81L642.432,388.96L646.766,393.787L650.96,350.873L655.294,320.653L659.494,305.407L663.829,325.843L668.163,315.82L672.078,352.287L676.406,362.88L680.6,384.79L684.934,374.397L689.129,379.223L693.463,390.98L697.797,365.35L701.992,360.927L706.326,317.267L710.526,318.26L714.86,327.11L719.194,322.21L723.249,355.123L727.577,382.017L731.772,371.617L736.106,380.807L740.3,357.187L744.634,356.073L748.969,379.19L753.163,360.733L757.497,318.88L761.697,299.14L766.031,308.377L770.366,323.55L774.28,356.403L778.609,371.977L782.803,380.193L787.137,384.74L791.332,396.367L795.666,376.903L800,380.61L800,135.133L795.666,120.15L791.332,118.86L787.137,126.78L782.803,146L778.609,168.91L774.28,191.753L770.366,209.18L766.031,200.63L761.697,196.977L757.497,186.197L753.163,161.977L748.969,137.067L744.634,119.277L740.3,117.1L736.106,124.05L731.772,147.293L727.577,169.92L723.249,193.247L719.194,210.657L714.86,207.403L710.526,200.667L706.326,191.877L701.992,160.47L697.797,135.403L693.463,118.25L689.129,116.15L684.934,125.29L680.6,145.417L676.406,174.163L672.078,193.943L668.163,207.27L663.829,205.2L659.494,203.11L655.294,195.953L650.96,161.46L646.766,141.2L642.432,123.737L638.097,117.103L633.903,125.17L629.569,147.333L625.374,171.96L621.046,194.843L617.131,208.057L612.797,205.367L608.463,202.123L604.263,190.76L599.929,162.567L595.734,142.693L591.4,122.107L587.066,118.353L582.872,124.893L578.537,148.22L574.343,169.69L570.015,192.52L566.1,216.403L561.766,206.333L557.432,203.257L553.231,189.673L548.897,166.353L544.703,137.423L540.369,121.983L536.034,119.277L531.84,124.673L527.506,145.35L523.312,169.373L518.983,190.08L514.929,202.497L510.594,201.26L506.26,198.377L502.06,195.643L497.726,165.1L493.531,140.65L489.197,122.66L484.863,119.187L480.669,125.7L476.335,148.293L472.14,169.747L467.812,187.803L463.897,212.93L459.563,207.087L455.229,201.343L451.029,196.097L446.694,164.293L442.5,141.847L438.166,124.003L433.832,118.56L429.637,126.22L425.303,148.067L421.109,173.547L416.78,198.39L412.866,213.397L408.531,206.49L404.197,201.543L399.997,194.203L395.663,165.617L391.469,141.79L387.134,121.653L382.8,119.04L378.606,127.307L374.272,149.857L370.077,170.623L365.749,188.81L361.834,208.587L357.5,204.463L353.166,202.34L348.966,197.637L344.631,169.343L340.437,137.1L336.103,123.06L331.769,118.843L327.574,125.957L323.24,145.913L319.046,167.983L314.717,189.35L310.663,203.07L306.329,208.577L301.995,197.573L297.794,194.84L293.46,165.887L289.266,142.737L284.932,124.983L280.597,121.097L276.403,126.363L272.069,145.673L267.874,169.4L263.546,191.46L259.631,206.927L255.297,206.323L250.963,203.943L246.763,197.65L242.429,169.847L238.234,143.907L233.9,121.987L229.566,120.393L225.372,127.407L221.037,147.347L216.843,169.5L212.515,195.877L208.6,219.51L204.266,207.143L199.932,201.013L195.731,190.32L191.397,164.877L187.203,143.197L182.869,122.71L178.534,119.01L174.34,125.527L170.006,147.453L165.812,175.08L161.483,202.313L157.568,210.873L153.234,205.987L148.9,208.973L144.7,197.263L140.366,167.527L136.171,138.51L131.837,125.41L127.503,119.727L123.309,125.617L118.974,146.113L114.78,169.887L110.452,196.783L106.397,213.767L102.063,209.25L97.729,201.927L93.529,196.263L89.194,159.977L85,140.037L80.666,124.92L76.332,120.693L72.137,127.34L67.803,145.3L63.609,168.45L59.28,196.283L55.366,216.657L51.031,210.777L46.697,205.197L42.497,192.033L38.163,162.573L33.969,143.513L29.634,125.6L25.3,118.823L21.106,128.807L16.772,146.293L12.577,170.173L8.249,196.653L4.334,213.383L0,209.51Z" fill="#3498db" opacity="0.3"/></g><g class="mark-group role-scope concat_0_layer_2_pathgroup" role="graphics-object" aria-roledescription="group mark container"><g transform="translate(0,0)"><path class="background" aria-hidden="true" d="M0,0h800v400h-800Z"/><g><g class="mark-line role-mark concat_0_layer_2_marks" role="graphics-symbol" aria-roledescription="line mark container"><path d="M0,313.213L4.334,318.54L8.249,358.863L12.577,388.707L16.772,383.983L21.106,390.313L25.3,392.82L29.634,398.08L33.969,376.05L38.163,355.273L42.497,322.34L46.697,304.227L51.031,320.113L55.366,311.053L59.28,355.807L63.609,368.217L67.803,383.7L72.137,392.527L76.332,367.757L80.666,364.433L85,376.983L89.194,363.767L93.529,309.757L97.729,322.953L102.063,304.49L106.397,323.93L110.452,361.94L114.78,375.033L118.974,375.363L123.309,388.62L127.503,392.52L131.837,394.987L136.171,393.077L140.366,350.977L144.7,310.37L148.9,304.363L153.234,321.607L157.568,325.327L161.483,369.507L165.812,386.007L170.006,387.037L174.34,369.59L178.534,383.45L182.869,368.613L187.203,354.16L191.397,348.86L195.731,305.34L199.932,302.933L204.266,322.667L208.6,320.583L212.515,365.297L216.843,375.823L221.037,365.7L225.372,374.33L229.566,396.793L233.9,380.047L238.234,363.717L242.429,357.25L246.763,308.327L250.963,317.707L255.297,305.593L259.631,321.067L263.546,353.51L267.874,373.833L272.069,386.99L276.403,382.593L280.597,386.11L284.932,397.153L289.266,386.86L293.46,348.45L297.794,306.397L301.995,314.607L306.329,307.667L310.663,325.427L314.717,361.347L319.046,378.263L323.24,367.787L327.574,397.87L331.769,393.543L336.103,366.94L340.437,389.227L344.631,354.043L348.966,307.767L353.166,307.203L357.5,310.303L361.834,315.65L365.749,358.18L370.077,380.813L374.272,367.377L378.606,394.567L382.8,383.787L387.134,387.297L391.469,387.46L395.663,348.323L399.997,310.987L404.197,316.737L408.531,308.607L412.866,320.083L416.78,359.863L421.109,366.52L425.303,376.4L429.637,378.35L433.832,378.353L438.166,373.63L442.5,384.83L446.694,351.713L451.029,315.393L455.229,306.13L459.563,313.44L463.897,311.68L467.812,356.233L472.14,379.787L476.335,391.333L480.669,392.717L484.863,371.497L489.197,389.83L493.531,388.51L497.726,347.797L502.06,312.85L506.26,309.5L510.594,320.347L514.929,320.687L518.983,363.097L523.312,362.663L527.506,367.83L531.84,380.93L536.034,372.663L540.369,377.53L544.703,363.19L548.897,357.487L553.231,302.063L557.432,311.823L561.766,328.1L566.1,325.623L570.015,349.98L574.343,370.607L578.537,383.533L582.872,392.133L587.066,376.497L591.4,379.717L595.734,364.08L599.929,352.067L604.263,310.563L608.463,317.937L612.797,308.917L617.131,314.923L621.046,346.327L625.374,375.41L629.569,386.97L633.903,360.253L638.097,373.81L642.432,388.96L646.766,393.787L650.96,350.873L655.294,320.653L659.494,305.407L663.829,325.843L668.163,315.82L672.078,352.287L676.406,362.88L680.6,384.79L684.934,374.397L689.129,379.223L693.463,390.98L697.797,365.35L701.992,360.927L706.326,317.267L710.526,318.26L714.86,327.11L719.194,322.21L723.249,355.123L727.577,382.017L731.772,371.617L736.106,380.807L740.3,357.187L744.634,356.073L748.969,379.19L753.163,360.733L757.497,318.88L761.697,299.14L766.031,308.377L770.366,323.55L774.28,356.403L778.609,371.977L782.803,380.193L787.137,384.74L791.332,396.367L795.666,376.903L800,380.61" stroke="#003a6d" stroke-width="1.5" opacity="0.6"/></g></g><path class="foreground" aria-hidden="true" d="" display="none"/></g></g><g class="mark-group role-scope concat_0_layer_3_pathgroup" role="graphics-object" aria-roledescription="group mark container"><g transform="translate(0,0)"><path class="background" aria-hidden="true" d="M0,0h800v400h-800Z"/><g><g class="mark-line role-mark concat_0_layer_3_marks" role="graphics-symbol" aria-roledescription="line mark container"><path d="M0,44.04L4.334,43.08L8.249,50.607L12.577,43.7L16.772,39.997L21.106,35.867L25.3,30.21L29.634,29.85L33.969,43.097L38.163,46.543L42.497,52.867L46.697,54.077L51.031,46.2L55.366,55.753L59.28,53.423L63.609,47.573L67.803,41.76L72.137,32.573L76.332,31.157L80.666,33.47L85,42.287L89.194,48.323L93.529,60.89L97.729,50.767L102.063,51.227L106.397,52.327L110.452,52.087L114.78,47.653L118.974,40.217L123.309,36.88L127.503,29.563L131.837,32.357L136.171,41.923L140.366,46.98L144.7,52.127L148.9,51.93L153.234,46.033L157.568,50.653L161.483,51.583L165.812,51.16L170.006,40.097L174.34,33.38L178.534,33.17L182.869,37.763L187.203,43.26L191.397,48.313L195.731,53.797L199.932,53.113L204.266,51.193L208.6,49.823L212.515,51.19L216.843,43.637L221.037,43.273L225.372,37.89L229.566,31.357L233.9,33.71L238.234,41.497L242.429,53.213L246.763,51.28L250.963,48.097L255.297,47.24L259.631,44.883L263.546,50.39L267.874,48.833L272.069,42.113L276.403,36.987L280.597,30.413L284.932,29.033L289.266,40.497L293.46,43.427L297.794,48.337L301.995,47.013L306.329,54.96L310.663,50.303L314.717,47.023L319.046,46.63L323.24,40.547L327.574,36.417L331.769,30.797L336.103,29.1L340.437,40.583L344.631,45.867L348.966,50.853L353.166,53.317L357.5,48.937L361.834,51.557L365.749,49.24L370.077,44.823L374.272,42.303L378.606,32.997L382.8,26.36L387.134,27.713L391.469,40.3L395.663,48.24L399.997,50.597L404.197,50.807L408.531,46.887L412.866,49.697L416.78,51.277L421.109,46.963L425.303,41.153L429.637,32.92L433.832,29.393L438.166,33.3L442.5,40.493L446.694,47.893L451.029,49.76L455.229,42.58L459.563,42.113L463.897,42.343L467.812,49.867L472.14,47.76L476.335,39.753L480.669,32.667L484.863,29.46L489.197,31.327L493.531,40.95L497.726,51.847L502.06,49.453L506.26,42.847L510.594,51.003L514.929,48.097L518.983,52.373L523.312,46.72L527.506,40.283L531.84,32.663L536.034,27.143L540.369,31.11L544.703,40.327L548.897,47.507L553.231,48.697L557.432,52.053L561.766,50.157L566.1,54.457L570.015,51.423L574.343,46.983L578.537,42.987L582.872,32.773L587.066,27.533L591.4,31.343L595.734,41.943L599.929,49.137L604.263,52.933L608.463,44.293L612.797,43.52L617.131,54.097L621.046,51.75L625.374,40.79L629.569,40.017L633.903,34.283L638.097,31.747L642.432,29.35L646.766,41.137L650.96,45.777L655.294,53.523L659.494,50.133L663.829,51.587L668.163,48.89L672.078,53.643L676.406,46.663L680.6,41.313L684.934,28.44L689.129,27.727L693.463,29.847L697.797,38.833L701.992,43.667L706.326,49.137L710.526,45.063L714.86,44.423L719.194,41.463L723.249,47.227L727.577,44.607L731.772,40.107L736.106,31.857L740.3,24.83L744.634,29.593L748.969,41.24L753.163,44.533L757.497,52.373L761.697,50.583L766.031,43.883L770.366,46.85L774.28,50.51L778.609,43.287L782.803,41.203L787.137,38.613L791.332,30.123L795.666,29.78L800,41.9" stroke="#750e13" stroke-width="1.5" opacity="0.6"/></g></g><path class="foreground" aria-hidden="true" d="" display="none"/></g></g><g class="mark-group role-scope concat_0_layer_4_pathgroup" role="graphics-object" aria-roledescription="group mark container"><g transform="translate(0,0)"><path class="background" aria-hidden="true" d="M0,0h800v400h-800Z"/><g><g class="mark-line role-mark concat_0_layer_4_marks" role="graphics-symbol" aria-roledescription="line mark container"><path d="M0,209.51L4.334,213.383L8.249,196.653L12.577,170.173L16.772,146.293L21.106,128.807L25.3,118.823L29.634,125.6L33.969,143.513L38.163,162.573L42.497,192.033L46.697,205.197L51.031,210.777L55.366,216.657L59.28,196.283L63.609,168.45L67.803,145.3L72.137,127.34L76.332,120.693L80.666,124.92L85,140.037L89.194,159.977L93.529,196.263L97.729,201.927L102.063,209.25L106.397,213.767L110.452,196.783L114.78,169.887L118.974,146.113L123.309,125.617L127.503,119.727L131.837,125.41L136.171,138.51L140.366,167.527L144.7,197.263L148.9,208.973L153.234,205.987L157.568,210.873L161.483,202.313L165.812,175.08L170.006,147.453L174.34,125.527L178.534,119.01L182.869,122.71L187.203,143.197L191.397,164.877L195.731,190.32L199.932,201.013L204.266,207.143L208.6,219.51L212.515,195.877L216.843,169.5L221.037,147.347L225.372,127.407L229.566,120.393L233.9,121.987L238.234,143.907L242.429,169.847L246.763,197.65L250.963,203.943L255.297,206.323L259.631,206.927L263.546,191.46L267.874,169.4L272.069,145.673L276.403,126.363L280.597,121.097L284.932,124.983L289.266,142.737L293.46,165.887L297.794,194.84L301.995,197.573L306.329,208.577L310.663,203.07L314.717,189.35L319.046,167.983L323.24,145.913L327.574,125.957L331.769,118.843L336.103,123.06L340.437,137.1L344.631,169.343L348.966,197.637L353.166,202.34L357.5,204.463L361.834,208.587L365.749,188.81L370.077,170.623L374.272,149.857L378.606,127.307L382.8,119.04L387.134,121.653L391.469,141.79L395.663,165.617L399.997,194.203L404.197,201.543L408.531,206.49L412.866,213.397L416.78,198.39L421.109,173.547L425.303,148.067L429.637,126.22L433.832,118.56L438.166,124.003L442.5,141.847L446.694,164.293L451.029,196.097L455.229,201.343L459.563,207.087L463.897,212.93L467.812,187.803L472.14,169.747L476.335,148.293L480.669,125.7L484.863,119.187L489.197,122.66L493.531,140.65L497.726,165.1L502.06,195.643L506.26,198.377L510.594,201.26L514.929,202.497L518.983,190.08L523.312,169.373L527.506,145.35L531.84,124.673L536.034,119.277L540.369,121.983L544.703,137.423L548.897,166.353L553.231,189.673L557.432,203.257L561.766,206.333L566.1,216.403L570.015,192.52L574.343,169.69L578.537,148.22L582.872,124.893L587.066,118.353L591.4,122.107L595.734,142.693L599.929,162.567L604.263,190.76L608.463,202.123L612.797,205.367L617.131,208.057L621.046,194.843L625.374,171.96L629.569,147.333L633.903,125.17L638.097,117.103L642.432,123.737L646.766,141.2L650.96,161.46L655.294,195.953L659.494,203.11L663.829,205.2L668.163,207.27L672.078,193.943L676.406,174.163L680.6,145.417L684.934,125.29L689.129,116.15L693.463,118.25L697.797,135.403L701.992,160.47L706.326,191.877L710.526,200.667L714.86,207.403L719.194,210.657L723.249,193.247L727.577,169.92L731.772,147.293L736.106,124.05L740.3,117.1L744.634,119.277L748.969,137.067L753.163,161.977L757.497,186.197L761.697,196.977L766.031,200.63L770.366,209.18L774.28,191.753L778.609,168.91L782.803,146L787.137,126.78L791.332,118.86L795.666,120.15L800,135.133" stroke="#2c3e50" stroke-width="2.5"/></g></g><path class="foreground" aria-hidden="true" d="" display="none"/></g></g><g class="mark-group role-title"><g transform="translate(-48.0517578125,-28)"><path class="background" aria-hidden="true" d="M0,0h0v0h0Z" pointer-events="none"/><g><g class="mark-text role-title-text" role="graphics-symbol" aria-roledescription="title" aria-label="Title text 'Location-specific global Temperature Range and Median (2010-2025)'" pointer-events="none"><text text-anchor="start" transform="translate(0,14)" font-family="sans-serif" font-size="18px" font-weight="600" fill="#000" opacity="1">Location-specific global Temperature Range and Median (2010-2025)</text></g></g><path class="foreground" aria-hidden="true" d="" pointer-events="none" display="none"/></g></g></g><path class="foreground" aria-hidden="true" d="" display="none"/></g></g><g class="mark-group role-scope concat_1_group" role="graphics-object" aria-roledescription="group mark container"><g transform="translate(0,445)"><path class="background" aria-hidden="true" d="M0,0h800v20h-800Z"/><g><g class="mark-text role-mark concat_1_marks" role="graphics-object" aria-roledescription="text mark container"><text text-anchor="start" transform="translate(0,28)" font-family="sans-serif" font-size="10px" fill="gray">Note: Data from ERA5-Land monthly mean 2m temperature reanalysis at ~0.1° (~10km) grid resolution</text></g></g><path class="foreground" aria-hidden="true" d="" display="none"/></g></g><g class="mark-group role-legend" role="graphics-symbol" aria-roledescription="legend" aria-label="Symbol legend titled 'Temperature' for stroke color with 3 values: Median, Maximum, Minimum"><g transform="translate(822,0)"><path class="background" aria-hidden="true" d="M0,0h78v58h-78Z" pointer-events="none"/><g><g class="mark-group role-legend-entry"><g transform="translate(0,18)"><path class="background" aria-hidden="true" d="M0,0h0v0h0Z" pointer-events="none"/><g><g class="mark-group role-scope" role="graphics-object" aria-roledescription="group mark container"><g transform="translate(0,0)"><path class="background" aria-hidden="true" d="M0,0h68.001953125v12h-68.001953125Z" pointer-events="none" opacity="1"/><g><g class="mark-symbol role-legend-symbol" pointer-events="none"><path transform="translate(6,6)" d="M-5,0L5,0" stroke="#2c3e50" stroke-width="1.5" opacity="0.6"/></g><g class="mark-text role-legend-label" pointer-events="none"><text text-anchor="start" transform="translate(16,10)" font-family="sans-serif" font-size="12px" fill="#000" opacity="1">Median</text></g></g><path class="foreground" aria-hidden="true" d="" pointer-events="none" display="none"/></g><g transform="translate(0,14)"><path class="background" aria-hidden="true" d="M0,0h68.001953125v12h-68.001953125Z" pointer-events="none" opacity="1"/><g><g class="mark-symbol role-legend-symbol" pointer-events="none"><path transform="translate(6,6)" d="M-5,0L5,0" stroke="#750e13" stroke-width="1.5" opacity="0.6"/></g><g class="mark-text role-legend-label" pointer-events="none"><text text-anchor="start" transform="translate(16,10)" font-family="sans-serif" font-size="12px" fill="#000" opacity="1">Maximum</text></g></g><path class="foreground" aria-hidden="true" d="" pointer-events="none" display="none"/></g><g transform="translate(0,28)"><path class="background" aria-hidden="true" d="M0,0h68.001953125v12h-68.001953125Z" pointer-events="none" opacity="1"/><g><g class="mark-symbol role-legend-symbol" pointer-events="none"><path transform="translate(6,6)" d="M-5,0L5,0" stroke="#003a6d" stroke-width="1.5" opacity="0.6"/></g><g class="mark-text role-legend-label" pointer-events="none"><text text-anchor="start" transform="translate(16,10)" font-family="sans-serif" font-size="12px" fill="#000" opacity="1">Minimum</text></g></g><path class="foreground" aria-hidden="true" d="" pointer-events="none" display="none"/></g></g></g><path class="foreground" aria-hidden="true" d="" pointer-events="none" display="none"/></g></g><g class="mark-text role-legend-title" pointer-events="none"><text text-anchor="start" transform="translate(0,10)" font-family="sans-serif" font-size="13px" font-weight="bold" fill="#000" opacity="1">Temperature</text></g></g><path class="foreground" aria-hidden="true" d="" pointer-events="none" display="none"/></g></g></g><path class="foreground" aria-hidden="true" d="" display="none"/></g></g></g></svg>