<svg xmlns="http://www.w3.org/2000/svg" xmlns:xlink="http://www.w3.org/1999/xlink" version="1.1" class="marks" width="1004" height="508" viewBox="0 0 1004 508"><rect width="1004" height="508" fill="white"/><g fill="none" stroke-miterlimit="10" transform="translate(61,28)"><g class="mark-group role-frame root" role="graphics-object" aria-roledescription="group mark container"><g transform="translate(0,0)"><path class="background" aria-hidden="true" d="M0,0h800v0h-800Z"/><g><g class="mark-group role-scope concat_0_group" role="graphics-object" aria-roledescription="group mark container"><g transform="translate(0,0)"><path class="background" aria-hidden="true" d="M0.5,0.5h800v400h-800Z" stroke="#ddd"/><g><g class="mark-rect role-mark concat_0_marks" role="graphics-symbol" aria-roledescription="rect mark container"><path d="M0,0h66.66666666666667v15.384615384615385h-66.66666666666667Z" fill="rgb(7, 128, 211)" opacity="0.9"/><path d="M66.66666666666667,0h66.66666666666667v15.384615384615385h-66.66666666666667Z" fill="rgb(231, 245, 255)" opacity="0.9"/><path d="M133.33333333333334,0h66.66666666666667v15.384615384615385h-66.66666666666667Z" fill="rgb(179, 226, 254)" opacity="0.9"/><path d="M200,0h66.66666666666667v15.384615384615385h-66.66666666666667Z" fill="rgb(236, 244, 255)" opacity="0.9"/><path d="M266.6666666666667,0h66.66666666666667v15.384615384615385h-66.66666666666667Z" fill="rgb(137, 210, 255)" opacity="0.9"/><path d="M333.33333333333337,0h66.66666666666667v15.384615384615385h-66.66666666666667Z" fill="rgb(235, 244, 255)" opacity="0.9"/><path d="M400,0h66.66666666666667v15.384615384615385h-66.66666666666667Z" fill="rgb(211, 239, 254)" opacity="0.9"/><path d="M466.6666666666667,0h66.66666666666667v15.384615384615385h-66.66666666666667Z" fill="rgb(237, 244, 255)" opacity="0.9"/><path d="M533.3333333333334,0h66.66666666666667v15.384615384615385h-66.66666666666667Z" fill="rgb(201, 235, 254)" opacity="0.9"/><path d="M600,0h66.66666666666667v15.384615384615385h-66.66666666666667Z" fill="rgb(7, 127, 210)" opacity="0.9"/><path d="M666.6666666666667,0h66.66666666666667v15.384615384615385h-66.66666666666667Z" fill="rgb(222, 243, 255)" opacity="0.9"/><path d="M733.3333333333334,0h66.66666666666667v15.384615384615385h-66.66666666666667Z" fill="rgb(2, 119, 200)" opacity="0.9"/><path d="M0,15.384615384615385h66.66666666666667v15.384615384615385h-66.66666666666667Z" fill="rgb(110, 194, 250)" opacity="0.9"/><path d="M66.66666666666667,15.384615384615385h66.66666666666667v15.384615384615385h-66.66666666666667Z" fill="rgb(136, 209, 255)" opacity="0.9"/><path d="M133.33333333333334,15.384615384615385h66.66666666666667v15.384615384615385h-66.66666666666667Z" fill="rgb(139, 210, 255)" opacity="0.9"/><path d="M200,15.384615384615385h66.66666666666667v15.384615384615385h-66.66666666666667Z" fill="rgb(203, 236, 254)" opacity="0.9"/><path d="M266.6666666666667,15.384615384615385h66.66666666666667v15.384615384615385h-66.66666666666667Z" fill="rgb(255, 239, 239)" opacity="0.9"/><path d="M333.33333333333337,15.384615384615385h66.66666666666667v15.384615384615385h-66.66666666666667Z" fill="rgb(255, 240, 244)" opacity="0.9"/><path d="M400,15.384615384615385h66.66666666666667v15.384615384615385h-66.66666666666667Z" fill="rgb(255, 241, 242)" opacity="0.9"/><path d="M466.6666666666667,15.384615384615385h66.66666666666667v15.384615384615385h-66.66666666666667Z" fill="rgb(55, 161, 238)" opacity="0.9"/><path d="M533.3333333333334,15.384615384615385h66.66666666666667v15.384615384615385h-66.66666666666667Z" fill="rgb(251, 241, 251)" opacity="0.9"/><path d="M600,15.384615384615385h66.66666666666667v15.384615384615385h-66.66666666666667Z" fill="rgb(93, 183, 246)" opacity="0.9"/><path d="M666.6666666666667,15.384615384615385h66.66666666666667v15.384615384615385h-66.66666666666667Z" fill="rgb(255, 174, 176)" opacity="0.9"/><path d="M733.3333333333334,15.384615384615385h66.66666666666667v15.384615384615385h-66.66666666666667Z" fill="rgb(255, 237, 237)" opacity="0.9"/><path d="M0,30.76923076923077h66.66666666666667v15.384615384615385h-66.66666666666667Z" fill="rgb(255, 163, 165)" opacity="0.9"/><path d="M66.66666666666667,30.76923076923077h66.66666666666667v15.384615384615385h-66.66666666666667Z" fill="rgb(243, 242, 255)" opacity="0.9"/><path d="M133.33333333333334,30.76923076923077h66.66666666666667v15.384615384615385h-66.66666666666667Z" fill="rgb(254, 107, 113)" opacity="0.9"/><path d="M200,30.76923076923077h66.66666666666667v15.384615384615385h-66.66666666666667Z" fill="rgb(255, 236, 236)" opacity="0.9"/><path d="M266.6666666666667,30.76923076923077h66.66666666666667v15.384615384615385h-66.66666666666667Z" fill="rgb(255, 146, 150)" opacity="0.9"/><path d="M333.33333333333337,30.76923076923077h66.66666666666667v15.384615384615385h-66.66666666666667Z" fill="rgb(229, 246, 255)" opacity="0.9"/><path d="M400,30.76923076923077h66.66666666666667v15.384615384615385h-66.66666666666667Z" fill="rgb(255, 162, 164)" opacity="0.9"/><path d="M466.6666666666667,30.76923076923077h66.66666666666667v15.384615384615385h-66.66666666666667Z" fill="rgb(255, 241, 242)" opacity="0.9"/><path d="M533.3333333333334,30.76923076923077h66.66666666666667v15.384615384615385h-66.66666666666667Z" fill="rgb(255, 217, 218)" opacity="0.9"/><path d="M600,30.76923076923077h66.66666666666667v15.384615384615385h-66.66666666666667Z" fill="rgb(249, 241, 253)" opacity="0.9"/><path d="M666.6666666666667,30.76923076923077h66.66666666666667v15.384615384615385h-66.66666666666667Z" fill="rgb(169, 222, 254)" opacity="0.9"/><path d="M733.3333333333334,30.76923076923077h66.66666666666667v15.384615384615385h-66.66666666666667Z" fill="rgb(68, 168, 240)" opacity="0.9"/><path d="M0,46.15384615384615h66.66666666666667v15.384615384615385h-66.66666666666667Z" fill="rgb(255, 222, 222)" opacity="0.9"/><path d="M66.66666666666667,46.15384615384615h66.66666666666667v15.384615384615385h-66.66666666666667Z" fill="rgb(243, 242, 255)" opacity="0.9"/><path d="M133.33333333333334,46.15384615384615h66.66666666666667v15.384615384615385h-66.66666666666667Z" fill="rgb(240, 243, 255)" opacity="0.9"/><path d="M200,46.15384615384615h66.66666666666667v15.384615384615385h-66.66666666666667Z" fill="rgb(224, 244, 255)" opacity="0.9"/><path d="M266.6666666666667,46.15384615384615h66.66666666666667v15.384615384615385h-66.66666666666667Z" fill="rgb(234, 245, 255)" opacity="0.9"/><path d="M333.33333333333337,46.15384615384615h66.66666666666667v15.384615384615385h-66.66666666666667Z" fill="rgb(37, 152, 235)" opacity="0.9"/><path d="M400,46.15384615384615h66.66666666666667v15.384615384615385h-66.66666666666667Z" fill="rgb(173, 224, 254)" opacity="0.9"/><path d="M466.6666666666667,46.15384615384615h66.66666666666667v15.384615384615385h-66.66666666666667Z" fill="rgb(255, 235, 235)" opacity="0.9"/><path d="M533.3333333333334,46.15384615384615h66.66666666666667v15.384615384615385h-66.66666666666667Z" fill="rgb(254, 240, 246)" opacity="0.9"/><path d="M600,46.15384615384615h66.66666666666667v15.384615384615385h-66.66666666666667Z" fill="rgb(255, 241, 242)" opacity="0.9"/><path d="M666.6666666666667,46.15384615384615h66.66666666666667v15.384615384615385h-66.66666666666667Z" fill="rgb(99, 187, 248)" opacity="0.9"/><path d="M733.3333333333334,46.15384615384615h66.66666666666667v15.384615384615385h-66.66666666666667Z" fill="rgb(255, 134, 139)" opacity="0.9"/><path d="M0,61.53846153846154h66.66666666666667v15.384615384615385h-66.66666666666667Z" fill="rgb(224, 244, 255)" opacity="0.9"/><path d="M66.66666666666667,61.53846153846154h66.66666666666667v15.384615384615385h-66.66666666666667Z" fill="rgb(255, 230, 230)" opacity="0.9"/><path d="M133.33333333333334,61.53846153846154h66.66666666666667v15.384615384615385h-66.66666666666667Z" fill="rgb(221, 243, 255)" opacity="0.9"/><path d="M200,61.53846153846154h66.66666666666667v15.384615384615385h-66.66666666666667Z" fill="rgb(252, 241, 250)" opacity="0.9"/><path d="M266.6666666666667,61.53846153846154h66.66666666666667v15.384615384615385h-66.66666666666667Z" fill="rgb(47, 157, 236)" opacity="0.9"/><path d="M333.33333333333337,61.53846153846154h66.66666666666667v15.384615384615385h-66.66666666666667Z" fill="rgb(132, 208, 255)" opacity="0.9"/><path d="M400,61.53846153846154h66.66666666666667v15.384615384615385h-66.66666666666667Z" fill="rgb(0, 58, 109)" opacity="0.9"/><path d="M466.6666666666667,61.53846153846154h66.66666666666667v15.384615384615385h-66.66666666666667Z" fill="rgb(33, 151, 234)" opacity="0.9"/><path d="M533.3333333333334,61.53846153846154h66.66666666666667v15.384615384615385h-66.66666666666667Z" fill="rgb(252, 241, 250)" opacity="0.9"/><path d="M600,61.53846153846154h66.66666666666667v15.384615384615385h-66.66666666666667Z" fill="rgb(249, 241, 253)" opacity="0.9"/><path d="M666.6666666666667,61.53846153846154h66.66666666666667v15.384615384615385h-66.66666666666667Z" fill="rgb(246, 242, 255)" opacity="0.9"/><path d="M733.3333333333334,61.53846153846154h66.66666666666667v15.384615384615385h-66.66666666666667Z" fill="rgb(163, 220, 254)" opacity="0.9"/><path d="M0,76.92307692307692h66.66666666666667v15.384615384615385h-66.66666666666667Z" fill="rgb(255, 187, 188)" opacity="0.9"/><path d="M66.66666666666667,76.92307692307692h66.66666666666667v15.384615384615385h-66.66666666666667Z" fill="rgb(224, 244, 255)" opacity="0.9"/><path d="M133.33333333333334,76.92307692307692h66.66666666666667v15.384615384615385h-66.66666666666667Z" fill="rgb(255, 219, 219)" opacity="0.9"/><path d="M200,76.92307692307692h66.66666666666667v15.384615384615385h-66.66666666666667Z" fill="rgb(253, 240, 248)" opacity="0.9"/><path d="M266.6666666666667,76.92307692307692h66.66666666666667v15.384615384615385h-66.66666666666667Z" fill="rgb(248, 241, 254)" opacity="0.9"/><path d="M333.33333333333337,76.92307692307692h66.66666666666667v15.384615384615385h-66.66666666666667Z" fill="rgb(255, 234, 234)" opacity="0.9"/><path d="M400,76.92307692307692h66.66666666666667v15.384615384615385h-66.66666666666667Z" fill="rgb(248, 241, 253)" opacity="0.9"/><path d="M466.6666666666667,76.92307692307692h66.66666666666667v15.384615384615385h-66.66666666666667Z" fill="rgb(213, 240, 255)" opacity="0.9"/><path d="M533.3333333333334,76.92307692307692h66.66666666666667v15.384615384615385h-66.66666666666667Z" fill="rgb(255, 119, 126)" opacity="0.9"/><path d="M600,76.92307692307692h66.66666666666667v15.384615384615385h-66.66666666666667Z" fill="rgb(255, 120, 126)" opacity="0.9"/><path d="M666.6666666666667,76.92307692307692h66.66666666666667v15.384615384615385h-66.66666666666667Z" fill="rgb(255, 223, 223)" opacity="0.9"/><path d="M733.3333333333334,76.92307692307692h66.66666666666667v15.384615384615385h-66.66666666666667Z" fill="rgb(255, 123, 129)" opacity="0.9"/><path d="M0,92.3076923076923h66.66666666666667v15.384615384615385h-66.66666666666667Z" fill="rgb(168, 222, 254)" opacity="0.9"/><path d="M66.66666666666667,92.3076923076923h66.66666666666667v15.384615384615385h-66.66666666666667Z" fill="rgb(252, 241, 250)" opacity="0.9"/><path d="M133.33333333333334,92.3076923076923h66.66666666666667v15.384615384615385h-66.66666666666667Z" fill="rgb(234, 245, 255)" opacity="0.9"/><path d="M200,92.3076923076923h66.66666666666667v15.384615384615385h-66.66666666666667Z" fill="rgb(193, 232, 254)" opacity="0.9"/><path d="M266.6666666666667,92.3076923076923h66.66666666666667v15.384615384615385h-66.66666666666667Z" fill="rgb(192, 231, 254)" opacity="0.9"/><path d="M333.33333333333337,92.3076923076923h66.66666666666667v15.384615384615385h-66.66666666666667Z" fill="rgb(255, 209, 209)" opacity="0.9"/><path d="M400,92.3076923076923h66.66666666666667v15.384615384615385h-66.66666666666667Z" fill="rgb(116, 198, 252)" opacity="0.9"/><path d="M466.6666666666667,92.3076923076923h66.66666666666667v15.384615384615385h-66.66666666666667Z" fill="rgb(255, 131, 137)" opacity="0.9"/><path d="M533.3333333333334,92.3076923076923h66.66666666666667v15.384615384615385h-66.66666666666667Z" fill="rgb(237, 244, 255)" opacity="0.9"/><path d="M600,92.3076923076923h66.66666666666667v15.384615384615385h-66.66666666666667Z" fill="rgb(232, 245, 255)" opacity="0.9"/><path d="M666.6666666666667,92.3076923076923h66.66666666666667v15.384615384615385h-66.66666666666667Z" fill="rgb(254, 240, 247)" opacity="0.9"/><path d="M733.3333333333334,92.3076923076923h66.66666666666667v15.384615384615385h-66.66666666666667Z" fill="rgb(255, 229, 229)" opacity="0.9"/><path d="M0,107.6923076923077h66.66666666666667v15.384615384615385h-66.66666666666667Z" fill="rgb(239, 62, 70)" opacity="0.9"/><path d="M66.66666666666667,107.6923076923077h66.66666666666667v15.384615384615385h-66.66666666666667Z" fill="rgb(160, 218, 254)" opacity="0.9"/><path d="M133.33333333333334,107.6923076923077h66.66666666666667v15.384615384615385h-66.66666666666667Z" fill="rgb(223, 244, 255)" opacity="0.9"/><path d="M200,107.6923076923077h66.66666666666667v15.384615384615385h-66.66666666666667Z" fill="rgb(255, 218, 218)" opacity="0.9"/><path d="M266.6666666666667,107.6923076923077h66.66666666666667v15.384615384615385h-66.66666666666667Z" fill="rgb(254, 112, 119)" opacity="0.9"/><path d="M333.33333333333337,107.6923076923077h66.66666666666667v15.384615384615385h-66.66666666666667Z" fill="rgb(255, 132, 138)" opacity="0.9"/><path d="M400,107.6923076923077h66.66666666666667v15.384615384615385h-66.66666666666667Z" fill="rgb(255, 159, 162)" opacity="0.9"/><path d="M466.6666666666667,107.6923076923077h66.66666666666667v15.384615384615385h-66.66666666666667Z" fill="rgb(254, 240, 247)" opacity="0.9"/><path d="M533.3333333333334,107.6923076923077h66.66666666666667v15.384615384615385h-66.66666666666667Z" fill="rgb(245, 242, 255)" opacity="0.9"/><path d="M600,107.6923076923077h66.66666666666667v15.384615384615385h-66.66666666666667Z" fill="rgb(253, 240, 249)" opacity="0.9"/><path d="M666.6666666666667,107.6923076923077h66.66666666666667v15.384615384615385h-66.66666666666667Z" fill="rgb(255, 241, 242)" opacity="0.9"/><path d="M733.3333333333334,107.6923076923077h66.66666666666667v15.384615384615385h-66.66666666666667Z" fill="rgb(232, 245, 255)" opacity="0.9"/><path d="M0,123.07692307692308h66.66666666666667v15.384615384615385h-66.66666666666667Z" fill="rgb(60, 163, 239)" opacity="0.9"/><path d="M66.66666666666667,123.07692307692308h66.66666666666667v15.384615384615385h-66.66666666666667Z" fill="rgb(96, 185, 247)" opacity="0.9"/><path d="M133.33333333333334,123.07692307692308h66.66666666666667v15.384615384615385h-66.66666666666667Z" fill="rgb(255, 150, 154)" opacity="0.9"/><path d="M200,123.07692307692308h66.66666666666667v15.384615384615385h-66.66666666666667Z" fill="rgb(255, 217, 217)" opacity="0.9"/><path d="M266.6666666666667,123.07692307692308h66.66666666666667v15.384615384615385h-66.66666666666667Z" fill="rgb(245, 242, 255)" opacity="0.9"/><path d="M333.33333333333337,123.07692307692308h66.66666666666667v15.384615384615385h-66.66666666666667Z" fill="rgb(89, 181, 245)" opacity="0.9"/><path d="M400,123.07692307692308h66.66666666666667v15.384615384615385h-66.66666666666667Z" fill="rgb(255, 240, 240)" opacity="0.9"/><path d="M466.6666666666667,123.07692307692308h66.66666666666667v15.384615384615385h-66.66666666666667Z" fill="rgb(132, 208, 255)" opacity="0.9"/><path d="M533.3333333333334,123.07692307692308h66.66666666666667v15.384615384615385h-66.66666666666667Z" fill="rgb(255, 210, 211)" opacity="0.9"/><path d="M600,123.07692307692308h66.66666666666667v15.384615384615385h-66.66666666666667Z" fill="rgb(248, 241, 254)" opacity="0.9"/><path d="M666.6666666666667,123.07692307692308h66.66666666666667v15.384615384615385h-66.66666666666667Z" fill="rgb(246, 242, 255)" opacity="0.9"/><path d="M733.3333333333334,123.07692307692308h66.66666666666667v15.384615384615385h-66.66666666666667Z" fill="rgb(225, 245, 255)" opacity="0.9"/><path d="M0,138.46153846153845h66.66666666666667v15.384615384615385h-66.66666666666667Z" fill="rgb(255, 226, 226)" opacity="0.9"/><path d="M66.66666666666667,138.46153846153845h66.66666666666667v15.384615384615385h-66.66666666666667Z" fill="rgb(132, 208, 255)" opacity="0.9"/><path d="M133.33333333333334,138.46153846153845h66.66666666666667v15.384615384615385h-66.66666666666667Z" fill="rgb(219, 242, 255)" opacity="0.9"/><path d="M200,138.46153846153845h66.66666666666667v15.384615384615385h-66.66666666666667Z" fill="rgb(198, 234, 254)" opacity="0.9"/><path d="M266.6666666666667,138.46153846153845h66.66666666666667v15.384615384615385h-66.66666666666667Z" fill="rgb(255, 150, 154)" opacity="0.9"/><path d="M333.33333333333337,138.46153846153845h66.66666666666667v15.384615384615385h-66.66666666666667Z" fill="rgb(255, 240, 246)" opacity="0.9"/><path d="M400,138.46153846153845h66.66666666666667v15.384615384615385h-66.66666666666667Z" fill="rgb(254, 117, 123)" opacity="0.9"/><path d="M466.6666666666667,138.46153846153845h66.66666666666667v15.384615384615385h-66.66666666666667Z" fill="rgb(211, 239, 254)" opacity="0.9"/><path d="M533.3333333333334,138.46153846153845h66.66666666666667v15.384615384615385h-66.66666666666667Z" fill="rgb(255, 233, 233)" opacity="0.9"/><path d="M600,138.46153846153845h66.66666666666667v15.384615384615385h-66.66666666666667Z" fill="rgb(227, 245, 255)" opacity="0.9"/><path d="M666.6666666666667,138.46153846153845h66.66666666666667v15.384615384615385h-66.66666666666667Z" fill="rgb(255, 237, 237)" opacity="0.9"/><path d="M733.3333333333334,138.46153846153845h66.66666666666667v15.384615384615385h-66.66666666666667Z" fill="rgb(153, 216, 254)" opacity="0.9"/><path d="M0,153.84615384615384h66.66666666666667v15.384615384615385h-66.66666666666667Z" fill="rgb(255, 231, 232)" opacity="0.9"/><path d="M66.66666666666667,153.84615384615384h66.66666666666667v15.384615384615385h-66.66666666666667Z" fill="rgb(255, 229, 229)" opacity="0.9"/><path d="M133.33333333333334,153.84615384615384h66.66666666666667v15.384615384615385h-66.66666666666667Z" fill="rgb(255, 158, 161)" opacity="0.9"/><path d="M200,153.84615384615384h66.66666666666667v15.384615384615385h-66.66666666666667Z" fill="rgb(228, 245, 255)" opacity="0.9"/><path d="M266.6666666666667,153.84615384615384h66.66666666666667v15.384615384615385h-66.66666666666667Z" fill="rgb(255, 158, 161)" opacity="0.9"/><path d="M333.33333333333337,153.84615384615384h66.66666666666667v15.384615384615385h-66.66666666666667Z" fill="rgb(187, 229, 254)" opacity="0.9"/><path d="M400,153.84615384615384h66.66666666666667v15.384615384615385h-66.66666666666667Z" fill="rgb(216, 241, 255)" opacity="0.9"/><path d="M466.6666666666667,153.84615384615384h66.66666666666667v15.384615384615385h-66.66666666666667Z" fill="rgb(253, 240, 248)" opacity="0.9"/><path d="M533.3333333333334,153.84615384615384h66.66666666666667v15.384615384615385h-66.66666666666667Z" fill="rgb(246, 242, 255)" opacity="0.9"/><path d="M600,153.84615384615384h66.66666666666667v15.384615384615385h-66.66666666666667Z" fill="rgb(255, 208, 209)" opacity="0.9"/><path d="M666.6666666666667,153.84615384615384h66.66666666666667v15.384615384615385h-66.66666666666667Z" fill="rgb(255, 196, 197)" opacity="0.9"/><path d="M733.3333333333334,153.84615384615384h66.66666666666667v15.384615384615385h-66.66666666666667Z" fill="rgb(242, 243, 255)" opacity="0.9"/><path d="M0,169.23076923076923h66.66666666666667v15.384615384615385h-66.66666666666667Z" fill="rgb(251, 241, 252)" opacity="0.9"/><path d="M66.66666666666667,169.23076923076923h66.66666666666667v15.384615384615385h-66.66666666666667Z" fill="rgb(193, 232, 254)" opacity="0.9"/><path d="M133.33333333333334,169.23076923076923h66.66666666666667v15.384615384615385h-66.66666666666667Z" fill="rgb(194, 232, 254)" opacity="0.9"/><path d="M200,169.23076923076923h66.66666666666667v15.384615384615385h-66.66666666666667Z" fill="rgb(252, 241, 250)" opacity="0.9"/><path d="M266.6666666666667,169.23076923076923h66.66666666666667v15.384615384615385h-66.66666666666667Z" fill="rgb(167, 221, 254)" opacity="0.9"/><path d="M333.33333333333337,169.23076923076923h66.66666666666667v15.384615384615385h-66.66666666666667Z" fill="rgb(236, 244, 255)" opacity="0.9"/><path d="M400,169.23076923076923h66.66666666666667v15.384615384615385h-66.66666666666667Z" fill="rgb(250, 77, 86)" opacity="0.9"/><path d="M466.6666666666667,169.23076923076923h66.66666666666667v15.384615384615385h-66.66666666666667Z" fill="rgb(252, 94, 101)" opacity="0.9"/><path d="M533.3333333333334,169.23076923076923h66.66666666666667v15.384615384615385h-66.66666666666667Z" fill="rgb(253, 240, 249)" opacity="0.9"/><path d="M600,169.23076923076923h66.66666666666667v15.384615384615385h-66.66666666666667Z" fill="rgb(255, 200, 200)" opacity="0.9"/><path d="M666.6666666666667,169.23076923076923h66.66666666666667v15.384615384615385h-66.66666666666667Z" fill="rgb(255, 241, 241)" opacity="0.9"/><path d="M733.3333333333334,169.23076923076923h66.66666666666667v15.384615384615385h-66.66666666666667Z" fill="rgb(254, 240, 247)" opacity="0.9"/><path d="M0,184.6153846153846h66.66666666666667v15.384615384615385h-66.66666666666667Z" fill="rgb(118, 199, 252)" opacity="0.9"/><path d="M66.66666666666667,184.6153846153846h66.66666666666667v15.384615384615385h-66.66666666666667Z" fill="rgb(217, 241, 255)" opacity="0.9"/><path d="M133.33333333333334,184.6153846153846h66.66666666666667v15.384615384615385h-66.66666666666667Z" fill="rgb(244, 242, 255)" opacity="0.9"/><path d="M200,184.6153846153846h66.66666666666667v15.384615384615385h-66.66666666666667Z" fill="rgb(248, 241, 254)" opacity="0.9"/><path d="M266.6666666666667,184.6153846153846h66.66666666666667v15.384615384615385h-66.66666666666667Z" fill="rgb(255, 187, 188)" opacity="0.9"/><path d="M333.33333333333337,184.6153846153846h66.66666666666667v15.384615384615385h-66.66666666666667Z" fill="rgb(255, 235, 235)" opacity="0.9"/><path d="M400,184.6153846153846h66.66666666666667v15.384615384615385h-66.66666666666667Z" fill="rgb(222, 243, 255)" opacity="0.9"/><path d="M466.6666666666667,184.6153846153846h66.66666666666667v15.384615384615385h-66.66666666666667Z" fill="rgb(217, 241, 255)" opacity="0.9"/><path d="M533.3333333333334,184.6153846153846h66.66666666666667v15.384615384615385h-66.66666666666667Z" fill="rgb(250, 241, 252)" opacity="0.9"/><path d="M600,184.6153846153846h66.66666666666667v15.384615384615385h-66.66666666666667Z" fill="rgb(255, 193, 194)" opacity="0.9"/><path d="M666.6666666666667,184.6153846153846h66.66666666666667v15.384615384615385h-66.66666666666667Z" fill="rgb(255, 239, 239)" opacity="0.9"/><path d="M733.3333333333334,184.6153846153846h66.66666666666667v15.384615384615385h-66.66666666666667Z" fill="rgb(201, 235, 254)" opacity="0.9"/><path d="M0,200h66.66666666666667v15.384615384615385h-66.66666666666667Z" fill="rgb(255, 214, 214)" opacity="0.9"/><path d="M66.66666666666667,200h66.66666666666667v15.384615384615385h-66.66666666666667Z" fill="rgb(160, 219, 254)" opacity="0.9"/><path d="M133.33333333333334,200h66.66666666666667v15.384615384615385h-66.66666666666667Z" fill="rgb(225, 244, 255)" opacity="0.9"/><path d="M200,200h66.66666666666667v15.384615384615385h-66.66666666666667Z" fill="rgb(203, 236, 254)" opacity="0.9"/><path d="M266.6666666666667,200h66.66666666666667v15.384615384615385h-66.66666666666667Z" fill="rgb(146, 213, 255)" opacity="0.9"/><path d="M333.33333333333337,200h66.66666666666667v15.384615384615385h-66.66666666666667Z" fill="rgb(255, 123, 129)" opacity="0.9"/><path d="M400,200h66.66666666666667v15.384615384615385h-66.66666666666667Z" fill="rgb(239, 243, 255)" opacity="0.9"/><path d="M466.6666666666667,200h66.66666666666667v15.384615384615385h-66.66666666666667Z" fill="rgb(254, 114, 120)" opacity="0.9"/><path d="M533.3333333333334,200h66.66666666666667v15.384615384615385h-66.66666666666667Z" fill="rgb(238, 61, 69)" opacity="0.9"/><path d="M600,200h66.66666666666667v15.384615384615385h-66.66666666666667Z" fill="rgb(255, 241, 242)" opacity="0.9"/><path d="M666.6666666666667,200h66.66666666666667v15.384615384615385h-66.66666666666667Z" fill="rgb(255, 133, 138)" opacity="0.9"/><path d="M733.3333333333334,200h66.66666666666667v15.384615384615385h-66.66666666666667Z" fill="rgb(255, 241, 242)" opacity="0.9"/><path d="M0,215.3846153846154h66.66666666666667v15.384615384615385h-66.66666666666667Z" fill="rgb(252, 241, 251)" opacity="0.9"/><path d="M66.66666666666667,215.3846153846154h66.66666666666667v15.384615384615385h-66.66666666666667Z" fill="rgb(16, 145, 231)" opacity="0.9"/><path d="M133.33333333333334,215.3846153846154h66.66666666666667v15.384615384615385h-66.66666666666667Z" fill="rgb(213, 240, 254)" opacity="0.9"/><path d="M200,215.3846153846154h66.66666666666667v15.384615384615385h-66.66666666666667Z" fill="rgb(255, 217, 217)" opacity="0.9"/><path d="M266.6666666666667,215.3846153846154h66.66666666666667v15.384615384615385h-66.66666666666667Z" fill="rgb(255, 123, 129)" opacity="0.9"/><path d="M333.33333333333337,215.3846153846154h66.66666666666667v15.384615384615385h-66.66666666666667Z" fill="rgb(252, 241, 250)" opacity="0.9"/><path d="M400,215.3846153846154h66.66666666666667v15.384615384615385h-66.66666666666667Z" fill="rgb(173, 224, 254)" opacity="0.9"/><path d="M466.6666666666667,215.3846153846154h66.66666666666667v15.384615384615385h-66.66666666666667Z" fill="rgb(255, 181, 183)" opacity="0.9"/><path d="M533.3333333333334,215.3846153846154h66.66666666666667v15.384615384615385h-66.66666666666667Z" fill="rgb(255, 123, 129)" opacity="0.9"/><path d="M600,215.3846153846154h66.66666666666667v15.384615384615385h-66.66666666666667Z" fill="rgb(254, 240, 248)" opacity="0.9"/><path d="M666.6666666666667,215.3846153846154h66.66666666666667v15.384615384615385h-66.66666666666667Z" fill="rgb(160, 219, 254)" opacity="0.9"/><path d="M733.3333333333334,215.3846153846154h66.66666666666667v15.384615384615385h-66.66666666666667Z" fill="rgb(249, 241, 253)" opacity="0.9"/><path d="M0,230.76923076923077h66.66666666666667v15.384615384615385h-66.66666666666667Z" fill="rgb(255, 240, 246)" opacity="0.9"/><path d="M66.66666666666667,230.76923076923077h66.66666666666667v15.384615384615385h-66.66666666666667Z" fill="rgb(255, 224, 224)" opacity="0.9"/><path d="M133.33333333333334,230.76923076923077h66.66666666666667v15.384615384615385h-66.66666666666667Z" fill="rgb(255, 189, 190)" opacity="0.9"/><path d="M200,230.76923076923077h66.66666666666667v15.384615384615385h-66.66666666666667Z" fill="rgb(251, 241, 251)" opacity="0.9"/><path d="M266.6666666666667,230.76923076923077h66.66666666666667v15.384615384615385h-66.66666666666667Z" fill="rgb(253, 240, 249)" opacity="0.9"/><path d="M333.33333333333337,230.76923076923077h66.66666666666667v15.384615384615385h-66.66666666666667Z" fill="rgb(248, 241, 254)" opacity="0.9"/><path d="M400,230.76923076923077h66.66666666666667v15.384615384615385h-66.66666666666667Z" fill="rgb(160, 218, 254)" opacity="0.9"/><path d="M466.6666666666667,230.76923076923077h66.66666666666667v15.384615384615385h-66.66666666666667Z" fill="rgb(219, 242, 255)" opacity="0.9"/><path d="M533.3333333333334,230.76923076923077h66.66666666666667v15.384615384615385h-66.66666666666667Z" fill="rgb(231, 245, 255)" opacity="0.9"/><path d="M600,230.76923076923077h66.66666666666667v15.384615384615385h-66.66666666666667Z" fill="rgb(253, 97, 104)" opacity="0.9"/><path d="M666.6666666666667,230.76923076923077h66.66666666666667v15.384615384615385h-66.66666666666667Z" fill="rgb(255, 168, 170)" opacity="0.9"/><path d="M733.3333333333334,230.76923076923077h66.66666666666667v15.384615384615385h-66.66666666666667Z" fill="rgb(254, 118, 124)" opacity="0.9"/><path d="M0,246.15384615384616h66.66666666666667v15.384615384615385h-66.66666666666667Z" fill="rgb(255, 176, 178)" opacity="0.9"/><path d="M66.66666666666667,246.15384615384616h66.66666666666667v15.384615384615385h-66.66666666666667Z" fill="rgb(254, 108, 115)" opacity="0.9"/><path d="M133.33333333333334,246.15384615384616h66.66666666666667v15.384615384615385h-66.66666666666667Z" fill="rgb(254, 114, 120)" opacity="0.9"/><path d="M200,246.15384615384616h66.66666666666667v15.384615384615385h-66.66666666666667Z" fill="rgb(252, 91, 99)" opacity="0.9"/><path d="M266.6666666666667,246.15384615384616h66.66666666666667v15.384615384615385h-66.66666666666667Z" fill="rgb(254, 114, 120)" opacity="0.9"/><path d="M333.33333333333337,246.15384615384616h66.66666666666667v15.384615384615385h-66.66666666666667Z" fill="rgb(233, 245, 255)" opacity="0.9"/><path d="M400,246.15384615384616h66.66666666666667v15.384615384615385h-66.66666666666667Z" fill="rgb(243, 242, 255)" opacity="0.9"/><path d="M466.6666666666667,246.15384615384616h66.66666666666667v15.384615384615385h-66.66666666666667Z" fill="rgb(251, 84, 92)" opacity="0.9"/><path d="M533.3333333333334,246.15384615384616h66.66666666666667v15.384615384615385h-66.66666666666667Z" fill="rgb(255, 238, 238)" opacity="0.9"/><path d="M600,246.15384615384616h66.66666666666667v15.384615384615385h-66.66666666666667Z" fill="rgb(255, 200, 201)" opacity="0.9"/><path d="M666.6666666666667,246.15384615384616h66.66666666666667v15.384615384615385h-66.66666666666667Z" fill="rgb(255, 132, 138)" opacity="0.9"/><path d="M733.3333333333334,246.15384615384616h66.66666666666667v15.384615384615385h-66.66666666666667Z" fill="rgb(255, 188, 189)" opacity="0.9"/><path d="M0,261.53846153846155h66.66666666666667v15.384615384615385h-66.66666666666667Z" fill="rgb(255, 154, 157)" opacity="0.9"/><path d="M66.66666666666667,261.53846153846155h66.66666666666667v15.384615384615385h-66.66666666666667Z" fill="rgb(253, 98, 104)" opacity="0.9"/><path d="M133.33333333333334,261.53846153846155h66.66666666666667v15.384615384615385h-66.66666666666667Z" fill="rgb(252, 95, 102)" opacity="0.9"/><path d="M200,261.53846153846155h66.66666666666667v15.384615384615385h-66.66666666666667Z" fill="rgb(255, 226, 226)" opacity="0.9"/><path d="M266.6666666666667,261.53846153846155h66.66666666666667v15.384615384615385h-66.66666666666667Z" fill="rgb(255, 130, 136)" opacity="0.9"/><path d="M333.33333333333337,261.53846153846155h66.66666666666667v15.384615384615385h-66.66666666666667Z" fill="rgb(187, 229, 254)" opacity="0.9"/><path d="M400,261.53846153846155h66.66666666666667v15.384615384615385h-66.66666666666667Z" fill="rgb(250, 241, 252)" opacity="0.9"/><path d="M466.6666666666667,261.53846153846155h66.66666666666667v15.384615384615385h-66.66666666666667Z" fill="rgb(255, 240, 244)" opacity="0.9"/><path d="M533.3333333333334,261.53846153846155h66.66666666666667v15.384615384615385h-66.66666666666667Z" fill="rgb(253, 240, 249)" opacity="0.9"/><path d="M600,261.53846153846155h66.66666666666667v15.384615384615385h-66.66666666666667Z" fill="rgb(253, 97, 104)" opacity="0.9"/><path d="M666.6666666666667,261.53846153846155h66.66666666666667v15.384615384615385h-66.66666666666667Z" fill="rgb(255, 224, 225)" opacity="0.9"/><path d="M733.3333333333334,261.53846153846155h66.66666666666667v15.384615384615385h-66.66666666666667Z" fill="rgb(255, 155, 158)" opacity="0.9"/><path d="M0,276.9230769230769h66.66666666666667v15.384615384615385h-66.66666666666667Z" fill="rgb(255, 208, 209)" opacity="0.9"/><path d="M66.66666666666667,276.9230769230769h66.66666666666667v15.384615384615385h-66.66666666666667Z" fill="rgb(255, 229, 230)" opacity="0.9"/><path d="M133.33333333333334,276.9230769230769h66.66666666666667v15.384615384615385h-66.66666666666667Z" fill="rgb(255, 180, 182)" opacity="0.9"/><path d="M200,276.9230769230769h66.66666666666667v15.384615384615385h-66.66666666666667Z" fill="rgb(255, 186, 187)" opacity="0.9"/><path d="M266.6666666666667,276.9230769230769h66.66666666666667v15.384615384615385h-66.66666666666667Z" fill="rgb(255, 125, 131)" opacity="0.9"/><path d="M333.33333333333337,276.9230769230769h66.66666666666667v15.384615384615385h-66.66666666666667Z" fill="rgb(253, 103, 110)" opacity="0.9"/><path d="M400,276.9230769230769h66.66666666666667v15.384615384615385h-66.66666666666667Z" fill="rgb(255, 190, 191)" opacity="0.9"/><path d="M466.6666666666667,276.9230769230769h66.66666666666667v15.384615384615385h-66.66666666666667Z" fill="rgb(255, 130, 136)" opacity="0.9"/><path d="M533.3333333333334,276.9230769230769h66.66666666666667v15.384615384615385h-66.66666666666667Z" fill="rgb(229, 246, 255)" opacity="0.9"/><path d="M600,276.9230769230769h66.66666666666667v15.384615384615385h-66.66666666666667Z" fill="rgb(254, 105, 112)" opacity="0.9"/><path d="M666.6666666666667,276.9230769230769h66.66666666666667v15.384615384615385h-66.66666666666667Z" fill="rgb(244, 242, 255)" opacity="0.9"/><path d="M733.3333333333334,276.9230769230769h66.66666666666667v15.384615384615385h-66.66666666666667Z" fill="rgb(253, 99, 106)" opacity="0.9"/><path d="M0,292.3076923076923h66.66666666666667v15.384615384615385h-66.66666666666667Z" fill="rgb(255, 201, 202)" opacity="0.9"/><path d="M66.66666666666667,292.3076923076923h66.66666666666667v15.384615384615385h-66.66666666666667Z" fill="rgb(255, 122, 128)" opacity="0.9"/><path d="M133.33333333333334,292.3076923076923h66.66666666666667v15.384615384615385h-66.66666666666667Z" fill="rgb(249, 76, 85)" opacity="0.9"/><path d="M200,292.3076923076923h66.66666666666667v15.384615384615385h-66.66666666666667Z" fill="rgb(255, 157, 160)" opacity="0.9"/><path d="M266.6666666666667,292.3076923076923h66.66666666666667v15.384615384615385h-66.66666666666667Z" fill="rgb(255, 202, 203)" opacity="0.9"/><path d="M333.33333333333337,292.3076923076923h66.66666666666667v15.384615384615385h-66.66666666666667Z" fill="rgb(251, 241, 251)" opacity="0.9"/><path d="M400,292.3076923076923h66.66666666666667v15.384615384615385h-66.66666666666667Z" fill="rgb(255, 121, 127)" opacity="0.9"/><path d="M466.6666666666667,292.3076923076923h66.66666666666667v15.384615384615385h-66.66666666666667Z" fill="rgb(255, 184, 186)" opacity="0.9"/><path d="M533.3333333333334,292.3076923076923h66.66666666666667v15.384615384615385h-66.66666666666667Z" fill="rgb(255, 179, 180)" opacity="0.9"/><path d="M600,292.3076923076923h66.66666666666667v15.384615384615385h-66.66666666666667Z" fill="rgb(254, 107, 114)" opacity="0.9"/><path d="M666.6666666666667,292.3076923076923h66.66666666666667v15.384615384615385h-66.66666666666667Z" fill="rgb(255, 153, 156)" opacity="0.9"/><path d="M733.3333333333334,292.3076923076923h66.66666666666667v15.384615384615385h-66.66666666666667Z" fill="rgb(251, 84, 92)" opacity="0.9"/><path d="M0,307.6923076923077h66.66666666666667v15.384615384615385h-66.66666666666667Z" fill="rgb(251, 81, 90)" opacity="0.9"/><path d="M66.66666666666667,307.6923076923077h66.66666666666667v15.384615384615385h-66.66666666666667Z" fill="rgb(251, 85, 93)" opacity="0.9"/><path d="M133.33333333333334,307.6923076923077h66.66666666666667v15.384615384615385h-66.66666666666667Z" fill="rgb(255, 147, 151)" opacity="0.9"/><path d="M200,307.6923076923077h66.66666666666667v15.384615384615385h-66.66666666666667Z" fill="rgb(240, 63, 71)" opacity="0.9"/><path d="M266.6666666666667,307.6923076923077h66.66666666666667v15.384615384615385h-66.66666666666667Z" fill="rgb(252, 95, 102)" opacity="0.9"/><path d="M333.33333333333337,307.6923076923077h66.66666666666667v15.384615384615385h-66.66666666666667Z" fill="rgb(254, 109, 115)" opacity="0.9"/><path d="M400,307.6923076923077h66.66666666666667v15.384615384615385h-66.66666666666667Z" fill="rgb(255, 126, 132)" opacity="0.9"/><path d="M466.6666666666667,307.6923076923077h66.66666666666667v15.384615384615385h-66.66666666666667Z" fill="rgb(250, 241, 252)" opacity="0.9"/><path d="M533.3333333333334,307.6923076923077h66.66666666666667v15.384615384615385h-66.66666666666667Z" fill="rgb(254, 108, 114)" opacity="0.9"/><path d="M600,307.6923076923077h66.66666666666667v15.384615384615385h-66.66666666666667Z" fill="rgb(255, 221, 221)" opacity="0.9"/><path d="M666.6666666666667,307.6923076923077h66.66666666666667v15.384615384615385h-66.66666666666667Z" fill="rgb(232, 52, 60)" opacity="0.9"/><path d="M733.3333333333334,307.6923076923077h66.66666666666667v15.384615384615385h-66.66666666666667Z" fill="rgb(255, 167, 169)" opacity="0.9"/><path d="M0,323.0769230769231h66.66666666666667v15.384615384615385h-66.66666666666667Z" fill="rgb(249, 241, 253)" opacity="0.9"/><path d="M66.66666666666667,323.0769230769231h66.66666666666667v15.384615384615385h-66.66666666666667Z" fill="rgb(104, 190, 249)" opacity="0.9"/><path d="M133.33333333333334,323.0769230769231h66.66666666666667v15.384615384615385h-66.66666666666667Z" fill="rgb(255, 147, 151)" opacity="0.9"/><path d="M200,323.0769230769231h66.66666666666667v15.384615384615385h-66.66666666666667Z" fill="rgb(238, 244, 255)" opacity="0.9"/><path d="M266.6666666666667,323.0769230769231h66.66666666666667v15.384615384615385h-66.66666666666667Z" fill="rgb(255, 200, 201)" opacity="0.9"/><path d="M333.33333333333337,323.0769230769231h66.66666666666667v15.384615384615385h-66.66666666666667Z" fill="rgb(230, 246, 255)" opacity="0.9"/><path d="M400,323.0769230769231h66.66666666666667v15.384615384615385h-66.66666666666667Z" fill="rgb(255, 129, 135)" opacity="0.9"/><path d="M466.6666666666667,323.0769230769231h66.66666666666667v15.384615384615385h-66.66666666666667Z" fill="rgb(254, 240, 247)" opacity="0.9"/><path d="M533.3333333333334,323.0769230769231h66.66666666666667v15.384615384615385h-66.66666666666667Z" fill="rgb(255, 184, 185)" opacity="0.9"/><path d="M600,323.0769230769231h66.66666666666667v15.384615384615385h-66.66666666666667Z" fill="rgb(255, 162, 164)" opacity="0.9"/><path d="M666.6666666666667,323.0769230769231h66.66666666666667v15.384615384615385h-66.66666666666667Z" fill="rgb(255, 196, 196)" opacity="0.9"/><path d="M733.3333333333334,323.0769230769231h66.66666666666667v15.384615384615385h-66.66666666666667Z" fill="rgb(255, 124, 130)" opacity="0.9"/><path d="M0,338.46153846153845h66.66666666666667v15.384615384615385h-66.66666666666667Z" fill="rgb(255, 136, 141)" opacity="0.9"/><path d="M66.66666666666667,338.46153846153845h66.66666666666667v15.384615384615385h-66.66666666666667Z" fill="rgb(255, 156, 159)" opacity="0.9"/><path d="M133.33333333333334,338.46153846153845h66.66666666666667v15.384615384615385h-66.66666666666667Z" fill="rgb(255, 149, 153)" opacity="0.9"/><path d="M200,338.46153846153845h66.66666666666667v15.384615384615385h-66.66666666666667Z" fill="rgb(255, 206, 207)" opacity="0.9"/><path d="M266.6666666666667,338.46153846153845h66.66666666666667v15.384615384615385h-66.66666666666667Z" fill="rgb(255, 177, 178)" opacity="0.9"/><path d="M333.33333333333337,338.46153846153845h66.66666666666667v15.384615384615385h-66.66666666666667Z" fill="rgb(251, 87, 95)" opacity="0.9"/><path d="M400,338.46153846153845h66.66666666666667v15.384615384615385h-66.66666666666667Z" fill="rgb(255, 120, 126)" opacity="0.9"/><path d="M466.6666666666667,338.46153846153845h66.66666666666667v15.384615384615385h-66.66666666666667Z" fill="rgb(255, 129, 135)" opacity="0.9"/><path d="M533.3333333333334,338.46153846153845h66.66666666666667v15.384615384615385h-66.66666666666667Z" fill="rgb(255, 188, 189)" opacity="0.9"/><path d="M600,338.46153846153845h66.66666666666667v15.384615384615385h-66.66666666666667Z" fill="rgb(255, 119, 125)" opacity="0.9"/><path d="M666.6666666666667,338.46153846153845h66.66666666666667v15.384615384615385h-66.66666666666667Z" fill="rgb(157, 217, 254)" opacity="0.9"/><path d="M733.3333333333334,338.46153846153845h66.66666666666667v15.384615384615385h-66.66666666666667Z" fill="rgb(255, 231, 231)" opacity="0.9"/><path d="M0,353.84615384615387h66.66666666666667v15.384615384615385h-66.66666666666667Z" fill="rgb(231, 245, 255)" opacity="0.9"/><path d="M66.66666666666667,353.84615384615387h66.66666666666667v15.384615384615385h-66.66666666666667Z" fill="rgb(255, 185, 186)" opacity="0.9"/><path d="M133.33333333333334,353.84615384615387h66.66666666666667v15.384615384615385h-66.66666666666667Z" fill="rgb(250, 77, 86)" opacity="0.9"/><path d="M200,353.84615384615387h66.66666666666667v15.384615384615385h-66.66666666666667Z" fill="rgb(255, 119, 125)" opacity="0.9"/><path d="M266.6666666666667,353.84615384615387h66.66666666666667v15.384615384615385h-66.66666666666667Z" fill="rgb(254, 240, 248)" opacity="0.9"/><path d="M333.33333333333337,353.84615384615387h66.66666666666667v15.384615384615385h-66.66666666666667Z" fill="rgb(255, 120, 126)" opacity="0.9"/><path d="M400,353.84615384615387h66.66666666666667v15.384615384615385h-66.66666666666667Z" fill="rgb(253, 104, 110)" opacity="0.9"/><path d="M466.6666666666667,353.84615384615387h66.66666666666667v15.384615384615385h-66.66666666666667Z" fill="rgb(254, 112, 118)" opacity="0.9"/><path d="M533.3333333333334,353.84615384615387h66.66666666666667v15.384615384615385h-66.66666666666667Z" fill="rgb(162, 25, 31)" opacity="0.9"/><path d="M600,353.84615384615387h66.66666666666667v15.384615384615385h-66.66666666666667Z" fill="rgb(248, 74, 83)" opacity="0.9"/><path d="M666.6666666666667,353.84615384615387h66.66666666666667v15.384615384615385h-66.66666666666667Z" fill="rgb(229, 48, 56)" opacity="0.9"/><path d="M733.3333333333334,353.84615384615387h66.66666666666667v15.384615384615385h-66.66666666666667Z" fill="rgb(252, 93, 100)" opacity="0.9"/><path d="M0,369.2307692307692h66.66666666666667v15.384615384615385h-66.66666666666667Z" fill="rgb(255, 201, 201)" opacity="0.9"/><path d="M66.66666666666667,369.2307692307692h66.66666666666667v15.384615384615385h-66.66666666666667Z" fill="rgb(255, 120, 126)" opacity="0.9"/><path d="M133.33333333333334,369.2307692307692h66.66666666666667v15.384615384615385h-66.66666666666667Z" fill="rgb(251, 86, 94)" opacity="0.9"/><path d="M200,369.2307692307692h66.66666666666667v15.384615384615385h-66.66666666666667Z" fill="rgb(255, 146, 150)" opacity="0.9"/><path d="M266.6666666666667,369.2307692307692h66.66666666666667v15.384615384615385h-66.66666666666667Z" fill="rgb(254, 109, 115)" opacity="0.9"/><path d="M333.33333333333337,369.2307692307692h66.66666666666667v15.384615384615385h-66.66666666666667Z" fill="rgb(250, 78, 87)" opacity="0.9"/><path d="M400,369.2307692307692h66.66666666666667v15.384615384615385h-66.66666666666667Z" fill="rgb(220, 33, 42)" opacity="0.9"/><path d="M466.6666666666667,369.2307692307692h66.66666666666667v15.384615384615385h-66.66666666666667Z" fill="rgb(172, 26, 33)" opacity="0.9"/><path d="M533.3333333333334,369.2307692307692h66.66666666666667v15.384615384615385h-66.66666666666667Z" fill="rgb(251, 84, 92)" opacity="0.9"/><path d="M600,369.2307692307692h66.66666666666667v15.384615384615385h-66.66666666666667Z" fill="rgb(243, 68, 76)" opacity="0.9"/><path d="M666.6666666666667,369.2307692307692h66.66666666666667v15.384615384615385h-66.66666666666667Z" fill="rgb(254, 110, 116)" opacity="0.9"/><path d="M733.3333333333334,369.2307692307692h66.66666666666667v15.384615384615385h-66.66666666666667Z" fill="rgb(236, 58, 66)" opacity="0.9"/><path d="M0,384.61538461538464h66.66666666666667v15.384615384615385h-66.66666666666667Z" fill="rgb(208, 29, 38)" opacity="0.9"/><path d="M66.66666666666667,384.61538461538464h66.66666666666667v15.384615384615385h-66.66666666666667Z" fill="rgb(252, 91, 98)" opacity="0.9"/><path d="M133.33333333333334,384.61538461538464h66.66666666666667v15.384615384615385h-66.66666666666667Z" fill="rgb(253, 98, 105)" opacity="0.9"/><path d="M200,384.61538461538464h66.66666666666667v15.384615384615385h-66.66666666666667Z" fill="rgb(242, 66, 74)" opacity="0.9"/><path d="M266.6666666666667,384.61538461538464h66.66666666666667v15.384615384615385h-66.66666666666667Z" fill="rgb(253, 105, 111)" opacity="0.9"/><path d="M333.33333333333337,384.61538461538464h66.66666666666667v15.384615384615385h-66.66666666666667Z" fill="rgb(254, 117, 123)" opacity="0.9"/><path d="M400,384.61538461538464h66.66666666666667v15.384615384615385h-66.66666666666667Z" fill="rgb(255, 196, 197)" opacity="0.9"/><path d="M466.6666666666667,384.61538461538464h66.66666666666667v15.384615384615385h-66.66666666666667Z" fill="rgb(229, 48, 55)" opacity="0.9"/><path d="M533.3333333333334,384.61538461538464h66.66666666666667v15.384615384615385h-66.66666666666667Z" fill="rgb(200, 28, 37)" opacity="0.9"/></g><g class="mark-group role-title"><g transform="translate(-54.919921875,-22)"><path class="background" aria-hidden="true" d="M0,0h0v0h0Z" pointer-events="none"/><g><g class="mark-text role-title-text" role="graphics-symbol" aria-roledescription="title" aria-label="Title text 'Monthly Temperature Anomalies (2000-2025)'" pointer-events="none"><text text-anchor="start" transform="translate(0,14)" font-family="sans-serif" font-size="18px" font-weight="600" fill="#000" opacity="1">Monthly Temperature Anomalies (2000-2025)</text></g></g><path class="foreground" aria-hidden="true" d="" pointer-events="none" display="none"/></g></g><g class="mark-group role-axis" role="graphics-symbol" aria-roledescription="axis" aria-label="X-axis titled 'Month' for a discrete scale with 12 values: January, February, March, April, May, ending with December"><g transform="translate(0.5,400.5)"><path class="background" aria-hidden="true" d="M0,0h0v0h0Z" pointer-events="none"/><g><g class="mark-rule role-axis-tick" pointer-events="none"><line transform="translate(33,0)" x2="0" y2="5" stroke="#888" stroke-width="1" opacity="1"/><line transform="translate(100,0)" x2="0" y2="5" stroke="#888" stroke-width="1" opacity="1"/><line transform="translate(166,0)" x2="0" y2="5" stroke="#888" stroke-width="1" opacity="1"/><line transform="translate(233,0)" x2="0" y2="5" stroke="#888" stroke-width="1" opacity="1"/><line transform="translate(300,0)" x2="0" y2="5" stroke="#888" stroke-width="1" opacity="1"/><line transform="translate(366,0)" x2="0" y2="5" stroke="#888" stroke-width="1" opacity="1"/><line transform="translate(433,0)" x2="0" y2="5" stroke="#888" stroke-width="1" opacity="1"/><line transform="translate(500,0)" x2="0" y2="5" stroke="#888" stroke-width="1" opacity="1"/><line transform="translate(566,0)" x2="0" y2="5" stroke="#888" stroke-width="1" opacity="1"/><line transform="translate(633,0)" x2="0" y2="5" stroke="#888" stroke-width="1" opacity="1"/><line transform="translate(700,0)" x2="0" y2="5" stroke="#888" stroke-width="1" opacity="1"/><line transform="translate(766,0)" x2="0" y2="5" stroke="#888" stroke-width="1" opacity="1"/></g><g class="mark-text role-axis-label" pointer-events="none"><text text-anchor="middle" transform="translate(32.833333333333336,17)" font-family="sans-serif" font-size="13px" fill="#000" opacity="1">Jan</text><text text-anchor="middle" transform="translate(99.5,17)" font-family="sans-serif" font-size="13px" fill="#000" opacity="1">Feb</text><text text-anchor="middle" transform="translate(166.16666666666669,17)" font-family="sans-serif" font-size="13px" fill="#000" opacity="1">Mar</text><text text-anchor="middle" transform="translate(232.83333333333334,17)" font-family="sans-serif" font-size="13px" fill="#000" opacity="1">Apr</text><text text-anchor="middle" transform="translate(299.5,17)" font-family="sans-serif" font-size="13px" fill="#000" opacity="1">May</text><text text-anchor="middle" transform="translate(366.1666666666667,17)" font-family="sans-serif" font-size="13px" fill="#000" opacity="1">Jun</text><text text-anchor="middle" transform="translate(432.8333333333333,17)" font-family="sans-serif" font-size="13px" fill="#000" opacity="1">Jul</text><text text-anchor="middle" transform="translate(499.5,17)" font-family="sans-serif" font-size="13px" fill="#000" opacity="1">Aug</text><text text-anchor="middle" transform="translate(566.1666666666667,17)" font-family="sans-serif" font-size="13px" fill="#000" opacity="1">Sep</text><text text-anchor="middle" transform="translate(632.8333333333334,17)" font-family="sans-serif" font-size="13px" fill="#000" opacity="1">Oct</text><text text-anchor="middle" transform="translate(699.5000000000001,17)" font-family="sans-serif" font-size="13px" fill="#000" opacity="1">Nov</text><text text-anchor="middle" transform="translate(766.1666666666667,17)" font-family="sans-serif" font-size="13px" fill="#000" opacity="1">Dec</text></g><g class="mark-rule role-axis-domain" pointer-events="none"><line transform="translate(0,0)" x2="800" y2="0" stroke="#888" stroke-width="1" opacity="1"/></g><g class="mark-text role-axis-title" pointer-events="none"><text text-anchor="middle" transform="translate(400,36)" font-family="sans-serif" font-size="15px" font-weight="600" fill="#000" opacity="1">Month</text></g></g><path class="foreground" aria-hidden="true" d="" pointer-events="none" display="none"/></g></g><g class="mark-group role-axis" role="graphics-symbol" aria-roledescription="axis" aria-label="Y-axis titled 'Year' for a discrete scale with 26 values: 2000, 2001, 2002, 2003, 2004, ending with 2025"><g transform="translate(0.5,0.5)"><path class="background" aria-hidden="true" d="M0,0h0v0h0Z" pointer-events="none"/><g><g class="mark-rule role-axis-tick" pointer-events="none"><line transform="translate(0,7)" x2="-5" y2="0" stroke="#888" stroke-width="1" opacity="1"/><line transform="translate(0,23)" x2="-5" y2="0" stroke="#888" stroke-width="1" opacity="1"/><line transform="translate(0,38)" x2="-5" y2="0" stroke="#888" stroke-width="1" opacity="1"/><line transform="translate(0,53)" x2="-5" y2="0" stroke="#888" stroke-width="1" opacity="1"/><line transform="translate(0,69)" x2="-5" y2="0" stroke="#888" stroke-width="1" opacity="1"/><line transform="translate(0,84)" x2="-5" y2="0" stroke="#888" stroke-width="1" opacity="1"/><line transform="translate(0,100)" x2="-5" y2="0" stroke="#888" stroke-width="1" opacity="1"/><line transform="translate(0,115)" x2="-5" y2="0" stroke="#888" stroke-width="1" opacity="1"/><line transform="translate(0,130)" x2="-5" y2="0" stroke="#888" stroke-width="1" opacity="1"/><line transform="translate(0,146)" x2="-5" y2="0" stroke="#888" stroke-width="1" opacity="1"/><line transform="translate(0,161)" x2="-5" y2="0" stroke="#888" stroke-width="1" opacity="1"/><line transform="translate(0,176)" x2="-5" y2="0" stroke="#888" stroke-width="1" opacity="1"/><line transform="translate(0,192)" x2="-5" y2="0" stroke="#888" stroke-width="1" opacity="1"/><line transform="translate(0,207)" x2="-5" y2="0" stroke="#888" stroke-width="1" opacity="1"/><line transform="translate(0,223)" x2="-5" y2="0" stroke="#888" stroke-width="1" opacity="1"/><line transform="translate(0,238)" x2="-5" y2="0" stroke="#888" stroke-width="1" opacity="1"/><line transform="translate(0,253)" x2="-5" y2="0" stroke="#888" stroke-width="1" opacity="1"/><line transform="translate(0,269)" x2="-5" y2="0" stroke="#888" stroke-width="1" opacity="1"/><line transform="translate(0,284)" x2="-5" y2="0" stroke="#888" stroke-width="1" opacity="1"/><line transform="translate(0,300)" x2="-5" y2="0" stroke="#888" stroke-width="1" opacity="1"/><line transform="translate(0,315)" x2="-5" y2="0" stroke="#888" stroke-width="1" opacity="1"/><line transform="translate(0,330)" x2="-5" y2="0" stroke="#888" stroke-width="1" opacity="1"/><line transform="translate(0,346)" x2="-5" y2="0" stroke="#888" stroke-width="1" opacity="1"/><line transform="translate(0,361)" x2="-5" y2="0" stroke="#888" stroke-width="1" opacity="1"/><line transform="translate(0,376)" x2="-5" y2="0" stroke="#888" stroke-width="1" opacity="1"/><line transform="translate(0,392)" x2="-5" y2="0" stroke="#888" stroke-width="1" opacity="1"/></g><g class="mark-text role-axis-label" pointer-events="none"><text text-anchor="end" transform="translate(-7,11.192307692307693)" font-family="sans-serif" font-size="13px" fill="#000" opacity="1">2000</text><text text-anchor="end" transform="translate(-7,26.576923076923077)" font-family="sans-serif" font-size="13px" fill="#000" opacity="1">2001</text><text text-anchor="end" transform="translate(-7,41.96153846153846)" font-family="sans-serif" font-size="13px" fill="#000" opacity="1">2002</text><text text-anchor="end" transform="translate(-7,57.34615384615385)" font-family="sans-serif" font-size="13px" fill="#000" opacity="1">2003</text><text text-anchor="end" transform="translate(-7,72.73076923076923)" font-family="sans-serif" font-size="13px" fill="#000" opacity="1">2004</text><text text-anchor="end" transform="translate(-7,88.11538461538461)" font-family="sans-serif" font-size="13px" fill="#000" opacity="1">2005</text><text text-anchor="end" transform="translate(-7,103.5)" font-family="sans-serif" font-size="13px" fill="#000" opacity="1">2006</text><text text-anchor="end" transform="translate(-7,118.88461538461539)" font-family="sans-serif" font-size="13px" fill="#000" opacity="1">2007</text><text text-anchor="end" transform="translate(-7,134.26923076923077)" font-family="sans-serif" font-size="13px" fill="#000" opacity="1">2008</text><text text-anchor="end" transform="translate(-7,149.65384615384613)" font-family="sans-serif" font-size="13px" fill="#000" opacity="1">2009</text><text text-anchor="end" transform="translate(-7,165.03846153846152)" font-family="sans-serif" font-size="13px" fill="#000" opacity="1">2010</text><text text-anchor="end" transform="translate(-7,180.4230769230769)" font-family="sans-serif" font-size="13px" fill="#000" opacity="1">2011</text><text text-anchor="end" transform="translate(-7,195.8076923076923)" font-family="sans-serif" font-size="13px" fill="#000" opacity="1">2012</text><text text-anchor="end" transform="translate(-7,211.19230769230768)" font-family="sans-serif" font-size="13px" fill="#000" opacity="1">2013</text><text text-anchor="end" transform="translate(-7,226.57692307692307)" font-family="sans-serif" font-size="13px" fill="#000" opacity="1">2014</text><text text-anchor="end" transform="translate(-7,241.96153846153845)" font-family="sans-serif" font-size="13px" fill="#000" opacity="1">2015</text><text text-anchor="end" transform="translate(-7,257.3461538461538)" font-family="sans-serif" font-size="13px" fill="#000" opacity="1">2016</text><text text-anchor="end" transform="translate(-7,272.7307692307692)" font-family="sans-serif" font-size="13px" fill="#000" opacity="1">2017</text><text text-anchor="end" transform="translate(-7,288.1153846153846)" font-family="sans-serif" font-size="13px" fill="#000" opacity="1">2018</text><text text-anchor="end" transform="translate(-7,303.5)" font-family="sans-serif" font-size="13px" fill="#000" opacity="1">2019</text><text text-anchor="end" transform="translate(-7,318.88461538461536)" font-family="sans-serif" font-size="13px" fill="#000" opacity="1">2020</text><text text-anchor="end" transform="translate(-7,334.2692307692308)" font-family="sans-serif" font-size="13px" fill="#000" opacity="1">2021</text><text text-anchor="end" transform="translate(-7,349.65384615384613)" font-family="sans-serif" font-size="13px" fill="#000" opacity="1">2022</text><text text-anchor="end" transform="translate(-7,365.03846153846155)" font-family="sans-serif" font-size="13px" fill="#000" opacity="1">2023</text><text text-anchor="end" transform="translate(-7,380.4230769230769)" font-family="sans-serif" font-size="13px" fill="#000" opacity="1">2024</text><text text-anchor="end" transform="translate(-7,395.8076923076923)" font-family="sans-serif" font-size="13px" fill="#000" opacity="1">2025</text></g><g class="mark-rule role-axis-domain" pointer-events="none"><line transform="translate(0,0)" x2="0" y2="400" stroke="#888" stroke-width="1" opacity="1"/></g><g class="mark-text role-axis-title" pointer-events="none"><text text-anchor="middle" transform="translate(-39.919921875,200) rotate(-90) translate(0,-3)" font-family="sans-serif" font-size="15px" font-weight="600" fill="#000" opacity="1">Year</text></g></g><path class="foreground" aria-hidden="true" d="" pointer-events="none" display="none"/></g></g></g><path class="foreground" aria-hidden="true" d="" display="none"/></g></g><g class="mark-group role-scope concat_1_group" role="graphics-object" aria-roledescription="group mark container"><g transform="translate(0,445)"><path class="background" aria-hidden="true" d="M0,0h800v20h-800Z"/><g><g class="mark-text role-mark concat_1_marks" role="graphics-object" aria-roledescription="text mark container"><text text-anchor="start" transform="translate(0,28)" font-family="sans-serif" font-size="10px" fill="gray">Note: Monthly anomalies relative to 1991-2020 baseline. Data aggregated globally from ERA5-Land.</text></g></g><path class="foreground" aria-hidden="true" d="" display="none"/></g></g><g class="mark-group role-legend" role="graphics-symbol" aria-roledescription="legend" aria-label="Gradient legend titled 'Temp Anomaly (C)' for fill color with values from 2 to 2"><g transform="translate(819,0)"><path class="background" aria-hidden="true" d="M0,0h119v218h-119Z" pointer-events="none"/><g><g class="mark-group role-legend-entry"><g transform="translate(0,18)"><path class="background" aria-hidden="true" d="M0,0h0v0h0Z" pointer-events="none"/><g><g class="mark-rect role-legend-gradient" pointer-events="none"><path d="M0,0h16v200h-16Z" fill="url(#gradient_0)" stroke="#ddd" stroke-width="0" opacity="0.9"/></g><g class="mark-text role-legend-label" pointer-events="none"><text text-anchor="start" transform="translate(18,173.51186255794929)" font-family="sans-serif" font-size="12px" fill="#000" opacity="1">1</text><text text-anchor="start" transform="translate(18,118.97136623943278)" font-family="sans-serif" font-size="12px" fill="#000" opacity="1">0</text><text text-anchor="start" transform="translate(18,64.43086992091627)" font-family="sans-serif" font-size="12px" fill="#000" opacity="1">1</text><text text-anchor="start" transform="translate(18,9.890373602399768)" font-family="sans-serif" font-size="12px" fill="#000" opacity="1">2</text></g></g><path class="foreground" aria-hidden="true" d="" pointer-events="none" display="none"/></g></g><g class="mark-text role-legend-title" pointer-events="none"><text text-anchor="start" transform="translate(0,10)" font-family="sans-serif" font-size="13px" font-weight="bold" fill="#000" opacity="1">Temp Anomaly (C)</text></g></g><path class="foreground" aria-hidden="true" d="" pointer-events="none" display="none"/></g></g></g><path class="foreground" aria-hidden="true" d="" display="none"/></g></g></g><defs><linearGradient id="gradient_0" x1="0" x2="0" y1="1" y2="0"><stop offset="0" stop-color="rgb(0, 58, 109)"/><stop offset="0.04335969457322063" stop-color="rgb(3, 83, 147)"/><stop offset="0.09790019089173711" stop-color="rgb(1, 115, 196)"/><stop offset="0.1524406872102536" stop-color="rgb(11, 133, 218)"/><stop offset="0.2069811835287701" stop-color="rgb(49, 158, 237)"/><stop offset="0.26152167984728664" stop-color="rgb(108, 193, 250)"/><stop offset="0.31606217616580307" stop-color="rgb(166, 221, 254)"/><stop offset="0.3706026724843196" stop-color="rgb(222, 243, 255)"/><stop offset="0.4251431688028361" stop-color="rgb(248, 241, 254)"/><stop offset="0.4796836651213526" stop-color="rgb(255, 241, 243)"/><stop offset="0.5342241614398692" stop-color="rgb(255, 203, 204)"/><stop offset="0.5887646577583856" stop-color="rgb(255, 156, 159)"/><stop offset="0.6433051540769021" stop-color="rgb(255, 121, 127)"/><stop offset="0.6978456503954187" stop-color="rgb(253, 98, 105)"/><stop offset="0.7523861467139351" stop-color="rgb(248, 74, 83)"/><stop offset="0.8069266430324515" stop-color="rgb(235, 56, 64)"/><stop offset="0.8614671393509681" stop-color="rgb(221, 35, 44)"/><stop offset="0.9160076356694846" stop-color="rgb(199, 28, 37)"/><stop offset="0.9705481319880012" stop-color="rgb(175, 26, 33)"/><stop offset="1" stop-color="rgb(162, 25, 31)"/></linearGradient></defs></svg>