<svg xmlns="http://www.w3.org/2000/svg" xmlns:xlink="http://www.w3.org/1999/xlink" version="1.1" class="marks" width="810" height="334" viewBox="0 0 810 334"><rect width="810" height="334" fill="white"/><g fill="none" stroke-miterlimit="10" transform="translate(5,28)"><g class="mark-group role-frame root" role="graphics-object" aria-roledescription="group mark container"><g transform="translate(0,0)"><path class="background" aria-hidden="true" d="M0,0h800v300h-800Z"/><g><g class="mark-shape role-mark layer_0_marks" role="graphics-symbol" aria-roledescription="shape mark container"><path transform="translate(0,0)" d="M410.227,295.706L410.227,293.456L409.588,289.977L407.031,287.52L403.196,285.882L395.845,286.496L389.453,284.858L384.659,280.555L383.701,277.07L386.257,274.405L384.34,272.148L376.35,266.812L362.927,253.25L355.256,250.164L352.38,241.724L349.504,239.87L343.112,239.046L336.4,239.87L334.802,240.9L332.885,242.342L327.452,252.838L323.936,256.54L314.668,254.689L307.317,252.221L301.245,250.987L289.42,249.958L275.677,249.753L266.728,257.362L262.893,256.334L255.862,252.633L244.676,249.547L238.923,247.283L255.862,225.021L260.976,211.592L261.295,203.523L261.295,193.373L252.666,172.2L244.996,142.208L237.006,110.63L230.933,101.193L205.046,90.274L198.974,77.865L179.159,61.64L151.354,54.676L145.921,51.719L121.631,31.414L102.775,18.27L106.93,10.415L112.363,1.914L118.116,0L135.374,3.19L151.034,7.016L162.54,4.253L175.963,10.84L188.427,18.482L200.891,23.785L225.5,28.872L234.449,35.86L245.315,42.842L286.863,46.225L290.059,45.168L293.255,44.111L307.317,41.573L319.462,42.208L332.565,50.452L340.875,50.029L349.823,48.762L361.329,53.198L370.278,58.264L371.236,63.328L379.226,70.705L401.918,81.864L420.774,88.172L426.527,92.795L440.589,100.144L442.187,102.452L441.867,105.389L437.712,110.839L436.754,115.658L438.671,118.589L444.424,121.31L456.249,121.938L460.404,118.38L469.033,115.867L477.662,111.258L489.167,105.389L504.828,99.934L511.22,99.934L517.292,101.613L521.447,104.55L528.478,115.867L535.509,100.144L537.427,98.885L543.818,102.032L555.004,106.437L562.994,108.743L567.149,111.887L579.294,126.331L598.789,125.494L606.779,127.795L611.253,130.094L613.171,132.811L609.975,147.006L605.181,161.8L605.501,165.337L613.171,170.745L623.718,176.772L629.47,181.34L633.305,185.492L641.935,188.811L651.842,190.677L656.316,191.092L661.43,194.616L673.894,201.245L675.812,202.902L673.575,207.041L668.461,214.9L664.306,218.826L659.832,219.446L655.358,221.098L653.76,225.228L653.76,230.593L654.399,234.511L655.677,235.954L660.152,237.191L664.626,248.312L671.657,254.072L682.523,260.445L692.431,267.838L697.225,274.61L696.266,279.325L693.07,289.567L685.08,297.955L678.049,300L675.812,299.387L671.337,296.729L662.389,290.181L652.801,285.063L645.131,286.701L640.337,288.748L630.429,286.291L619.243,281.99L613.171,277.48L610.614,274.199L612.212,268.454L586.325,258.184L573.541,255.306L568.108,258.39L548.932,273.994L546.695,275.635L531.993,277.685L531.993,279.12L535.189,282.399L534.55,283.424L509.941,283.834L501.951,285.882L480.219,283.219L472.868,284.448L466.796,286.906L451.775,289.567L441.548,292.842L428.444,294.683L414.701,294.683Z" fill="#f3f4f6" stroke="#959090" stroke-width="0.5"/></g><g class="mark-symbol role-mark layer_1_marks" role="graphics-symbol" aria-roledescription="symbol mark container"><path transform="translate(567.4106940145566,182.32349642544523)" d="M2.958,0A2.958,2.958,0,1,1,-2.958,0A2.958,2.958,0,1,1,2.958,0" fill="#b41f1f62" stroke-width="2" opacity="0.8"/><path transform="translate(569.4303463821807,184.76452226219135)" d="M2.958,0A2.958,2.958,0,1,1,-2.958,0A2.958,2.958,0,1,1,2.958,0" fill="#b41f1f62" stroke-width="2" opacity="0.8"/><path transform="translate(579.6658558053705,190.55948889089268)" d="M2.958,0A2.958,2.958,0,1,1,-2.958,0A2.958,2.958,0,1,1,2.958,0" fill="#b41f1f62" stroke-width="2" opacity="0.8"/><path transform="translate(576.9399909285394,183.2125046984811)" d="M2.958,0A2.958,2.958,0,1,1,-2.958,0A2.958,2.958,0,1,1,2.958,0" fill="#b41f1f62" stroke-width="2" opacity="0.8"/><path transform="translate(572.5341303855594,182.63917503369885)" d="M2.958,0A2.958,2.958,0,1,1,-2.958,0A2.958,2.958,0,1,1,2.958,0" fill="#b41f1f62" stroke-width="2" opacity="0.8"/><path transform="translate(577.3145365698147,181.99094351349777)" d="M2.958,0A2.958,2.958,0,1,1,-2.958,0A2.958,2.958,0,1,1,2.958,0" fill="#b41f1f62" stroke-width="2" opacity="0.8"/><path transform="translate(561.9295794286463,187.1189617241116)" d="M2.958,0A2.958,2.958,0,1,1,-2.958,0A2.958,2.958,0,1,1,2.958,0" fill="#b41f1f62" stroke-width="2" opacity="0.8"/><path transform="translate(567.7983784932121,179.4844297689633)" d="M2.958,0A2.958,2.958,0,1,1,-2.958,0A2.958,2.958,0,1,1,2.958,0" fill="#b41f1f62" stroke-width="2" opacity="0.8"/><path transform="translate(609.1903325903281,213.7835680729354)" d="M2.958,0A2.958,2.958,0,1,1,-2.958,0A2.958,2.958,0,1,1,2.958,0" fill="#b41f1f62" stroke-width="2" opacity="0.8"/><path transform="translate(611.266268896461,206.98188268653666)" d="M2.958,0A2.958,2.958,0,1,1,-2.958,0A2.958,2.958,0,1,1,2.958,0" fill="#b41f1f62" stroke-width="2" opacity="0.8"/><path transform="translate(610.6536262156274,210.7907445826968)" d="M2.958,0A2.958,2.958,0,1,1,-2.958,0A2.958,2.958,0,1,1,2.958,0" fill="#b41f1f62" stroke-width="2" opacity="0.8"/><path transform="translate(620.6767836184499,218.2999409755239)" d="M2.958,0A2.958,2.958,0,1,1,-2.958,0A2.958,2.958,0,1,1,2.958,0" fill="#b41f1f62" stroke-width="2" opacity="0.8"/><path transform="translate(623.3019765926474,210.00813133302017)" d="M2.958,0A2.958,2.958,0,1,1,-2.958,0A2.958,2.958,0,1,1,2.958,0" fill="#b41f1f62" stroke-width="2" opacity="0.8"/><path transform="translate(622.490919712181,226.05584047521688)" d="M2.958,0A2.958,2.958,0,1,1,-2.958,0A2.958,2.958,0,1,1,2.958,0" fill="#b41f1f62" stroke-width="2" opacity="0.8"/><path transform="translate(617.4182631721364,223.62491713617146)" d="M2.958,0A2.958,2.958,0,1,1,-2.958,0A2.958,2.958,0,1,1,2.958,0" fill="#b41f1f62" stroke-width="2" opacity="0.8"/><path transform="translate(612.2280673030914,229.62204748043814)" d="M2.958,0A2.958,2.958,0,1,1,-2.958,0A2.958,2.958,0,1,1,2.958,0" fill="#b41f1f62" stroke-width="2" opacity="0.8"/><path transform="translate(610.3891627253784,225.3460141779192)" d="M2.958,0A2.958,2.958,0,1,1,-2.958,0A2.958,2.958,0,1,1,2.958,0" fill="#b41f1f62" stroke-width="2" opacity="0.8"/><path transform="translate(637.0106666566535,243.01761952543347)" d="M2.958,0A2.958,2.958,0,1,1,-2.958,0A2.958,2.958,0,1,1,2.958,0" fill="#b41f1f62" stroke-width="2" opacity="0.8"/><path transform="translate(625.7382543915364,278.88752018233527)" d="M2.958,0A2.958,2.958,0,1,1,-2.958,0A2.958,2.958,0,1,1,2.958,0" fill="#b41f1f62" stroke-width="2" opacity="0.8"/><path transform="translate(642.037958697365,256.3843844321823)" d="M2.958,0A2.958,2.958,0,1,1,-2.958,0A2.958,2.958,0,1,1,2.958,0" fill="#b41f1f62" stroke-width="2" opacity="0.8"/><path transform="translate(647.2197208532257,253.42759935921913)" d="M2.958,0A2.958,2.958,0,1,1,-2.958,0A2.958,2.958,0,1,1,2.958,0" fill="#b41f1f62" stroke-width="2" opacity="0.8"/><path transform="translate(652.026582264099,253.95358592852062)" d="M2.958,0A2.958,2.958,0,1,1,-2.958,0A2.958,2.958,0,1,1,2.958,0" fill="#b41f1f62" stroke-width="2" opacity="0.8"/><path transform="translate(596.2229215271877,196.8704215779553)" d="M2.958,0A2.958,2.958,0,1,1,-2.958,0A2.958,2.958,0,1,1,2.958,0" fill="#b41f1f62" stroke-width="2" opacity="0.8"/><path transform="translate(591.4475755708418,200.5291434693172)" d="M2.958,0A2.958,2.958,0,1,1,-2.958,0A2.958,2.958,0,1,1,2.958,0" fill="#b41f1f62" stroke-width="2" opacity="0.8"/><path transform="translate(591.1963396939022,198.04090750225623)" d="M2.958,0A2.958,2.958,0,1,1,-2.958,0A2.958,2.958,0,1,1,2.958,0" fill="#b41f1f62" stroke-width="2" opacity="0.8"/><path transform="translate(592.32539194935,197.59018194064174)" d="M2.958,0A2.958,2.958,0,1,1,-2.958,0A2.958,2.958,0,1,1,2.958,0" fill="#b41f1f62" stroke-width="2" opacity="0.8"/><path transform="translate(591.418457066377,198.82379624761325)" d="M2.958,0A2.958,2.958,0,1,1,-2.958,0A2.958,2.958,0,1,1,2.958,0" fill="#b41f1f62" stroke-width="2" opacity="0.8"/><path transform="translate(588.102054714846,200.24749044071996)" d="M2.958,0A2.958,2.958,0,1,1,-2.958,0A2.958,2.958,0,1,1,2.958,0" fill="#b41f1f62" stroke-width="2" opacity="0.8"/><path transform="translate(593.7789202225417,200.67885314288196)" d="M2.958,0A2.958,2.958,0,1,1,-2.958,0A2.958,2.958,0,1,1,2.958,0" fill="#b41f1f62" stroke-width="2" opacity="0.8"/><path transform="translate(584.0971062638296,195.54779931140456)" d="M2.958,0A2.958,2.958,0,1,1,-2.958,0A2.958,2.958,0,1,1,2.958,0" fill="#b41f1f62" stroke-width="2" opacity="0.8"/><path transform="translate(585.8022255176738,199.52201592185065)" d="M2.958,0A2.958,2.958,0,1,1,-2.958,0A2.958,2.958,0,1,1,2.958,0" fill="#b41f1f62" stroke-width="2" opacity="0.8"/><path transform="translate(655.0412352355183,208.93862462564175)" d="M2.958,0A2.958,2.958,0,1,1,-2.958,0A2.958,2.958,0,1,1,2.958,0" fill="#b41f1f62" stroke-width="2" opacity="0.8"/><path transform="translate(656.6983267121791,213.3474681166863)" d="M2.958,0A2.958,2.958,0,1,1,-2.958,0A2.958,2.958,0,1,1,2.958,0" fill="#b41f1f62" stroke-width="2" opacity="0.8"/><path transform="translate(663.1665408442709,213.02210369114073)" d="M2.958,0A2.958,2.958,0,1,1,-2.958,0A2.958,2.958,0,1,1,2.958,0" fill="#b41f1f62" stroke-width="2" opacity="0.8"/><path transform="translate(643.2490399105131,213.07891246203644)" d="M2.958,0A2.958,2.958,0,1,1,-2.958,0A2.958,2.958,0,1,1,2.958,0" fill="#b41f1f62" stroke-width="2" opacity="0.8"/><path transform="translate(638.4631296187054,211.49501594715366)" d="M2.958,0A2.958,2.958,0,1,1,-2.958,0A2.958,2.958,0,1,1,2.958,0" fill="#b41f1f62" stroke-width="2" opacity="0.8"/><path transform="translate(644.5762400378085,220.243312766258)" d="M2.958,0A2.958,2.958,0,1,1,-2.958,0A2.958,2.958,0,1,1,2.958,0" fill="#b41f1f62" stroke-width="2" opacity="0.8"/><path transform="translate(649.6123208954159,216.05000528050687)" d="M2.958,0A2.958,2.958,0,1,1,-2.958,0A2.958,2.958,0,1,1,2.958,0" fill="#b41f1f62" stroke-width="2" opacity="0.8"/><path transform="translate(652.4512863048335,208.36258259317947)" d="M2.958,0A2.958,2.958,0,1,1,-2.958,0A2.958,2.958,0,1,1,2.958,0" fill="#b41f1f62" stroke-width="2" opacity="0.8"/><path transform="translate(650.7766171943781,208.48949670838283)" d="M2.958,0A2.958,2.958,0,1,1,-2.958,0A2.958,2.958,0,1,1,2.958,0" fill="#b41f1f62" stroke-width="2" opacity="0.8"/><path transform="translate(596.6469153604962,225.47978045368882)" d="M2.958,0A2.958,2.958,0,1,1,-2.958,0A2.958,2.958,0,1,1,2.958,0" fill="#b41f1f62" stroke-width="2" opacity="0.8"/><path transform="translate(590.6659922985536,224.0232072429294)" d="M2.958,0A2.958,2.958,0,1,1,-2.958,0A2.958,2.958,0,1,1,2.958,0" fill="#b41f1f62" stroke-width="2" opacity="0.8"/><path transform="translate(577.0385322088946,220.42523684582648)" d="M2.958,0A2.958,2.958,0,1,1,-2.958,0A2.958,2.958,0,1,1,2.958,0" fill="#b41f1f62" stroke-width="2" opacity="0.8"/><path transform="translate(629.0540353115694,241.5304445534739)" d="M2.958,0A2.958,2.958,0,1,1,-2.958,0A2.958,2.958,0,1,1,2.958,0" fill="#b41f1f62" stroke-width="2" opacity="0.8"/><path transform="translate(632.1981235863718,237.23695881732647)" d="M2.958,0A2.958,2.958,0,1,1,-2.958,0A2.958,2.958,0,1,1,2.958,0" fill="#b41f1f62" stroke-width="2" opacity="0.8"/><path transform="translate(625.9546901046028,243.0737314501098)" d="M2.958,0A2.958,2.958,0,1,1,-2.958,0A2.958,2.958,0,1,1,2.958,0" fill="#b41f1f62" stroke-width="2" opacity="0.8"/><path transform="translate(625.7098460944967,233.76765554018266)" d="M2.958,0A2.958,2.958,0,1,1,-2.958,0A2.958,2.958,0,1,1,2.958,0" fill="#b41f1f62" stroke-width="2" opacity="0.8"/><path transform="translate(641.4626019063944,233.41061379988378)" d="M2.958,0A2.958,2.958,0,1,1,-2.958,0A2.958,2.958,0,1,1,2.958,0" fill="#b41f1f62" stroke-width="2" opacity="0.8"/><path transform="translate(636.3113786698505,237.21891338636215)" d="M2.958,0A2.958,2.958,0,1,1,-2.958,0A2.958,2.958,0,1,1,2.958,0" fill="#b41f1f62" stroke-width="2" opacity="0.8"/><path transform="translate(636.3259379220826,235.26310656118494)" d="M2.958,0A2.958,2.958,0,1,1,-2.958,0A2.958,2.958,0,1,1,2.958,0" fill="#b41f1f62" stroke-width="2" opacity="0.8"/><path transform="translate(635.9564525087171,240.17922025551252)" d="M2.958,0A2.958,2.958,0,1,1,-2.958,0A2.958,2.958,0,1,1,2.958,0" fill="#b41f1f62" stroke-width="2" opacity="0.8"/><path transform="translate(620.345915733873,196.358277373889)" d="M2.958,0A2.958,2.958,0,1,1,-2.958,0A2.958,2.958,0,1,1,2.958,0" fill="#b41f1f62" stroke-width="2" opacity="0.8"/><path transform="translate(524.5384900898462,221.19952580582003)" d="M2.958,0A2.958,2.958,0,1,1,-2.958,0A2.958,2.958,0,1,1,2.958,0" fill="#b41f1f62" stroke-width="2" opacity="0.8"/><path transform="translate(525.3390714107791,222.31906028878802)" d="M2.958,0A2.958,2.958,0,1,1,-2.958,0A2.958,2.958,0,1,1,2.958,0" fill="#b41f1f62" stroke-width="2" opacity="0.8"/><path transform="translate(523.4026908638511,225.0452990459412)" d="M2.958,0A2.958,2.958,0,1,1,-2.958,0A2.958,2.958,0,1,1,2.958,0" fill="#b41f1f62" stroke-width="2" opacity="0.8"/><path transform="translate(525.0238280895733,223.09268162695162)" d="M2.958,0A2.958,2.958,0,1,1,-2.958,0A2.958,2.958,0,1,1,2.958,0" fill="#b41f1f62" stroke-width="2" opacity="0.8"/><path transform="translate(525.4606944324782,221.67610043426384)" d="M2.958,0A2.958,2.958,0,1,1,-2.958,0A2.958,2.958,0,1,1,2.958,0" fill="#b41f1f62" stroke-width="2" opacity="0.8"/><path transform="translate(527.4529150382737,223.79237038728252)" d="M2.958,0A2.958,2.958,0,1,1,-2.958,0A2.958,2.958,0,1,1,2.958,0" fill="#b41f1f62" stroke-width="2" opacity="0.8"/><path transform="translate(525.270003738603,225.60224885851858)" d="M2.958,0A2.958,2.958,0,1,1,-2.958,0A2.958,2.958,0,1,1,2.958,0" fill="#b41f1f62" stroke-width="2" opacity="0.8"/><path transform="translate(526.8325488516821,225.29797665088972)" d="M2.958,0A2.958,2.958,0,1,1,-2.958,0A2.958,2.958,0,1,1,2.958,0" fill="#b41f1f62" stroke-width="2" opacity="0.8"/><path transform="translate(522.274615143614,227.848898787287)" d="M2.958,0A2.958,2.958,0,1,1,-2.958,0A2.958,2.958,0,1,1,2.958,0" fill="#b41f1f62" stroke-width="2" opacity="0.8"/><path transform="translate(523.6634257651131,226.8985101718281)" d="M2.958,0A2.958,2.958,0,1,1,-2.958,0A2.958,2.958,0,1,1,2.958,0" fill="#b41f1f62" stroke-width="2" opacity="0.8"/><path transform="translate(528.4926587099053,223.03737458240676)" d="M2.958,0A2.958,2.958,0,1,1,-2.958,0A2.958,2.958,0,1,1,2.958,0" fill="#b41f1f62" stroke-width="2" opacity="0.8"/><path transform="translate(528.7246302104145,222.02726671151368)" d="M2.958,0A2.958,2.958,0,1,1,-2.958,0A2.958,2.958,0,1,1,2.958,0" fill="#b41f1f62" stroke-width="2" opacity="0.8"/><path transform="translate(526.3624803116127,219.22057845831705)" d="M2.958,0A2.958,2.958,0,1,1,-2.958,0A2.958,2.958,0,1,1,2.958,0" fill="#b41f1f62" stroke-width="2" opacity="0.8"/><path transform="translate(526.9405891563583,214.99777628399715)" d="M2.958,0A2.958,2.958,0,1,1,-2.958,0A2.958,2.958,0,1,1,2.958,0" fill="#b41f1f62" stroke-width="2" opacity="0.8"/><path transform="translate(527.9175682467194,215.41235134607496)" d="M2.958,0A2.958,2.958,0,1,1,-2.958,0A2.958,2.958,0,1,1,2.958,0" fill="#b41f1f62" stroke-width="2" opacity="0.8"/><path transform="translate(526.5487322090753,227.23493390381418)" d="M2.958,0A2.958,2.958,0,1,1,-2.958,0A2.958,2.958,0,1,1,2.958,0" fill="#b41f1f62" stroke-width="2" opacity="0.8"/><path transform="translate(528.9423975624054,225.9183985173304)" d="M2.958,0A2.958,2.958,0,1,1,-2.958,0A2.958,2.958,0,1,1,2.958,0" fill="#b41f1f62" stroke-width="2" opacity="0.8"/><path transform="translate(529.5109186069003,225.17954621084482)" d="M2.958,0A2.958,2.958,0,1,1,-2.958,0A2.958,2.958,0,1,1,2.958,0" fill="#b41f1f62" stroke-width="2" opacity="0.8"/><path transform="translate(530.3812778074362,227.99308126471306)" d="M2.958,0A2.958,2.958,0,1,1,-2.958,0A2.958,2.958,0,1,1,2.958,0" fill="#b41f1f62" stroke-width="2" opacity="0.8"/><path transform="translate(537.9928371194228,231.45692294555374)" d="M2.958,0A2.958,2.958,0,1,1,-2.958,0A2.958,2.958,0,1,1,2.958,0" fill="#b41f1f62" stroke-width="2" opacity="0.8"/><path transform="translate(539.5743802811467,231.71437869178772)" d="M2.958,0A2.958,2.958,0,1,1,-2.958,0A2.958,2.958,0,1,1,2.958,0" fill="#b41f1f62" stroke-width="2" opacity="0.8"/><path transform="translate(541.6053071916581,231.5557717689603)" d="M2.958,0A2.958,2.958,0,1,1,-2.958,0A2.958,2.958,0,1,1,2.958,0" fill="#b41f1f62" stroke-width="2" opacity="0.8"/><path transform="translate(529.2275458439353,222.1712021555354)" d="M2.958,0A2.958,2.958,0,1,1,-2.958,0A2.958,2.958,0,1,1,2.958,0" fill="#b41f1f62" stroke-width="2" opacity="0.8"/><path transform="translate(529.9437900330336,222.70207449060717)" d="M2.958,0A2.958,2.958,0,1,1,-2.958,0A2.958,2.958,0,1,1,2.958,0" fill="#b41f1f62" stroke-width="2" opacity="0.8"/><path transform="translate(530.2431424630831,223.31687920272952)" d="M2.958,0A2.958,2.958,0,1,1,-2.958,0A2.958,2.958,0,1,1,2.958,0" fill="#b41f1f62" stroke-width="2" opacity="0.8"/><path transform="translate(531.2709013844014,222.98337549042026)" d="M2.958,0A2.958,2.958,0,1,1,-2.958,0A2.958,2.958,0,1,1,2.958,0" fill="#b41f1f62" stroke-width="2" opacity="0.8"/><path transform="translate(531.2794238735128,223.18759471904968)" d="M2.958,0A2.958,2.958,0,1,1,-2.958,0A2.958,2.958,0,1,1,2.958,0" fill="#b41f1f62" stroke-width="2" opacity="0.8"/><path transform="translate(531.6965819603465,224.85111806368968)" d="M2.958,0A2.958,2.958,0,1,1,-2.958,0A2.958,2.958,0,1,1,2.958,0" fill="#b41f1f62" stroke-width="2" opacity="0.8"/><path transform="translate(531.064674903083,223.36397769842097)" d="M2.958,0A2.958,2.958,0,1,1,-2.958,0A2.958,2.958,0,1,1,2.958,0" fill="#b41f1f62" stroke-width="2" opacity="0.8"/><path transform="translate(537.5492238059724,228.66237092801657)" d="M2.958,0A2.958,2.958,0,1,1,-2.958,0A2.958,2.958,0,1,1,2.958,0" fill="#b41f1f62" stroke-width="2" opacity="0.8"/><path transform="translate(537.5736371862395,228.30057430414718)" d="M2.958,0A2.958,2.958,0,1,1,-2.958,0A2.958,2.958,0,1,1,2.958,0" fill="#b41f1f62" stroke-width="2" opacity="0.8"/><path transform="translate(534.695432816537,228.3775942043153)" d="M2.958,0A2.958,2.958,0,1,1,-2.958,0A2.958,2.958,0,1,1,2.958,0" fill="#b41f1f62" stroke-width="2" opacity="0.8"/><path transform="translate(534.5911211008465,225.46206398805725)" d="M2.958,0A2.958,2.958,0,1,1,-2.958,0A2.958,2.958,0,1,1,2.958,0" fill="#b41f1f62" stroke-width="2" opacity="0.8"/><path transform="translate(536.483823891077,228.5521935447482)" d="M2.958,0A2.958,2.958,0,1,1,-2.958,0A2.958,2.958,0,1,1,2.958,0" fill="#b41f1f62" stroke-width="2" opacity="0.8"/><path transform="translate(537.218355921394,226.82230754651528)" d="M2.958,0A2.958,2.958,0,1,1,-2.958,0A2.958,2.958,0,1,1,2.958,0" fill="#b41f1f62" stroke-width="2" opacity="0.8"/><path transform="translate(533.9073689014867,226.30396688928204)" d="M2.958,0A2.958,2.958,0,1,1,-2.958,0A2.958,2.958,0,1,1,2.958,0" fill="#b41f1f62" stroke-width="2" opacity="0.8"/><path transform="translate(546.0378892890417,230.49652591043105)" d="M2.958,0A2.958,2.958,0,1,1,-2.958,0A2.958,2.958,0,1,1,2.958,0" fill="#b41f1f62" stroke-width="2" opacity="0.8"/><path transform="translate(539.3532394438835,224.048657144534)" d="M2.958,0A2.958,2.958,0,1,1,-2.958,0A2.958,2.958,0,1,1,2.958,0" fill="#b41f1f62" stroke-width="2" opacity="0.8"/><path transform="translate(539.5293708855252,224.01321753876982)" d="M2.958,0A2.958,2.958,0,1,1,-2.958,0A2.958,2.958,0,1,1,2.958,0" fill="#b41f1f62" stroke-width="2" opacity="0.8"/><path transform="translate(539.4314510366689,226.5914362994481)" d="M2.958,0A2.958,2.958,0,1,1,-2.958,0A2.958,2.958,0,1,1,2.958,0" fill="#b41f1f62" stroke-width="2" opacity="0.8"/><path transform="translate(538.790755162509,226.64588545022343)" d="M2.958,0A2.958,2.958,0,1,1,-2.958,0A2.958,2.958,0,1,1,2.958,0" fill="#b41f1f62" stroke-width="2" opacity="0.8"/><path transform="translate(540.3688360630313,226.88935638644853)" d="M2.958,0A2.958,2.958,0,1,1,-2.958,0A2.958,2.958,0,1,1,2.958,0" fill="#b41f1f62" stroke-width="2" opacity="0.8"/><path transform="translate(542.016073411658,227.820846480799)" d="M2.958,0A2.958,2.958,0,1,1,-2.958,0A2.958,2.958,0,1,1,2.958,0" fill="#b41f1f62" stroke-width="2" opacity="0.8"/><path transform="translate(537.8817784331859,227.8543665977577)" d="M2.958,0A2.958,2.958,0,1,1,-2.958,0A2.958,2.958,0,1,1,2.958,0" fill="#b41f1f62" stroke-width="2" opacity="0.8"/><path transform="translate(539.0348889651887,230.06862742724115)" d="M2.958,0A2.958,2.958,0,1,1,-2.958,0A2.958,2.958,0,1,1,2.958,0" fill="#b41f1f62" stroke-width="2" opacity="0.8"/><path transform="translate(534.1119086401686,214.4281453336098)" d="M2.958,0A2.958,2.958,0,1,1,-2.958,0A2.958,2.958,0,1,1,2.958,0" fill="#b41f1f62" stroke-width="2" opacity="0.8"/><path transform="translate(538.1493490809235,213.42332891110982)" d="M2.958,0A2.958,2.958,0,1,1,-2.958,0A2.958,2.958,0,1,1,2.958,0" fill="#b41f1f62" stroke-width="2" opacity="0.8"/><path transform="translate(532.9435286485063,214.1478389118779)" d="M2.958,0A2.958,2.958,0,1,1,-2.958,0A2.958,2.958,0,1,1,2.958,0" fill="#b41f1f62" stroke-width="2" opacity="0.8"/><path transform="translate(534.3733537488561,212.9317089887909)" d="M2.958,0A2.958,2.958,0,1,1,-2.958,0A2.958,2.958,0,1,1,2.958,0" fill="#b41f1f62" stroke-width="2" opacity="0.8"/><path transform="translate(535.2036750057528,215.4268765430811)" d="M2.958,0A2.958,2.958,0,1,1,-2.958,0A2.958,2.958,0,1,1,2.958,0" fill="#b41f1f62" stroke-width="2" opacity="0.8"/><path transform="translate(532.5960596653476,214.91466806250764)" d="M2.958,0A2.958,2.958,0,1,1,-2.958,0A2.958,2.958,0,1,1,2.958,0" fill="#b41f1f62" stroke-width="2" opacity="0.8"/><path transform="translate(531.9773802213922,213.96981398244134)" d="M2.958,0A2.958,2.958,0,1,1,-2.958,0A2.958,2.958,0,1,1,2.958,0" fill="#b41f1f62" stroke-width="2" opacity="0.8"/><path transform="translate(532.1724209357517,213.27065382800083)" d="M2.958,0A2.958,2.958,0,1,1,-2.958,0A2.958,2.958,0,1,1,2.958,0" fill="#b41f1f62" stroke-width="2" opacity="0.8"/><path transform="translate(534.3804558231163,213.68675174773216)" d="M2.958,0A2.958,2.958,0,1,1,-2.958,0A2.958,2.958,0,1,1,2.958,0" fill="#b41f1f62" stroke-width="2" opacity="0.8"/><path transform="translate(533.9310720743288,213.79178490007916)" d="M2.958,0A2.958,2.958,0,1,1,-2.958,0A2.958,2.958,0,1,1,2.958,0" fill="#b41f1f62" stroke-width="2" opacity="0.8"/><path transform="translate(532.8371750864667,211.30870961784603)" d="M2.958,0A2.958,2.958,0,1,1,-2.958,0A2.958,2.958,0,1,1,2.958,0" fill="#b41f1f62" stroke-width="2" opacity="0.8"/><path transform="translate(530.2000861378838,212.9562430982055)" d="M2.958,0A2.958,2.958,0,1,1,-2.958,0A2.958,2.958,0,1,1,2.958,0" fill="#b41f1f62" stroke-width="2" opacity="0.8"/><path transform="translate(527.1092634200281,209.82405246240978)" d="M2.958,0A2.958,2.958,0,1,1,-2.958,0A2.958,2.958,0,1,1,2.958,0" fill="#b41f1f62" stroke-width="2" opacity="0.8"/><path transform="translate(528.7692845023234,210.4602673701179)" d="M2.958,0A2.958,2.958,0,1,1,-2.958,0A2.958,2.958,0,1,1,2.958,0" fill="#b41f1f62" stroke-width="2" opacity="0.8"/><path transform="translate(531.111459817269,221.60983859177486)" d="M2.958,0A2.958,2.958,0,1,1,-2.958,0A2.958,2.958,0,1,1,2.958,0" fill="#b41f1f62" stroke-width="2" opacity="0.8"/><path transform="translate(532.0223896170137,220.99120838815043)" d="M2.958,0A2.958,2.958,0,1,1,-2.958,0A2.958,2.958,0,1,1,2.958,0" fill="#b41f1f62" stroke-width="2" opacity="0.8"/><path transform="translate(530.7869837995254,217.666164667231)" d="M2.958,0A2.958,2.958,0,1,1,-2.958,0A2.958,2.958,0,1,1,2.958,0" fill="#b41f1f62" stroke-width="2" opacity="0.8"/><path transform="translate(533.3919358620838,216.37202646827927)" d="M2.958,0A2.958,2.958,0,1,1,-2.958,0A2.958,2.958,0,1,1,2.958,0" fill="#b41f1f62" stroke-width="2" opacity="0.8"/><path transform="translate(530.5089375922553,219.02862946351888)" d="M2.958,0A2.958,2.958,0,1,1,-2.958,0A2.958,2.958,0,1,1,2.958,0" fill="#b41f1f62" stroke-width="2" opacity="0.8"/><path transform="translate(532.2100619293283,216.52237773561546)" d="M2.958,0A2.958,2.958,0,1,1,-2.958,0A2.958,2.958,0,1,1,2.958,0" fill="#b41f1f62" stroke-width="2" opacity="0.8"/><path transform="translate(530.7995012054089,218.4715573599965)" d="M2.958,0A2.958,2.958,0,1,1,-2.958,0A2.958,2.958,0,1,1,2.958,0" fill="#b41f1f62" stroke-width="2" opacity="0.8"/><path transform="translate(533.603222571312,216.903301976507)" d="M2.958,0A2.958,2.958,0,1,1,-2.958,0A2.958,2.958,0,1,1,2.958,0" fill="#b41f1f62" stroke-width="2" opacity="0.8"/><path transform="translate(471.3539855640115,189.55510242347827)" d="M2.958,0A2.958,2.958,0,1,1,-2.958,0A2.958,2.958,0,1,1,2.958,0" fill="#b41f1f62" stroke-width="2" opacity="0.8"/><path transform="translate(471.77975491588586,190.12838826219559)" d="M2.958,0A2.958,2.958,0,1,1,-2.958,0A2.958,2.958,0,1,1,2.958,0" fill="#b41f1f62" stroke-width="2" opacity="0.8"/><path transform="translate(469.4866726892601,190.96775173646074)" d="M2.958,0A2.958,2.958,0,1,1,-2.958,0A2.958,2.958,0,1,1,2.958,0" fill="#b41f1f62" stroke-width="2" opacity="0.8"/><path transform="translate(470.3282684890437,191.06163236838256)" d="M2.958,0A2.958,2.958,0,1,1,-2.958,0A2.958,2.958,0,1,1,2.958,0" fill="#b41f1f62" stroke-width="2" opacity="0.8"/><path transform="translate(470.9963961250319,192.00610736320232)" d="M2.958,0A2.958,2.958,0,1,1,-2.958,0A2.958,2.958,0,1,1,2.958,0" fill="#b41f1f62" stroke-width="2" opacity="0.8"/><path transform="translate(470.73903470904315,191.95224630119355)" d="M2.958,0A2.958,2.958,0,1,1,-2.958,0A2.958,2.958,0,1,1,2.958,0" fill="#b41f1f62" stroke-width="2" opacity="0.8"/><path transform="translate(469.1727610069779,191.52946551334662)" d="M2.958,0A2.958,2.958,0,1,1,-2.958,0A2.958,2.958,0,1,1,2.958,0" fill="#b41f1f62" stroke-width="2" opacity="0.8"/><path transform="translate(470.6977539024083,188.15270530494672)" d="M2.958,0A2.958,2.958,0,1,1,-2.958,0A2.958,2.958,0,1,1,2.958,0" fill="#b41f1f62" stroke-width="2" opacity="0.8"/><path transform="translate(468.81721341434786,190.71895051085448)" d="M2.958,0A2.958,2.958,0,1,1,-2.958,0A2.958,2.958,0,1,1,2.958,0" fill="#b41f1f62" stroke-width="2" opacity="0.8"/><path transform="translate(469.34001485579574,193.17949116099135)" d="M2.958,0A2.958,2.958,0,1,1,-2.958,0A2.958,2.958,0,1,1,2.958,0" fill="#b41f1f62" stroke-width="2" opacity="0.8"/><path transform="translate(467.53573289009955,190.6752332759179)" d="M2.958,0A2.958,2.958,0,1,1,-2.958,0A2.958,2.958,0,1,1,2.958,0" fill="#b41f1f62" stroke-width="2" opacity="0.8"/><path transform="translate(472.238548913067,191.7769264995568)" d="M2.958,0A2.958,2.958,0,1,1,-2.958,0A2.958,2.958,0,1,1,2.958,0" fill="#b41f1f62" stroke-width="2" opacity="0.8"/><path transform="translate(470.97002967434264,193.94795585890915)" d="M2.958,0A2.958,2.958,0,1,1,-2.958,0A2.958,2.958,0,1,1,2.958,0" fill="#b41f1f62" stroke-width="2" opacity="0.8"/><path transform="translate(467.28609497986827,191.98234166446673)" d="M2.958,0A2.958,2.958,0,1,1,-2.958,0A2.958,2.958,0,1,1,2.958,0" fill="#b41f1f62" stroke-width="2" opacity="0.8"/><path transform="translate(467.34539729993776,162.28751708925483)" d="M2.958,0A2.958,2.958,0,1,1,-2.958,0A2.958,2.958,0,1,1,2.958,0" fill="#b41f1f62" stroke-width="2" opacity="0.8"/><path transform="translate(465.0524038492399,172.9082070500317)" d="M2.958,0A2.958,2.958,0,1,1,-2.958,0A2.958,2.958,0,1,1,2.958,0" fill="#b41f1f62" stroke-width="2" opacity="0.8"/><path transform="translate(457.3080357485951,178.7756336571174)" d="M2.958,0A2.958,2.958,0,1,1,-2.958,0A2.958,2.958,0,1,1,2.958,0" fill="#b41f1f62" stroke-width="2" opacity="0.8"/><path transform="translate(463.49793734563127,184.25741968805323)" d="M2.958,0A2.958,2.958,0,1,1,-2.958,0A2.958,2.958,0,1,1,2.958,0" fill="#b41f1f62" stroke-width="2" opacity="0.8"/><path transform="translate(467.43852324866884,177.00113990629598)" d="M2.958,0A2.958,2.958,0,1,1,-2.958,0A2.958,2.958,0,1,1,2.958,0" fill="#b41f1f62" stroke-width="2" opacity="0.8"/><path transform="translate(466.05006773088235,192.78281072777918)" d="M2.958,0A2.958,2.958,0,1,1,-2.958,0A2.958,2.958,0,1,1,2.958,0" fill="#b41f1f62" stroke-width="2" opacity="0.8"/><path transform="translate(463.48675157867274,192.0611622895167)" d="M2.958,0A2.958,2.958,0,1,1,-2.958,0A2.958,2.958,0,1,1,2.958,0" fill="#b41f1f62" stroke-width="2" opacity="0.8"/><path transform="translate(466.5979927600242,181.2889591186913)" d="M2.958,0A2.958,2.958,0,1,1,-2.958,0A2.958,2.958,0,1,1,2.958,0" fill="#b41f1f62" stroke-width="2" opacity="0.8"/><path transform="translate(467.5163797377413,202.28908985352882)" d="M2.958,0A2.958,2.958,0,1,1,-2.958,0A2.958,2.958,0,1,1,2.958,0" fill="#b41f1f62" stroke-width="2" opacity="0.8"/><path transform="translate(468.3037334453661,200.50910242908594)" d="M2.958,0A2.958,2.958,0,1,1,-2.958,0A2.958,2.958,0,1,1,2.958,0" fill="#b41f1f62" stroke-width="2" opacity="0.8"/><path transform="translate(463.6841892430948,193.67095453761976)" d="M2.958,0A2.958,2.958,0,1,1,-2.958,0A2.958,2.958,0,1,1,2.958,0" fill="#b41f1f62" stroke-width="2" opacity="0.8"/><path transform="translate(474.9779965069192,196.20896014130813)" d="M2.958,0A2.958,2.958,0,1,1,-2.958,0A2.958,2.958,0,1,1,2.958,0" fill="#b41f1f62" stroke-width="2" opacity="0.8"/><path transform="translate(469.9238941358776,179.75907794240356)" d="M2.958,0A2.958,2.958,0,1,1,-2.958,0A2.958,2.958,0,1,1,2.958,0" fill="#b41f1f62" stroke-width="2" opacity="0.8"/><path transform="translate(473.2085147050957,182.3139302021209)" d="M2.958,0A2.958,2.958,0,1,1,-2.958,0A2.958,2.958,0,1,1,2.958,0" fill="#b41f1f62" stroke-width="2" opacity="0.8"/><path transform="translate(485.72139301561083,189.7087315002318)" d="M2.958,0A2.958,2.958,0,1,1,-2.958,0A2.958,2.958,0,1,1,2.958,0" fill="#b41f1f62" stroke-width="2" opacity="0.8"/><path transform="translate(485.5107277378811,188.76803322601882)" d="M2.958,0A2.958,2.958,0,1,1,-2.958,0A2.958,2.958,0,1,1,2.958,0" fill="#b41f1f62" stroke-width="2" opacity="0.8"/><path transform="translate(474.948522898741,184.40099459777957)" d="M2.958,0A2.958,2.958,0,1,1,-2.958,0A2.958,2.958,0,1,1,2.958,0" fill="#b41f1f62" stroke-width="2" opacity="0.8"/><path transform="translate(480.06112860649773,178.71127049502047)" d="M2.958,0A2.958,2.958,0,1,1,-2.958,0A2.958,2.958,0,1,1,2.958,0" fill="#b41f1f62" stroke-width="2" opacity="0.8"/><path transform="translate(475.2721999331302,187.8004524520602)" d="M2.958,0A2.958,2.958,0,1,1,-2.958,0A2.958,2.958,0,1,1,2.958,0" fill="#b41f1f62" stroke-width="2" opacity="0.8"/><path transform="translate(471.0170809163137,183.9363089424105)" d="M2.958,0A2.958,2.958,0,1,1,-2.958,0A2.958,2.958,0,1,1,2.958,0" fill="#b41f1f62" stroke-width="2" opacity="0.8"/><path transform="translate(424.2192054445118,191.28617676049907)" d="M2.958,0A2.958,2.958,0,1,1,-2.958,0A2.958,2.958,0,1,1,2.958,0" fill="#b41f1f62" stroke-width="2" opacity="0.8"/><path transform="translate(425.7378064731088,190.29610113774197)" d="M2.958,0A2.958,2.958,0,1,1,-2.958,0A2.958,2.958,0,1,1,2.958,0" fill="#b41f1f62" stroke-width="2" opacity="0.8"/><path transform="translate(423.7095428404441,192.17831689076957)" d="M2.958,0A2.958,2.958,0,1,1,-2.958,0A2.958,2.958,0,1,1,2.958,0" fill="#b41f1f62" stroke-width="2" opacity="0.8"/><path transform="translate(424.98969172576926,189.45212380803696)" d="M2.958,0A2.958,2.958,0,1,1,-2.958,0A2.958,2.958,0,1,1,2.958,0" fill="#b41f1f62" stroke-width="2" opacity="0.8"/><path transform="translate(424.8992290548854,188.0273634711357)" d="M2.958,0A2.958,2.958,0,1,1,-2.958,0A2.958,2.958,0,1,1,2.958,0" fill="#b41f1f62" stroke-width="2" opacity="0.8"/><path transform="translate(425.02120718029664,189.14771946506517)" d="M2.958,0A2.958,2.958,0,1,1,-2.958,0A2.958,2.958,0,1,1,2.958,0" fill="#b41f1f62" stroke-width="2" opacity="0.8"/><path transform="translate(421.76233163027064,189.87454229192736)" d="M2.958,0A2.958,2.958,0,1,1,-2.958,0A2.958,2.958,0,1,1,2.958,0" fill="#b41f1f62" stroke-width="2" opacity="0.8"/><path transform="translate(414.5171505741596,195.0153911881689)" d="M2.958,0A2.958,2.958,0,1,1,-2.958,0A2.958,2.958,0,1,1,2.958,0" fill="#b41f1f62" stroke-width="2" opacity="0.8"/><path transform="translate(424.30016909107326,193.210895139905)" d="M2.958,0A2.958,2.958,0,1,1,-2.958,0A2.958,2.958,0,1,1,2.958,0" fill="#b41f1f62" stroke-width="2" opacity="0.8"/><path transform="translate(430.4484347777616,195.54732183202123)" d="M2.958,0A2.958,2.958,0,1,1,-2.958,0A2.958,2.958,0,1,1,2.958,0" fill="#b41f1f62" stroke-width="2" opacity="0.8"/><path transform="translate(431.7827369793172,192.3035903034306)" d="M2.958,0A2.958,2.958,0,1,1,-2.958,0A2.958,2.958,0,1,1,2.958,0" fill="#b41f1f62" stroke-width="2" opacity="0.8"/><path transform="translate(426.7022681575859,180.30344048416464)" d="M2.958,0A2.958,2.958,0,1,1,-2.958,0A2.958,2.958,0,1,1,2.958,0" fill="#b41f1f62" stroke-width="2" opacity="0.8"/><path transform="translate(431.5297255838127,174.56910652763509)" d="M2.958,0A2.958,2.958,0,1,1,-2.958,0A2.958,2.958,0,1,1,2.958,0" fill="#b41f1f62" stroke-width="2" opacity="0.8"/><path transform="translate(427.1005169717032,178.21704371151554)" d="M2.958,0A2.958,2.958,0,1,1,-2.958,0A2.958,2.958,0,1,1,2.958,0" fill="#b41f1f62" stroke-width="2" opacity="0.8"/><path transform="translate(447.94288552594116,176.0981196723269)" d="M2.958,0A2.958,2.958,0,1,1,-2.958,0A2.958,2.958,0,1,1,2.958,0" fill="#b41f1f62" stroke-width="2" opacity="0.8"/><path transform="translate(445.5455803595537,180.31025822492938)" d="M2.958,0A2.958,2.958,0,1,1,-2.958,0A2.958,2.958,0,1,1,2.958,0" fill="#b41f1f62" stroke-width="2" opacity="0.8"/><path transform="translate(455.37804706850056,187.62587332800467)" d="M2.958,0A2.958,2.958,0,1,1,-2.958,0A2.958,2.958,0,1,1,2.958,0" fill="#b41f1f62" stroke-width="2" opacity="0.8"/><path transform="translate(454.21108749169207,189.69547125911777)" d="M2.958,0A2.958,2.958,0,1,1,-2.958,0A2.958,2.958,0,1,1,2.958,0" fill="#b41f1f62" stroke-width="2" opacity="0.8"/><path transform="translate(450.9996182873492,187.66638177779168)" d="M2.958,0A2.958,2.958,0,1,1,-2.958,0A2.958,2.958,0,1,1,2.958,0" fill="#b41f1f62" stroke-width="2" opacity="0.8"/><path transform="translate(441.8881008916974,187.9813604682331)" d="M2.958,0A2.958,2.958,0,1,1,-2.958,0A2.958,2.958,0,1,1,2.958,0" fill="#b41f1f62" stroke-width="2" opacity="0.8"/><path transform="translate(503.36214649354224,189.62391334253607)" d="M2.958,0A2.958,2.958,0,1,1,-2.958,0A2.958,2.958,0,1,1,2.958,0" fill="#b41f1f62" stroke-width="2" opacity="0.8"/><path transform="translate(505.76495576748084,194.8163851335148)" d="M2.958,0A2.958,2.958,0,1,1,-2.958,0A2.958,2.958,0,1,1,2.958,0" fill="#b41f1f62" stroke-width="2" opacity="0.8"/><path transform="translate(501.63944960590516,194.62656646951837)" d="M2.958,0A2.958,2.958,0,1,1,-2.958,0A2.958,2.958,0,1,1,2.958,0" fill="#b41f1f62" stroke-width="2" opacity="0.8"/><path transform="translate(498.79373722594073,196.52668841851118)" d="M2.958,0A2.958,2.958,0,1,1,-2.958,0A2.958,2.958,0,1,1,2.958,0" fill="#b41f1f62" stroke-width="2" opacity="0.8"/><path transform="translate(496.93450296065976,199.3805158778323)" d="M2.958,0A2.958,2.958,0,1,1,-2.958,0A2.958,2.958,0,1,1,2.958,0" fill="#b41f1f62" stroke-width="2" opacity="0.8"/><path transform="translate(499.547267304903,199.63213597454615)" d="M2.958,0A2.958,2.958,0,1,1,-2.958,0A2.958,2.958,0,1,1,2.958,0" fill="#b41f1f62" stroke-width="2" opacity="0.8"/><path transform="translate(490.32540143043934,199.78007373327)" d="M2.958,0A2.958,2.958,0,1,1,-2.958,0A2.958,2.958,0,1,1,2.958,0" fill="#b41f1f62" stroke-width="2" opacity="0.8"/><path transform="translate(485.77661164298115,194.94985227654252)" d="M2.958,0A2.958,2.958,0,1,1,-2.958,0A2.958,2.958,0,1,1,2.958,0" fill="#b41f1f62" stroke-width="2" opacity="0.8"/><path transform="translate(551.0950100416435,240.96871921442744)" d="M2.958,0A2.958,2.958,0,1,1,-2.958,0A2.958,2.958,0,1,1,2.958,0" fill="#b41f1f62" stroke-width="2" opacity="0.8"/><path transform="translate(550.2585632456985,242.77098317390391)" d="M2.958,0A2.958,2.958,0,1,1,-2.958,0A2.958,2.958,0,1,1,2.958,0" fill="#b41f1f62" stroke-width="2" opacity="0.8"/><path transform="translate(547.7877516107224,240.48978441078134)" d="M2.958,0A2.958,2.958,0,1,1,-2.958,0A2.958,2.958,0,1,1,2.958,0" fill="#b41f1f62" stroke-width="2" opacity="0.8"/><path transform="translate(545.126604385584,240.98948503674228)" d="M2.958,0A2.958,2.958,0,1,1,-2.958,0A2.958,2.958,0,1,1,2.958,0" fill="#b41f1f62" stroke-width="2" opacity="0.8"/><path transform="translate(547.0444307635084,240.5984848258022)" d="M2.958,0A2.958,2.958,0,1,1,-2.958,0A2.958,2.958,0,1,1,2.958,0" fill="#b41f1f62" stroke-width="2" opacity="0.8"/><path transform="translate(545.998650328756,240.99945261147286)" d="M2.958,0A2.958,2.958,0,1,1,-2.958,0A2.958,2.958,0,1,1,2.958,0" fill="#b41f1f62" stroke-width="2" opacity="0.8"/><path transform="translate(547.7172635236939,242.52350842365286)" d="M2.958,0A2.958,2.958,0,1,1,-2.958,0A2.958,2.958,0,1,1,2.958,0" fill="#b41f1f62" stroke-width="2" opacity="0.8"/><path transform="translate(545.7192724825627,242.40759827969214)" d="M2.958,0A2.958,2.958,0,1,1,-2.958,0A2.958,2.958,0,1,1,2.958,0" fill="#b41f1f62" stroke-width="2" opacity="0.8"/><path transform="translate(546.5986868277787,242.64831452132466)" d="M2.958,0A2.958,2.958,0,1,1,-2.958,0A2.958,2.958,0,1,1,2.958,0" fill="#b41f1f62" stroke-width="2" opacity="0.8"/><path transform="translate(546.7406395370463,241.58158395863256)" d="M2.958,0A2.958,2.958,0,1,1,-2.958,0A2.958,2.958,0,1,1,2.958,0" fill="#b41f1f62" stroke-width="2" opacity="0.8"/><path transform="translate(547.8280558821461,241.38746598412263)" d="M2.958,0A2.958,2.958,0,1,1,-2.958,0A2.958,2.958,0,1,1,2.958,0" fill="#b41f1f62" stroke-width="2" opacity="0.8"/><path transform="translate(547.4223498900569,242.2116029342069)" d="M2.958,0A2.958,2.958,0,1,1,-2.958,0A2.958,2.958,0,1,1,2.958,0" fill="#b41f1f62" stroke-width="2" opacity="0.8"/><path transform="translate(547.284835977202,240.89265649344588)" d="M2.958,0A2.958,2.958,0,1,1,-2.958,0A2.958,2.958,0,1,1,2.958,0" fill="#b41f1f62" stroke-width="2" opacity="0.8"/><path transform="translate(546.5637978879777,241.39743304139802)" d="M2.958,0A2.958,2.958,0,1,1,-2.958,0A2.958,2.958,0,1,1,2.958,0" fill="#b41f1f62" stroke-width="2" opacity="0.8"/><path transform="translate(549.3652110797466,246.0078249301141)" d="M2.958,0A2.958,2.958,0,1,1,-2.958,0A2.958,2.958,0,1,1,2.958,0" fill="#b41f1f62" stroke-width="2" opacity="0.8"/><path transform="translate(548.4271158459587,241.79112143920065)" d="M2.958,0A2.958,2.958,0,1,1,-2.958,0A2.958,2.958,0,1,1,2.958,0" fill="#b41f1f62" stroke-width="2" opacity="0.8"/><path transform="translate(531.2675278991273,251.67168068280534)" d="M2.958,0A2.958,2.958,0,1,1,-2.958,0A2.958,2.958,0,1,1,2.958,0" fill="#b41f1f62" stroke-width="2" opacity="0.8"/><path transform="translate(530.4717404783196,250.52478506746274)" d="M2.958,0A2.958,2.958,0,1,1,-2.958,0A2.958,2.958,0,1,1,2.958,0" fill="#b41f1f62" stroke-width="2" opacity="0.8"/><path transform="translate(527.6906569741195,252.40656135426616)" d="M2.958,0A2.958,2.958,0,1,1,-2.958,0A2.958,2.958,0,1,1,2.958,0" fill="#b41f1f62" stroke-width="2" opacity="0.8"/><path transform="translate(542.980179992423,260.3601497189952)" d="M2.958,0A2.958,2.958,0,1,1,-2.958,0A2.958,2.958,0,1,1,2.958,0" fill="#b41f1f62" stroke-width="2" opacity="0.8"/><path transform="translate(549.2002654050634,255.44463318456565)" d="M2.958,0A2.958,2.958,0,1,1,-2.958,0A2.958,2.958,0,1,1,2.958,0" fill="#b41f1f62" stroke-width="2" opacity="0.8"/><path transform="translate(546.6339308712932,264.73595723649896)" d="M2.958,0A2.958,2.958,0,1,1,-2.958,0A2.958,2.958,0,1,1,2.958,0" fill="#b41f1f62" stroke-width="2" opacity="0.8"/><path transform="translate(537.9366419568423,267.09606155150914)" d="M2.958,0A2.958,2.958,0,1,1,-2.958,0A2.958,2.958,0,1,1,2.958,0" fill="#b41f1f62" stroke-width="2" opacity="0.8"/><path transform="translate(530.218107651318,260.079743389907)" d="M2.958,0A2.958,2.958,0,1,1,-2.958,0A2.958,2.958,0,1,1,2.958,0" fill="#b41f1f62" stroke-width="2" opacity="0.8"/><path transform="translate(529.0307296110113,281.33029207105983)" d="M2.958,0A2.958,2.958,0,1,1,-2.958,0A2.958,2.958,0,1,1,2.958,0" fill="#b41f1f62" stroke-width="2" opacity="0.8"/><path transform="translate(529.0260244868136,259.9627958970209)" d="M2.958,0A2.958,2.958,0,1,1,-2.958,0A2.958,2.958,0,1,1,2.958,0" fill="#b41f1f62" stroke-width="2" opacity="0.8"/><path transform="translate(513.9461014351027,262.84264324330525)" d="M2.958,0A2.958,2.958,0,1,1,-2.958,0A2.958,2.958,0,1,1,2.958,0" fill="#b41f1f62" stroke-width="2" opacity="0.8"/><path transform="translate(503.2771879302095,262.6588831027807)" d="M2.958,0A2.958,2.958,0,1,1,-2.958,0A2.958,2.958,0,1,1,2.958,0" fill="#b41f1f62" stroke-width="2" opacity="0.8"/><path transform="translate(508.36307208356357,254.66432137931724)" d="M2.958,0A2.958,2.958,0,1,1,-2.958,0A2.958,2.958,0,1,1,2.958,0" fill="#b41f1f62" stroke-width="2" opacity="0.8"/><path transform="translate(490.36570570186404,260.2974172364411)" d="M2.958,0A2.958,2.958,0,1,1,-2.958,0A2.958,2.958,0,1,1,2.958,0" fill="#b41f1f62" stroke-width="2" opacity="0.8"/><path transform="translate(488.5223623277393,277.3811659940702)" d="M2.958,0A2.958,2.958,0,1,1,-2.958,0A2.958,2.958,0,1,1,2.958,0" fill="#b41f1f62" stroke-width="2" opacity="0.8"/><path transform="translate(525.8443839943625,239.24116177650512)" d="M2.958,0A2.958,2.958,0,1,1,-2.958,0A2.958,2.958,0,1,1,2.958,0" fill="#b41f1f62" stroke-width="2" opacity="0.8"/><path transform="translate(525.0871253264136,243.7439584283311)" d="M2.958,0A2.958,2.958,0,1,1,-2.958,0A2.958,2.958,0,1,1,2.958,0" fill="#b41f1f62" stroke-width="2" opacity="0.8"/><path transform="translate(502.8000173158807,242.6601781130962)" d="M2.958,0A2.958,2.958,0,1,1,-2.958,0A2.958,2.958,0,1,1,2.958,0" fill="#b41f1f62" stroke-width="2" opacity="0.8"/><path transform="translate(451.56006072237324,230.43901470415813)" d="M2.958,0A2.958,2.958,0,1,1,-2.958,0A2.958,2.958,0,1,1,2.958,0" fill="#b41f1f62" stroke-width="2" opacity="0.8"/><path transform="translate(551.5712041207612,211.22651420249258)" d="M2.958,0A2.958,2.958,0,1,1,-2.958,0A2.958,2.958,0,1,1,2.958,0" fill="#b41f1f62" stroke-width="2" opacity="0.8"/><path transform="translate(553.2722396819063,226.19185326800152)" d="M2.958,0A2.958,2.958,0,1,1,-2.958,0A2.958,2.958,0,1,1,2.958,0" fill="#b41f1f62" stroke-width="2" opacity="0.8"/><path transform="translate(562.4530910775197,224.60758221792548)" d="M2.958,0A2.958,2.958,0,1,1,-2.958,0A2.958,2.958,0,1,1,2.958,0" fill="#b41f1f62" stroke-width="2" opacity="0.8"/><path transform="translate(552.9372881046293,253.56217953162468)" d="M2.958,0A2.958,2.958,0,1,1,-2.958,0A2.958,2.958,0,1,1,2.958,0" fill="#b41f1f62" stroke-width="2" opacity="0.8"/><path transform="translate(531.9201197476727,234.24202256903936)" d="M2.958,0A2.958,2.958,0,1,1,-2.958,0A2.958,2.958,0,1,1,2.958,0" fill="#b41f1f62" stroke-width="2" opacity="0.8"/><path transform="translate(532.7738778496264,234.8635010465273)" d="M2.958,0A2.958,2.958,0,1,1,-2.958,0A2.958,2.958,0,1,1,2.958,0" fill="#b41f1f62" stroke-width="2" opacity="0.8"/><path transform="translate(558.1972618532764,258.0981427303177)" d="M2.958,0A2.958,2.958,0,1,1,-2.958,0A2.958,2.958,0,1,1,2.958,0" fill="#b41f1f62" stroke-width="2" opacity="0.8"/><path transform="translate(381.388371102365,217.60034413145695)" d="M2.958,0A2.958,2.958,0,1,1,-2.958,0A2.958,2.958,0,1,1,2.958,0" fill="#b41f1f62" stroke-width="2" opacity="0.8"/><path transform="translate(388.3484038769452,225.8780928380461)" d="M2.958,0A2.958,2.958,0,1,1,-2.958,0A2.958,2.958,0,1,1,2.958,0" fill="#b41f1f62" stroke-width="2" opacity="0.8"/><path transform="translate(374.9181151239227,218.10332717376377)" d="M2.958,0A2.958,2.958,0,1,1,-2.958,0A2.958,2.958,0,1,1,2.958,0" fill="#b41f1f62" stroke-width="2" opacity="0.8"/><path transform="translate(370.70622998416275,232.47433944541262)" d="M2.958,0A2.958,2.958,0,1,1,-2.958,0A2.958,2.958,0,1,1,2.958,0" fill="#b41f1f62" stroke-width="2" opacity="0.8"/><path transform="translate(370.3699467679626,232.44856117823747)" d="M2.958,0A2.958,2.958,0,1,1,-2.958,0A2.958,2.958,0,1,1,2.958,0" fill="#b41f1f62" stroke-width="2" opacity="0.8"/><path transform="translate(369.8762638309795,231.49957541896856)" d="M2.958,0A2.958,2.958,0,1,1,-2.958,0A2.958,2.958,0,1,1,2.958,0" fill="#b41f1f62" stroke-width="2" opacity="0.8"/><path transform="translate(370.6270418561662,232.83463213103596)" d="M2.958,0A2.958,2.958,0,1,1,-2.958,0A2.958,2.958,0,1,1,2.958,0" fill="#b41f1f62" stroke-width="2" opacity="0.8"/><path transform="translate(363.47258979872413,238.69742931739347)" d="M2.958,0A2.958,2.958,0,1,1,-2.958,0A2.958,2.958,0,1,1,2.958,0" fill="#b41f1f62" stroke-width="2" opacity="0.8"/><path transform="translate(359.67768519394076,235.21869378356223)" d="M2.958,0A2.958,2.958,0,1,1,-2.958,0A2.958,2.958,0,1,1,2.958,0" fill="#b41f1f62" stroke-width="2" opacity="0.8"/><path transform="translate(357.5790222501764,236.28001745610663)" d="M2.958,0A2.958,2.958,0,1,1,-2.958,0A2.958,2.958,0,1,1,2.958,0" fill="#b41f1f62" stroke-width="2" opacity="0.8"/><path transform="translate(365.2448236543228,237.57933907193683)" d="M2.958,0A2.958,2.958,0,1,1,-2.958,0A2.958,2.958,0,1,1,2.958,0" fill="#b41f1f62" stroke-width="2" opacity="0.8"/><path transform="translate(382.1893075270109,229.09213075427715)" d="M2.958,0A2.958,2.958,0,1,1,-2.958,0A2.958,2.958,0,1,1,2.958,0" fill="#b41f1f62" stroke-width="2" opacity="0.8"/><path transform="translate(373.5174085280387,243.1936648638016)" d="M2.958,0A2.958,2.958,0,1,1,-2.958,0A2.958,2.958,0,1,1,2.958,0" fill="#b41f1f62" stroke-width="2" opacity="0.8"/><path transform="translate(395.41878513033816,241.4168924968235)" d="M2.958,0A2.958,2.958,0,1,1,-2.958,0A2.958,2.958,0,1,1,2.958,0" fill="#b41f1f62" stroke-width="2" opacity="0.8"/><path transform="translate(394.2708236021731,242.6505686051769)" d="M2.958,0A2.958,2.958,0,1,1,-2.958,0A2.958,2.958,0,1,1,2.958,0" fill="#b41f1f62" stroke-width="2" opacity="0.8"/><path transform="translate(402.0983747475857,259.6855711520534)" d="M2.958,0A2.958,2.958,0,1,1,-2.958,0A2.958,2.958,0,1,1,2.958,0" fill="#b41f1f62" stroke-width="2" opacity="0.8"/><path transform="translate(406.03052693743984,248.18436373986106)" d="M2.958,0A2.958,2.958,0,1,1,-2.958,0A2.958,2.958,0,1,1,2.958,0" fill="#b41f1f62" stroke-width="2" opacity="0.8"/><path transform="translate(412.38368746652213,248.44576297847198)" d="M2.958,0A2.958,2.958,0,1,1,-2.958,0A2.958,2.958,0,1,1,2.958,0" fill="#b41f1f62" stroke-width="2" opacity="0.8"/><path transform="translate(419.91153107817263,258.39081582291556)" d="M2.958,0A2.958,2.958,0,1,1,-2.958,0A2.958,2.958,0,1,1,2.958,0" fill="#b41f1f62" stroke-width="2" opacity="0.8"/><path transform="translate(425.81122416576864,259.24710478053294)" d="M2.958,0A2.958,2.958,0,1,1,-2.958,0A2.958,2.958,0,1,1,2.958,0" fill="#b41f1f62" stroke-width="2" opacity="0.8"/><path transform="translate(415.6441609832573,260.62468578561766)" d="M2.958,0A2.958,2.958,0,1,1,-2.958,0A2.958,2.958,0,1,1,2.958,0" fill="#b41f1f62" stroke-width="2" opacity="0.8"/><path transform="translate(419.4523819772776,269.001335085989)" d="M2.958,0A2.958,2.958,0,1,1,-2.958,0A2.958,2.958,0,1,1,2.958,0" fill="#b41f1f62" stroke-width="2" opacity="0.8"/><path transform="translate(414.18761432850624,261.567827804181)" d="M2.958,0A2.958,2.958,0,1,1,-2.958,0A2.958,2.958,0,1,1,2.958,0" fill="#b41f1f62" stroke-width="2" opacity="0.8"/><path transform="translate(415.9561195951178,266.31645793169673)" d="M2.958,0A2.958,2.958,0,1,1,-2.958,0A2.958,2.958,0,1,1,2.958,0" fill="#b41f1f62" stroke-width="2" opacity="0.8"/><path transform="translate(415.1826149323001,261.80806259211613)" d="M2.958,0A2.958,2.958,0,1,1,-2.958,0A2.958,2.958,0,1,1,2.958,0" fill="#b41f1f62" stroke-width="2" opacity="0.8"/><path transform="translate(401.1728856956088,263.36715786545574)" d="M2.958,0A2.958,2.958,0,1,1,-2.958,0A2.958,2.958,0,1,1,2.958,0" fill="#b41f1f62" stroke-width="2" opacity="0.8"/><path transform="translate(338.435292307021,226.02005349049477)" d="M2.958,0A2.958,2.958,0,1,1,-2.958,0A2.958,2.958,0,1,1,2.958,0" fill="#b41f1f62" stroke-width="2" opacity="0.8"/><path transform="translate(344.9256116452457,229.22499962012535)" d="M2.958,0A2.958,2.958,0,1,1,-2.958,0A2.958,2.958,0,1,1,2.958,0" fill="#b41f1f62" stroke-width="2" opacity="0.8"/><path transform="translate(353.0705367341425,228.07331353563632)" d="M2.958,0A2.958,2.958,0,1,1,-2.958,0A2.958,2.958,0,1,1,2.958,0" fill="#b41f1f62" stroke-width="2" opacity="0.8"/><path transform="translate(358.0345315380132,220.82333682184117)" d="M2.958,0A2.958,2.958,0,1,1,-2.958,0A2.958,2.958,0,1,1,2.958,0" fill="#b41f1f62" stroke-width="2" opacity="0.8"/><path transform="translate(358.8344026515206,221.84716515567607)" d="M2.958,0A2.958,2.958,0,1,1,-2.958,0A2.958,2.958,0,1,1,2.958,0" fill="#b41f1f62" stroke-width="2" opacity="0.8"/><path transform="translate(353.6591211384216,233.08610233860463)" d="M2.958,0A2.958,2.958,0,1,1,-2.958,0A2.958,2.958,0,1,1,2.958,0" fill="#b41f1f62" stroke-width="2" opacity="0.8"/><path transform="translate(423.51210517602294,278.06269898544633)" d="M2.958,0A2.958,2.958,0,1,1,-2.958,0A2.958,2.958,0,1,1,2.958,0" fill="#b41f1f62" stroke-width="2" opacity="0.8"/><path transform="translate(411.5573611263976,278.50198481664484)" d="M2.958,0A2.958,2.958,0,1,1,-2.958,0A2.958,2.958,0,1,1,2.958,0" fill="#b41f1f62" stroke-width="2" opacity="0.8"/><path transform="translate(426.6806068310939,268.52733695975485)" d="M2.958,0A2.958,2.958,0,1,1,-2.958,0A2.958,2.958,0,1,1,2.958,0" fill="#b41f1f62" stroke-width="2" opacity="0.8"/><path transform="translate(430.77424243442874,270.09098269524657)" d="M2.958,0A2.958,2.958,0,1,1,-2.958,0A2.958,2.958,0,1,1,2.958,0" fill="#b41f1f62" stroke-width="2" opacity="0.8"/><path transform="translate(433.395351715928,264.45074176991966)" d="M2.958,0A2.958,2.958,0,1,1,-2.958,0A2.958,2.958,0,1,1,2.958,0" fill="#b41f1f62" stroke-width="2" opacity="0.8"/><path transform="translate(397.37727088339943,221.3384802401588)" d="M2.958,0A2.958,2.958,0,1,1,-2.958,0A2.958,2.958,0,1,1,2.958,0" fill="#b41f1f62" stroke-width="2" opacity="0.8"/><path transform="translate(404.4713553096335,208.9486340735748)" d="M2.958,0A2.958,2.958,0,1,1,-2.958,0A2.958,2.958,0,1,1,2.958,0" fill="#b41f1f62" stroke-width="2" opacity="0.8"/><path transform="translate(405.1686014500874,209.77901501367796)" d="M2.958,0A2.958,2.958,0,1,1,-2.958,0A2.958,2.958,0,1,1,2.958,0" fill="#b41f1f62" stroke-width="2" opacity="0.8"/><path transform="translate(407.14430973322897,206.76411805915996)" d="M2.958,0A2.958,2.958,0,1,1,-2.958,0A2.958,2.958,0,1,1,2.958,0" fill="#b41f1f62" stroke-width="2" opacity="0.8"/><path transform="translate(423.33641761402123,206.0297274366112)" d="M2.958,0A2.958,2.958,0,1,1,-2.958,0A2.958,2.958,0,1,1,2.958,0" fill="#b41f1f62" stroke-width="2" opacity="0.8"/><path transform="translate(419.3524202820713,218.31315152769866)" d="M2.958,0A2.958,2.958,0,1,1,-2.958,0A2.958,2.958,0,1,1,2.958,0" fill="#b41f1f62" stroke-width="2" opacity="0.8"/><path transform="translate(252.007309810097,239.99456093681692)" d="M2.958,0A2.958,2.958,0,1,1,-2.958,0A2.958,2.958,0,1,1,2.958,0" fill="#b41f1f62" stroke-width="2" opacity="0.8"/><path transform="translate(251.10206166975922,236.11153115978686)" d="M2.958,0A2.958,2.958,0,1,1,-2.958,0A2.958,2.958,0,1,1,2.958,0" fill="#b41f1f62" stroke-width="2" opacity="0.8"/><path transform="translate(249.90083458464642,236.33024204092453)" d="M2.958,0A2.958,2.958,0,1,1,-2.958,0A2.958,2.958,0,1,1,2.958,0" fill="#b41f1f62" stroke-width="2" opacity="0.8"/><path transform="translate(247.17772176159178,236.31753750803364)" d="M2.958,0A2.958,2.958,0,1,1,-2.958,0A2.958,2.958,0,1,1,2.958,0" fill="#b41f1f62" stroke-width="2" opacity="0.8"/><path transform="translate(249.7081908203504,237.09841155705044)" d="M2.958,0A2.958,2.958,0,1,1,-2.958,0A2.958,2.958,0,1,1,2.958,0" fill="#b41f1f62" stroke-width="2" opacity="0.8"/><path transform="translate(250.36957148579222,235.44787995146498)" d="M2.958,0A2.958,2.958,0,1,1,-2.958,0A2.958,2.958,0,1,1,2.958,0" fill="#b41f1f62" stroke-width="2" opacity="0.8"/><path transform="translate(247.26037215078986,235.74509925931943)" d="M2.958,0A2.958,2.958,0,1,1,-2.958,0A2.958,2.958,0,1,1,2.958,0" fill="#b41f1f62" stroke-width="2" opacity="0.8"/><path transform="translate(249.29635928921152,233.44909814136645)" d="M2.958,0A2.958,2.958,0,1,1,-2.958,0A2.958,2.958,0,1,1,2.958,0" fill="#b41f1f62" stroke-width="2" opacity="0.8"/><path transform="translate(249.05622040330263,232.86040909817348)" d="M2.958,0A2.958,2.958,0,1,1,-2.958,0A2.958,2.958,0,1,1,2.958,0" fill="#b41f1f62" stroke-width="2" opacity="0.8"/><path transform="translate(250.27103020543746,232.85138123015804)" d="M2.958,0A2.958,2.958,0,1,1,-2.958,0A2.958,2.958,0,1,1,2.958,0" fill="#b41f1f62" stroke-width="2" opacity="0.8"/><path transform="translate(249.5720085464186,233.08479571267526)" d="M2.958,0A2.958,2.958,0,1,1,-2.958,0A2.958,2.958,0,1,1,2.958,0" fill="#b41f1f62" stroke-width="2" opacity="0.8"/><path transform="translate(249.90624991626964,233.75173986240634)" d="M2.958,0A2.958,2.958,0,1,1,-2.958,0A2.958,2.958,0,1,1,2.958,0" fill="#b41f1f62" stroke-width="2" opacity="0.8"/><path transform="translate(249.92959798539914,237.33703895564759)" d="M2.958,0A2.958,2.958,0,1,1,-2.958,0A2.958,2.958,0,1,1,2.958,0" fill="#b41f1f62" stroke-width="2" opacity="0.8"/><path transform="translate(248.78563137400533,232.0996550784348)" d="M2.958,0A2.958,2.958,0,1,1,-2.958,0A2.958,2.958,0,1,1,2.958,0" fill="#b41f1f62" stroke-width="2" opacity="0.8"/><path transform="translate(249.46166006760814,231.7248335644963)" d="M2.958,0A2.958,2.958,0,1,1,-2.958,0A2.958,2.958,0,1,1,2.958,0" fill="#b41f1f62" stroke-width="2" opacity="0.8"/><path transform="translate(248.21133989417422,234.08703106620123)" d="M2.958,0A2.958,2.958,0,1,1,-2.958,0A2.958,2.958,0,1,1,2.958,0" fill="#b41f1f62" stroke-width="2" opacity="0.8"/><path transform="translate(249.71422758347126,231.2226271255413)" d="M2.958,0A2.958,2.958,0,1,1,-2.958,0A2.958,2.958,0,1,1,2.958,0" fill="#b41f1f62" stroke-width="2" opacity="0.8"/><path transform="translate(250.06649046675602,232.356138843194)" d="M2.958,0A2.958,2.958,0,1,1,-2.958,0A2.958,2.958,0,1,1,2.958,0" fill="#b41f1f62" stroke-width="2" opacity="0.8"/><path transform="translate(250.56869589285088,232.28628677502502)" d="M2.958,0A2.958,2.958,0,1,1,-2.958,0A2.958,2.958,0,1,1,2.958,0" fill="#b41f1f62" stroke-width="2" opacity="0.8"/><path transform="translate(249.56623811108284,233.77715742159126)" d="M2.958,0A2.958,2.958,0,1,1,-2.958,0A2.958,2.958,0,1,1,2.958,0" fill="#b41f1f62" stroke-width="2" opacity="0.8"/><path transform="translate(249.82564137342115,232.4467792671594)" d="M2.958,0A2.958,2.958,0,1,1,-2.958,0A2.958,2.958,0,1,1,2.958,0" fill="#b41f1f62" stroke-width="2" opacity="0.8"/><path transform="translate(250.52093444345337,233.65838305643047)" d="M2.958,0A2.958,2.958,0,1,1,-2.958,0A2.958,2.958,0,1,1,2.958,0" fill="#b41f1f62" stroke-width="2" opacity="0.8"/><path transform="translate(254.9152541157623,229.23902321194646)" d="M2.958,0A2.958,2.958,0,1,1,-2.958,0A2.958,2.958,0,1,1,2.958,0" fill="#b41f1f62" stroke-width="2" opacity="0.8"/><path transform="translate(255.9488722483443,228.08103956175273)" d="M2.958,0A2.958,2.958,0,1,1,-2.958,0A2.958,2.958,0,1,1,2.958,0" fill="#b41f1f62" stroke-width="2" opacity="0.8"/><path transform="translate(255.1398572142275,229.25221487231966)" d="M2.958,0A2.958,2.958,0,1,1,-2.958,0A2.958,2.958,0,1,1,2.958,0" fill="#b41f1f62" stroke-width="2" opacity="0.8"/><path transform="translate(254.25999898936925,231.52274309739005)" d="M2.958,0A2.958,2.958,0,1,1,-2.958,0A2.958,2.958,0,1,1,2.958,0" fill="#b41f1f62" stroke-width="2" opacity="0.8"/><path transform="translate(254.56414531954397,230.96788762887445)" d="M2.958,0A2.958,2.958,0,1,1,-2.958,0A2.958,2.958,0,1,1,2.958,0" fill="#b41f1f62" stroke-width="2" opacity="0.8"/><path transform="translate(253.55458546351747,231.00959229669888)" d="M2.958,0A2.958,2.958,0,1,1,-2.958,0A2.958,2.958,0,1,1,2.958,0" fill="#b41f1f62" stroke-width="2" opacity="0.8"/><path transform="translate(263.17745220587267,209.6612968280715)" d="M2.958,0A2.958,2.958,0,1,1,-2.958,0A2.958,2.958,0,1,1,2.958,0" fill="#b41f1f62" stroke-width="2" opacity="0.8"/><path transform="translate(263.2451882391256,211.21698424196848)" d="M2.958,0A2.958,2.958,0,1,1,-2.958,0A2.958,2.958,0,1,1,2.958,0" fill="#b41f1f62" stroke-width="2" opacity="0.8"/><path transform="translate(264.1307281233917,212.05986321036426)" d="M2.958,0A2.958,2.958,0,1,1,-2.958,0A2.958,2.958,0,1,1,2.958,0" fill="#b41f1f62" stroke-width="2" opacity="0.8"/><path transform="translate(272.3515566309393,207.31429846584888)" d="M2.958,0A2.958,2.958,0,1,1,-2.958,0A2.958,2.958,0,1,1,2.958,0" fill="#b41f1f62" stroke-width="2" opacity="0.8"/><path transform="translate(291.74385917318705,212.87859118064216)" d="M2.958,0A2.958,2.958,0,1,1,-2.958,0A2.958,2.958,0,1,1,2.958,0" fill="#b41f1f62" stroke-width="2" opacity="0.8"/><path transform="translate(267.33163299227317,217.14029868737816)" d="M2.958,0A2.958,2.958,0,1,1,-2.958,0A2.958,2.958,0,1,1,2.958,0" fill="#b41f1f62" stroke-width="2" opacity="0.8"/><path transform="translate(264.3816976725461,216.25298140097357)" d="M2.958,0A2.958,2.958,0,1,1,-2.958,0A2.958,2.958,0,1,1,2.958,0" fill="#b41f1f62" stroke-width="2" opacity="0.8"/><path transform="translate(259.9943912985691,224.32895723089268)" d="M2.958,0A2.958,2.958,0,1,1,-2.958,0A2.958,2.958,0,1,1,2.958,0" fill="#b41f1f62" stroke-width="2" opacity="0.8"/><path transform="translate(291.4167198775963,235.03925878956898)" d="M2.958,0A2.958,2.958,0,1,1,-2.958,0A2.958,2.958,0,1,1,2.958,0" fill="#b41f1f62" stroke-width="2" opacity="0.8"/><path transform="translate(289.35933774046725,235.57292008297736)" d="M2.958,0A2.958,2.958,0,1,1,-2.958,0A2.958,2.958,0,1,1,2.958,0" fill="#b41f1f62" stroke-width="2" opacity="0.8"/><path transform="translate(300.0158226154058,235.20242486741063)" d="M2.958,0A2.958,2.958,0,1,1,-2.958,0A2.958,2.958,0,1,1,2.958,0" fill="#b41f1f62" stroke-width="2" opacity="0.8"/><path transform="translate(325.55230715164225,235.51995936480898)" d="M2.958,0A2.958,2.958,0,1,1,-2.958,0A2.958,2.958,0,1,1,2.958,0" fill="#b41f1f62" stroke-width="2" opacity="0.8"/><path transform="translate(318.5458445665886,214.39230383756785)" d="M2.958,0A2.958,2.958,0,1,1,-2.958,0A2.958,2.958,0,1,1,2.958,0" fill="#b41f1f62" stroke-width="2" opacity="0.8"/><path transform="translate(251.37637928804315,240.37657295111558)" d="M2.958,0A2.958,2.958,0,1,1,-2.958,0A2.958,2.958,0,1,1,2.958,0" fill="#b41f1f62" stroke-width="2" opacity="0.8"/><path transform="translate(250.87648203608296,247.31913395687297)" d="M2.958,0A2.958,2.958,0,1,1,-2.958,0A2.958,2.958,0,1,1,2.958,0" fill="#b41f1f62" stroke-width="2" opacity="0.8"/><path transform="translate(258.9937090353669,235.683946408898)" d="M2.958,0A2.958,2.958,0,1,1,-2.958,0A2.958,2.958,0,1,1,2.958,0" fill="#b41f1f62" stroke-width="2" opacity="0.8"/><path transform="translate(255.48386393618512,230.68331552440532)" d="M2.958,0A2.958,2.958,0,1,1,-2.958,0A2.958,2.958,0,1,1,2.958,0" fill="#b41f1f62" stroke-width="2" opacity="0.8"/><path transform="translate(253.6477114122481,238.3464337378432)" d="M2.958,0A2.958,2.958,0,1,1,-2.958,0A2.958,2.958,0,1,1,2.958,0" fill="#b41f1f62" stroke-width="2" opacity="0.8"/><path transform="translate(256.2444960894072,231.96683611547223)" d="M2.958,0A2.958,2.958,0,1,1,-2.958,0A2.958,2.958,0,1,1,2.958,0" fill="#b41f1f62" stroke-width="2" opacity="0.8"/><path transform="translate(267.2957675172611,195.50315485946976)" d="M2.958,0A2.958,2.958,0,1,1,-2.958,0A2.958,2.958,0,1,1,2.958,0" fill="#b41f1f62" stroke-width="2" opacity="0.8"/><path transform="translate(261.3249649111385,188.64138727901172)" d="M2.958,0A2.958,2.958,0,1,1,-2.958,0A2.958,2.958,0,1,1,2.958,0" fill="#b41f1f62" stroke-width="2" opacity="0.8"/><path transform="translate(268.4231330300722,189.69726318494486)" d="M2.958,0A2.958,2.958,0,1,1,-2.958,0A2.958,2.958,0,1,1,2.958,0" fill="#b41f1f62" stroke-width="2" opacity="0.8"/><path transform="translate(273.4507801744967,194.4516664640314)" d="M2.958,0A2.958,2.958,0,1,1,-2.958,0A2.958,2.958,0,1,1,2.958,0" fill="#b41f1f62" stroke-width="2" opacity="0.8"/><path transform="translate(273.3688399927246,195.6520084699623)" d="M2.958,0A2.958,2.958,0,1,1,-2.958,0A2.958,2.958,0,1,1,2.958,0" fill="#b41f1f62" stroke-width="2" opacity="0.8"/><path transform="translate(282.8931654547255,193.80766550214776)" d="M2.958,0A2.958,2.958,0,1,1,-2.958,0A2.958,2.958,0,1,1,2.958,0" fill="#b41f1f62" stroke-width="2" opacity="0.8"/><path transform="translate(281.4755026565458,194.83918693112264)" d="M2.958,0A2.958,2.958,0,1,1,-2.958,0A2.958,2.958,0,1,1,2.958,0" fill="#b41f1f62" stroke-width="2" opacity="0.8"/><path transform="translate(277.0073214119361,198.32908579186915)" d="M2.958,0A2.958,2.958,0,1,1,-2.958,0A2.958,2.958,0,1,1,2.958,0" fill="#b41f1f62" stroke-width="2" opacity="0.8"/><path transform="translate(280.6254731435788,202.48110277236356)" d="M2.958,0A2.958,2.958,0,1,1,-2.958,0A2.958,2.958,0,1,1,2.958,0" fill="#b41f1f62" stroke-width="2" opacity="0.8"/><path transform="translate(288.3685096053,197.50509360672277)" d="M2.958,0A2.958,2.958,0,1,1,-2.958,0A2.958,2.958,0,1,1,2.958,0" fill="#b41f1f62" stroke-width="2" opacity="0.8"/><path transform="translate(283.75402563093894,202.20954022626938)" d="M2.958,0A2.958,2.958,0,1,1,-2.958,0A2.958,2.958,0,1,1,2.958,0" fill="#b41f1f62" stroke-width="2" opacity="0.8"/><path transform="translate(283.94400611738774,197.90976188575405)" d="M2.958,0A2.958,2.958,0,1,1,-2.958,0A2.958,2.958,0,1,1,2.958,0" fill="#b41f1f62" stroke-width="2" opacity="0.8"/><path transform="translate(283.8237147346131,194.9676397601088)" d="M2.958,0A2.958,2.958,0,1,1,-2.958,0A2.958,2.958,0,1,1,2.958,0" fill="#b41f1f62" stroke-width="2" opacity="0.8"/><path transform="translate(281.21405754785746,197.19229928332334)" d="M2.958,0A2.958,2.958,0,1,1,-2.958,0A2.958,2.958,0,1,1,2.958,0" fill="#b41f1f62" stroke-width="2" opacity="0.8"/><path transform="translate(283.1380094648316,199.28256194610185)" d="M2.958,0A2.958,2.958,0,1,1,-2.958,0A2.958,2.958,0,1,1,2.958,0" fill="#b41f1f62" stroke-width="2" opacity="0.8"/><path transform="translate(281.23003721494206,199.10645645827663)" d="M2.958,0A2.958,2.958,0,1,1,-2.958,0A2.958,2.958,0,1,1,2.958,0" fill="#b41f1f62" stroke-width="2" opacity="0.8"/><path transform="translate(282.2818544128154,198.56761517956875)" d="M2.958,0A2.958,2.958,0,1,1,-2.958,0A2.958,2.958,0,1,1,2.958,0" fill="#b41f1f62" stroke-width="2" opacity="0.8"/><path transform="translate(283.8261116846752,200.1810421887667)" d="M2.958,0A2.958,2.958,0,1,1,-2.958,0A2.958,2.958,0,1,1,2.958,0" fill="#b41f1f62" stroke-width="2" opacity="0.8"/><path transform="translate(285.8248129332328,183.5591120022018)" d="M2.958,0A2.958,2.958,0,1,1,-2.958,0A2.958,2.958,0,1,1,2.958,0" fill="#b41f1f62" stroke-width="2" opacity="0.8"/><path transform="translate(285.4347315045152,183.15965735188547)" d="M2.958,0A2.958,2.958,0,1,1,-2.958,0A2.958,2.958,0,1,1,2.958,0" fill="#b41f1f62" stroke-width="2" opacity="0.8"/><path transform="translate(284.4130093463177,185.11918703957417)" d="M2.958,0A2.958,2.958,0,1,1,-2.958,0A2.958,2.958,0,1,1,2.958,0" fill="#b41f1f62" stroke-width="2" opacity="0.8"/><path transform="translate(290.87820509684843,186.3452648148741)" d="M2.958,0A2.958,2.958,0,1,1,-2.958,0A2.958,2.958,0,1,1,2.958,0" fill="#b41f1f62" stroke-width="2" opacity="0.8"/><path transform="translate(264.5151278927019,185.89850680628297)" d="M2.958,0A2.958,2.958,0,1,1,-2.958,0A2.958,2.958,0,1,1,2.958,0" fill="#b41f1f62" stroke-width="2" opacity="0.8"/><path transform="translate(263.98371518621434,189.0283676535728)" d="M2.958,0A2.958,2.958,0,1,1,-2.958,0A2.958,2.958,0,1,1,2.958,0" fill="#b41f1f62" stroke-width="2" opacity="0.8"/><path transform="translate(272.21475292550986,178.1815098264833)" d="M2.958,0A2.958,2.958,0,1,1,-2.958,0A2.958,2.958,0,1,1,2.958,0" fill="#b41f1f62" stroke-width="2" opacity="0.8"/><path transform="translate(270.9962145343893,183.72242682825708)" d="M2.958,0A2.958,2.958,0,1,1,-2.958,0A2.958,2.958,0,1,1,2.958,0" fill="#b41f1f62" stroke-width="2" opacity="0.8"/><path transform="translate(274.38212843773726,180.28561864165476)" d="M2.958,0A2.958,2.958,0,1,1,-2.958,0A2.958,2.958,0,1,1,2.958,0" fill="#b41f1f62" stroke-width="2" opacity="0.8"/><path transform="translate(274.3665038743661,173.87732876428709)" d="M2.958,0A2.958,2.958,0,1,1,-2.958,0A2.958,2.958,0,1,1,2.958,0" fill="#b41f1f62" stroke-width="2" opacity="0.8"/><path transform="translate(279.4917157639343,172.21939087790543)" d="M2.958,0A2.958,2.958,0,1,1,-2.958,0A2.958,2.958,0,1,1,2.958,0" fill="#b41f1f62" stroke-width="2" opacity="0.8"/><path transform="translate(303.7460095684969,187.73843609728647)" d="M2.958,0A2.958,2.958,0,1,1,-2.958,0A2.958,2.958,0,1,1,2.958,0" fill="#b41f1f62" stroke-width="2" opacity="0.8"/><path transform="translate(304.9309906587405,185.96782892557349)" d="M2.958,0A2.958,2.958,0,1,1,-2.958,0A2.958,2.958,0,1,1,2.958,0" fill="#b41f1f62" stroke-width="2" opacity="0.8"/><path transform="translate(303.2011916968431,184.28479596269608)" d="M2.958,0A2.958,2.958,0,1,1,-2.958,0A2.958,2.958,0,1,1,2.958,0" fill="#b41f1f62" stroke-width="2" opacity="0.8"/><path transform="translate(295.51000037721815,187.98052404742157)" d="M2.958,0A2.958,2.958,0,1,1,-2.958,0A2.958,2.958,0,1,1,2.958,0" fill="#b41f1f62" stroke-width="2" opacity="0.8"/><path transform="translate(306.21682120347305,196.93916634682864)" d="M2.958,0A2.958,2.958,0,1,1,-2.958,0A2.958,2.958,0,1,1,2.958,0" fill="#b41f1f62" stroke-width="2" opacity="0.8"/><path transform="translate(303.2739879580063,198.55067136761954)" d="M2.958,0A2.958,2.958,0,1,1,-2.958,0A2.958,2.958,0,1,1,2.958,0" fill="#b41f1f62" stroke-width="2" opacity="0.8"/><path transform="translate(257.0118752131766,137.1169031068148)" d="M2.958,0A2.958,2.958,0,1,1,-2.958,0A2.958,2.958,0,1,1,2.958,0" fill="#b41f1f62" stroke-width="2" opacity="0.8"/><path transform="translate(251.0658410910346,142.31243370574884)" d="M2.958,0A2.958,2.958,0,1,1,-2.958,0A2.958,2.958,0,1,1,2.958,0" fill="#b41f1f62" stroke-width="2" opacity="0.8"/><path transform="translate(261.91354931541764,132.5229021084824)" d="M2.958,0A2.958,2.958,0,1,1,-2.958,0A2.958,2.958,0,1,1,2.958,0" fill="#b41f1f62" stroke-width="2" opacity="0.8"/><path transform="translate(271.13577029359385,141.91308025936087)" d="M2.958,0A2.958,2.958,0,1,1,-2.958,0A2.958,2.958,0,1,1,2.958,0" fill="#b41f1f62" stroke-width="2" opacity="0.8"/><path transform="translate(270.1364196693148,120.9273711367041)" d="M2.958,0A2.958,2.958,0,1,1,-2.958,0A2.958,2.958,0,1,1,2.958,0" fill="#b41f1f62" stroke-width="2" opacity="0.8"/><path transform="translate(271.38638473903575,121.29758156786465)" d="M2.958,0A2.958,2.958,0,1,1,-2.958,0A2.958,2.958,0,1,1,2.958,0" fill="#b41f1f62" stroke-width="2" opacity="0.8"/><path transform="translate(271.41070934337495,129.18448348367656)" d="M2.958,0A2.958,2.958,0,1,1,-2.958,0A2.958,2.958,0,1,1,2.958,0" fill="#b41f1f62" stroke-width="2" opacity="0.8"/><path transform="translate(270.52312761276016,129.81931716386953)" d="M2.958,0A2.958,2.958,0,1,1,-2.958,0A2.958,2.958,0,1,1,2.958,0" fill="#b41f1f62" stroke-width="2" opacity="0.8"/><path transform="translate(268.92640376730606,129.51298528826646)" d="M2.958,0A2.958,2.958,0,1,1,-2.958,0A2.958,2.958,0,1,1,2.958,0" fill="#b41f1f62" stroke-width="2" opacity="0.8"/><path transform="translate(270.59592387392286,131.74095227976704)" d="M2.958,0A2.958,2.958,0,1,1,-2.958,0A2.958,2.958,0,1,1,2.958,0" fill="#b41f1f62" stroke-width="2" opacity="0.8"/><path transform="translate(269.0553951910488,130.1845149408764)" d="M2.958,0A2.958,2.958,0,1,1,-2.958,0A2.958,2.958,0,1,1,2.958,0" fill="#b41f1f62" stroke-width="2" opacity="0.8"/><path transform="translate(271.2699107211756,127.39649835216278)" d="M2.958,0A2.958,2.958,0,1,1,-2.958,0A2.958,2.958,0,1,1,2.958,0" fill="#b41f1f62" stroke-width="2" opacity="0.8"/><path transform="translate(267.7688544388907,129.17208009218848)" d="M2.958,0A2.958,2.958,0,1,1,-2.958,0A2.958,2.958,0,1,1,2.958,0" fill="#b41f1f62" stroke-width="2" opacity="0.8"/><path transform="translate(266.6259531386354,131.5838543510108)" d="M2.958,0A2.958,2.958,0,1,1,-2.958,0A2.958,2.958,0,1,1,2.958,0" fill="#b41f1f62" stroke-width="2" opacity="0.8"/><path transform="translate(266.90257893105354,128.2937957648801)" d="M2.958,0A2.958,2.958,0,1,1,-2.958,0A2.958,2.958,0,1,1,2.958,0" fill="#b41f1f62" stroke-width="2" opacity="0.8"/><path transform="translate(267.3326983034117,129.44543165244977)" d="M2.958,0A2.958,2.958,0,1,1,-2.958,0A2.958,2.958,0,1,1,2.958,0" fill="#b41f1f62" stroke-width="2" opacity="0.8"/><path transform="translate(271.07584654202674,130.84177814816303)" d="M2.958,0A2.958,2.958,0,1,1,-2.958,0A2.958,2.958,0,1,1,2.958,0" fill="#b41f1f62" stroke-width="2" opacity="0.8"/><path transform="translate(272.44805606494356,126.22190083118676)" d="M2.958,0A2.958,2.958,0,1,1,-2.958,0A2.958,2.958,0,1,1,2.958,0" fill="#b41f1f62" stroke-width="2" opacity="0.8"/><path transform="translate(273.5293468709947,125.6672430112776)" d="M2.958,0A2.958,2.958,0,1,1,-2.958,0A2.958,2.958,0,1,1,2.958,0" fill="#b41f1f62" stroke-width="2" opacity="0.8"/><path transform="translate(270.0907000662678,127.02429931103961)" d="M2.958,0A2.958,2.958,0,1,1,-2.958,0A2.958,2.958,0,1,1,2.958,0" fill="#b41f1f62" stroke-width="2" opacity="0.8"/><path transform="translate(275.64833950232696,127.71435862404451)" d="M2.958,0A2.958,2.958,0,1,1,-2.958,0A2.958,2.958,0,1,1,2.958,0" fill="#b41f1f62" stroke-width="2" opacity="0.8"/><path transform="translate(255.78126329581346,174.88594576630203)" d="M2.958,0A2.958,2.958,0,1,1,-2.958,0A2.958,2.958,0,1,1,2.958,0" fill="#b41f1f62" stroke-width="2" opacity="0.8"/><path transform="translate(254.4255660955505,175.65207465158255)" d="M2.958,0A2.958,2.958,0,1,1,-2.958,0A2.958,2.958,0,1,1,2.958,0" fill="#b41f1f62" stroke-width="2" opacity="0.8"/><path transform="translate(253.18918374285158,171.52691966572274)" d="M2.958,0A2.958,2.958,0,1,1,-2.958,0A2.958,2.958,0,1,1,2.958,0" fill="#b41f1f62" stroke-width="2" opacity="0.8"/><path transform="translate(252.82440345368377,173.6000732384091)" d="M2.958,0A2.958,2.958,0,1,1,-2.958,0A2.958,2.958,0,1,1,2.958,0" fill="#b41f1f62" stroke-width="2" opacity="0.8"/><path transform="translate(254.71719501984217,174.20281572941713)" d="M2.958,0A2.958,2.958,0,1,1,-2.958,0A2.958,2.958,0,1,1,2.958,0" fill="#b41f1f62" stroke-width="2" opacity="0.8"/><path transform="translate(255.0717660772616,171.2268251665837)" d="M2.958,0A2.958,2.958,0,1,1,-2.958,0A2.958,2.958,0,1,1,2.958,0" fill="#b41f1f62" stroke-width="2" opacity="0.8"/><path transform="translate(252.67410580716114,172.3952826199029)" d="M2.958,0A2.958,2.958,0,1,1,-2.958,0A2.958,2.958,0,1,1,2.958,0" fill="#b41f1f62" stroke-width="2" opacity="0.8"/><path transform="translate(253.03613404255339,172.05499007282106)" d="M2.958,0A2.958,2.958,0,1,1,-2.958,0A2.958,2.958,0,1,1,2.958,0" fill="#b41f1f62" stroke-width="2" opacity="0.8"/><path transform="translate(252.8948915407118,170.08609418693595)" d="M2.958,0A2.958,2.958,0,1,1,-2.958,0A2.958,2.958,0,1,1,2.958,0" fill="#b41f1f62" stroke-width="2" opacity="0.8"/><path transform="translate(253.12242424480928,170.03674845781552)" d="M2.958,0A2.958,2.958,0,1,1,-2.958,0A2.958,2.958,0,1,1,2.958,0" fill="#b41f1f62" stroke-width="2" opacity="0.8"/><path transform="translate(255.1570797443078,167.3438048642538)" d="M2.958,0A2.958,2.958,0,1,1,-2.958,0A2.958,2.958,0,1,1,2.958,0" fill="#b41f1f62" stroke-width="2" opacity="0.8"/><path transform="translate(305.3736274369812,163.0045703551541)" d="M2.958,0A2.958,2.958,0,1,1,-2.958,0A2.958,2.958,0,1,1,2.958,0" fill="#b41f1f62" stroke-width="2" opacity="0.8"/><path transform="translate(297.75017215060916,162.84632334464186)" d="M2.958,0A2.958,2.958,0,1,1,-2.958,0A2.958,2.958,0,1,1,2.958,0" fill="#b41f1f62" stroke-width="2" opacity="0.8"/><path transform="translate(294.9275415119887,165.78090752398475)" d="M2.958,0A2.958,2.958,0,1,1,-2.958,0A2.958,2.958,0,1,1,2.958,0" fill="#b41f1f62" stroke-width="2" opacity="0.8"/><path transform="translate(308.5691169742395,128.99024161864054)" d="M2.958,0A2.958,2.958,0,1,1,-2.958,0A2.958,2.958,0,1,1,2.958,0" fill="#b41f1f62" stroke-width="2" opacity="0.8"/><path transform="translate(307.204009525582,136.37946214055864)" d="M2.958,0A2.958,2.958,0,1,1,-2.958,0A2.958,2.958,0,1,1,2.958,0" fill="#b41f1f62" stroke-width="2" opacity="0.8"/><path transform="translate(313.94325656661204,142.63026643362446)" d="M2.958,0A2.958,2.958,0,1,1,-2.958,0A2.958,2.958,0,1,1,2.958,0" fill="#b41f1f62" stroke-width="2" opacity="0.8"/><path transform="translate(316.2043794590686,141.7997138841747)" d="M2.958,0A2.958,2.958,0,1,1,-2.958,0A2.958,2.958,0,1,1,2.958,0" fill="#b41f1f62" stroke-width="2" opacity="0.8"/><path transform="translate(284.82315413482,159.53280606291173)" d="M2.958,0A2.958,2.958,0,1,1,-2.958,0A2.958,2.958,0,1,1,2.958,0" fill="#b41f1f62" stroke-width="2" opacity="0.8"/><path transform="translate(288.6288894028489,156.68410523080092)" d="M2.958,0A2.958,2.958,0,1,1,-2.958,0A2.958,2.958,0,1,1,2.958,0" fill="#b41f1f62" stroke-width="2" opacity="0.8"/><path transform="translate(288.24653147988874,158.38155484916933)" d="M2.958,0A2.958,2.958,0,1,1,-2.958,0A2.958,2.958,0,1,1,2.958,0" fill="#b41f1f62" stroke-width="2" opacity="0.8"/><path transform="translate(288.40339854510194,155.5288201814301)" d="M2.958,0A2.958,2.958,0,1,1,-2.958,0A2.958,2.958,0,1,1,2.958,0" fill="#b41f1f62" stroke-width="2" opacity="0.8"/><path transform="translate(289.2777526624086,156.40213980980934)" d="M2.958,0A2.958,2.958,0,1,1,-2.958,0A2.958,2.958,0,1,1,2.958,0" fill="#b41f1f62" stroke-width="2" opacity="0.8"/><path transform="translate(292.3550814391697,158.54721243570657)" d="M2.958,0A2.958,2.958,0,1,1,-2.958,0A2.958,2.958,0,1,1,2.958,0" fill="#b41f1f62" stroke-width="2" opacity="0.8"/><path transform="translate(290.8853071711087,153.80648411891798)" d="M2.958,0A2.958,2.958,0,1,1,-2.958,0A2.958,2.958,0,1,1,2.958,0" fill="#b41f1f62" stroke-width="2" opacity="0.8"/><path transform="translate(289.47483522311677,134.75009936851438)" d="M2.958,0A2.958,2.958,0,1,1,-2.958,0A2.958,2.958,0,1,1,2.958,0" fill="#b41f1f62" stroke-width="2" opacity="0.8"/><path transform="translate(284.22640234514165,122.63011590085898)" d="M2.958,0A2.958,2.958,0,1,1,-2.958,0A2.958,2.958,0,1,1,2.958,0" fill="#b41f1f62" stroke-width="2" opacity="0.8"/><path transform="translate(286.41783613392454,117.89761492607795)" d="M2.958,0A2.958,2.958,0,1,1,-2.958,0A2.958,2.958,0,1,1,2.958,0" fill="#b41f1f62" stroke-width="2" opacity="0.8"/><path transform="translate(286.9258119953547,116.74963721528638)" d="M2.958,0A2.958,2.958,0,1,1,-2.958,0A2.958,2.958,0,1,1,2.958,0" fill="#b41f1f62" stroke-width="2" opacity="0.8"/><path transform="translate(281.4034166028091,113.29330764777205)" d="M2.958,0A2.958,2.958,0,1,1,-2.958,0A2.958,2.958,0,1,1,2.958,0" fill="#b41f1f62" stroke-width="2" opacity="0.8"/><path transform="translate(288.38271375381964,103.62443745651126)" d="M2.958,0A2.958,2.958,0,1,1,-2.958,0A2.958,2.958,0,1,1,2.958,0" fill="#b41f1f62" stroke-width="2" opacity="0.8"/><path transform="translate(279.72031377917074,140.56507620001685)" d="M2.958,0A2.958,2.958,0,1,1,-2.958,0A2.958,2.958,0,1,1,2.958,0" fill="#b41f1f62" stroke-width="2" opacity="0.8"/><path transform="translate(273.73424171338957,156.4250573919353)" d="M2.958,0A2.958,2.958,0,1,1,-2.958,0A2.958,2.958,0,1,1,2.958,0" fill="#b41f1f62" stroke-width="2" opacity="0.8"/><path transform="translate(264.0782615497974,141.62371011247888)" d="M2.958,0A2.958,2.958,0,1,1,-2.958,0A2.958,2.958,0,1,1,2.958,0" fill="#b41f1f62" stroke-width="2" opacity="0.8"/><path transform="translate(344.47551768903213,76.22062101486517)" d="M2.958,0A2.958,2.958,0,1,1,-2.958,0A2.958,2.958,0,1,1,2.958,0" fill="#b41f1f62" stroke-width="2" opacity="0.8"/><path transform="translate(347.35372205873546,63.00183478983945)" d="M2.958,0A2.958,2.958,0,1,1,-2.958,0A2.958,2.958,0,1,1,2.958,0" fill="#b41f1f62" stroke-width="2" opacity="0.8"/><path transform="translate(336.3082210662178,158.85512678179202)" d="M2.958,0A2.958,2.958,0,1,1,-2.958,0A2.958,2.958,0,1,1,2.958,0" fill="#b41f1f62" stroke-width="2" opacity="0.8"/><path transform="translate(342.4771715441884,157.75511805121369)" d="M2.958,0A2.958,2.958,0,1,1,-2.958,0A2.958,2.958,0,1,1,2.958,0" fill="#b41f1f62" stroke-width="2" opacity="0.8"/><path transform="translate(345.61548938365513,155.54214032330583)" d="M2.958,0A2.958,2.958,0,1,1,-2.958,0A2.958,2.958,0,1,1,2.958,0" fill="#b41f1f62" stroke-width="2" opacity="0.8"/><path transform="translate(342.8134547603886,159.52908798824592)" d="M2.958,0A2.958,2.958,0,1,1,-2.958,0A2.958,2.958,0,1,1,2.958,0" fill="#b41f1f62" stroke-width="2" opacity="0.8"/><path transform="translate(341.3894000953751,160.74743922466223)" d="M2.958,0A2.958,2.958,0,1,1,-2.958,0A2.958,2.958,0,1,1,2.958,0" fill="#b41f1f62" stroke-width="2" opacity="0.8"/><path transform="translate(344.86630932517664,161.8703936573147)" d="M2.958,0A2.958,2.958,0,1,1,-2.958,0A2.958,2.958,0,1,1,2.958,0" fill="#b41f1f62" stroke-width="2" opacity="0.8"/><path transform="translate(345.0119906234304,158.25344062869954)" d="M2.958,0A2.958,2.958,0,1,1,-2.958,0A2.958,2.958,0,1,1,2.958,0" fill="#b41f1f62" stroke-width="2" opacity="0.8"/><path transform="translate(346.3828685074236,158.82585926463707)" d="M2.958,0A2.958,2.958,0,1,1,-2.958,0A2.958,2.958,0,1,1,2.958,0" fill="#b41f1f62" stroke-width="2" opacity="0.8"/><path transform="translate(342.0815860079183,157.87040455207352)" d="M2.958,0A2.958,2.958,0,1,1,-2.958,0A2.958,2.958,0,1,1,2.958,0" fill="#b41f1f62" stroke-width="2" opacity="0.8"/><path transform="translate(343.86802401203704,160.11796026441516)" d="M2.958,0A2.958,2.958,0,1,1,-2.958,0A2.958,2.958,0,1,1,2.958,0" fill="#b41f1f62" stroke-width="2" opacity="0.8"/><path transform="translate(344.3343639631198,159.03456777196152)" d="M2.958,0A2.958,2.958,0,1,1,-2.958,0A2.958,2.958,0,1,1,2.958,0" fill="#b41f1f62" stroke-width="2" opacity="0.8"/><path transform="translate(344.5219474995056,158.73073905174442)" d="M2.958,0A2.958,2.958,0,1,1,-2.958,0A2.958,2.958,0,1,1,2.958,0" fill="#b41f1f62" stroke-width="2" opacity="0.8"/><path transform="translate(343.922177328267,160.41849533168715)" d="M2.958,0A2.958,2.958,0,1,1,-2.958,0A2.958,2.958,0,1,1,2.958,0" fill="#b41f1f62" stroke-width="2" opacity="0.8"/><path transform="translate(346.26257712464894,158.13624060680922)" d="M2.958,0A2.958,2.958,0,1,1,-2.958,0A2.958,2.958,0,1,1,2.958,0" fill="#b41f1f62" stroke-width="2" opacity="0.8"/><path transform="translate(345.56941467689467,156.73953719593828)" d="M2.958,0A2.958,2.958,0,1,1,-2.958,0A2.958,2.958,0,1,1,2.958,0" fill="#b41f1f62" stroke-width="2" opacity="0.8"/><path transform="translate(345.7088816601713,157.6740205626711)" d="M2.958,0A2.958,2.958,0,1,1,-2.958,0A2.958,2.958,0,1,1,2.958,0" fill="#b41f1f62" stroke-width="2" opacity="0.8"/><path transform="translate(372.0164739091633,146.64469711715174)" d="M2.958,0A2.958,2.958,0,1,1,-2.958,0A2.958,2.958,0,1,1,2.958,0" fill="#b41f1f62" stroke-width="2" opacity="0.8"/><path transform="translate(354.44549831083486,142.84891892077576)" d="M2.958,0A2.958,2.958,0,1,1,-2.958,0A2.958,2.958,0,1,1,2.958,0" fill="#b41f1f62" stroke-width="2" opacity="0.8"/><path transform="translate(395.3263693890326,158.12076574965704)" d="M2.958,0A2.958,2.958,0,1,1,-2.958,0A2.958,2.958,0,1,1,2.958,0" fill="#b41f1f62" stroke-width="2" opacity="0.8"/><path transform="translate(396.2708564896543,153.32527361811844)" d="M2.958,0A2.958,2.958,0,1,1,-2.958,0A2.958,2.958,0,1,1,2.958,0" fill="#b41f1f62" stroke-width="2" opacity="0.8"/><path transform="translate(385.8091460012906,146.0448013248888)" d="M2.958,0A2.958,2.958,0,1,1,-2.958,0A2.958,2.958,0,1,1,2.958,0" fill="#b41f1f62" stroke-width="2" opacity="0.8"/><path transform="translate(385.04380872387173,157.8118617827149)" d="M2.958,0A2.958,2.958,0,1,1,-2.958,0A2.958,2.958,0,1,1,2.958,0" fill="#b41f1f62" stroke-width="2" opacity="0.8"/><path transform="translate(339.2338317816043,156.79400890432407)" d="M2.958,0A2.958,2.958,0,1,1,-2.958,0A2.958,2.958,0,1,1,2.958,0" fill="#b41f1f62" stroke-width="2" opacity="0.8"/><path transform="translate(335.6854579295641,150.78571749024195)" d="M2.958,0A2.958,2.958,0,1,1,-2.958,0A2.958,2.958,0,1,1,2.958,0" fill="#b41f1f62" stroke-width="2" opacity="0.8"/><path transform="translate(336.3082210662178,153.65128537672717)" d="M2.958,0A2.958,2.958,0,1,1,-2.958,0A2.958,2.958,0,1,1,2.958,0" fill="#b41f1f62" stroke-width="2" opacity="0.8"/><path transform="translate(334.6376356484616,162.4594434252631)" d="M2.958,0A2.958,2.958,0,1,1,-2.958,0A2.958,2.958,0,1,1,2.958,0" fill="#b41f1f62" stroke-width="2" opacity="0.8"/><path transform="translate(329.27814408424956,165.55920233378765)" d="M2.958,0A2.958,2.958,0,1,1,-2.958,0A2.958,2.958,0,1,1,2.958,0" fill="#b41f1f62" stroke-width="2" opacity="0.8"/><path transform="translate(331.1732438245426,160.21126412901322)" d="M2.958,0A2.958,2.958,0,1,1,-2.958,0A2.958,2.958,0,1,1,2.958,0" fill="#b41f1f62" stroke-width="2" opacity="0.8"/><path transform="translate(336.29233017506203,173.11413333198652)" d="M2.958,0A2.958,2.958,0,1,1,-2.958,0A2.958,2.958,0,1,1,2.958,0" fill="#b41f1f62" stroke-width="2" opacity="0.8"/><path transform="translate(357.44869918750965,178.06784813395916)" d="M2.958,0A2.958,2.958,0,1,1,-2.958,0A2.958,2.958,0,1,1,2.958,0" fill="#b41f1f62" stroke-width="2" opacity="0.8"/><path transform="translate(327.3674197805849,177.36717593090816)" d="M2.958,0A2.958,2.958,0,1,1,-2.958,0A2.958,2.958,0,1,1,2.958,0" fill="#b41f1f62" stroke-width="2" opacity="0.8"/><path transform="translate(327.99799519892485,180.2473434022013)" d="M2.958,0A2.958,2.958,0,1,1,-2.958,0A2.958,2.958,0,1,1,2.958,0" fill="#b41f1f62" stroke-width="2" opacity="0.8"/><path transform="translate(337.3821434702245,179.93515377268614)" d="M2.958,0A2.958,2.958,0,1,1,-2.958,0A2.958,2.958,0,1,1,2.958,0" fill="#b41f1f62" stroke-width="2" opacity="0.8"/><path transform="translate(374.54250417150934,176.28672647211442)" d="M2.958,0A2.958,2.958,0,1,1,-2.958,0A2.958,2.958,0,1,1,2.958,0" fill="#b41f1f62" stroke-width="2" opacity="0.8"/><path transform="translate(387.08556629762916,167.01143309196323)" d="M2.958,0A2.958,2.958,0,1,1,-2.958,0A2.958,2.958,0,1,1,2.958,0" fill="#b41f1f62" stroke-width="2" opacity="0.8"/><path transform="translate(384.25947339780714,179.34698233017934)" d="M2.958,0A2.958,2.958,0,1,1,-2.958,0A2.958,2.958,0,1,1,2.958,0" fill="#b41f1f62" stroke-width="2" opacity="0.8"/><path transform="translate(369.49798960071803,178.98235774158093)" d="M2.958,0A2.958,2.958,0,1,1,-2.958,0A2.958,2.958,0,1,1,2.958,0" fill="#b41f1f62" stroke-width="2" opacity="0.8"/><path transform="translate(381.45477549669386,159.4952654186509)" d="M2.958,0A2.958,2.958,0,1,1,-2.958,0A2.958,2.958,0,1,1,2.958,0" fill="#b41f1f62" stroke-width="2" opacity="0.8"/><path transform="translate(404.3724589255662,145.5093844041976)" d="M2.958,0A2.958,2.958,0,1,1,-2.958,0A2.958,2.958,0,1,1,2.958,0" fill="#b41f1f62" stroke-width="2" opacity="0.8"/><path transform="translate(407.6482906778883,149.63181209137565)" d="M2.958,0A2.958,2.958,0,1,1,-2.958,0A2.958,2.958,0,1,1,2.958,0" fill="#b41f1f62" stroke-width="2" opacity="0.8"/><path transform="translate(416.16944815069655,151.4737258028481)" d="M2.958,0A2.958,2.958,0,1,1,-2.958,0A2.958,2.958,0,1,1,2.958,0" fill="#b41f1f62" stroke-width="2" opacity="0.8"/><path transform="translate(406.11823755454725,158.65744889145844)" d="M2.958,0A2.958,2.958,0,1,1,-2.958,0A2.958,2.958,0,1,1,2.958,0" fill="#b41f1f62" stroke-width="2" opacity="0.8"/><path transform="translate(401.86436140072556,195.20627452819463)" d="M2.958,0A2.958,2.958,0,1,1,-2.958,0A2.958,2.958,0,1,1,2.958,0" fill="#b41f1f62" stroke-width="2" opacity="0.8"/><path transform="translate(404.2935371253543,177.5781262321152)" d="M2.958,0A2.958,2.958,0,1,1,-2.958,0A2.958,2.958,0,1,1,2.958,0" fill="#b41f1f62" stroke-width="2" opacity="0.8"/><path transform="translate(320.4575454054643,153.19791395255925)" d="M2.958,0A2.958,2.958,0,1,1,-2.958,0A2.958,2.958,0,1,1,2.958,0" fill="#b41f1f62" stroke-width="2" opacity="0.8"/><path transform="translate(321.8436927491157,148.52673648883865)" d="M2.958,0A2.958,2.958,0,1,1,-2.958,0A2.958,2.958,0,1,1,2.958,0" fill="#b41f1f62" stroke-width="2" opacity="0.8"/><path transform="translate(337.04683678923493,134.2657466101964)" d="M2.958,0A2.958,2.958,0,1,1,-2.958,0A2.958,2.958,0,1,1,2.958,0" fill="#b41f1f62" stroke-width="2" opacity="0.8"/><path transform="translate(320.58662560513494,163.12720951264873)" d="M2.958,0A2.958,2.958,0,1,1,-2.958,0A2.958,2.958,0,1,1,2.958,0" fill="#b41f1f62" stroke-width="2" opacity="0.8"/><path transform="translate(311.06771547475637,172.413961149241)" d="M2.958,0A2.958,2.958,0,1,1,-2.958,0A2.958,2.958,0,1,1,2.958,0" fill="#b41f1f62" stroke-width="2" opacity="0.8"/><path transform="translate(315.3787633263696,168.46302605353867)" d="M2.958,0A2.958,2.958,0,1,1,-2.958,0A2.958,2.958,0,1,1,2.958,0" fill="#b41f1f62" stroke-width="2" opacity="0.8"/><path transform="translate(315.2412494135142,179.25570819945642)" d="M2.958,0A2.958,2.958,0,1,1,-2.958,0A2.958,2.958,0,1,1,2.958,0" fill="#b41f1f62" stroke-width="2" opacity="0.8"/><path transform="translate(523.8700073501445,199.4073605233907)" d="M2.958,0A2.958,2.958,0,1,1,-2.958,0A2.958,2.958,0,1,1,2.958,0" fill="#b41f1f62" stroke-width="2" opacity="0.8"/><path transform="translate(518.5816253044582,203.99640386242572)" d="M2.958,0A2.958,2.958,0,1,1,-2.958,0A2.958,2.958,0,1,1,2.958,0" fill="#b41f1f62" stroke-width="2" opacity="0.8"/><path transform="translate(524.3115788172463,201.20263490223078)" d="M2.958,0A2.958,2.958,0,1,1,-2.958,0A2.958,2.958,0,1,1,2.958,0" fill="#b41f1f62" stroke-width="2" opacity="0.8"/><path transform="translate(518.372291665652,204.44162353082538)" d="M2.958,0A2.958,2.958,0,1,1,-2.958,0A2.958,2.958,0,1,1,2.958,0" fill="#b41f1f62" stroke-width="2" opacity="0.8"/><path transform="translate(521.3135269444097,201.71123295456164)" d="M2.958,0A2.958,2.958,0,1,1,-2.958,0A2.958,2.958,0,1,1,2.958,0" fill="#b41f1f62" stroke-width="2" opacity="0.8"/><path transform="translate(519.9609369016353,203.4419294969848)" d="M2.958,0A2.958,2.958,0,1,1,-2.958,0A2.958,2.958,0,1,1,2.958,0" fill="#b41f1f62" stroke-width="2" opacity="0.8"/><path transform="translate(521.3673251569271,200.9381838913123)" d="M2.958,0A2.958,2.958,0,1,1,-2.958,0A2.958,2.958,0,1,1,2.958,0" fill="#b41f1f62" stroke-width="2" opacity="0.8"/><path transform="translate(526.4600450567564,201.18808258197987)" d="M2.958,0A2.958,2.958,0,1,1,-2.958,0A2.958,2.958,0,1,1,2.958,0" fill="#b41f1f62" stroke-width="2" opacity="0.8"/><path transform="translate(518.8562092505267,207.84477494453768)" d="M2.958,0A2.958,2.958,0,1,1,-2.958,0A2.958,2.958,0,1,1,2.958,0" fill="#b41f1f62" stroke-width="2" opacity="0.8"/><path transform="translate(522.1049643447336,200.91730892790383)" d="M2.958,0A2.958,2.958,0,1,1,-2.958,0A2.958,2.958,0,1,1,2.958,0" fill="#b41f1f62" stroke-width="2" opacity="0.8"/><path transform="translate(521.8536396918662,207.56160449514482)" d="M2.958,0A2.958,2.958,0,1,1,-2.958,0A2.958,2.958,0,1,1,2.958,0" fill="#b41f1f62" stroke-width="2" opacity="0.8"/><path transform="translate(523.1273079344287,194.8055214258011)" d="M2.958,0A2.958,2.958,0,1,1,-2.958,0A2.958,2.958,0,1,1,2.958,0" fill="#b41f1f62" stroke-width="2" opacity="0.8"/><path transform="translate(517.3811084267713,206.81370267018337)" d="M2.958,0A2.958,2.958,0,1,1,-2.958,0A2.958,2.958,0,1,1,2.958,0" fill="#b41f1f62" stroke-width="2" opacity="0.8"/><path transform="translate(516.7010848163977,205.04478672311689)" d="M2.958,0A2.958,2.958,0,1,1,-2.958,0A2.958,2.958,0,1,1,2.958,0" fill="#b41f1f62" stroke-width="2" opacity="0.8"/><path transform="translate(519.9331500360936,203.79119342994545)" d="M2.958,0A2.958,2.958,0,1,1,-2.958,0A2.958,2.958,0,1,1,2.958,0" fill="#b41f1f62" stroke-width="2" opacity="0.8"/><path transform="translate(519.9788696391411,202.13392556752933)" d="M2.958,0A2.958,2.958,0,1,1,-2.958,0A2.958,2.958,0,1,1,2.958,0" fill="#b41f1f62" stroke-width="2" opacity="0.8"/><path transform="translate(518.4698564107953,202.48933178929565)" d="M2.958,0A2.958,2.958,0,1,1,-2.958,0A2.958,2.958,0,1,1,2.958,0" fill="#b41f1f62" stroke-width="2" opacity="0.8"/><path transform="translate(524.4003547454936,203.305391445233)" d="M2.958,0A2.958,2.958,0,1,1,-2.958,0A2.958,2.958,0,1,1,2.958,0" fill="#b41f1f62" stroke-width="2" opacity="0.8"/><path transform="translate(524.2049589274211,206.64134708138408)" d="M2.958,0A2.958,2.958,0,1,1,-2.958,0A2.958,2.958,0,1,1,2.958,0" fill="#b41f1f62" stroke-width="2" opacity="0.8"/><path transform="translate(522.904835458241,208.74033952038553)" d="M2.958,0A2.958,2.958,0,1,1,-2.958,0A2.958,2.958,0,1,1,2.958,0" fill="#b41f1f62" stroke-width="2" opacity="0.8"/><path transform="translate(515.5479742843945,209.80081889111625)" d="M2.958,0A2.958,2.958,0,1,1,-2.958,0A2.958,2.958,0,1,1,2.958,0" fill="#b41f1f62" stroke-width="2" opacity="0.8"/><path transform="translate(515.9611374544575,210.4053452922285)" d="M2.958,0A2.958,2.958,0,1,1,-2.958,0A2.958,2.958,0,1,1,2.958,0" fill="#b41f1f62" stroke-width="2" opacity="0.8"/><path transform="translate(506.56411667356224,215.5609356632226)" d="M2.958,0A2.958,2.958,0,1,1,-2.958,0A2.958,2.958,0,1,1,2.958,0" fill="#b41f1f62" stroke-width="2" opacity="0.8"/><path transform="translate(513.5783027643738,199.0540774140527)" d="M2.958,0A2.958,2.958,0,1,1,-2.958,0A2.958,2.958,0,1,1,2.958,0" fill="#b41f1f62" stroke-width="2" opacity="0.8"/><path transform="translate(509.36002575778,196.45018180778516)" d="M2.958,0A2.958,2.958,0,1,1,-2.958,0A2.958,2.958,0,1,1,2.958,0" fill="#b41f1f62" stroke-width="2" opacity="0.8"/><path transform="translate(510.5267190068048,196.5713268657155)" d="M2.958,0A2.958,2.958,0,1,1,-2.958,0A2.958,2.958,0,1,1,2.958,0" fill="#b41f1f62" stroke-width="2" opacity="0.8"/><path transform="translate(509.3546104261568,191.83616306996646)" d="M2.958,0A2.958,2.958,0,1,1,-2.958,0A2.958,2.958,0,1,1,2.958,0" fill="#b41f1f62" stroke-width="2" opacity="0.8"/><path transform="translate(511.91863678579284,194.72171515914943)" d="M2.958,0A2.958,2.958,0,1,1,-2.958,0A2.958,2.958,0,1,1,2.958,0" fill="#b41f1f62" stroke-width="2" opacity="0.8"/><path transform="translate(514.5414328099273,196.0695470027149)" d="M2.958,0A2.958,2.958,0,1,1,-2.958,0A2.958,2.958,0,1,1,2.958,0" fill="#b41f1f62" stroke-width="2" opacity="0.8"/><path transform="translate(523.731516902079,195.52046356845312)" d="M2.958,0A2.958,2.958,0,1,1,-2.958,0A2.958,2.958,0,1,1,2.958,0" fill="#b41f1f62" stroke-width="2" opacity="0.8"/><path transform="translate(525.0515261791861,196.04818123606583)" d="M2.958,0A2.958,2.958,0,1,1,-2.958,0A2.958,2.958,0,1,1,2.958,0" fill="#b41f1f62" stroke-width="2" opacity="0.8"/><path transform="translate(521.1987396691857,198.33183029456086)" d="M2.958,0A2.958,2.958,0,1,1,-2.958,0A2.958,2.958,0,1,1,2.958,0" fill="#b41f1f62" stroke-width="2" opacity="0.8"/><path transform="translate(523.0227298909535,197.16317927977707)" d="M2.958,0A2.958,2.958,0,1,1,-2.958,0A2.958,2.958,0,1,1,2.958,0" fill="#b41f1f62" stroke-width="2" opacity="0.8"/><path transform="translate(513.8716184313025,195.8364301151987)" d="M2.958,0A2.958,2.958,0,1,1,-2.958,0A2.958,2.958,0,1,1,2.958,0" fill="#b41f1f62" stroke-width="2" opacity="0.8"/><path transform="translate(518.5019932968207,193.11524991806618)" d="M2.958,0A2.958,2.958,0,1,1,-2.958,0A2.958,2.958,0,1,1,2.958,0" fill="#b41f1f62" stroke-width="2" opacity="0.8"/><path transform="translate(519.6242985817221,200.0854845298236)" d="M2.958,0A2.958,2.958,0,1,1,-2.958,0A2.958,2.958,0,1,1,2.958,0" fill="#b41f1f62" stroke-width="2" opacity="0.8"/><path transform="translate(522.5215010000693,197.21008152577815)" d="M2.958,0A2.958,2.958,0,1,1,-2.958,0A2.958,2.958,0,1,1,2.958,0" fill="#b41f1f62" stroke-width="2" opacity="0.8"/><path transform="translate(528.839417485638,200.78215706599804)" d="M2.958,0A2.958,2.958,0,1,1,-2.958,0A2.958,2.958,0,1,1,2.958,0" fill="#b41f1f62" stroke-width="2" opacity="0.8"/><path transform="translate(525.0021667630813,210.56117523295597)" d="M2.958,0A2.958,2.958,0,1,1,-2.958,0A2.958,2.958,0,1,1,2.958,0" fill="#b41f1f62" stroke-width="2" opacity="0.8"/><path transform="translate(535.772639929889,198.93440366687082)" d="M2.958,0A2.958,2.958,0,1,1,-2.958,0A2.958,2.958,0,1,1,2.958,0" fill="#b41f1f62" stroke-width="2" opacity="0.8"/><path transform="translate(536.0198808900568,200.87543954309513)" d="M2.958,0A2.958,2.958,0,1,1,-2.958,0A2.958,2.958,0,1,1,2.958,0" fill="#b41f1f62" stroke-width="2" opacity="0.8"/><path transform="translate(521.8644703551122,180.76703290641854)" d="M2.958,0A2.958,2.958,0,1,1,-2.958,0A2.958,2.958,0,1,1,2.958,0" fill="#b41f1f62" stroke-width="2" opacity="0.8"/><path transform="translate(521.7940710440116,180.1957911340005)" d="M2.958,0A2.958,2.958,0,1,1,-2.958,0A2.958,2.958,0,1,1,2.958,0" fill="#b41f1f62" stroke-width="2" opacity="0.8"/><path transform="translate(518.0651269539162,184.9723982337191)" d="M2.958,0A2.958,2.958,0,1,1,-2.958,0A2.958,2.958,0,1,1,2.958,0" fill="#b41f1f62" stroke-width="2" opacity="0.8"/><path transform="translate(531.1547824702538,190.15896866346702)" d="M2.958,0A2.958,2.958,0,1,1,-2.958,0A2.958,2.958,0,1,1,2.958,0" fill="#b41f1f62" stroke-width="2" opacity="0.8"/><path transform="translate(531.3602987441454,190.48698351262283)" d="M2.958,0A2.958,2.958,0,1,1,-2.958,0A2.958,2.958,0,1,1,2.958,0" fill="#b41f1f62" stroke-width="2" opacity="0.8"/><path transform="translate(522.8540556272837,180.51287390066773)" d="M2.958,0A2.958,2.958,0,1,1,-2.958,0A2.958,2.958,0,1,1,2.958,0" fill="#b41f1f62" stroke-width="2" opacity="0.8"/><path transform="translate(528.7117577008189,179.8106331770632)" d="M2.958,0A2.958,2.958,0,1,1,-2.958,0A2.958,2.958,0,1,1,2.958,0" fill="#b41f1f62" stroke-width="2" opacity="0.8"/><path transform="translate(512.0517119022347,186.74825672481074)" d="M2.958,0A2.958,2.958,0,1,1,-2.958,0A2.958,2.958,0,1,1,2.958,0" fill="#b41f1f62" stroke-width="2" opacity="0.8"/><path transform="translate(521.1001983888318,164.62749020992578)" d="M2.958,0A2.958,2.958,0,1,1,-2.958,0A2.958,2.958,0,1,1,2.958,0" fill="#b41f1f62" stroke-width="2" opacity="0.8"/><path transform="translate(520.206757446952,170.69234970984962)" d="M2.958,0A2.958,2.958,0,1,1,-2.958,0A2.958,2.958,0,1,1,2.958,0" fill="#b41f1f62" stroke-width="2" opacity="0.8"/><path transform="translate(529.346061708145,168.64763014590062)" d="M2.958,0A2.958,2.958,0,1,1,-2.958,0A2.958,2.958,0,1,1,2.958,0" fill="#b41f1f62" stroke-width="2" opacity="0.8"/><path transform="translate(525.9293425576948,178.20149017962467)" d="M2.958,0A2.958,2.958,0,1,1,-2.958,0A2.958,2.958,0,1,1,2.958,0" fill="#b41f1f62" stroke-width="2" opacity="0.8"/><path transform="translate(506.755517574863,134.76381722925362)" d="M2.958,0A2.958,2.958,0,1,1,-2.958,0A2.958,2.958,0,1,1,2.958,0" fill="#b41f1f62" stroke-width="2" opacity="0.8"/><path transform="translate(515.4565350783,137.2311819546685)" d="M2.958,0A2.958,2.958,0,1,1,-2.958,0A2.958,2.958,0,1,1,2.958,0" fill="#b41f1f62" stroke-width="2" opacity="0.8"/><path transform="translate(541.7938672632554,197.57979954411894)" d="M2.958,0A2.958,2.958,0,1,1,-2.958,0A2.958,2.958,0,1,1,2.958,0" fill="#b41f1f62" stroke-width="2" opacity="0.8"/><path transform="translate(542.5927618415526,200.2001297172701)" d="M2.958,0A2.958,2.958,0,1,1,-2.958,0A2.958,2.958,0,1,1,2.958,0" fill="#b41f1f62" stroke-width="2" opacity="0.8"/><path transform="translate(541.5036587538152,165.58293109137412)" d="M2.958,0A2.958,2.958,0,1,1,-2.958,0A2.958,2.958,0,1,1,2.958,0" fill="#b41f1f62" stroke-width="2" opacity="0.8"/><path transform="translate(512.2867017843055,117.95695088562752)" d="M2.958,0A2.958,2.958,0,1,1,-2.958,0A2.958,2.958,0,1,1,2.958,0" fill="#b41f1f62" stroke-width="2" opacity="0.8"/><path transform="translate(516.4111426347426,109.91736277834934)" d="M2.958,0A2.958,2.958,0,1,1,-2.958,0A2.958,2.958,0,1,1,2.958,0" fill="#b41f1f62" stroke-width="2" opacity="0.8"/></g><g class="mark-group role-title"><g transform="translate(0,-22.50000000000091)"><path class="background" aria-hidden="true" d="M0,0h0v0h0Z" pointer-events="none"/><g><g class="mark-text role-title-text" role="graphics-symbol" aria-roledescription="title" aria-label="Title text 'Survey Clusters in Georgia'" pointer-events="none"><text text-anchor="start" transform="translate(0,14)" font-family="sans-serif" font-size="18px" font-weight="600" fill="#000" opacity="1">Survey Clusters in Georgia</text></g></g><path class="foreground" aria-hidden="true" d="" pointer-events="none" display="none"/></g></g></g><path class="foreground" aria-hidden="true" d="" display="none"/></g></g></g></svg>