<svg xmlns="http://www.w3.org/2000/svg" xmlns:xlink="http://www.w3.org/1999/xlink" version="1.1" class="marks" width="810" height="329" viewBox="0 0 810 329"><rect width="810" height="329" fill="white"/><g fill="none" stroke-miterlimit="10" transform="translate(5,23)"><g class="mark-group role-frame root" role="graphics-object" aria-roledescription="group mark container"><g transform="translate(0,0)"><path class="background" aria-hidden="true" d="M0,0h800v300h-800Z"/><g><g class="mark-shape role-mark layer_0_marks" role="graphics-symbol" aria-roledescription="shape mark container"><path transform="translate(0,0)" d="M321.169,215.228L330.158,225.011L330.85,228.532L296.966,265.273L296.966,281.278L276.913,300L270.689,281.278L267.923,274.253L303.881,238.31ZM527.928,31.618L532.077,67.524L524.47,98.251L523.779,125.002L529.311,174.478L517.555,195.646L511.332,220.316L508.566,239.092L500.268,238.31L474.682,251.991L441.49,264.492L404.149,268.006L398.617,264.101L397.234,257.852L408.298,226.185L412.447,211.313L428.352,195.254L451.171,181.536L460.852,178.007L460.161,172.125L446.331,163.101L431.809,158.391L418.671,163.101L414.522,161.531L413.139,157.606L417.979,151.718L420.054,141.114L417.979,123.429L416.596,101.794L413.139,85.257L421.437,57.666L424.203,44.646L434.575,17.001L458.778,0L480.214,5.141L491.278,6.327L496.119,9.49L498.885,19.372L514.789,30.433Z" fill="#f3f4f6" stroke="#959090" stroke-width="0.5"/></g><g class="mark-symbol role-mark layer_1_marks" role="graphics-symbol" aria-roledescription="symbol mark container"><path transform="translate(460.511684557895,7.233209886602708)" d="M2.958,0A2.958,2.958,0,1,1,-2.958,0A2.958,2.958,0,1,1,2.958,0" fill="#b41f1f62" stroke-width="2" opacity="0.8"/><path transform="translate(460.85166898665284,17.77293515297515)" d="M2.958,0A2.958,2.958,0,1,1,-2.958,0A2.958,2.958,0,1,1,2.958,0" fill="#b41f1f62" stroke-width="2" opacity="0.8"/><path transform="translate(479.85718271736823,16.956600641436125)" d="M2.958,0A2.958,2.958,0,1,1,-2.958,0A2.958,2.958,0,1,1,2.958,0" fill="#b41f1f62" stroke-width="2" opacity="0.8"/><path transform="translate(477.76887158208774,17.217940491244917)" d="M2.958,0A2.958,2.958,0,1,1,-2.958,0A2.958,2.958,0,1,1,2.958,0" fill="#b41f1f62" stroke-width="2" opacity="0.8"/><path transform="translate(475.4498704474072,18.542117440448237)" d="M2.958,0A2.958,2.958,0,1,1,-2.958,0A2.958,2.958,0,1,1,2.958,0" fill="#b41f1f62" stroke-width="2" opacity="0.8"/><path transform="translate(477.446558660361,16.474661190557526)" d="M2.958,0A2.958,2.958,0,1,1,-2.958,0A2.958,2.958,0,1,1,2.958,0" fill="#b41f1f62" stroke-width="2" opacity="0.8"/><path transform="translate(482.10895529268873,11.65418801965734)" d="M2.958,0A2.958,2.958,0,1,1,-2.958,0A2.958,2.958,0,1,1,2.958,0" fill="#b41f1f62" stroke-width="2" opacity="0.8"/><path transform="translate(477.6113646715894,17.394138126900543)" d="M2.958,0A2.958,2.958,0,1,1,-2.958,0A2.958,2.958,0,1,1,2.958,0" fill="#b41f1f62" stroke-width="2" opacity="0.8"/><path transform="translate(477.2062645810538,16.432089707314844)" d="M2.958,0A2.958,2.958,0,1,1,-2.958,0A2.958,2.958,0,1,1,2.958,0" fill="#b41f1f62" stroke-width="2" opacity="0.8"/><path transform="translate(476.69993748828256,17.38457705373912)" d="M2.958,0A2.958,2.958,0,1,1,-2.958,0A2.958,2.958,0,1,1,2.958,0" fill="#b41f1f62" stroke-width="2" opacity="0.8"/><path transform="translate(492.50633220151394,18.064540356638645)" d="M2.958,0A2.958,2.958,0,1,1,-2.958,0A2.958,2.958,0,1,1,2.958,0" fill="#b41f1f62" stroke-width="2" opacity="0.8"/><path transform="translate(470.96111557982385,14.38149653277651)" d="M2.958,0A2.958,2.958,0,1,1,-2.958,0A2.958,2.958,0,1,1,2.958,0" fill="#b41f1f62" stroke-width="2" opacity="0.8"/><path transform="translate(473.2384350077009,18.699410413328224)" d="M2.958,0A2.958,2.958,0,1,1,-2.958,0A2.958,2.958,0,1,1,2.958,0" fill="#b41f1f62" stroke-width="2" opacity="0.8"/><path transform="translate(499.15158717172744,24.675194748891045)" d="M2.958,0A2.958,2.958,0,1,1,-2.958,0A2.958,2.958,0,1,1,2.958,0" fill="#b41f1f62" stroke-width="2" opacity="0.8"/><path transform="translate(497.28378571114445,34.08143616367852)" d="M2.958,0A2.958,2.958,0,1,1,-2.958,0A2.958,2.958,0,1,1,2.958,0" fill="#b41f1f62" stroke-width="2" opacity="0.8"/><path transform="translate(475.85285764036234,26.54409087982276)" d="M2.958,0A2.958,2.958,0,1,1,-2.958,0A2.958,2.958,0,1,1,2.958,0" fill="#b41f1f62" stroke-width="2" opacity="0.8"/><path transform="translate(461.15631040134576,32.04739212141703)" d="M2.958,0A2.958,2.958,0,1,1,-2.958,0A2.958,2.958,0,1,1,2.958,0" fill="#b41f1f62" stroke-width="2" opacity="0.8"/><path transform="translate(461.12192779527413,32.3087673659611)" d="M2.958,0A2.958,2.958,0,1,1,-2.958,0A2.958,2.958,0,1,1,2.958,0" fill="#b41f1f62" stroke-width="2" opacity="0.8"/><path transform="translate(458.5163409161278,27.36186430811358)" d="M2.958,0A2.958,2.958,0,1,1,-2.958,0A2.958,2.958,0,1,1,2.958,0" fill="#b41f1f62" stroke-width="2" opacity="0.8"/><path transform="translate(470.28690917025506,30.981838432831864)" d="M2.958,0A2.958,2.958,0,1,1,-2.958,0A2.958,2.958,0,1,1,2.958,0" fill="#b41f1f62" stroke-width="2" opacity="0.8"/><path transform="translate(457.10588574078247,36.40230241968402)" d="M2.958,0A2.958,2.958,0,1,1,-2.958,0A2.958,2.958,0,1,1,2.958,0" fill="#b41f1f62" stroke-width="2" opacity="0.8"/><path transform="translate(466.3874606458485,42.36543588242239)" d="M2.958,0A2.958,2.958,0,1,1,-2.958,0A2.958,2.958,0,1,1,2.958,0" fill="#b41f1f62" stroke-width="2" opacity="0.8"/><path transform="translate(475.4116462093707,43.733917858129644)" d="M2.958,0A2.958,2.958,0,1,1,-2.958,0A2.958,2.958,0,1,1,2.958,0" fill="#b41f1f62" stroke-width="2" opacity="0.8"/><path transform="translate(465.1519918064341,47.01117468106713)" d="M2.958,0A2.958,2.958,0,1,1,-2.958,0A2.958,2.958,0,1,1,2.958,0" fill="#b41f1f62" stroke-width="2" opacity="0.8"/><path transform="translate(523.3185255268108,33.137457317230655)" d="M2.958,0A2.958,2.958,0,1,1,-2.958,0A2.958,2.958,0,1,1,2.958,0" fill="#b41f1f62" stroke-width="2" opacity="0.8"/><path transform="translate(491.4519963091707,39.20273232956151)" d="M2.958,0A2.958,2.958,0,1,1,-2.958,0A2.958,2.958,0,1,1,2.958,0" fill="#b41f1f62" stroke-width="2" opacity="0.8"/><path transform="translate(490.94048301325074,40.914322637573605)" d="M2.958,0A2.958,2.958,0,1,1,-2.958,0A2.958,2.958,0,1,1,2.958,0" fill="#b41f1f62" stroke-width="2" opacity="0.8"/><path transform="translate(500.7130184832349,42.298589605849884)" d="M2.958,0A2.958,2.958,0,1,1,-2.958,0A2.958,2.958,0,1,1,2.958,0" fill="#b41f1f62" stroke-width="2" opacity="0.8"/><path transform="translate(492.3472886382315,48.67438291057897)" d="M2.958,0A2.958,2.958,0,1,1,-2.958,0A2.958,2.958,0,1,1,2.958,0" fill="#b41f1f62" stroke-width="2" opacity="0.8"/><path transform="translate(494.25100935767205,49.39058712316182)" d="M2.958,0A2.958,2.958,0,1,1,-2.958,0A2.958,2.958,0,1,1,2.958,0" fill="#b41f1f62" stroke-width="2" opacity="0.8"/><path transform="translate(488.1195726625556,54.62850779334531)" d="M2.958,0A2.958,2.958,0,1,1,-2.958,0A2.958,2.958,0,1,1,2.958,0" fill="#b41f1f62" stroke-width="2" opacity="0.8"/><path transform="translate(487.6593451533463,54.37786882255659)" d="M2.958,0A2.958,2.958,0,1,1,-2.958,0A2.958,2.958,0,1,1,2.958,0" fill="#b41f1f62" stroke-width="2" opacity="0.8"/><path transform="translate(487.70486849211284,59.14675778487799)" d="M2.958,0A2.958,2.958,0,1,1,-2.958,0A2.958,2.958,0,1,1,2.958,0" fill="#b41f1f62" stroke-width="2" opacity="0.8"/><path transform="translate(499.02558164332913,57.80247405394675)" d="M2.958,0A2.958,2.958,0,1,1,-2.958,0A2.958,2.958,0,1,1,2.958,0" fill="#b41f1f62" stroke-width="2" opacity="0.8"/><path transform="translate(497.0448362030229,58.039212483680785)" d="M2.958,0A2.958,2.958,0,1,1,-2.958,0A2.958,2.958,0,1,1,2.958,0" fill="#b41f1f62" stroke-width="2" opacity="0.8"/><path transform="translate(436.32188849263,28.040586966103547)" d="M2.958,0A2.958,2.958,0,1,1,-2.958,0A2.958,2.958,0,1,1,2.958,0" fill="#b41f1f62" stroke-width="2" opacity="0.8"/><path transform="translate(439.96932596023817,22.92174102080935)" d="M2.958,0A2.958,2.958,0,1,1,-2.958,0A2.958,2.958,0,1,1,2.958,0" fill="#b41f1f62" stroke-width="2" opacity="0.8"/><path transform="translate(436.167262806106,27.803730551707304)" d="M2.958,0A2.958,2.958,0,1,1,-2.958,0A2.958,2.958,0,1,1,2.958,0" fill="#b41f1f62" stroke-width="2" opacity="0.8"/><path transform="translate(443.9511774902585,34.45014479774909)" d="M2.958,0A2.958,2.958,0,1,1,-2.958,0A2.958,2.958,0,1,1,2.958,0" fill="#b41f1f62" stroke-width="2" opacity="0.8"/><path transform="translate(435.03667051928915,43.7148202147182)" d="M2.958,0A2.958,2.958,0,1,1,-2.958,0A2.958,2.958,0,1,1,2.958,0" fill="#b41f1f62" stroke-width="2" opacity="0.8"/><path transform="translate(433.78141727526236,40.6730668394257)" d="M2.958,0A2.958,2.958,0,1,1,-2.958,0A2.958,2.958,0,1,1,2.958,0" fill="#b41f1f62" stroke-width="2" opacity="0.8"/><path transform="translate(441.32426955371375,44.50576610802909)" d="M2.958,0A2.958,2.958,0,1,1,-2.958,0A2.958,2.958,0,1,1,2.958,0" fill="#b41f1f62" stroke-width="2" opacity="0.8"/><path transform="translate(438.37063081868837,44.34366901032354)" d="M2.958,0A2.958,2.958,0,1,1,-2.958,0A2.958,2.958,0,1,1,2.958,0" fill="#b41f1f62" stroke-width="2" opacity="0.8"/><path transform="translate(433.9727305470378,48.86667630143256)" d="M2.958,0A2.958,2.958,0,1,1,-2.958,0A2.958,2.958,0,1,1,2.958,0" fill="#b41f1f62" stroke-width="2" opacity="0.8"/><path transform="translate(434.03131543447853,49.07306011710989)" d="M2.958,0A2.958,2.958,0,1,1,-2.958,0A2.958,2.958,0,1,1,2.958,0" fill="#b41f1f62" stroke-width="2" opacity="0.8"/><path transform="translate(428.36798159409864,50.75178376232543)" d="M2.958,0A2.958,2.958,0,1,1,-2.958,0A2.958,2.958,0,1,1,2.958,0" fill="#b41f1f62" stroke-width="2" opacity="0.8"/><path transform="translate(428.2479305952438,50.274045584747)" d="M2.958,0A2.958,2.958,0,1,1,-2.958,0A2.958,2.958,0,1,1,2.958,0" fill="#b41f1f62" stroke-width="2" opacity="0.8"/><path transform="translate(425.0165418692668,52.93987387859579)" d="M2.958,0A2.958,2.958,0,1,1,-2.958,0A2.958,2.958,0,1,1,2.958,0" fill="#b41f1f62" stroke-width="2" opacity="0.8"/><path transform="translate(428.0646847505923,50.36336664794726)" d="M2.958,0A2.958,2.958,0,1,1,-2.958,0A2.958,2.958,0,1,1,2.958,0" fill="#b41f1f62" stroke-width="2" opacity="0.8"/><path transform="translate(427.7392985232955,55.93914315060465)" d="M2.958,0A2.958,2.958,0,1,1,-2.958,0A2.958,2.958,0,1,1,2.958,0" fill="#b41f1f62" stroke-width="2" opacity="0.8"/><path transform="translate(427.19128972372255,47.42829638304647)" d="M2.958,0A2.958,2.958,0,1,1,-2.958,0A2.958,2.958,0,1,1,2.958,0" fill="#b41f1f62" stroke-width="2" opacity="0.8"/><path transform="translate(430.42267844969956,49.55423549285206)" d="M2.958,0A2.958,2.958,0,1,1,-2.958,0A2.958,2.958,0,1,1,2.958,0" fill="#b41f1f62" stroke-width="2" opacity="0.8"/><path transform="translate(440.32698189602706,53.48072446431797)" d="M2.958,0A2.958,2.958,0,1,1,-2.958,0A2.958,2.958,0,1,1,2.958,0" fill="#b41f1f62" stroke-width="2" opacity="0.8"/><path transform="translate(428.48976132733696,70.80838116623818)" d="M2.958,0A2.958,2.958,0,1,1,-2.958,0A2.958,2.958,0,1,1,2.958,0" fill="#b41f1f62" stroke-width="2" opacity="0.8"/><path transform="translate(465.6122193156434,52.473549281884516)" d="M2.958,0A2.958,2.958,0,1,1,-2.958,0A2.958,2.958,0,1,1,2.958,0" fill="#b41f1f62" stroke-width="2" opacity="0.8"/><path transform="translate(460.8024960975217,55.45289080218663)" d="M2.958,0A2.958,2.958,0,1,1,-2.958,0A2.958,2.958,0,1,1,2.958,0" fill="#b41f1f62" stroke-width="2" opacity="0.8"/><path transform="translate(468.5599035211271,57.235835711113396)" d="M2.958,0A2.958,2.958,0,1,1,-2.958,0A2.958,2.958,0,1,1,2.958,0" fill="#b41f1f62" stroke-width="2" opacity="0.8"/><path transform="translate(472.8398656915024,61.28125567656298)" d="M2.958,0A2.958,2.958,0,1,1,-2.958,0A2.958,2.958,0,1,1,2.958,0" fill="#b41f1f62" stroke-width="2" opacity="0.8"/><path transform="translate(471.49817572830034,65.53800589892853)" d="M2.958,0A2.958,2.958,0,1,1,-2.958,0A2.958,2.958,0,1,1,2.958,0" fill="#b41f1f62" stroke-width="2" opacity="0.8"/><path transform="translate(472.4733740021984,71.38940483396527)" d="M2.958,0A2.958,2.958,0,1,1,-2.958,0A2.958,2.958,0,1,1,2.958,0" fill="#b41f1f62" stroke-width="2" opacity="0.8"/><path transform="translate(470.70545497266176,73.11739381654206)" d="M2.958,0A2.958,2.958,0,1,1,-2.958,0A2.958,2.958,0,1,1,2.958,0" fill="#b41f1f62" stroke-width="2" opacity="0.8"/><path transform="translate(472.1656592819327,73.18050774352469)" d="M2.958,0A2.958,2.958,0,1,1,-2.958,0A2.958,2.958,0,1,1,2.958,0" fill="#b41f1f62" stroke-width="2" opacity="0.8"/><path transform="translate(473.79681621357486,72.4349337792346)" d="M2.958,0A2.958,2.958,0,1,1,-2.958,0A2.958,2.958,0,1,1,2.958,0" fill="#b41f1f62" stroke-width="2" opacity="0.8"/><path transform="translate(469.3021068164471,71.40325474916335)" d="M2.958,0A2.958,2.958,0,1,1,-2.958,0A2.958,2.958,0,1,1,2.958,0" fill="#b41f1f62" stroke-width="2" opacity="0.8"/><path transform="translate(475.1853740867291,73.72968157621199)" d="M2.958,0A2.958,2.958,0,1,1,-2.958,0A2.958,2.958,0,1,1,2.958,0" fill="#b41f1f62" stroke-width="2" opacity="0.8"/><path transform="translate(478.21085133947145,76.04790141516332)" d="M2.958,0A2.958,2.958,0,1,1,-2.958,0A2.958,2.958,0,1,1,2.958,0" fill="#b41f1f62" stroke-width="2" opacity="0.8"/><path transform="translate(478.6115335532486,71.76970650660587)" d="M2.958,0A2.958,2.958,0,1,1,-2.958,0A2.958,2.958,0,1,1,2.958,0" fill="#b41f1f62" stroke-width="2" opacity="0.8"/><path transform="translate(479.37793912993857,71.38440978030121)" d="M2.958,0A2.958,2.958,0,1,1,-2.958,0A2.958,2.958,0,1,1,2.958,0" fill="#b41f1f62" stroke-width="2" opacity="0.8"/><path transform="translate(477.35416741164227,74.31675245434599)" d="M2.958,0A2.958,2.958,0,1,1,-2.958,0A2.958,2.958,0,1,1,2.958,0" fill="#b41f1f62" stroke-width="2" opacity="0.8"/><path transform="translate(480.4272809007289,72.65129830274236)" d="M2.958,0A2.958,2.958,0,1,1,-2.958,0A2.958,2.958,0,1,1,2.958,0" fill="#b41f1f62" stroke-width="2" opacity="0.8"/><path transform="translate(486.5792703268489,70.79975310263762)" d="M2.958,0A2.958,2.958,0,1,1,-2.958,0A2.958,2.958,0,1,1,2.958,0" fill="#b41f1f62" stroke-width="2" opacity="0.8"/><path transform="translate(459.16845794190795,68.3224414306178)" d="M2.958,0A2.958,2.958,0,1,1,-2.958,0A2.958,2.958,0,1,1,2.958,0" fill="#b41f1f62" stroke-width="2" opacity="0.8"/><path transform="translate(477.01648796206337,74.2336645505975)" d="M2.958,0A2.958,2.958,0,1,1,-2.958,0A2.958,2.958,0,1,1,2.958,0" fill="#b41f1f62" stroke-width="2" opacity="0.8"/><path transform="translate(461.4840016078215,75.76211066362794)" d="M2.958,0A2.958,2.958,0,1,1,-2.958,0A2.958,2.958,0,1,1,2.958,0" fill="#b41f1f62" stroke-width="2" opacity="0.8"/><path transform="translate(479.50701796390877,75.23047032467548)" d="M2.958,0A2.958,2.958,0,1,1,-2.958,0A2.958,2.958,0,1,1,2.958,0" fill="#b41f1f62" stroke-width="2" opacity="0.8"/><path transform="translate(486.10079506581314,80.76911901875883)" d="M2.958,0A2.958,2.958,0,1,1,-2.958,0A2.958,2.958,0,1,1,2.958,0" fill="#b41f1f62" stroke-width="2" opacity="0.8"/><path transform="translate(484.77159040649167,80.32679892326269)" d="M2.958,0A2.958,2.958,0,1,1,-2.958,0A2.958,2.958,0,1,1,2.958,0" fill="#b41f1f62" stroke-width="2" opacity="0.8"/><path transform="translate(462.1111480258387,89.05343936701593)" d="M2.958,0A2.958,2.958,0,1,1,-2.958,0A2.958,2.958,0,1,1,2.958,0" fill="#b41f1f62" stroke-width="2" opacity="0.8"/><path transform="translate(478.01435186454546,95.2780533150626)" d="M2.958,0A2.958,2.958,0,1,1,-2.958,0A2.958,2.958,0,1,1,2.958,0" fill="#b41f1f62" stroke-width="2" opacity="0.8"/><path transform="translate(491.84537942221687,100.90996194668514)" d="M2.958,0A2.958,2.958,0,1,1,-2.958,0A2.958,2.958,0,1,1,2.958,0" fill="#b41f1f62" stroke-width="2" opacity="0.8"/><path transform="translate(473.79451123439685,102.95785824218456)" d="M2.958,0A2.958,2.958,0,1,1,-2.958,0A2.958,2.958,0,1,1,2.958,0" fill="#b41f1f62" stroke-width="2" opacity="0.8"/><path transform="translate(448.13490677995105,71.88663367227036)" d="M2.958,0A2.958,2.958,0,1,1,-2.958,0A2.958,2.958,0,1,1,2.958,0" fill="#b41f1f62" stroke-width="2" opacity="0.8"/><path transform="translate(445.95881435430783,74.97667647226444)" d="M2.958,0A2.958,2.958,0,1,1,-2.958,0A2.958,2.958,0,1,1,2.958,0" fill="#b41f1f62" stroke-width="2" opacity="0.8"/><path transform="translate(451.1509720343829,76.82194546436585)" d="M2.958,0A2.958,2.958,0,1,1,-2.958,0A2.958,2.958,0,1,1,2.958,0" fill="#b41f1f62" stroke-width="2" opacity="0.8"/><path transform="translate(447.16412638281054,71.37737129354173)" d="M2.958,0A2.958,2.958,0,1,1,-2.958,0A2.958,2.958,0,1,1,2.958,0" fill="#b41f1f62" stroke-width="2" opacity="0.8"/><path transform="translate(427.69473559251946,78.42283075200885)" d="M2.958,0A2.958,2.958,0,1,1,-2.958,0A2.958,2.958,0,1,1,2.958,0" fill="#b41f1f62" stroke-width="2" opacity="0.8"/><path transform="translate(415.4697022771288,79.85927739564704)" d="M2.958,0A2.958,2.958,0,1,1,-2.958,0A2.958,2.958,0,1,1,2.958,0" fill="#b41f1f62" stroke-width="2" opacity="0.8"/><path transform="translate(415.59801278470513,79.18384897388569)" d="M2.958,0A2.958,2.958,0,1,1,-2.958,0A2.958,2.958,0,1,1,2.958,0" fill="#b41f1f62" stroke-width="2" opacity="0.8"/><path transform="translate(416.8611413742583,80.2471394494496)" d="M2.958,0A2.958,2.958,0,1,1,-2.958,0A2.958,2.958,0,1,1,2.958,0" fill="#b41f1f62" stroke-width="2" opacity="0.8"/><path transform="translate(434.0708842437025,79.35633951431646)" d="M2.958,0A2.958,2.958,0,1,1,-2.958,0A2.958,2.958,0,1,1,2.958,0" fill="#b41f1f62" stroke-width="2" opacity="0.8"/><path transform="translate(417.2414629386285,84.30189328342294)" d="M2.958,0A2.958,2.958,0,1,1,-2.958,0A2.958,2.958,0,1,1,2.958,0" fill="#b41f1f62" stroke-width="2" opacity="0.8"/><path transform="translate(418.23951892270816,85.67122556038066)" d="M2.958,0A2.958,2.958,0,1,1,-2.958,0A2.958,2.958,0,1,1,2.958,0" fill="#b41f1f62" stroke-width="2" opacity="0.8"/><path transform="translate(430.3961711891525,88.57477219389875)" d="M2.958,0A2.958,2.958,0,1,1,-2.958,0A2.958,2.958,0,1,1,2.958,0" fill="#b41f1f62" stroke-width="2" opacity="0.8"/><path transform="translate(423.8844129296658,86.57037487835987)" d="M2.958,0A2.958,2.958,0,1,1,-2.958,0A2.958,2.958,0,1,1,2.958,0" fill="#b41f1f62" stroke-width="2" opacity="0.8"/><path transform="translate(435.44695681297526,96.75029325746254)" d="M2.958,0A2.958,2.958,0,1,1,-2.958,0A2.958,2.958,0,1,1,2.958,0" fill="#b41f1f62" stroke-width="2" opacity="0.8"/><path transform="translate(439.0175616413171,92.31896973106177)" d="M2.958,0A2.958,2.958,0,1,1,-2.958,0A2.958,2.958,0,1,1,2.958,0" fill="#b41f1f62" stroke-width="2" opacity="0.8"/><path transform="translate(436.66763536933195,95.52025894808412)" d="M2.958,0A2.958,2.958,0,1,1,-2.958,0A2.958,2.958,0,1,1,2.958,0" fill="#b41f1f62" stroke-width="2" opacity="0.8"/><path transform="translate(429.64878169068106,102.1061230175037)" d="M2.958,0A2.958,2.958,0,1,1,-2.958,0A2.958,2.958,0,1,1,2.958,0" fill="#b41f1f62" stroke-width="2" opacity="0.8"/><path transform="translate(437.71928211930117,98.32809532779265)" d="M2.958,0A2.958,2.958,0,1,1,-2.958,0A2.958,2.958,0,1,1,2.958,0" fill="#b41f1f62" stroke-width="2" opacity="0.8"/><path transform="translate(426.7706310237345,105.04544764940147)" d="M2.958,0A2.958,2.958,0,1,1,-2.958,0A2.958,2.958,0,1,1,2.958,0" fill="#b41f1f62" stroke-width="2" opacity="0.8"/><path transform="translate(450.606420703577,99.71894675436579)" d="M2.958,0A2.958,2.958,0,1,1,-2.958,0A2.958,2.958,0,1,1,2.958,0" fill="#b41f1f62" stroke-width="2" opacity="0.8"/><path transform="translate(435.80230776958615,108.550737555267)" d="M2.958,0A2.958,2.958,0,1,1,-2.958,0A2.958,2.958,0,1,1,2.958,0" fill="#b41f1f62" stroke-width="2" opacity="0.8"/><path transform="translate(437.40926241985835,107.72597678205148)" d="M2.958,0A2.958,2.958,0,1,1,-2.958,0A2.958,2.958,0,1,1,2.958,0" fill="#b41f1f62" stroke-width="2" opacity="0.8"/><path transform="translate(441.0449829099798,105.16989388920774)" d="M2.958,0A2.958,2.958,0,1,1,-2.958,0A2.958,2.958,0,1,1,2.958,0" fill="#b41f1f62" stroke-width="2" opacity="0.8"/><path transform="translate(442.0914434567967,111.33868018677094)" d="M2.958,0A2.958,2.958,0,1,1,-2.958,0A2.958,2.958,0,1,1,2.958,0" fill="#b41f1f62" stroke-width="2" opacity="0.8"/><path transform="translate(471.33913216501696,114.1964876596112)" d="M2.958,0A2.958,2.958,0,1,1,-2.958,0A2.958,2.958,0,1,1,2.958,0" fill="#b41f1f62" stroke-width="2" opacity="0.8"/><path transform="translate(475.60949025548416,112.796183996139)" d="M2.958,0A2.958,2.958,0,1,1,-2.958,0A2.958,2.958,0,1,1,2.958,0" fill="#b41f1f62" stroke-width="2" opacity="0.8"/><path transform="translate(430.8381509465362,117.84861504240871)" d="M2.958,0A2.958,2.958,0,1,1,-2.958,0A2.958,2.958,0,1,1,2.958,0" fill="#b41f1f62" stroke-width="2" opacity="0.8"/><path transform="translate(446.9722368662424,117.98793596107771)" d="M2.958,0A2.958,2.958,0,1,1,-2.958,0A2.958,2.958,0,1,1,2.958,0" fill="#b41f1f62" stroke-width="2" opacity="0.8"/><path transform="translate(439.86464148923733,115.77364210386168)" d="M2.958,0A2.958,2.958,0,1,1,-2.958,0A2.958,2.958,0,1,1,2.958,0" fill="#b41f1f62" stroke-width="2" opacity="0.8"/><path transform="translate(433.95140948964126,129.2759408836846)" d="M2.958,0A2.958,2.958,0,1,1,-2.958,0A2.958,2.958,0,1,1,2.958,0" fill="#b41f1f62" stroke-width="2" opacity="0.8"/><path transform="translate(461.9286705075792,126.02822749922143)" d="M2.958,0A2.958,2.958,0,1,1,-2.958,0A2.958,2.958,0,1,1,2.958,0" fill="#b41f1f62" stroke-width="2" opacity="0.8"/><path transform="translate(463.3744686969885,138.97620832388293)" d="M2.958,0A2.958,2.958,0,1,1,-2.958,0A2.958,2.958,0,1,1,2.958,0" fill="#b41f1f62" stroke-width="2" opacity="0.8"/><path transform="translate(450.8021518521091,133.69824661904204)" d="M2.958,0A2.958,2.958,0,1,1,-2.958,0A2.958,2.958,0,1,1,2.958,0" fill="#b41f1f62" stroke-width="2" opacity="0.8"/><path transform="translate(451.25200695501917,135.138564296416)" d="M2.958,0A2.958,2.958,0,1,1,-2.958,0A2.958,2.958,0,1,1,2.958,0" fill="#b41f1f62" stroke-width="2" opacity="0.8"/><path transform="translate(461.9711205407748,133.09293483809142)" d="M2.958,0A2.958,2.958,0,1,1,-2.958,0A2.958,2.958,0,1,1,2.958,0" fill="#b41f1f62" stroke-width="2" opacity="0.8"/><path transform="translate(462.6533943774666,133.1545081202985)" d="M2.958,0A2.958,2.958,0,1,1,-2.958,0A2.958,2.958,0,1,1,2.958,0" fill="#b41f1f62" stroke-width="2" opacity="0.8"/><path transform="translate(462.5419870505293,133.37250323883381)" d="M2.958,0A2.958,2.958,0,1,1,-2.958,0A2.958,2.958,0,1,1,2.958,0" fill="#b41f1f62" stroke-width="2" opacity="0.8"/><path transform="translate(454.78381130053094,134.02036309646883)" d="M2.958,0A2.958,2.958,0,1,1,-2.958,0A2.958,2.958,0,1,1,2.958,0" fill="#b41f1f62" stroke-width="2" opacity="0.8"/><path transform="translate(425.3081217352865,136.77207125150653)" d="M2.958,0A2.958,2.958,0,1,1,-2.958,0A2.958,2.958,0,1,1,2.958,0" fill="#b41f1f62" stroke-width="2" opacity="0.8"/><path transform="translate(422.8087559799251,131.74484174007284)" d="M2.958,0A2.958,2.958,0,1,1,-2.958,0A2.958,2.958,0,1,1,2.958,0" fill="#b41f1f62" stroke-width="2" opacity="0.8"/><path transform="translate(465.22747987451476,135.58220641760363)" d="M2.958,0A2.958,2.958,0,1,1,-2.958,0A2.958,2.958,0,1,1,2.958,0" fill="#b41f1f62" stroke-width="2" opacity="0.8"/><path transform="translate(436.5569963687876,135.56364606949865)" d="M2.958,0A2.958,2.958,0,1,1,-2.958,0A2.958,2.958,0,1,1,2.958,0" fill="#b41f1f62" stroke-width="2" opacity="0.8"/><path transform="translate(434.16903794036443,135.9070098290431)" d="M2.958,0A2.958,2.958,0,1,1,-2.958,0A2.958,2.958,0,1,1,2.958,0" fill="#b41f1f62" stroke-width="2" opacity="0.8"/><path transform="translate(422.52812476500276,135.18338163417138)" d="M2.958,0A2.958,2.958,0,1,1,-2.958,0A2.958,2.958,0,1,1,2.958,0" fill="#b41f1f62" stroke-width="2" opacity="0.8"/><path transform="translate(425.51691443249456,135.9998098723736)" d="M2.958,0A2.958,2.958,0,1,1,-2.958,0A2.958,2.958,0,1,1,2.958,0" fill="#b41f1f62" stroke-width="2" opacity="0.8"/><path transform="translate(462.8525829947657,145.39288124492305)" d="M2.958,0A2.958,2.958,0,1,1,-2.958,0A2.958,2.958,0,1,1,2.958,0" fill="#b41f1f62" stroke-width="2" opacity="0.8"/><path transform="translate(465.10070601972257,137.33766889029812)" d="M2.958,0A2.958,2.958,0,1,1,-2.958,0A2.958,2.958,0,1,1,2.958,0" fill="#b41f1f62" stroke-width="2" opacity="0.8"/><path transform="translate(450.819055032749,142.64434901397817)" d="M2.958,0A2.958,2.958,0,1,1,-2.958,0A2.958,2.958,0,1,1,2.958,0" fill="#b41f1f62" stroke-width="2" opacity="0.8"/><path transform="translate(457.86864176710606,145.06189101751897)" d="M2.958,0A2.958,2.958,0,1,1,-2.958,0A2.958,2.958,0,1,1,2.958,0" fill="#b41f1f62" stroke-width="2" opacity="0.8"/><path transform="translate(458.09203266577515,139.42384210360615)" d="M2.958,0A2.958,2.958,0,1,1,-2.958,0A2.958,2.958,0,1,1,2.958,0" fill="#b41f1f62" stroke-width="2" opacity="0.8"/><path transform="translate(456.0601935203558,142.94867835231162)" d="M2.958,0A2.958,2.958,0,1,1,-2.958,0A2.958,2.958,0,1,1,2.958,0" fill="#b41f1f62" stroke-width="2" opacity="0.8"/><path transform="translate(455.14722968426304,146.32541736124676)" d="M2.958,0A2.958,2.958,0,1,1,-2.958,0A2.958,2.958,0,1,1,2.958,0" fill="#b41f1f62" stroke-width="2" opacity="0.8"/><path transform="translate(454.7523099184318,147.56420961064305)" d="M2.958,0A2.958,2.958,0,1,1,-2.958,0A2.958,2.958,0,1,1,2.958,0" fill="#b41f1f62" stroke-width="2" opacity="0.8"/><path transform="translate(456.22653618436925,146.23560432153135)" d="M2.958,0A2.958,2.958,0,1,1,-2.958,0A2.958,2.958,0,1,1,2.958,0" fill="#b41f1f62" stroke-width="2" opacity="0.8"/><path transform="translate(455.52601459585094,143.74240264348919)" d="M2.958,0A2.958,2.958,0,1,1,-2.958,0A2.958,2.958,0,1,1,2.958,0" fill="#b41f1f62" stroke-width="2" opacity="0.8"/><path transform="translate(462.3303131293478,145.8740859532154)" d="M2.958,0A2.958,2.958,0,1,1,-2.958,0A2.958,2.958,0,1,1,2.958,0" fill="#b41f1f62" stroke-width="2" opacity="0.8"/><path transform="translate(462.2108383752875,145.40238327905354)" d="M2.958,0A2.958,2.958,0,1,1,-2.958,0A2.958,2.958,0,1,1,2.958,0" fill="#b41f1f62" stroke-width="2" opacity="0.8"/><path transform="translate(436.6991367514329,144.7261443605339)" d="M2.958,0A2.958,2.958,0,1,1,-2.958,0A2.958,2.958,0,1,1,2.958,0" fill="#b41f1f62" stroke-width="2" opacity="0.8"/><path transform="translate(433.3784300823063,145.92973937719125)" d="M2.958,0A2.958,2.958,0,1,1,-2.958,0A2.958,2.958,0,1,1,2.958,0" fill="#b41f1f62" stroke-width="2" opacity="0.8"/><path transform="translate(431.68503871285884,152.22711795043597)" d="M2.958,0A2.958,2.958,0,1,1,-2.958,0A2.958,2.958,0,1,1,2.958,0" fill="#b41f1f62" stroke-width="2" opacity="0.8"/><path transform="translate(523.4570163590897,83.32889751802304)" d="M2.958,0A2.958,2.958,0,1,1,-2.958,0A2.958,2.958,0,1,1,2.958,0" fill="#b41f1f62" stroke-width="2" opacity="0.8"/><path transform="translate(510.38797650134893,85.52669551482904)" d="M2.958,0A2.958,2.958,0,1,1,-2.958,0A2.958,2.958,0,1,1,2.958,0" fill="#b41f1f62" stroke-width="2" opacity="0.8"/><path transform="translate(514.8262139086146,84.57712841223383)" d="M2.958,0A2.958,2.958,0,1,1,-2.958,0A2.958,2.958,0,1,1,2.958,0" fill="#b41f1f62" stroke-width="2" opacity="0.8"/><path transform="translate(508.54303275094753,108.11762325134623)" d="M2.958,0A2.958,2.958,0,1,1,-2.958,0A2.958,2.958,0,1,1,2.958,0" fill="#b41f1f62" stroke-width="2" opacity="0.8"/><path transform="translate(507.3713350021244,127.31057223398784)" d="M2.958,0A2.958,2.958,0,1,1,-2.958,0A2.958,2.958,0,1,1,2.958,0" fill="#b41f1f62" stroke-width="2" opacity="0.8"/><path transform="translate(508.18691346794367,148.65318199249577)" d="M2.958,0A2.958,2.958,0,1,1,-2.958,0A2.958,2.958,0,1,1,2.958,0" fill="#b41f1f62" stroke-width="2" opacity="0.8"/><path transform="translate(509.34093970973663,155.30906368740852)" d="M2.958,0A2.958,2.958,0,1,1,-2.958,0A2.958,2.958,0,1,1,2.958,0" fill="#b41f1f62" stroke-width="2" opacity="0.8"/><path transform="translate(508.7570116513052,153.39907086464245)" d="M2.958,0A2.958,2.958,0,1,1,-2.958,0A2.958,2.958,0,1,1,2.958,0" fill="#b41f1f62" stroke-width="2" opacity="0.8"/><path transform="translate(514.6833051995791,153.60916507018646)" d="M2.958,0A2.958,2.958,0,1,1,-2.958,0A2.958,2.958,0,1,1,2.958,0" fill="#b41f1f62" stroke-width="2" opacity="0.8"/><path transform="translate(510.8789370662653,155.57431407058357)" d="M2.958,0A2.958,2.958,0,1,1,-2.958,0A2.958,2.958,0,1,1,2.958,0" fill="#b41f1f62" stroke-width="2" opacity="0.8"/><path transform="translate(508.09682719840384,154.25232512969524)" d="M2.958,0A2.958,2.958,0,1,1,-2.958,0A2.958,2.958,0,1,1,2.958,0" fill="#b41f1f62" stroke-width="2" opacity="0.8"/><path transform="translate(513.5534812391552,150.42088782088194)" d="M2.958,0A2.958,2.958,0,1,1,-2.958,0A2.958,2.958,0,1,1,2.958,0" fill="#b41f1f62" stroke-width="2" opacity="0.8"/><path transform="translate(507.04383587724806,157.00452761171164)" d="M2.958,0A2.958,2.958,0,1,1,-2.958,0A2.958,2.958,0,1,1,2.958,0" fill="#b41f1f62" stroke-width="2" opacity="0.8"/><path transform="translate(507.58377724969705,148.95470915333226)" d="M2.958,0A2.958,2.958,0,1,1,-2.958,0A2.958,2.958,0,1,1,2.958,0" fill="#b41f1f62" stroke-width="2" opacity="0.8"/><path transform="translate(505.8575399269621,157.66295817668652)" d="M2.958,0A2.958,2.958,0,1,1,-2.958,0A2.958,2.958,0,1,1,2.958,0" fill="#b41f1f62" stroke-width="2" opacity="0.8"/><path transform="translate(506.5939807743389,159.7070808334347)" d="M2.958,0A2.958,2.958,0,1,1,-2.958,0A2.958,2.958,0,1,1,2.958,0" fill="#b41f1f62" stroke-width="2" opacity="0.8"/><path transform="translate(457.68040180090156,152.56319609446382)" d="M2.958,0A2.958,2.958,0,1,1,-2.958,0A2.958,2.958,0,1,1,2.958,0" fill="#b41f1f62" stroke-width="2" opacity="0.8"/><path transform="translate(466.1646459919739,149.7685618851301)" d="M2.958,0A2.958,2.958,0,1,1,-2.958,0A2.958,2.958,0,1,1,2.958,0" fill="#b41f1f62" stroke-width="2" opacity="0.8"/><path transform="translate(461.83935256443056,153.45085962213307)" d="M2.958,0A2.958,2.958,0,1,1,-2.958,0A2.958,2.958,0,1,1,2.958,0" fill="#b41f1f62" stroke-width="2" opacity="0.8"/><path transform="translate(462.9647586480969,150.38922198482032)" d="M2.958,0A2.958,2.958,0,1,1,-2.958,0A2.958,2.958,0,1,1,2.958,0" fill="#b41f1f62" stroke-width="2" opacity="0.8"/><path transform="translate(465.7067234619417,150.96168763715377)" d="M2.958,0A2.958,2.958,0,1,1,-2.958,0A2.958,2.958,0,1,1,2.958,0" fill="#b41f1f62" stroke-width="2" opacity="0.8"/><path transform="translate(465.35636662688376,151.00353061820897)" d="M2.958,0A2.958,2.958,0,1,1,-2.958,0A2.958,2.958,0,1,1,2.958,0" fill="#b41f1f62" stroke-width="2" opacity="0.8"/><path transform="translate(465.9082170584197,151.25865789605086)" d="M2.958,0A2.958,2.958,0,1,1,-2.958,0A2.958,2.958,0,1,1,2.958,0" fill="#b41f1f62" stroke-width="2" opacity="0.8"/><path transform="translate(465.37173315473683,151.7227644052473)" d="M2.958,0A2.958,2.958,0,1,1,-2.958,0A2.958,2.958,0,1,1,2.958,0" fill="#b41f1f62" stroke-width="2" opacity="0.8"/><path transform="translate(469.3351448513322,161.33278523236186)" d="M2.958,0A2.958,2.958,0,1,1,-2.958,0A2.958,2.958,0,1,1,2.958,0" fill="#b41f1f62" stroke-width="2" opacity="0.8"/><path transform="translate(464.4053706343557,149.91468105022432)" d="M2.958,0A2.958,2.958,0,1,1,-2.958,0A2.958,2.958,0,1,1,2.958,0" fill="#b41f1f62" stroke-width="2" opacity="0.8"/><path transform="translate(466.11624142923574,153.3780387124225)" d="M2.958,0A2.958,2.958,0,1,1,-2.958,0A2.958,2.958,0,1,1,2.958,0" fill="#b41f1f62" stroke-width="2" opacity="0.8"/><path transform="translate(446.12515701832217,153.0616492603649)" d="M2.958,0A2.958,2.958,0,1,1,-2.958,0A2.958,2.958,0,1,1,2.958,0" fill="#b41f1f62" stroke-width="2" opacity="0.8"/><path transform="translate(440.88536310190284,157.01357212838593)" d="M2.958,0A2.958,2.958,0,1,1,-2.958,0A2.958,2.958,0,1,1,2.958,0" fill="#b41f1f62" stroke-width="2" opacity="0.8"/><path transform="translate(455.48721411302085,161.75484630993378)" d="M2.958,0A2.958,2.958,0,1,1,-2.958,0A2.958,2.958,0,1,1,2.958,0" fill="#b41f1f62" stroke-width="2" opacity="0.8"/><path transform="translate(445.8935066109307,159.18233401965244)" d="M2.958,0A2.958,2.958,0,1,1,-2.958,0A2.958,2.958,0,1,1,2.958,0" fill="#b41f1f62" stroke-width="2" opacity="0.8"/><path transform="translate(466.99559098564805,157.89810691352886)" d="M2.958,0A2.958,2.958,0,1,1,-2.958,0A2.958,2.958,0,1,1,2.958,0" fill="#b41f1f62" stroke-width="2" opacity="0.8"/><path transform="translate(465.68828362851855,154.30999146552676)" d="M2.958,0A2.958,2.958,0,1,1,-2.958,0A2.958,2.958,0,1,1,2.958,0" fill="#b41f1f62" stroke-width="2" opacity="0.8"/><path transform="translate(465.7455239447727,157.09452037798746)" d="M2.958,0A2.958,2.958,0,1,1,-2.958,0A2.958,2.958,0,1,1,2.958,0" fill="#b41f1f62" stroke-width="2" opacity="0.8"/><path transform="translate(465.478146360123,152.00049961596596)" d="M2.958,0A2.958,2.958,0,1,1,-2.958,0A2.958,2.958,0,1,1,2.958,0" fill="#b41f1f62" stroke-width="2" opacity="0.8"/><path transform="translate(473.4326295034489,162.88783577000868)" d="M2.958,0A2.958,2.958,0,1,1,-2.958,0A2.958,2.958,0,1,1,2.958,0" fill="#b41f1f62" stroke-width="2" opacity="0.8"/><path transform="translate(469.81726966273345,167.4813288178948)" d="M2.958,0A2.958,2.958,0,1,1,-2.958,0A2.958,2.958,0,1,1,2.958,0" fill="#b41f1f62" stroke-width="2" opacity="0.8"/><path transform="translate(476.72394768805407,153.5250371817283)" d="M2.958,0A2.958,2.958,0,1,1,-2.958,0A2.958,2.958,0,1,1,2.958,0" fill="#b41f1f62" stroke-width="2" opacity="0.8"/><path transform="translate(450.5735747502913,162.04103819982993)" d="M2.958,0A2.958,2.958,0,1,1,-2.958,0A2.958,2.958,0,1,1,2.958,0" fill="#b41f1f62" stroke-width="2" opacity="0.8"/><path transform="translate(469.8591434511345,164.1683653513146)" d="M2.958,0A2.958,2.958,0,1,1,-2.958,0A2.958,2.958,0,1,1,2.958,0" fill="#b41f1f62" stroke-width="2" opacity="0.8"/><path transform="translate(469.34244395206315,164.071395956993)" d="M2.958,0A2.958,2.958,0,1,1,-2.958,0A2.958,2.958,0,1,1,2.958,0" fill="#b41f1f62" stroke-width="2" opacity="0.8"/><path transform="translate(469.04932743325935,164.24160067928005)" d="M2.958,0A2.958,2.958,0,1,1,-2.958,0A2.958,2.958,0,1,1,2.958,0" fill="#b41f1f62" stroke-width="2" opacity="0.8"/><path transform="translate(469.0354975581904,164.61071186347635)" d="M2.958,0A2.958,2.958,0,1,1,-2.958,0A2.958,2.958,0,1,1,2.958,0" fill="#b41f1f62" stroke-width="2" opacity="0.8"/><path transform="translate(469.6451645507759,164.68100725255135)" d="M2.958,0A2.958,2.958,0,1,1,-2.958,0A2.958,2.958,0,1,1,2.958,0" fill="#b41f1f62" stroke-width="2" opacity="0.8"/><path transform="translate(465.2722348868865,165.59075741649121)" d="M2.958,0A2.958,2.958,0,1,1,-2.958,0A2.958,2.958,0,1,1,2.958,0" fill="#b41f1f62" stroke-width="2" opacity="0.8"/><path transform="translate(467.72319607950703,166.22948006017032)" d="M2.958,0A2.958,2.958,0,1,1,-2.958,0A2.958,2.958,0,1,1,2.958,0" fill="#b41f1f62" stroke-width="2" opacity="0.8"/><path transform="translate(470.9530481526999,162.9841325174748)" d="M2.958,0A2.958,2.958,0,1,1,-2.958,0A2.958,2.958,0,1,1,2.958,0" fill="#b41f1f62" stroke-width="2" opacity="0.8"/><path transform="translate(469.5785122362104,169.85848231424643)" d="M2.958,0A2.958,2.958,0,1,1,-2.958,0A2.958,2.958,0,1,1,2.958,0" fill="#b41f1f62" stroke-width="2" opacity="0.8"/><path transform="translate(468.75332969048213,166.66183854689825)" d="M2.958,0A2.958,2.958,0,1,1,-2.958,0A2.958,2.958,0,1,1,2.958,0" fill="#b41f1f62" stroke-width="2" opacity="0.8"/><path transform="translate(471.01393801931954,167.99524536315857)" d="M2.958,0A2.958,2.958,0,1,1,-2.958,0A2.958,2.958,0,1,1,2.958,0" fill="#b41f1f62" stroke-width="2" opacity="0.8"/><path transform="translate(469.3762503133403,174.45134669965773)" d="M2.958,0A2.958,2.958,0,1,1,-2.958,0A2.958,2.958,0,1,1,2.958,0" fill="#b41f1f62" stroke-width="2" opacity="0.8"/><path transform="translate(473.77338225859694,176.7807206359157)" d="M2.958,0A2.958,2.958,0,1,1,-2.958,0A2.958,2.958,0,1,1,2.958,0" fill="#b41f1f62" stroke-width="2" opacity="0.8"/><path transform="translate(474.3060245303186,173.4007730954445)" d="M2.958,0A2.958,2.958,0,1,1,-2.958,0A2.958,2.958,0,1,1,2.958,0" fill="#b41f1f62" stroke-width="2" opacity="0.8"/><path transform="translate(468.683796151945,176.8600110209618)" d="M2.958,0A2.958,2.958,0,1,1,-2.958,0A2.958,2.958,0,1,1,2.958,0" fill="#b41f1f62" stroke-width="2" opacity="0.8"/><path transform="translate(470.14918666436733,171.97733106996657)" d="M2.958,0A2.958,2.958,0,1,1,-2.958,0A2.958,2.958,0,1,1,2.958,0" fill="#b41f1f62" stroke-width="2" opacity="0.8"/><path transform="translate(468.31884111542604,172.91590992097463)" d="M2.958,0A2.958,2.958,0,1,1,-2.958,0A2.958,2.958,0,1,1,2.958,0" fill="#b41f1f62" stroke-width="2" opacity="0.8"/><path transform="translate(469.16592096334625,173.27108572474663)" d="M2.958,0A2.958,2.958,0,1,1,-2.958,0A2.958,2.958,0,1,1,2.958,0" fill="#b41f1f62" stroke-width="2" opacity="0.8"/><path transform="translate(467.761996562338,172.30744268839135)" d="M2.958,0A2.958,2.958,0,1,1,-2.958,0A2.958,2.958,0,1,1,2.958,0" fill="#b41f1f62" stroke-width="2" opacity="0.8"/><path transform="translate(466.2531956087296,174.59187103631575)" d="M2.958,0A2.958,2.958,0,1,1,-2.958,0A2.958,2.958,0,1,1,2.958,0" fill="#b41f1f62" stroke-width="2" opacity="0.8"/><path transform="translate(472.58631798192164,177.35427023273314)" d="M2.958,0A2.958,2.958,0,1,1,-2.958,0A2.958,2.958,0,1,1,2.958,0" fill="#b41f1f62" stroke-width="2" opacity="0.8"/><path transform="translate(470.0965563064701,176.34721603591697)" d="M2.958,0A2.958,2.958,0,1,1,-2.958,0A2.958,2.958,0,1,1,2.958,0" fill="#b41f1f62" stroke-width="2" opacity="0.8"/><path transform="translate(475.3590158514735,182.0378582098001)" d="M2.958,0A2.958,2.958,0,1,1,-2.958,0A2.958,2.958,0,1,1,2.958,0" fill="#b41f1f62" stroke-width="2" opacity="0.8"/><path transform="translate(475.06436267988465,179.86853147314832)" d="M2.958,0A2.958,2.958,0,1,1,-2.958,0A2.958,2.958,0,1,1,2.958,0" fill="#b41f1f62" stroke-width="2" opacity="0.8"/><path transform="translate(470.5830989946289,185.01221437687673)" d="M2.958,0A2.958,2.958,0,1,1,-2.958,0A2.958,2.958,0,1,1,2.958,0" fill="#b41f1f62" stroke-width="2" opacity="0.8"/><path transform="translate(466.69363871332916,181.47572943644172)" d="M2.958,0A2.958,2.958,0,1,1,-2.958,0A2.958,2.958,0,1,1,2.958,0" fill="#b41f1f62" stroke-width="2" opacity="0.8"/><path transform="translate(448.93358206513403,185.00792398452904)" d="M2.958,0A2.958,2.958,0,1,1,-2.958,0A2.958,2.958,0,1,1,2.958,0" fill="#b41f1f62" stroke-width="2" opacity="0.8"/><path transform="translate(450.2182237936795,185.19466814293173)" d="M2.958,0A2.958,2.958,0,1,1,-2.958,0A2.958,2.958,0,1,1,2.958,0" fill="#b41f1f62" stroke-width="2" opacity="0.8"/><path transform="translate(479.0775235104038,192.7784156380294)" d="M2.958,0A2.958,2.958,0,1,1,-2.958,0A2.958,2.958,0,1,1,2.958,0" fill="#b41f1f62" stroke-width="2" opacity="0.8"/><path transform="translate(480.15683001051,184.71504617521987)" d="M2.958,0A2.958,2.958,0,1,1,-2.958,0A2.958,2.958,0,1,1,2.958,0" fill="#b41f1f62" stroke-width="2" opacity="0.8"/><path transform="translate(460.2258671398222,184.81259729622343)" d="M2.958,0A2.958,2.958,0,1,1,-2.958,0A2.958,2.958,0,1,1,2.958,0" fill="#b41f1f62" stroke-width="2" opacity="0.8"/><path transform="translate(456.8794215365424,187.27696717686013)" d="M2.958,0A2.958,2.958,0,1,1,-2.958,0A2.958,2.958,0,1,1,2.958,0" fill="#b41f1f62" stroke-width="2" opacity="0.8"/><path transform="translate(458.4364349712905,184.56329908332646)" d="M2.958,0A2.958,2.958,0,1,1,-2.958,0A2.958,2.958,0,1,1,2.958,0" fill="#b41f1f62" stroke-width="2" opacity="0.8"/><path transform="translate(458.7113037382678,184.7658541074752)" d="M2.958,0A2.958,2.958,0,1,1,-2.958,0A2.958,2.958,0,1,1,2.958,0" fill="#b41f1f62" stroke-width="2" opacity="0.8"/><path transform="translate(466.24224695763496,190.1367990244271)" d="M2.958,0A2.958,2.958,0,1,1,-2.958,0A2.958,2.958,0,1,1,2.958,0" fill="#b41f1f62" stroke-width="2" opacity="0.8"/><path transform="translate(478.6151831036141,184.12702006589734)" d="M2.958,0A2.958,2.958,0,1,1,-2.958,0A2.958,2.958,0,1,1,2.958,0" fill="#b41f1f62" stroke-width="2" opacity="0.8"/><path transform="translate(446.01739924174854,188.62847660635543)" d="M2.958,0A2.958,2.958,0,1,1,-2.958,0A2.958,2.958,0,1,1,2.958,0" fill="#b41f1f62" stroke-width="2" opacity="0.8"/><path transform="translate(438.1478161648138,192.10032262404184)" d="M2.958,0A2.958,2.958,0,1,1,-2.958,0A2.958,2.958,0,1,1,2.958,0" fill="#b41f1f62" stroke-width="2" opacity="0.8"/><path transform="translate(459.89836801494494,189.87966267948013)" d="M2.958,0A2.958,2.958,0,1,1,-2.958,0A2.958,2.958,0,1,1,2.958,0" fill="#b41f1f62" stroke-width="2" opacity="0.8"/><path transform="translate(457.19155413356475,192.41070414069327)" d="M2.958,0A2.958,2.958,0,1,1,-2.958,0A2.958,2.958,0,1,1,2.958,0" fill="#b41f1f62" stroke-width="2" opacity="0.8"/><path transform="translate(460.0814217779989,188.47427437585793)" d="M2.958,0A2.958,2.958,0,1,1,-2.958,0A2.958,2.958,0,1,1,2.958,0" fill="#b41f1f62" stroke-width="2" opacity="0.8"/><path transform="translate(461.5358636393257,184.37948491229872)" d="M2.958,0A2.958,2.958,0,1,1,-2.958,0A2.958,2.958,0,1,1,2.958,0" fill="#b41f1f62" stroke-width="2" opacity="0.8"/><path transform="translate(463.038133818598,185.66366637992815)" d="M2.958,0A2.958,2.958,0,1,1,-2.958,0A2.958,2.958,0,1,1,2.958,0" fill="#b41f1f62" stroke-width="2" opacity="0.8"/><path transform="translate(464.13127019377043,188.52371855293586)" d="M2.958,0A2.958,2.958,0,1,1,-2.958,0A2.958,2.958,0,1,1,2.958,0" fill="#b41f1f62" stroke-width="2" opacity="0.8"/><path transform="translate(463.6103448995382,188.96509861426784)" d="M2.958,0A2.958,2.958,0,1,1,-2.958,0A2.958,2.958,0,1,1,2.958,0" fill="#b41f1f62" stroke-width="2" opacity="0.8"/><path transform="translate(467.23876628892776,186.2744547831171)" d="M2.958,0A2.958,2.958,0,1,1,-2.958,0A2.958,2.958,0,1,1,2.958,0" fill="#b41f1f62" stroke-width="2" opacity="0.8"/><path transform="translate(457.2582064481285,188.5031732697853)" d="M2.958,0A2.958,2.958,0,1,1,-2.958,0A2.958,2.958,0,1,1,2.958,0" fill="#b41f1f62" stroke-width="2" opacity="0.8"/><path transform="translate(457.31102888762416,190.65128799395006)" d="M2.958,0A2.958,2.958,0,1,1,-2.958,0A2.958,2.958,0,1,1,2.958,0" fill="#b41f1f62" stroke-width="2" opacity="0.8"/><path transform="translate(456.91245957142655,190.72465638746417)" d="M2.958,0A2.958,2.958,0,1,1,-2.958,0A2.958,2.958,0,1,1,2.958,0" fill="#b41f1f62" stroke-width="2" opacity="0.8"/><path transform="translate(456.2374848354639,190.9415995800673)" d="M2.958,0A2.958,2.958,0,1,1,-2.958,0A2.958,2.958,0,1,1,2.958,0" fill="#b41f1f62" stroke-width="2" opacity="0.8"/><path transform="translate(457.3505976968472,190.43343878811447)" d="M2.958,0A2.958,2.958,0,1,1,-2.958,0A2.958,2.958,0,1,1,2.958,0" fill="#b41f1f62" stroke-width="2" opacity="0.8"/><path transform="translate(456.4808522203439,191.11677787541612)" d="M2.958,0A2.958,2.958,0,1,1,-2.958,0A2.958,2.958,0,1,1,2.958,0" fill="#b41f1f62" stroke-width="2" opacity="0.8"/><path transform="translate(469.83782239373795,192.8131774714975)" d="M2.958,0A2.958,2.958,0,1,1,-2.958,0A2.958,2.958,0,1,1,2.958,0" fill="#b41f1f62" stroke-width="2" opacity="0.8"/><path transform="translate(462.57867463577895,190.2444838079109)" d="M2.958,0A2.958,2.958,0,1,1,-2.958,0A2.958,2.958,0,1,1,2.958,0" fill="#b41f1f62" stroke-width="2" opacity="0.8"/><path transform="translate(471.6741224722218,194.43585888418693)" d="M2.958,0A2.958,2.958,0,1,1,-2.958,0A2.958,2.958,0,1,1,2.958,0" fill="#b41f1f62" stroke-width="2" opacity="0.8"/><path transform="translate(471.76785829212713,194.95927041859522)" d="M2.958,0A2.958,2.958,0,1,1,-2.958,0A2.958,2.958,0,1,1,2.958,0" fill="#b41f1f62" stroke-width="2" opacity="0.8"/><path transform="translate(464.40902018471934,196.82620156640405)" d="M2.958,0A2.958,2.958,0,1,1,-2.958,0A2.958,2.958,0,1,1,2.958,0" fill="#b41f1f62" stroke-width="2" opacity="0.8"/><path transform="translate(464.8354413326524,196.29561461983667)" d="M2.958,0A2.958,2.958,0,1,1,-2.958,0A2.958,2.958,0,1,1,2.958,0" fill="#b41f1f62" stroke-width="2" opacity="0.8"/><path transform="translate(458.3895670613365,198.97752519265578)" d="M2.958,0A2.958,2.958,0,1,1,-2.958,0A2.958,2.958,0,1,1,2.958,0" fill="#b41f1f62" stroke-width="2" opacity="0.8"/><path transform="translate(461.2583057299744,198.688001887248)" d="M2.958,0A2.958,2.958,0,1,1,-2.958,0A2.958,2.958,0,1,1,2.958,0" fill="#b41f1f62" stroke-width="2" opacity="0.8"/><path transform="translate(465.1907922892633,203.56739113764797)" d="M2.958,0A2.958,2.958,0,1,1,-2.958,0A2.958,2.958,0,1,1,2.958,0" fill="#b41f1f62" stroke-width="2" opacity="0.8"/><path transform="translate(451.56049000167604,205.85269858725405)" d="M2.958,0A2.958,2.958,0,1,1,-2.958,0A2.958,2.958,0,1,1,2.958,0" fill="#b41f1f62" stroke-width="2" opacity="0.8"/><path transform="translate(452.07411619517643,208.80157313106156)" d="M2.958,0A2.958,2.958,0,1,1,-2.958,0A2.958,2.958,0,1,1,2.958,0" fill="#b41f1f62" stroke-width="2" opacity="0.8"/><path transform="translate(464.97239551214716,219.13864993349125)" d="M2.958,0A2.958,2.958,0,1,1,-2.958,0A2.958,2.958,0,1,1,2.958,0" fill="#b41f1f62" stroke-width="2" opacity="0.8"/><path transform="translate(436.2500499749167,199.93091546087362)" d="M2.958,0A2.958,2.958,0,1,1,-2.958,0A2.958,2.958,0,1,1,2.958,0" fill="#b41f1f62" stroke-width="2" opacity="0.8"/><path transform="translate(449.0611242463174,206.5050822572357)" d="M2.958,0A2.958,2.958,0,1,1,-2.958,0A2.958,2.958,0,1,1,2.958,0" fill="#b41f1f62" stroke-width="2" opacity="0.8"/><path transform="translate(447.8836640495492,207.41594918686042)" d="M2.958,0A2.958,2.958,0,1,1,-2.958,0A2.958,2.958,0,1,1,2.958,0" fill="#b41f1f62" stroke-width="2" opacity="0.8"/><path transform="translate(447.35755255216554,206.4507177259111)" d="M2.958,0A2.958,2.958,0,1,1,-2.958,0A2.958,2.958,0,1,1,2.958,0" fill="#b41f1f62" stroke-width="2" opacity="0.8"/><path transform="translate(448.83542836846937,206.79111406947231)" d="M2.958,0A2.958,2.958,0,1,1,-2.958,0A2.958,2.958,0,1,1,2.958,0" fill="#b41f1f62" stroke-width="2" opacity="0.8"/><path transform="translate(449.1160595833926,207.02729039602036)" d="M2.958,0A2.958,2.958,0,1,1,-2.958,0A2.958,2.958,0,1,1,2.958,0" fill="#b41f1f62" stroke-width="2" opacity="0.8"/><path transform="translate(441.6752026335671,208.92630412224116)" d="M2.958,0A2.958,2.958,0,1,1,-2.958,0A2.958,2.958,0,1,1,2.958,0" fill="#b41f1f62" stroke-width="2" opacity="0.8"/><path transform="translate(438.38887857051304,207.21586863031007)" d="M2.958,0A2.958,2.958,0,1,1,-2.958,0A2.958,2.958,0,1,1,2.958,0" fill="#b41f1f62" stroke-width="2" opacity="0.8"/><path transform="translate(422.16701136044685,204.3545305587504)" d="M2.958,0A2.958,2.958,0,1,1,-2.958,0A2.958,2.958,0,1,1,2.958,0" fill="#b41f1f62" stroke-width="2" opacity="0.8"/><path transform="translate(431.8000955901616,209.13448819477253)" d="M2.958,0A2.958,2.958,0,1,1,-2.958,0A2.958,2.958,0,1,1,2.958,0" fill="#b41f1f62" stroke-width="2" opacity="0.8"/><path transform="translate(424.2449500894263,208.78781433258973)" d="M2.958,0A2.958,2.958,0,1,1,-2.958,0A2.958,2.958,0,1,1,2.958,0" fill="#b41f1f62" stroke-width="2" opacity="0.8"/><path transform="translate(423.3650242882195,211.93451000372625)" d="M2.958,0A2.958,2.958,0,1,1,-2.958,0A2.958,2.958,0,1,1,2.958,0" fill="#b41f1f62" stroke-width="2" opacity="0.8"/><path transform="translate(441.75875812876984,216.17499218001194)" d="M2.958,0A2.958,2.958,0,1,1,-2.958,0A2.958,2.958,0,1,1,2.958,0" fill="#b41f1f62" stroke-width="2" opacity="0.8"/><path transform="translate(441.459879162021,218.86946921366598)" d="M2.958,0A2.958,2.958,0,1,1,-2.958,0A2.958,2.958,0,1,1,2.958,0" fill="#b41f1f62" stroke-width="2" opacity="0.8"/><path transform="translate(440.89112554984604,212.2957904985269)" d="M2.958,0A2.958,2.958,0,1,1,-2.958,0A2.958,2.958,0,1,1,2.958,0" fill="#b41f1f62" stroke-width="2" opacity="0.8"/><path transform="translate(425.10528356761915,216.60113529917817)" d="M2.958,0A2.958,2.958,0,1,1,-2.958,0A2.958,2.958,0,1,1,2.958,0" fill="#b41f1f62" stroke-width="2" opacity="0.8"/><path transform="translate(434.4636911119542,218.89742449069126)" d="M2.958,0A2.958,2.958,0,1,1,-2.958,0A2.958,2.958,0,1,1,2.958,0" fill="#b41f1f62" stroke-width="2" opacity="0.8"/><path transform="translate(446.9368938521793,221.45359711751462)" d="M2.958,0A2.958,2.958,0,1,1,-2.958,0A2.958,2.958,0,1,1,2.958,0" fill="#b41f1f62" stroke-width="2" opacity="0.8"/><path transform="translate(444.50648539056147,222.70733591274075)" d="M2.958,0A2.958,2.958,0,1,1,-2.958,0A2.958,2.958,0,1,1,2.958,0" fill="#b41f1f62" stroke-width="2" opacity="0.8"/><path transform="translate(417.9024157179256,223.60668178483957)" d="M2.958,0A2.958,2.958,0,1,1,-2.958,0A2.958,2.958,0,1,1,2.958,0" fill="#b41f1f62" stroke-width="2" opacity="0.8"/><path transform="translate(416.8699771277734,216.45841213755284)" d="M2.958,0A2.958,2.958,0,1,1,-2.958,0A2.958,2.958,0,1,1,2.958,0" fill="#b41f1f62" stroke-width="2" opacity="0.8"/><path transform="translate(413.40713007600334,227.79590969522815)" d="M2.958,0A2.958,2.958,0,1,1,-2.958,0A2.958,2.958,0,1,1,2.958,0" fill="#b41f1f62" stroke-width="2" opacity="0.8"/><path transform="translate(441.71400311639627,228.59431057622896)" d="M2.958,0A2.958,2.958,0,1,1,-2.958,0A2.958,2.958,0,1,1,2.958,0" fill="#b41f1f62" stroke-width="2" opacity="0.8"/><path transform="translate(437.6019202628213,228.63532273052624)" d="M2.958,0A2.958,2.958,0,1,1,-2.958,0A2.958,2.958,0,1,1,2.958,0" fill="#b41f1f62" stroke-width="2" opacity="0.8"/><path transform="translate(443.007288516862,228.06790571979036)" d="M2.958,0A2.958,2.958,0,1,1,-2.958,0A2.958,2.958,0,1,1,2.958,0" fill="#b41f1f62" stroke-width="2" opacity="0.8"/><path transform="translate(445.31687765323113,227.0664382115565)" d="M2.958,0A2.958,2.958,0,1,1,-2.958,0A2.958,2.958,0,1,1,2.958,0" fill="#b41f1f62" stroke-width="2" opacity="0.8"/><path transform="translate(444.6691785042085,230.11846683172462)" d="M2.958,0A2.958,2.958,0,1,1,-2.958,0A2.958,2.958,0,1,1,2.958,0" fill="#b41f1f62" stroke-width="2" opacity="0.8"/><path transform="translate(444.45366295106396,233.57061974754833)" d="M2.958,0A2.958,2.958,0,1,1,-2.958,0A2.958,2.958,0,1,1,2.958,0" fill="#b41f1f62" stroke-width="2" opacity="0.8"/><path transform="translate(442.9825099906984,231.66481833346643)" d="M2.958,0A2.958,2.958,0,1,1,-2.958,0A2.958,2.958,0,1,1,2.958,0" fill="#b41f1f62" stroke-width="2" opacity="0.8"/><path transform="translate(443.24835092256126,230.34784685013256)" d="M2.958,0A2.958,2.958,0,1,1,-2.958,0A2.958,2.958,0,1,1,2.958,0" fill="#b41f1f62" stroke-width="2" opacity="0.8"/><path transform="translate(442.38379164920843,232.46262189783283)" d="M2.958,0A2.958,2.958,0,1,1,-2.958,0A2.958,2.958,0,1,1,2.958,0" fill="#b41f1f62" stroke-width="2" opacity="0.8"/><path transform="translate(439.02562906844014,232.1210638349521)" d="M2.958,0A2.958,2.958,0,1,1,-2.958,0A2.958,2.958,0,1,1,2.958,0" fill="#b41f1f62" stroke-width="2" opacity="0.8"/><path transform="translate(439.45934931710417,227.75016353963383)" d="M2.958,0A2.958,2.958,0,1,1,-2.958,0A2.958,2.958,0,1,1,2.958,0" fill="#b41f1f62" stroke-width="2" opacity="0.8"/><path transform="translate(431.8828827589723,226.46945617152687)" d="M2.958,0A2.958,2.958,0,1,1,-2.958,0A2.958,2.958,0,1,1,2.958,0" fill="#b41f1f62" stroke-width="2" opacity="0.8"/><path transform="translate(439.6316465106602,225.13728455634555)" d="M2.958,0A2.958,2.958,0,1,1,-2.958,0A2.958,2.958,0,1,1,2.958,0" fill="#b41f1f62" stroke-width="2" opacity="0.8"/><path transform="translate(438.0475495705705,221.69231366303939)" d="M2.958,0A2.958,2.958,0,1,1,-2.958,0A2.958,2.958,0,1,1,2.958,0" fill="#b41f1f62" stroke-width="2" opacity="0.8"/><path transform="translate(436.15765872619613,223.79218117467735)" d="M2.958,0A2.958,2.958,0,1,1,-2.958,0A2.958,2.958,0,1,1,2.958,0" fill="#b41f1f62" stroke-width="2" opacity="0.8"/><path transform="translate(440.7981580563328,222.40213561666678)" d="M2.958,0A2.958,2.958,0,1,1,-2.958,0A2.958,2.958,0,1,1,2.958,0" fill="#b41f1f62" stroke-width="2" opacity="0.8"/><path transform="translate(442.78831549495044,223.69323334405908)" d="M2.958,0A2.958,2.958,0,1,1,-2.958,0A2.958,2.958,0,1,1,2.958,0" fill="#b41f1f62" stroke-width="2" opacity="0.8"/><path transform="translate(454.015869071055,231.02403018062523)" d="M2.958,0A2.958,2.958,0,1,1,-2.958,0A2.958,2.958,0,1,1,2.958,0" fill="#b41f1f62" stroke-width="2" opacity="0.8"/><path transform="translate(427.90064706575595,234.3169872288654)" d="M2.958,0A2.958,2.958,0,1,1,-2.958,0A2.958,2.958,0,1,1,2.958,0" fill="#b41f1f62" stroke-width="2" opacity="0.8"/><path transform="translate(430.8563986983618,232.47771701419697)" d="M2.958,0A2.958,2.958,0,1,1,-2.958,0A2.958,2.958,0,1,1,2.958,0" fill="#b41f1f62" stroke-width="2" opacity="0.8"/><path transform="translate(413.47378239056707,234.02592282710975)" d="M2.958,0A2.958,2.958,0,1,1,-2.958,0A2.958,2.958,0,1,1,2.958,0" fill="#b41f1f62" stroke-width="2" opacity="0.8"/><path transform="translate(421.91845777241724,242.22217335274127)" d="M2.958,0A2.958,2.958,0,1,1,-2.958,0A2.958,2.958,0,1,1,2.958,0" fill="#b41f1f62" stroke-width="2" opacity="0.8"/><path transform="translate(432.94029195688563,238.64733423772122)" d="M2.958,0A2.958,2.958,0,1,1,-2.958,0A2.958,2.958,0,1,1,2.958,0" fill="#b41f1f62" stroke-width="2" opacity="0.8"/><path transform="translate(433.16886905870524,238.87707185867293)" d="M2.958,0A2.958,2.958,0,1,1,-2.958,0A2.958,2.958,0,1,1,2.958,0" fill="#b41f1f62" stroke-width="2" opacity="0.8"/><path transform="translate(413.5492704586477,252.74768473458062)" d="M2.958,0A2.958,2.958,0,1,1,-2.958,0A2.958,2.958,0,1,1,2.958,0" fill="#b41f1f62" stroke-width="2" opacity="0.8"/><path transform="translate(440.90802873048415,238.18582433026404)" d="M2.958,0A2.958,2.958,0,1,1,-2.958,0A2.958,2.958,0,1,1,2.958,0" fill="#b41f1f62" stroke-width="2" opacity="0.8"/><path transform="translate(436.34532244760703,240.00477698054874)" d="M2.958,0A2.958,2.958,0,1,1,-2.958,0A2.958,2.958,0,1,1,2.958,0" fill="#b41f1f62" stroke-width="2" opacity="0.8"/><path transform="translate(421.3881204798772,247.48097006224816)" d="M2.958,0A2.958,2.958,0,1,1,-2.958,0A2.958,2.958,0,1,1,2.958,0" fill="#b41f1f62" stroke-width="2" opacity="0.8"/><path transform="translate(414.3149077089438,241.12769241039769)" d="M2.958,0A2.958,2.958,0,1,1,-2.958,0A2.958,2.958,0,1,1,2.958,0" fill="#b41f1f62" stroke-width="2" opacity="0.8"/><path transform="translate(445.8364583762741,242.99480665353167)" d="M2.958,0A2.958,2.958,0,1,1,-2.958,0A2.958,2.958,0,1,1,2.958,0" fill="#b41f1f62" stroke-width="2" opacity="0.8"/><path transform="translate(460.05068872229276,245.44628311022552)" d="M2.958,0A2.958,2.958,0,1,1,-2.958,0A2.958,2.958,0,1,1,2.958,0" fill="#b41f1f62" stroke-width="2" opacity="0.8"/><path transform="translate(461.46709842718155,256.5591327448119)" d="M2.958,0A2.958,2.958,0,1,1,-2.958,0A2.958,2.958,0,1,1,2.958,0" fill="#b41f1f62" stroke-width="2" opacity="0.8"/><path transform="translate(426.26372768616966,242.61310997499368)" d="M2.958,0A2.958,2.958,0,1,1,-2.958,0A2.958,2.958,0,1,1,2.958,0" fill="#b41f1f62" stroke-width="2" opacity="0.8"/><path transform="translate(463.5663582135585,250.2374023469274)" d="M2.958,0A2.958,2.958,0,1,1,-2.958,0A2.958,2.958,0,1,1,2.958,0" fill="#b41f1f62" stroke-width="2" opacity="0.8"/><path transform="translate(448.4800774118594,250.8852602600009)" d="M2.958,0A2.958,2.958,0,1,1,-2.958,0A2.958,2.958,0,1,1,2.958,0" fill="#b41f1f62" stroke-width="2" opacity="0.8"/><path transform="translate(418.48346255238357,251.38701007311556)" d="M2.958,0A2.958,2.958,0,1,1,-2.958,0A2.958,2.958,0,1,1,2.958,0" fill="#b41f1f62" stroke-width="2" opacity="0.8"/><path transform="translate(415.03521370207363,256.0386017507217)" d="M2.958,0A2.958,2.958,0,1,1,-2.958,0A2.958,2.958,0,1,1,2.958,0" fill="#b41f1f62" stroke-width="2" opacity="0.8"/><path transform="translate(416.9608317237062,252.8149846459628)" d="M2.958,0A2.958,2.958,0,1,1,-2.958,0A2.958,2.958,0,1,1,2.958,0" fill="#b41f1f62" stroke-width="2" opacity="0.8"/><path transform="translate(417.4854065683021,253.94464578469706)" d="M2.958,0A2.958,2.958,0,1,1,-2.958,0A2.958,2.958,0,1,1,2.958,0" fill="#b41f1f62" stroke-width="2" opacity="0.8"/><path transform="translate(411.6720569997524,256.2431699360923)" d="M2.958,0A2.958,2.958,0,1,1,-2.958,0A2.958,2.958,0,1,1,2.958,0" fill="#b41f1f62" stroke-width="2" opacity="0.8"/><path transform="translate(415.0044806463666,251.506987063628)" d="M2.958,0A2.958,2.958,0,1,1,-2.958,0A2.958,2.958,0,1,1,2.958,0" fill="#b41f1f62" stroke-width="2" opacity="0.8"/><path transform="translate(434.1794103466664,260.3073423331607)" d="M2.958,0A2.958,2.958,0,1,1,-2.958,0A2.958,2.958,0,1,1,2.958,0" fill="#b41f1f62" stroke-width="2" opacity="0.8"/><path transform="translate(440.8252415616744,262.0634188061704)" d="M2.958,0A2.958,2.958,0,1,1,-2.958,0A2.958,2.958,0,1,1,2.958,0" fill="#b41f1f62" stroke-width="2" opacity="0.8"/><path transform="translate(442.4489073109871,262.13338884989025)" d="M2.958,0A2.958,2.958,0,1,1,-2.958,0A2.958,2.958,0,1,1,2.958,0" fill="#b41f1f62" stroke-width="2" opacity="0.8"/><path transform="translate(324.9039970673921,224.17850150593586)" d="M2.958,0A2.958,2.958,0,1,1,-2.958,0A2.958,2.958,0,1,1,2.958,0" fill="#b41f1f62" stroke-width="2" opacity="0.8"/><path transform="translate(325.92030080329914,220.2872508736791)" d="M2.958,0A2.958,2.958,0,1,1,-2.958,0A2.958,2.958,0,1,1,2.958,0" fill="#b41f1f62" stroke-width="2" opacity="0.8"/><path transform="translate(326.8426766376997,223.40247278838888)" d="M2.958,0A2.958,2.958,0,1,1,-2.958,0A2.958,2.958,0,1,1,2.958,0" fill="#b41f1f62" stroke-width="2" opacity="0.8"/><path transform="translate(331.14607276305287,226.9100391181064)" d="M2.958,0A2.958,2.958,0,1,1,-2.958,0A2.958,2.958,0,1,1,2.958,0" fill="#b41f1f62" stroke-width="2" opacity="0.8"/><path transform="translate(334.3327064766563,226.4095091343588)" d="M2.958,0A2.958,2.958,0,1,1,-2.958,0A2.958,2.958,0,1,1,2.958,0" fill="#b41f1f62" stroke-width="2" opacity="0.8"/><path transform="translate(335.78349878761856,225.3728040317883)" d="M2.958,0A2.958,2.958,0,1,1,-2.958,0A2.958,2.958,0,1,1,2.958,0" fill="#b41f1f62" stroke-width="2" opacity="0.8"/><path transform="translate(335.0017266830746,227.30283751679417)" d="M2.958,0A2.958,2.958,0,1,1,-2.958,0A2.958,2.958,0,1,1,2.958,0" fill="#b41f1f62" stroke-width="2" opacity="0.8"/><path transform="translate(335.5967954741982,229.81157138535036)" d="M2.958,0A2.958,2.958,0,1,1,-2.958,0A2.958,2.958,0,1,1,2.958,0" fill="#b41f1f62" stroke-width="2" opacity="0.8"/><path transform="translate(333.8219615071275,226.65064843360506)" d="M2.958,0A2.958,2.958,0,1,1,-2.958,0A2.958,2.958,0,1,1,2.958,0" fill="#b41f1f62" stroke-width="2" opacity="0.8"/><path transform="translate(329.068710278867,226.41694618208567)" d="M2.958,0A2.958,2.958,0,1,1,-2.958,0A2.958,2.958,0,1,1,2.958,0" fill="#b41f1f62" stroke-width="2" opacity="0.8"/><path transform="translate(331.11745260492535,225.8366231943064)" d="M2.958,0A2.958,2.958,0,1,1,-2.958,0A2.958,2.958,0,1,1,2.958,0" fill="#b41f1f62" stroke-width="2" opacity="0.8"/><path transform="translate(324.79335806684685,227.09776296230575)" d="M2.958,0A2.958,2.958,0,1,1,-2.958,0A2.958,2.958,0,1,1,2.958,0" fill="#b41f1f62" stroke-width="2" opacity="0.8"/><path transform="translate(324.722864120321,226.2440904842897)" d="M2.958,0A2.958,2.958,0,1,1,-2.958,0A2.958,2.958,0,1,1,2.958,0" fill="#b41f1f62" stroke-width="2" opacity="0.8"/><path transform="translate(325.9591012861283,227.1971454959803)" d="M2.958,0A2.958,2.958,0,1,1,-2.958,0A2.958,2.958,0,1,1,2.958,0" fill="#b41f1f62" stroke-width="2" opacity="0.8"/><path transform="translate(324.01004930951876,226.6396056662561)" d="M2.958,0A2.958,2.958,0,1,1,-2.958,0A2.958,2.958,0,1,1,2.958,0" fill="#b41f1f62" stroke-width="2" opacity="0.8"/><path transform="translate(324.21884200672685,226.37863408993417)" d="M2.958,0A2.958,2.958,0,1,1,-2.958,0A2.958,2.958,0,1,1,2.958,0" fill="#b41f1f62" stroke-width="2" opacity="0.8"/><path transform="translate(325.1508219210373,224.79898833269453)" d="M2.958,0A2.958,2.958,0,1,1,-2.958,0A2.958,2.958,0,1,1,2.958,0" fill="#b41f1f62" stroke-width="2" opacity="0.8"/><path transform="translate(324.4994732216519,225.79154889431265)" d="M2.958,0A2.958,2.958,0,1,1,-2.958,0A2.958,2.958,0,1,1,2.958,0" fill="#b41f1f62" stroke-width="2" opacity="0.8"/><path transform="translate(321.7897781162974,227.70892430921322)" d="M2.958,0A2.958,2.958,0,1,1,-2.958,0A2.958,2.958,0,1,1,2.958,0" fill="#b41f1f62" stroke-width="2" opacity="0.8"/><path transform="translate(325.6777017448112,227.62216391580114)" d="M2.958,0A2.958,2.958,0,1,1,-2.958,0A2.958,2.958,0,1,1,2.958,0" fill="#b41f1f62" stroke-width="2" opacity="0.8"/><path transform="translate(321.22717111526435,229.4814622579015)" d="M2.958,0A2.958,2.958,0,1,1,-2.958,0A2.958,2.958,0,1,1,2.958,0" fill="#b41f1f62" stroke-width="2" opacity="0.8"/><path transform="translate(316.1550644340432,225.27611740825614)" d="M2.958,0A2.958,2.958,0,1,1,-2.958,0A2.958,2.958,0,1,1,2.958,0" fill="#b41f1f62" stroke-width="2" opacity="0.8"/><path transform="translate(314.9914341123431,227.66092444744936)" d="M2.958,0A2.958,2.958,0,1,1,-2.958,0A2.958,2.958,0,1,1,2.958,0" fill="#b41f1f62" stroke-width="2" opacity="0.8"/><path transform="translate(316.01292405139975,225.41269558614476)" d="M2.958,0A2.958,2.958,0,1,1,-2.958,0A2.958,2.958,0,1,1,2.958,0" fill="#b41f1f62" stroke-width="2" opacity="0.8"/><path transform="translate(315.3308422963064,226.8884045698578)" d="M2.958,0A2.958,2.958,0,1,1,-2.958,0A2.958,2.958,0,1,1,2.958,0" fill="#b41f1f62" stroke-width="2" opacity="0.8"/><path transform="translate(314.8508303824847,227.52729045280557)" d="M2.958,0A2.958,2.958,0,1,1,-2.958,0A2.958,2.958,0,1,1,2.958,0" fill="#b41f1f62" stroke-width="2" opacity="0.8"/><path transform="translate(319.52417566590793,232.04536156174254)" d="M2.958,0A2.958,2.958,0,1,1,-2.958,0A2.958,2.958,0,1,1,2.958,0" fill="#b41f1f62" stroke-width="2" opacity="0.8"/><path transform="translate(319.1146576986139,232.10551785462485)" d="M2.958,0A2.958,2.958,0,1,1,-2.958,0A2.958,2.958,0,1,1,2.958,0" fill="#b41f1f62" stroke-width="2" opacity="0.8"/><path transform="translate(317.50482182436826,231.89463211803013)" d="M2.958,0A2.958,2.958,0,1,1,-2.958,0A2.958,2.958,0,1,1,2.958,0" fill="#b41f1f62" stroke-width="2" opacity="0.8"/><path transform="translate(315.3131707892744,229.51796604739047)" d="M2.958,0A2.958,2.958,0,1,1,-2.958,0A2.958,2.958,0,1,1,2.958,0" fill="#b41f1f62" stroke-width="2" opacity="0.8"/><path transform="translate(318.935829730719,227.2160754491788)" d="M2.958,0A2.958,2.958,0,1,1,-2.958,0A2.958,2.958,0,1,1,2.958,0" fill="#b41f1f62" stroke-width="2" opacity="0.8"/><path transform="translate(316.2612855578309,230.12702919558888)" d="M2.958,0A2.958,2.958,0,1,1,-2.958,0A2.958,2.958,0,1,1,2.958,0" fill="#b41f1f62" stroke-width="2" opacity="0.8"/><path transform="translate(320.48919361510343,228.28401273122745)" d="M2.958,0A2.958,2.958,0,1,1,-2.958,0A2.958,2.958,0,1,1,2.958,0" fill="#b41f1f62" stroke-width="2" opacity="0.8"/><path transform="translate(317.31581353177353,231.0553490422326)" d="M2.958,0A2.958,2.958,0,1,1,-2.958,0A2.958,2.958,0,1,1,2.958,0" fill="#b41f1f62" stroke-width="2" opacity="0.8"/><path transform="translate(321.73484277922125,231.83965728408384)" d="M2.958,0A2.958,2.958,0,1,1,-2.958,0A2.958,2.958,0,1,1,2.958,0" fill="#b41f1f62" stroke-width="2" opacity="0.8"/><path transform="translate(323.34314200068,234.42444574756883)" d="M2.958,0A2.958,2.958,0,1,1,-2.958,0A2.958,2.958,0,1,1,2.958,0" fill="#b41f1f62" stroke-width="2" opacity="0.8"/><path transform="translate(321.665309240685,233.575801381754)" d="M2.958,0A2.958,2.958,0,1,1,-2.958,0A2.958,2.958,0,1,1,2.958,0" fill="#b41f1f62" stroke-width="2" opacity="0.8"/><path transform="translate(319.8071118600092,234.392005497808)" d="M2.958,0A2.958,2.958,0,1,1,-2.958,0A2.958,2.958,0,1,1,2.958,0" fill="#b41f1f62" stroke-width="2" opacity="0.8"/><path transform="translate(319.1469274071069,238.63787439964744)" d="M2.958,0A2.958,2.958,0,1,1,-2.958,0A2.958,2.958,0,1,1,2.958,0" fill="#b41f1f62" stroke-width="2" opacity="0.8"/><path transform="translate(316.2232534013938,236.08108485895718)" d="M2.958,0A2.958,2.958,0,1,1,-2.958,0A2.958,2.958,0,1,1,2.958,0" fill="#b41f1f62" stroke-width="2" opacity="0.8"/><path transform="translate(316.50830249307546,237.2965615129333)" d="M2.958,0A2.958,2.958,0,1,1,-2.958,0A2.958,2.958,0,1,1,2.958,0" fill="#b41f1f62" stroke-width="2" opacity="0.8"/><path transform="translate(315.24440557713115,235.2041231088897)" d="M2.958,0A2.958,2.958,0,1,1,-2.958,0A2.958,2.958,0,1,1,2.958,0" fill="#b41f1f62" stroke-width="2" opacity="0.8"/><path transform="translate(316.3580946833081,233.56115762961326)" d="M2.958,0A2.958,2.958,0,1,1,-2.958,0A2.958,2.958,0,1,1,2.958,0" fill="#b41f1f62" stroke-width="2" opacity="0.8"/><path transform="translate(315.38500930698956,232.6259639999971)" d="M2.958,0A2.958,2.958,0,1,1,-2.958,0A2.958,2.958,0,1,1,2.958,0" fill="#b41f1f62" stroke-width="2" opacity="0.8"/><path transform="translate(314.42364090815863,232.24655777761564)" d="M2.958,0A2.958,2.958,0,1,1,-2.958,0A2.958,2.958,0,1,1,2.958,0" fill="#b41f1f62" stroke-width="2" opacity="0.8"/><path transform="translate(314.1964083775274,229.32215176896352)" d="M2.958,0A2.958,2.958,0,1,1,-2.958,0A2.958,2.958,0,1,1,2.958,0" fill="#b41f1f62" stroke-width="2" opacity="0.8"/><path transform="translate(314.04197477259913,229.87781791762518)" d="M2.958,0A2.958,2.958,0,1,1,-2.958,0A2.958,2.958,0,1,1,2.958,0" fill="#b41f1f62" stroke-width="2" opacity="0.8"/><path transform="translate(312.09657234635597,230.87734913677468)" d="M2.958,0A2.958,2.958,0,1,1,-2.958,0A2.958,2.958,0,1,1,2.958,0" fill="#b41f1f62" stroke-width="2" opacity="0.8"/><path transform="translate(305.18470811788575,246.34983712778194)" d="M2.958,0A2.958,2.958,0,1,1,-2.958,0A2.958,2.958,0,1,1,2.958,0" fill="#b41f1f62" stroke-width="2" opacity="0.8"/><path transform="translate(305.93267386115076,246.3228188797484)" d="M2.958,0A2.958,2.958,0,1,1,-2.958,0A2.958,2.958,0,1,1,2.958,0" fill="#b41f1f62" stroke-width="2" opacity="0.8"/><path transform="translate(305.3854333879708,246.12310792307744)" d="M2.958,0A2.958,2.958,0,1,1,-2.958,0A2.958,2.958,0,1,1,2.958,0" fill="#b41f1f62" stroke-width="2" opacity="0.8"/><path transform="translate(304.6313210335629,252.0667956394991)" d="M2.958,0A2.958,2.958,0,1,1,-2.958,0A2.958,2.958,0,1,1,2.958,0" fill="#b41f1f62" stroke-width="2" opacity="0.8"/><path transform="translate(303.7162442998915,247.35083882704657)" d="M2.958,0A2.958,2.958,0,1,1,-2.958,0A2.958,2.958,0,1,1,2.958,0" fill="#b41f1f62" stroke-width="2" opacity="0.8"/><path transform="translate(303.15498187004596,244.72620412568722)" d="M2.958,0A2.958,2.958,0,1,1,-2.958,0A2.958,2.958,0,1,1,2.958,0" fill="#b41f1f62" stroke-width="2" opacity="0.8"/><path transform="translate(307.16967935335197,247.81732631845261)" d="M2.958,0A2.958,2.958,0,1,1,-2.958,0A2.958,2.958,0,1,1,2.958,0" fill="#b41f1f62" stroke-width="2" opacity="0.8"/><path transform="translate(306.3181816286733,248.49790226138884)" d="M2.958,0A2.958,2.958,0,1,1,-2.958,0A2.958,2.958,0,1,1,2.958,0" fill="#b41f1f62" stroke-width="2" opacity="0.8"/><path transform="translate(307.4912239486839,248.51883924800768)" d="M2.958,0A2.958,2.958,0,1,1,-2.958,0A2.958,2.958,0,1,1,2.958,0" fill="#b41f1f62" stroke-width="2" opacity="0.8"/><path transform="translate(311.0362819244692,251.0079413293788)" d="M2.958,0A2.958,2.958,0,1,1,-2.958,0A2.958,2.958,0,1,1,2.958,0" fill="#b41f1f62" stroke-width="2" opacity="0.8"/><path transform="translate(298.45013520452267,253.3504502100077)" d="M2.958,0A2.958,2.958,0,1,1,-2.958,0A2.958,2.958,0,1,1,2.958,0" fill="#b41f1f62" stroke-width="2" opacity="0.8"/><path transform="translate(296.56178101293517,251.71159915720727)" d="M2.958,0A2.958,2.958,0,1,1,-2.958,0A2.958,2.958,0,1,1,2.958,0" fill="#b41f1f62" stroke-width="2" opacity="0.8"/><path transform="translate(295.157088285534,250.70067455517892)" d="M2.958,0A2.958,2.958,0,1,1,-2.958,0A2.958,2.958,0,1,1,2.958,0" fill="#b41f1f62" stroke-width="2" opacity="0.8"/><path transform="translate(302.80097548462163,252.76749208864112)" d="M2.958,0A2.958,2.958,0,1,1,-2.958,0A2.958,2.958,0,1,1,2.958,0" fill="#b41f1f62" stroke-width="2" opacity="0.8"/><path transform="translate(301.94736486236525,252.6544998877289)" d="M2.958,0A2.958,2.958,0,1,1,-2.958,0A2.958,2.958,0,1,1,2.958,0" fill="#b41f1f62" stroke-width="2" opacity="0.8"/><path transform="translate(297.74730863682635,253.10488950401577)" d="M2.958,0A2.958,2.958,0,1,1,-2.958,0A2.958,2.958,0,1,1,2.958,0" fill="#b41f1f62" stroke-width="2" opacity="0.8"/><path transform="translate(294.22798959519605,257.12668369788116)" d="M2.958,0A2.958,2.958,0,1,1,-2.958,0A2.958,2.958,0,1,1,2.958,0" fill="#b41f1f62" stroke-width="2" opacity="0.8"/><path transform="translate(300.1625426521887,251.2823391585507)" d="M2.958,0A2.958,2.958,0,1,1,-2.958,0A2.958,2.958,0,1,1,2.958,0" fill="#b41f1f62" stroke-width="2" opacity="0.8"/><path transform="translate(295.13154143297743,253.35427652288763)" d="M2.958,0A2.958,2.958,0,1,1,-2.958,0A2.958,2.958,0,1,1,2.958,0" fill="#b41f1f62" stroke-width="2" opacity="0.8"/><path transform="translate(298.3673480357129,254.9358348280375)" d="M2.958,0A2.958,2.958,0,1,1,-2.958,0A2.958,2.958,0,1,1,2.958,0" fill="#b41f1f62" stroke-width="2" opacity="0.8"/><path transform="translate(295.11905612909595,263.42925518828906)" d="M2.958,0A2.958,2.958,0,1,1,-2.958,0A2.958,2.958,0,1,1,2.958,0" fill="#b41f1f62" stroke-width="2" opacity="0.8"/><path transform="translate(290.81066588219255,262.55995362389876)" d="M2.958,0A2.958,2.958,0,1,1,-2.958,0A2.958,2.958,0,1,1,2.958,0" fill="#b41f1f62" stroke-width="2" opacity="0.8"/><path transform="translate(285.101808703047,267.9913775261084)" d="M2.958,0A2.958,2.958,0,1,1,-2.958,0A2.958,2.958,0,1,1,2.958,0" fill="#b41f1f62" stroke-width="2" opacity="0.8"/><path transform="translate(285.0666577705815,267.5190373746009)" d="M2.958,0A2.958,2.958,0,1,1,-2.958,0A2.958,2.958,0,1,1,2.958,0" fill="#b41f1f62" stroke-width="2" opacity="0.8"/><path transform="translate(285.84343575357343,268.14927173881824)" d="M2.958,0A2.958,2.958,0,1,1,-2.958,0A2.958,2.958,0,1,1,2.958,0" fill="#b41f1f62" stroke-width="2" opacity="0.8"/><path transform="translate(286.580452845742,268.8685526835161)" d="M2.958,0A2.958,2.958,0,1,1,-2.958,0A2.958,2.958,0,1,1,2.958,0" fill="#b41f1f62" stroke-width="2" opacity="0.8"/><path transform="translate(286.2485358441081,269.6939637827845)" d="M2.958,0A2.958,2.958,0,1,1,-2.958,0A2.958,2.958,0,1,1,2.958,0" fill="#b41f1f62" stroke-width="2" opacity="0.8"/><path transform="translate(287.138065725223,271.4483614514147)" d="M2.958,0A2.958,2.958,0,1,1,-2.958,0A2.958,2.958,0,1,1,2.958,0" fill="#b41f1f62" stroke-width="2" opacity="0.8"/><path transform="translate(291.08899211793687,267.40275010973164)" d="M2.958,0A2.958,2.958,0,1,1,-2.958,0A2.958,2.958,0,1,1,2.958,0" fill="#b41f1f62" stroke-width="2" opacity="0.8"/><path transform="translate(290.044836550298,275.8527182885773)" d="M2.958,0A2.958,2.958,0,1,1,-2.958,0A2.958,2.958,0,1,1,2.958,0" fill="#b41f1f62" stroke-width="2" opacity="0.8"/><path transform="translate(289.624946176702,272.86935967682075)" d="M2.958,0A2.958,2.958,0,1,1,-2.958,0A2.958,2.958,0,1,1,2.958,0" fill="#b41f1f62" stroke-width="2" opacity="0.8"/><path transform="translate(288.18587084322917,271.8284130514912)" d="M2.958,0A2.958,2.958,0,1,1,-2.958,0A2.958,2.958,0,1,1,2.958,0" fill="#b41f1f62" stroke-width="2" opacity="0.8"/><path transform="translate(288.12959093496556,267.234053714752)" d="M2.958,0A2.958,2.958,0,1,1,-2.958,0A2.958,2.958,0,1,1,2.958,0" fill="#b41f1f62" stroke-width="2" opacity="0.8"/><path transform="translate(290.16642420193784,265.6995295184188)" d="M2.958,0A2.958,2.958,0,1,1,-2.958,0A2.958,2.958,0,1,1,2.958,0" fill="#b41f1f62" stroke-width="2" opacity="0.8"/><path transform="translate(289.63301360382593,266.10802704545404)" d="M2.958,0A2.958,2.958,0,1,1,-2.958,0A2.958,2.958,0,1,1,2.958,0" fill="#b41f1f62" stroke-width="2" opacity="0.8"/><path transform="translate(294.05146660647915,267.1899675017703)" d="M2.958,0A2.958,2.958,0,1,1,-2.958,0A2.958,2.958,0,1,1,2.958,0" fill="#b41f1f62" stroke-width="2" opacity="0.8"/><path transform="translate(299.73592942265805,273.9871565667836)" d="M2.958,0A2.958,2.958,0,1,1,-2.958,0A2.958,2.958,0,1,1,2.958,0" fill="#b41f1f62" stroke-width="2" opacity="0.8"/><path transform="translate(296.329554360751,277.67292718514636)" d="M2.958,0A2.958,2.958,0,1,1,-2.958,0A2.958,2.958,0,1,1,2.958,0" fill="#b41f1f62" stroke-width="2" opacity="0.8"/><path transform="translate(293.85285423397454,274.4004408929504)" d="M2.958,0A2.958,2.958,0,1,1,-2.958,0A2.958,2.958,0,1,1,2.958,0" fill="#b41f1f62" stroke-width="2" opacity="0.8"/><path transform="translate(297.95763798681946,279.16387108093386)" d="M2.958,0A2.958,2.958,0,1,1,-2.958,0A2.958,2.958,0,1,1,2.958,0" fill="#b41f1f62" stroke-width="2" opacity="0.8"/><path transform="translate(281.19121944594735,284.1316528438356)" d="M2.958,0A2.958,2.958,0,1,1,-2.958,0A2.958,2.958,0,1,1,2.958,0" fill="#b41f1f62" stroke-width="2" opacity="0.8"/><path transform="translate(280.4196276661078,284.4420303083407)" d="M2.958,0A2.958,2.958,0,1,1,-2.958,0A2.958,2.958,0,1,1,2.958,0" fill="#b41f1f62" stroke-width="2" opacity="0.8"/><path transform="translate(280.52162299473457,285.79833325081927)" d="M2.958,0A2.958,2.958,0,1,1,-2.958,0A2.958,2.958,0,1,1,2.958,0" fill="#b41f1f62" stroke-width="2" opacity="0.8"/><path transform="translate(280.51048226204057,285.7891192236557)" d="M2.958,0A2.958,2.958,0,1,1,-2.958,0A2.958,2.958,0,1,1,2.958,0" fill="#b41f1f62" stroke-width="2" opacity="0.8"/><path transform="translate(283.3990053352891,282.71185960134335)" d="M2.958,0A2.958,2.958,0,1,1,-2.958,0A2.958,2.958,0,1,1,2.958,0" fill="#b41f1f62" stroke-width="2" opacity="0.8"/><path transform="translate(282.20022408112345,283.79205288769845)" d="M2.958,0A2.958,2.958,0,1,1,-2.958,0A2.958,2.958,0,1,1,2.958,0" fill="#b41f1f62" stroke-width="2" opacity="0.8"/><path transform="translate(281.94821302432774,284.58429449179584)" d="M2.958,0A2.958,2.958,0,1,1,-2.958,0A2.958,2.958,0,1,1,2.958,0" fill="#b41f1f62" stroke-width="2" opacity="0.8"/><path transform="translate(276.4007043876427,274.1848055183036)" d="M2.958,0A2.958,2.958,0,1,1,-2.958,0A2.958,2.958,0,1,1,2.958,0" fill="#b41f1f62" stroke-width="2" opacity="0.8"/><path transform="translate(277.59506776504895,284.3094293408194)" d="M2.958,0A2.958,2.958,0,1,1,-2.958,0A2.958,2.958,0,1,1,2.958,0" fill="#b41f1f62" stroke-width="2" opacity="0.8"/><path transform="translate(277.5797012371968,283.28140657655604)" d="M2.958,0A2.958,2.958,0,1,1,-2.958,0A2.958,2.958,0,1,1,2.958,0" fill="#b41f1f62" stroke-width="2" opacity="0.8"/><path transform="translate(279.363178876185,281.6790390439146)" d="M2.958,0A2.958,2.958,0,1,1,-2.958,0A2.958,2.958,0,1,1,2.958,0" fill="#b41f1f62" stroke-width="2" opacity="0.8"/><path transform="translate(279.2187335143635,282.17196708208303)" d="M2.958,0A2.958,2.958,0,1,1,-2.958,0A2.958,2.958,0,1,1,2.958,0" fill="#b41f1f62" stroke-width="2" opacity="0.8"/><path transform="translate(277.52246092094265,281.9224700553523)" d="M2.958,0A2.958,2.958,0,1,1,-2.958,0A2.958,2.958,0,1,1,2.958,0" fill="#b41f1f62" stroke-width="2" opacity="0.8"/><path transform="translate(283.89438377696297,283.93229866478123)" d="M2.958,0A2.958,2.958,0,1,1,-2.958,0A2.958,2.958,0,1,1,2.958,0" fill="#b41f1f62" stroke-width="2" opacity="0.8"/><path transform="translate(289.76708655934635,281.09731076657044)" d="M2.958,0A2.958,2.958,0,1,1,-2.958,0A2.958,2.958,0,1,1,2.958,0" fill="#b41f1f62" stroke-width="2" opacity="0.8"/><path transform="translate(281.4249827509184,290.7515292712278)" d="M2.958,0A2.958,2.958,0,1,1,-2.958,0A2.958,2.958,0,1,1,2.958,0" fill="#b41f1f62" stroke-width="2" opacity="0.8"/><path transform="translate(283.20557916593407,292.5226065205961)" d="M2.958,0A2.958,2.958,0,1,1,-2.958,0A2.958,2.958,0,1,1,2.958,0" fill="#b41f1f62" stroke-width="2" opacity="0.8"/></g><g class="mark-group role-title"><g transform="translate(400,-17.49999999999909)"><path class="background" aria-hidden="true" d="M0,0h0v0h0Z" pointer-events="none"/><g><g class="mark-text role-title-text" role="graphics-symbol" aria-roledescription="title" aria-label="Title text 'Number of Clusters in State of Palestine'" pointer-events="none"><text text-anchor="middle" transform="translate(0,10)" font-family="sans-serif" font-size="13px" font-weight="bold" fill="#000" opacity="1">Number of Clusters in State of Palestine</text></g></g><path class="foreground" aria-hidden="true" d="" pointer-events="none" display="none"/></g></g></g><path class="foreground" aria-hidden="true" d="" display="none"/></g></g></g></svg>