<svg xmlns="http://www.w3.org/2000/svg" xmlns:xlink="http://www.w3.org/1999/xlink" version="1.1" class="marks" width="812" height="332" viewBox="0 0 812 332"><rect width="812" height="332" fill="white"/><g fill="none" stroke-miterlimit="10" transform="translate(6,27)"><g class="mark-group role-frame root" role="graphics-object" aria-roledescription="group mark container"><g transform="translate(0,0)"><path class="background" aria-hidden="true" d="M0,0h800v300h-800Z"/><g><g class="mark-shape role-mark layer_0_marks" role="graphics-symbol" aria-roledescription="shape mark container"><path transform="translate(0,0)" d="M70.108,109.356L137.335,106.498L219.928,107.451L309.244,108.88L350.54,109.356L372.629,70.753L414.886,53.588L458.103,47.389L480.192,49.296L504.202,55.019L549.34,86.483L577.191,94.108L601.2,101.256L618.487,116.503L645.378,132.222L666.507,136.032L678.992,134.127L700.12,127.935L714.526,123.172L759.664,121.267L793.277,138.89L800,158.412L794.238,178.405L750.06,188.875L687.635,205.528L636.735,196.488L574.31,173.645L537.815,157.46L522.449,150.794L500.36,140.794L480.192,129.364L460.984,122.219L446.579,117.456L436.014,123.648L430.252,136.985L421.609,152.699L410.084,161.745L358.223,166.981L311.164,172.693L286.194,177.453L269.868,181.261L264.106,227.409L211.285,226.934L159.424,226.458L104.682,226.934L47.059,227.885L31.693,237.396L16.327,252.611L14.406,229.312L0,176.501L20.168,153.651L41.297,139.842L55.702,150.794L60.504,172.217L72.029,186.971L109.484,196.488L147.899,189.827L170.948,192.682L169.988,180.785L177.671,165.077L223.77,157.936L271.789,153.651L321.729,144.128L361.104,144.604L372.629,141.747L369.748,137.937L335.174,133.174L260.264,144.128L183.433,147.461L125.81,176.025L102.761,173.169L78.752,144.604Z" fill="#f3f4f6" stroke="#959090" stroke-width="0.5"/></g><g class="mark-symbol role-mark layer_1_marks" role="graphics-symbol" aria-roledescription="symbol mark container"><path transform="translate(65.55149805522069,147.5115768642986)" d="M2.958,0A2.958,2.958,0,1,1,-2.958,0A2.958,2.958,0,1,1,2.958,0" fill="#b41f1f62" stroke-width="2" opacity="0.8"/><path transform="translate(66.75783519807828,148.29439830303272)" d="M2.958,0A2.958,2.958,0,1,1,-2.958,0A2.958,2.958,0,1,1,2.958,0" fill="#b41f1f62" stroke-width="2" opacity="0.8"/><path transform="translate(66.67700367346879,147.38732298951345)" d="M2.958,0A2.958,2.958,0,1,1,-2.958,0A2.958,2.958,0,1,1,2.958,0" fill="#b41f1f62" stroke-width="2" opacity="0.8"/><path transform="translate(67.68379632652977,146.71887151257852)" d="M2.958,0A2.958,2.958,0,1,1,-2.958,0A2.958,2.958,0,1,1,2.958,0" fill="#b41f1f62" stroke-width="2" opacity="0.8"/><path transform="translate(66.00927659063473,148.65755406715198)" d="M2.958,0A2.958,2.958,0,1,1,-2.958,0A2.958,2.958,0,1,1,2.958,0" fill="#b41f1f62" stroke-width="2" opacity="0.8"/><path transform="translate(66.17680859543634,146.28274234514038)" d="M2.958,0A2.958,2.958,0,1,1,-2.958,0A2.958,2.958,0,1,1,2.958,0" fill="#b41f1f62" stroke-width="2" opacity="0.8"/><path transform="translate(66.30352468187175,146.46268026437428)" d="M2.958,0A2.958,2.958,0,1,1,-2.958,0A2.958,2.958,0,1,1,2.958,0" fill="#b41f1f62" stroke-width="2" opacity="0.8"/><path transform="translate(65.75130931572585,146.3222409549885)" d="M2.958,0A2.958,2.958,0,1,1,-2.958,0A2.958,2.958,0,1,1,2.958,0" fill="#b41f1f62" stroke-width="2" opacity="0.8"/><path transform="translate(65.7350363025198,146.29590855106107)" d="M2.958,0A2.958,2.958,0,1,1,-2.958,0A2.958,2.958,0,1,1,2.958,0" fill="#b41f1f62" stroke-width="2" opacity="0.8"/><path transform="translate(67.66912393757411,145.89872684504326)" d="M2.958,0A2.958,2.958,0,1,1,-2.958,0A2.958,2.958,0,1,1,2.958,0" fill="#b41f1f62" stroke-width="2" opacity="0.8"/><path transform="translate(66.46998960384008,146.80198259158124)" d="M2.958,0A2.958,2.958,0,1,1,-2.958,0A2.958,2.958,0,1,1,2.958,0" fill="#b41f1f62" stroke-width="2" opacity="0.8"/><path transform="translate(66.77410821128342,148.45595349413998)" d="M2.958,0A2.958,2.958,0,1,1,-2.958,0A2.958,2.958,0,1,1,2.958,0" fill="#b41f1f62" stroke-width="2" opacity="0.8"/><path transform="translate(65.31113764705788,145.72482194444774)" d="M2.958,0A2.958,2.958,0,1,1,-2.958,0A2.958,2.958,0,1,1,2.958,0" fill="#b41f1f62" stroke-width="2" opacity="0.8"/><path transform="translate(65.07371171668638,146.1085641643126)" d="M2.958,0A2.958,2.958,0,1,1,-2.958,0A2.958,2.958,0,1,1,2.958,0" fill="#b41f1f62" stroke-width="2" opacity="0.8"/><path transform="translate(65.79505971188337,145.2234027136983)" d="M2.958,0A2.958,2.958,0,1,1,-2.958,0A2.958,2.958,0,1,1,2.958,0" fill="#b41f1f62" stroke-width="2" opacity="0.8"/><path transform="translate(64.73571322929001,146.3225152508071)" d="M2.958,0A2.958,2.958,0,1,1,-2.958,0A2.958,2.958,0,1,1,2.958,0" fill="#b41f1f62" stroke-width="2" opacity="0.8"/><path transform="translate(65.25484902760945,145.31721338599846)" d="M2.958,0A2.958,2.958,0,1,1,-2.958,0A2.958,2.958,0,1,1,2.958,0" fill="#b41f1f62" stroke-width="2" opacity="0.8"/><path transform="translate(64.80694100840174,146.40343246733255)" d="M2.958,0A2.958,2.958,0,1,1,-2.958,0A2.958,2.958,0,1,1,2.958,0" fill="#b41f1f62" stroke-width="2" opacity="0.8"/><path transform="translate(65.1977600960372,145.11779697200654)" d="M2.958,0A2.958,2.958,0,1,1,-2.958,0A2.958,2.958,0,1,1,2.958,0" fill="#b41f1f62" stroke-width="2" opacity="0.8"/><path transform="translate(65.10065555822166,144.94635871809714)" d="M2.958,0A2.958,2.958,0,1,1,-2.958,0A2.958,2.958,0,1,1,2.958,0" fill="#b41f1f62" stroke-width="2" opacity="0.8"/><path transform="translate(65.0360970468173,145.5177263913124)" d="M2.958,0A2.958,2.958,0,1,1,-2.958,0A2.958,2.958,0,1,1,2.958,0" fill="#b41f1f62" stroke-width="2" opacity="0.8"/><path transform="translate(65.90043414165575,145.44366557143894)" d="M2.958,0A2.958,2.958,0,1,1,-2.958,0A2.958,2.958,0,1,1,2.958,0" fill="#b41f1f62" stroke-width="2" opacity="0.8"/><path transform="translate(64.74638405762198,146.13873679563312)" d="M2.958,0A2.958,2.958,0,1,1,-2.958,0A2.958,2.958,0,1,1,2.958,0" fill="#b41f1f62" stroke-width="2" opacity="0.8"/><path transform="translate(65.32287555822222,146.16479496607462)" d="M2.958,0A2.958,2.958,0,1,1,-2.958,0A2.958,2.958,0,1,1,2.958,0" fill="#b41f1f62" stroke-width="2" opacity="0.8"/><path transform="translate(65.94578516206366,145.24123223775268)" d="M2.958,0A2.958,2.958,0,1,1,-2.958,0A2.958,2.958,0,1,1,2.958,0" fill="#b41f1f62" stroke-width="2" opacity="0.8"/><path transform="translate(65.1628131332518,145.83920424160715)" d="M2.958,0A2.958,2.958,0,1,1,-2.958,0A2.958,2.958,0,1,1,2.958,0" fill="#b41f1f62" stroke-width="2" opacity="0.8"/><path transform="translate(65.62059166866675,145.94480882356447)" d="M2.958,0A2.958,2.958,0,1,1,-2.958,0A2.958,2.958,0,1,1,2.958,0" fill="#b41f1f62" stroke-width="2" opacity="0.8"/><path transform="translate(66.43877743097164,145.31035588525174)" d="M2.958,0A2.958,2.958,0,1,1,-2.958,0A2.958,2.958,0,1,1,2.958,0" fill="#b41f1f62" stroke-width="2" opacity="0.8"/><path transform="translate(66.71808636254354,144.76422222690326)" d="M2.958,0A2.958,2.958,0,1,1,-2.958,0A2.958,2.958,0,1,1,2.958,0" fill="#b41f1f62" stroke-width="2" opacity="0.8"/><path transform="translate(63.53844629051491,145.2629019604674)" d="M2.958,0A2.958,2.958,0,1,1,-2.958,0A2.958,2.958,0,1,1,2.958,0" fill="#b41f1f62" stroke-width="2" opacity="0.8"/><path transform="translate(63.78227471788523,144.94827882901882)" d="M2.958,0A2.958,2.958,0,1,1,-2.958,0A2.958,2.958,0,1,1,2.958,0" fill="#b41f1f62" stroke-width="2" opacity="0.8"/><path transform="translate(64.90057752700886,144.8160653458517)" d="M2.958,0A2.958,2.958,0,1,1,-2.958,0A2.958,2.958,0,1,1,2.958,0" fill="#b41f1f62" stroke-width="2" opacity="0.8"/><path transform="translate(64.17762890756148,144.41338861628856)" d="M2.958,0A2.958,2.958,0,1,1,-2.958,0A2.958,2.958,0,1,1,2.958,0" fill="#b41f1f62" stroke-width="2" opacity="0.8"/><path transform="translate(62.78241810324016,146.60942805016975)" d="M2.958,0A2.958,2.958,0,1,1,-2.958,0A2.958,2.958,0,1,1,2.958,0" fill="#b41f1f62" stroke-width="2" opacity="0.8"/><path transform="translate(59.12845971188381,146.27067332072465)" d="M2.958,0A2.958,2.958,0,1,1,-2.958,0A2.958,2.958,0,1,1,2.958,0" fill="#b41f1f62" stroke-width="2" opacity="0.8"/><path transform="translate(60.2958483313314,145.90338990386363)" d="M2.958,0A2.958,2.958,0,1,1,-2.958,0A2.958,2.958,0,1,1,2.958,0" fill="#b41f1f62" stroke-width="2" opacity="0.8"/><path transform="translate(63.653958007202164,145.7618522063376)" d="M2.958,0A2.958,2.958,0,1,1,-2.958,0A2.958,2.958,0,1,1,2.958,0" fill="#b41f1f62" stroke-width="2" opacity="0.8"/><path transform="translate(63.03585027610916,145.06101667187022)" d="M2.958,0A2.958,2.958,0,1,1,-2.958,0A2.958,2.958,0,1,1,2.958,0" fill="#b41f1f62" stroke-width="2" opacity="0.8"/><path transform="translate(61.02840069627655,146.77839331911673)" d="M2.958,0A2.958,2.958,0,1,1,-2.958,0A2.958,2.958,0,1,1,2.958,0" fill="#b41f1f62" stroke-width="2" opacity="0.8"/><path transform="translate(63.47602194477713,144.71457348732793)" d="M2.958,0A2.958,2.958,0,1,1,-2.958,0A2.958,2.958,0,1,1,2.958,0" fill="#b41f1f62" stroke-width="2" opacity="0.8"/><path transform="translate(64.15975527010687,147.30914990154906)" d="M2.958,0A2.958,2.958,0,1,1,-2.958,0A2.958,2.958,0,1,1,2.958,0" fill="#b41f1f62" stroke-width="2" opacity="0.8"/><path transform="translate(64.429460456181,145.41184682318544)" d="M2.958,0A2.958,2.958,0,1,1,-2.958,0A2.958,2.958,0,1,1,2.958,0" fill="#b41f1f62" stroke-width="2" opacity="0.8"/><path transform="translate(64.03463980792276,147.08532749334063)" d="M2.958,0A2.958,2.958,0,1,1,-2.958,0A2.958,2.958,0,1,1,2.958,0" fill="#b41f1f62" stroke-width="2" opacity="0.8"/><path transform="translate(60.6061026650641,147.1154996761543)" d="M2.958,0A2.958,2.958,0,1,1,-2.958,0A2.958,2.958,0,1,1,2.958,0" fill="#b41f1f62" stroke-width="2" opacity="0.8"/><path transform="translate(39.733162136853025,138.57868767499667)" d="M2.958,0A2.958,2.958,0,1,1,-2.958,0A2.958,2.958,0,1,1,2.958,0" fill="#b41f1f62" stroke-width="2" opacity="0.8"/><path transform="translate(37.78947075630185,138.65549952073525)" d="M2.958,0A2.958,2.958,0,1,1,-2.958,0A2.958,2.958,0,1,1,2.958,0" fill="#b41f1f62" stroke-width="2" opacity="0.8"/><path transform="translate(38.41638192076789,138.86151941982098)" d="M2.958,0A2.958,2.958,0,1,1,-2.958,0A2.958,2.958,0,1,1,2.958,0" fill="#b41f1f62" stroke-width="2" opacity="0.8"/><path transform="translate(39.75450379351605,139.98707343349997)" d="M2.958,0A2.958,2.958,0,1,1,-2.958,0A2.958,2.958,0,1,1,2.958,0" fill="#b41f1f62" stroke-width="2" opacity="0.8"/><path transform="translate(40.377946938774585,138.24592674683254)" d="M2.958,0A2.958,2.958,0,1,1,-2.958,0A2.958,2.958,0,1,1,2.958,0" fill="#b41f1f62" stroke-width="2" opacity="0.8"/><path transform="translate(41.91748069627647,145.69931219633872)" d="M2.958,0A2.958,2.958,0,1,1,-2.958,0A2.958,2.958,0,1,1,2.958,0" fill="#b41f1f62" stroke-width="2" opacity="0.8"/><path transform="translate(40.78237133253151,148.70171411012961)" d="M2.958,0A2.958,2.958,0,1,1,-2.958,0A2.958,2.958,0,1,1,2.958,0" fill="#b41f1f62" stroke-width="2" opacity="0.8"/><path transform="translate(41.909477575029086,149.88058429373086)" d="M2.958,0A2.958,2.958,0,1,1,-2.958,0A2.958,2.958,0,1,1,2.958,0" fill="#b41f1f62" stroke-width="2" opacity="0.8"/><path transform="translate(42.08127791116385,149.26207779369952)" d="M2.958,0A2.958,2.958,0,1,1,-2.958,0A2.958,2.958,0,1,1,2.958,0" fill="#b41f1f62" stroke-width="2" opacity="0.8"/><path transform="translate(43.263872460982384,145.55530536798415)" d="M2.958,0A2.958,2.958,0,1,1,-2.958,0A2.958,2.958,0,1,1,2.958,0" fill="#b41f1f62" stroke-width="2" opacity="0.8"/><path transform="translate(40.1039734213673,151.09536350015605)" d="M2.958,0A2.958,2.958,0,1,1,-2.958,0A2.958,2.958,0,1,1,2.958,0" fill="#b41f1f62" stroke-width="2" opacity="0.8"/><path transform="translate(43.14435918367235,150.89569033721136)" d="M2.958,0A2.958,2.958,0,1,1,-2.958,0A2.958,2.958,0,1,1,2.958,0" fill="#b41f1f62" stroke-width="2" opacity="0.8"/><path transform="translate(41.119302737093676,143.533690468621)" d="M2.958,0A2.958,2.958,0,1,1,-2.958,0A2.958,2.958,0,1,1,2.958,0" fill="#b41f1f62" stroke-width="2" opacity="0.8"/><path transform="translate(44.334423313324805,143.61954864906102)" d="M2.958,0A2.958,2.958,0,1,1,-2.958,0A2.958,2.958,0,1,1,2.958,0" fill="#b41f1f62" stroke-width="2" opacity="0.8"/><path transform="translate(36.94727563025026,152.87539005601684)" d="M2.958,0A2.958,2.958,0,1,1,-2.958,0A2.958,2.958,0,1,1,2.958,0" fill="#b41f1f62" stroke-width="2" opacity="0.8"/><path transform="translate(38.414247755100405,152.27748203779583)" d="M2.958,0A2.958,2.958,0,1,1,-2.958,0A2.958,2.958,0,1,1,2.958,0" fill="#b41f1f62" stroke-width="2" opacity="0.8"/><path transform="translate(37.210845090035036,154.18473479263457)" d="M2.958,0A2.958,2.958,0,1,1,-2.958,0A2.958,2.958,0,1,1,2.958,0" fill="#b41f1f62" stroke-width="2" opacity="0.8"/><path transform="translate(37.08733025209949,152.18669828112797)" d="M2.958,0A2.958,2.958,0,1,1,-2.958,0A2.958,2.958,0,1,1,2.958,0" fill="#b41f1f62" stroke-width="2" opacity="0.8"/><path transform="translate(38.51401999999871,151.98428570809347)" d="M2.958,0A2.958,2.958,0,1,1,-2.958,0A2.958,2.958,0,1,1,2.958,0" fill="#b41f1f62" stroke-width="2" opacity="0.8"/><path transform="translate(37.62513999999919,154.93813103243338)" d="M2.958,0A2.958,2.958,0,1,1,-2.958,0A2.958,2.958,0,1,1,2.958,0" fill="#b41f1f62" stroke-width="2" opacity="0.8"/><path transform="translate(39.48693277310849,151.96481237894204)" d="M2.958,0A2.958,2.958,0,1,1,-2.958,0A2.958,2.958,0,1,1,2.958,0" fill="#b41f1f62" stroke-width="2" opacity="0.8"/><path transform="translate(37.00036300119973,153.7352161480976)" d="M2.958,0A2.958,2.958,0,1,1,-2.958,0A2.958,2.958,0,1,1,2.958,0" fill="#b41f1f62" stroke-width="2" opacity="0.8"/><path transform="translate(39.625920312123526,153.6441601367028)" d="M2.958,0A2.958,2.958,0,1,1,-2.958,0A2.958,2.958,0,1,1,2.958,0" fill="#b41f1f62" stroke-width="2" opacity="0.8"/><path transform="translate(39.36635241296335,150.17680707623185)" d="M2.958,0A2.958,2.958,0,1,1,-2.958,0A2.958,2.958,0,1,1,2.958,0" fill="#b41f1f62" stroke-width="2" opacity="0.8"/><path transform="translate(38.8298765186064,151.9516473080821)" d="M2.958,0A2.958,2.958,0,1,1,-2.958,0A2.958,2.958,0,1,1,2.958,0" fill="#b41f1f62" stroke-width="2" opacity="0.8"/><path transform="translate(36.74266249699758,153.42776447178403)" d="M2.958,0A2.958,2.958,0,1,1,-2.958,0A2.958,2.958,0,1,1,2.958,0" fill="#b41f1f62" stroke-width="2" opacity="0.8"/><path transform="translate(36.575930804320706,151.33837150451654)" d="M2.958,0A2.958,2.958,0,1,1,-2.958,0A2.958,2.958,0,1,1,2.958,0" fill="#b41f1f62" stroke-width="2" opacity="0.8"/><path transform="translate(45.761113061222204,158.22477961740105)" d="M2.958,0A2.958,2.958,0,1,1,-2.958,0A2.958,2.958,0,1,1,2.958,0" fill="#b41f1f62" stroke-width="2" opacity="0.8"/><path transform="translate(44.96853728691349,161.43255954113692)" d="M2.958,0A2.958,2.958,0,1,1,-2.958,0A2.958,2.958,0,1,1,2.958,0" fill="#b41f1f62" stroke-width="2" opacity="0.8"/><path transform="translate(42.38673037214721,156.36783234502764)" d="M2.958,0A2.958,2.958,0,1,1,-2.958,0A2.958,2.958,0,1,1,2.958,0" fill="#b41f1f62" stroke-width="2" opacity="0.8"/><path transform="translate(42.18265078031072,154.1276880571927)" d="M2.958,0A2.958,2.958,0,1,1,-2.958,0A2.958,2.958,0,1,1,2.958,0" fill="#b41f1f62" stroke-width="2" opacity="0.8"/><path transform="translate(42.05646823529332,158.34297962939763)" d="M2.958,0A2.958,2.958,0,1,1,-2.958,0A2.958,2.958,0,1,1,2.958,0" fill="#b41f1f62" stroke-width="2" opacity="0.8"/><path transform="translate(45.41271051620515,156.18079089133926)" d="M2.958,0A2.958,2.958,0,1,1,-2.958,0A2.958,2.958,0,1,1,2.958,0" fill="#b41f1f62" stroke-width="2" opacity="0.8"/><path transform="translate(43.11634825930287,157.69109432546793)" d="M2.958,0A2.958,2.958,0,1,1,-2.958,0A2.958,2.958,0,1,1,2.958,0" fill="#b41f1f62" stroke-width="2" opacity="0.8"/><path transform="translate(40.960307394957454,153.7190345167187)" d="M2.958,0A2.958,2.958,0,1,1,-2.958,0A2.958,2.958,0,1,1,2.958,0" fill="#b41f1f62" stroke-width="2" opacity="0.8"/><path transform="translate(42.93254324129521,156.6867889070354)" d="M2.958,0A2.958,2.958,0,1,1,-2.958,0A2.958,2.958,0,1,1,2.958,0" fill="#b41f1f62" stroke-width="2" opacity="0.8"/><path transform="translate(45.51435015606148,156.20849061225726)" d="M2.958,0A2.958,2.958,0,1,1,-2.958,0A2.958,2.958,0,1,1,2.958,0" fill="#b41f1f62" stroke-width="2" opacity="0.8"/><path transform="translate(41.274830060022396,151.40118042513132)" d="M2.958,0A2.958,2.958,0,1,1,-2.958,0A2.958,2.958,0,1,1,2.958,0" fill="#b41f1f62" stroke-width="2" opacity="0.8"/><path transform="translate(40.65058660263912,156.47287152092667)" d="M2.958,0A2.958,2.958,0,1,1,-2.958,0A2.958,2.958,0,1,1,2.958,0" fill="#b41f1f62" stroke-width="2" opacity="0.8"/><path transform="translate(40.51720124849817,153.60411739302754)" d="M2.958,0A2.958,2.958,0,1,1,-2.958,0A2.958,2.958,0,1,1,2.958,0" fill="#b41f1f62" stroke-width="2" opacity="0.8"/><path transform="translate(39.48239767106679,156.47314577443012)" d="M2.958,0A2.958,2.958,0,1,1,-2.958,0A2.958,2.958,0,1,1,2.958,0" fill="#b41f1f62" stroke-width="2" opacity="0.8"/><path transform="translate(40.92215918367219,153.41322836233076)" d="M2.958,0A2.958,2.958,0,1,1,-2.958,0A2.958,2.958,0,1,1,2.958,0" fill="#b41f1f62" stroke-width="2" opacity="0.8"/><path transform="translate(33.35040617046707,152.36579723377554)" d="M2.958,0A2.958,2.958,0,1,1,-2.958,0A2.958,2.958,0,1,1,2.958,0" fill="#b41f1f62" stroke-width="2" opacity="0.8"/><path transform="translate(34.854992965184465,151.90035836106608)" d="M2.958,0A2.958,2.958,0,1,1,-2.958,0A2.958,2.958,0,1,1,2.958,0" fill="#b41f1f62" stroke-width="2" opacity="0.8"/><path transform="translate(33.34933908763378,152.88800640522686)" d="M2.958,0A2.958,2.958,0,1,1,-2.958,0A2.958,2.958,0,1,1,2.958,0" fill="#b41f1f62" stroke-width="2" opacity="0.8"/><path transform="translate(35.940482977189276,148.55058241151983)" d="M2.958,0A2.958,2.958,0,1,1,-2.958,0A2.958,2.958,0,1,1,2.958,0" fill="#b41f1f62" stroke-width="2" opacity="0.8"/><path transform="translate(32.421243793515714,149.727535333353)" d="M2.958,0A2.958,2.958,0,1,1,-2.958,0A2.958,2.958,0,1,1,2.958,0" fill="#b41f1f62" stroke-width="2" opacity="0.8"/><path transform="translate(37.138550228090025,150.1252424655595)" d="M2.958,0A2.958,2.958,0,1,1,-2.958,0A2.958,2.958,0,1,1,2.958,0" fill="#b41f1f62" stroke-width="2" opacity="0.8"/><path transform="translate(36.304624993996185,150.42667544157757)" d="M2.958,0A2.958,2.958,0,1,1,-2.958,0A2.958,2.958,0,1,1,2.958,0" fill="#b41f1f62" stroke-width="2" opacity="0.8"/><path transform="translate(30.427666290514935,144.93127213033085)" d="M2.958,0A2.958,2.958,0,1,1,-2.958,0A2.958,2.958,0,1,1,2.958,0" fill="#b41f1f62" stroke-width="2" opacity="0.8"/><path transform="translate(29.739931404560593,147.52117704352304)" d="M2.958,0A2.958,2.958,0,1,1,-2.958,0A2.958,2.958,0,1,1,2.958,0" fill="#b41f1f62" stroke-width="2" opacity="0.8"/><path transform="translate(36.70611490996362,146.06412808204823)" d="M2.958,0A2.958,2.958,0,1,1,-2.958,0A2.958,2.958,0,1,1,2.958,0" fill="#b41f1f62" stroke-width="2" opacity="0.8"/><path transform="translate(36.76427092436916,148.5001136725332)" d="M2.958,0A2.958,2.958,0,1,1,-2.958,0A2.958,2.958,0,1,1,2.958,0" fill="#b41f1f62" stroke-width="2" opacity="0.8"/><path transform="translate(31.02096434573741,144.2899517946771)" d="M2.958,0A2.958,2.958,0,1,1,-2.958,0A2.958,2.958,0,1,1,2.958,0" fill="#b41f1f62" stroke-width="2" opacity="0.8"/><path transform="translate(29.801288667465997,147.08615037123718)" d="M2.958,0A2.958,2.958,0,1,1,-2.958,0A2.958,2.958,0,1,1,2.958,0" fill="#b41f1f62" stroke-width="2" opacity="0.8"/><path transform="translate(37.731047971186854,145.2840230757315)" d="M2.958,0A2.958,2.958,0,1,1,-2.958,0A2.958,2.958,0,1,1,2.958,0" fill="#b41f1f62" stroke-width="2" opacity="0.8"/><path transform="translate(32.70322043217129,150.49634219310155)" d="M2.958,0A2.958,2.958,0,1,1,-2.958,0A2.958,2.958,0,1,1,2.958,0" fill="#b41f1f62" stroke-width="2" opacity="0.8"/><path transform="translate(35.53232379351721,148.56621674127655)" d="M2.958,0A2.958,2.958,0,1,1,-2.958,0A2.958,2.958,0,1,1,2.958,0" fill="#b41f1f62" stroke-width="2" opacity="0.8"/><path transform="translate(36.425738895557515,149.6984614762523)" d="M2.958,0A2.958,2.958,0,1,1,-2.958,0A2.958,2.958,0,1,1,2.958,0" fill="#b41f1f62" stroke-width="2" opacity="0.8"/><path transform="translate(37.97114160864294,161.82663100251648)" d="M2.958,0A2.958,2.958,0,1,1,-2.958,0A2.958,2.958,0,1,1,2.958,0" fill="#b41f1f62" stroke-width="2" opacity="0.8"/><path transform="translate(39.8436052100833,158.46501886254737)" d="M2.958,0A2.958,2.958,0,1,1,-2.958,0A2.958,2.958,0,1,1,2.958,0" fill="#b41f1f62" stroke-width="2" opacity="0.8"/><path transform="translate(37.23218674669806,160.6644287920035)" d="M2.958,0A2.958,2.958,0,1,1,-2.958,0A2.958,2.958,0,1,1,2.958,0" fill="#b41f1f62" stroke-width="2" opacity="0.8"/><path transform="translate(25.836008859543654,161.31381660031002)" d="M2.958,0A2.958,2.958,0,1,1,-2.958,0A2.958,2.958,0,1,1,2.958,0" fill="#b41f1f62" stroke-width="2" opacity="0.8"/><path transform="translate(22.40880557022774,162.26731912520518)" d="M2.958,0A2.958,2.958,0,1,1,-2.958,0A2.958,2.958,0,1,1,2.958,0" fill="#b41f1f62" stroke-width="2" opacity="0.8"/><path transform="translate(21.141644705880935,160.40582367451543)" d="M2.958,0A2.958,2.958,0,1,1,-2.958,0A2.958,2.958,0,1,1,2.958,0" fill="#b41f1f62" stroke-width="2" opacity="0.8"/><path transform="translate(23.981952436974098,166.6721190637727)" d="M2.958,0A2.958,2.958,0,1,1,-2.958,0A2.958,2.958,0,1,1,2.958,0" fill="#b41f1f62" stroke-width="2" opacity="0.8"/><path transform="translate(51.39344302520931,161.9939118437137)" d="M2.958,0A2.958,2.958,0,1,1,-2.958,0A2.958,2.958,0,1,1,2.958,0" fill="#b41f1f62" stroke-width="2" opacity="0.8"/><path transform="translate(46.25383855942255,163.9864408631238)" d="M2.958,0A2.958,2.958,0,1,1,-2.958,0A2.958,2.958,0,1,1,2.958,0" fill="#b41f1f62" stroke-width="2" opacity="0.8"/><path transform="translate(48.95409166866557,164.30536058166763)" d="M2.958,0A2.958,2.958,0,1,1,-2.958,0A2.958,2.958,0,1,1,2.958,0" fill="#b41f1f62" stroke-width="2" opacity="0.8"/><path transform="translate(54.80517361344482,170.60281840630114)" d="M2.958,0A2.958,2.958,0,1,1,-2.958,0A2.958,2.958,0,1,1,2.958,0" fill="#b41f1f62" stroke-width="2" opacity="0.8"/><path transform="translate(58.949990108042584,167.17639136787784)" d="M2.958,0A2.958,2.958,0,1,1,-2.958,0A2.958,2.958,0,1,1,2.958,0" fill="#b41f1f62" stroke-width="2" opacity="0.8"/><path transform="translate(30.477552412963632,161.05493979438188)" d="M2.958,0A2.958,2.958,0,1,1,-2.958,0A2.958,2.958,0,1,1,2.958,0" fill="#b41f1f62" stroke-width="2" opacity="0.8"/><path transform="translate(38.46813543817461,156.92950202328166)" d="M2.958,0A2.958,2.958,0,1,1,-2.958,0A2.958,2.958,0,1,1,2.958,0" fill="#b41f1f62" stroke-width="2" opacity="0.8"/><path transform="translate(33.10764482592913,158.80755024475638)" d="M2.958,0A2.958,2.958,0,1,1,-2.958,0A2.958,2.958,0,1,1,2.958,0" fill="#b41f1f62" stroke-width="2" opacity="0.8"/><path transform="translate(38.68742096038295,162.76175288693184)" d="M2.958,0A2.958,2.958,0,1,1,-2.958,0A2.958,2.958,0,1,1,2.958,0" fill="#b41f1f62" stroke-width="2" opacity="0.8"/><path transform="translate(41.80570376950709,161.35522582565955)" d="M2.958,0A2.958,2.958,0,1,1,-2.958,0A2.958,2.958,0,1,1,2.958,0" fill="#b41f1f62" stroke-width="2" opacity="0.8"/><path transform="translate(40.34219966386445,163.64009723964273)" d="M2.958,0A2.958,2.958,0,1,1,-2.958,0A2.958,2.958,0,1,1,2.958,0" fill="#b41f1f62" stroke-width="2" opacity="0.8"/><path transform="translate(40.144255798319136,162.00597798634772)" d="M2.958,0A2.958,2.958,0,1,1,-2.958,0A2.958,2.958,0,1,1,2.958,0" fill="#b41f1f62" stroke-width="2" opacity="0.8"/><path transform="translate(36.250737310923796,167.06396557583685)" d="M2.958,0A2.958,2.958,0,1,1,-2.958,0A2.958,2.958,0,1,1,2.958,0" fill="#b41f1f62" stroke-width="2" opacity="0.8"/><path transform="translate(33.308256398558115,169.68700142523767)" d="M2.958,0A2.958,2.958,0,1,1,-2.958,0A2.958,2.958,0,1,1,2.958,0" fill="#b41f1f62" stroke-width="2" opacity="0.8"/><path transform="translate(43.31535920768147,168.5710037044514)" d="M2.958,0A2.958,2.958,0,1,1,-2.958,0A2.958,2.958,0,1,1,2.958,0" fill="#b41f1f62" stroke-width="2" opacity="0.8"/><path transform="translate(33.37841709483655,176.3823182208398)" d="M2.958,0A2.958,2.958,0,1,1,-2.958,0A2.958,2.958,0,1,1,2.958,0" fill="#b41f1f62" stroke-width="2" opacity="0.8"/><path transform="translate(42.337377791115614,169.3960760707555)" d="M2.958,0A2.958,2.958,0,1,1,-2.958,0A2.958,2.958,0,1,1,2.958,0" fill="#b41f1f62" stroke-width="2" opacity="0.8"/><path transform="translate(41.23374737094673,174.02906792484237)" d="M2.958,0A2.958,2.958,0,1,1,-2.958,0A2.958,2.958,0,1,1,2.958,0" fill="#b41f1f62" stroke-width="2" opacity="0.8"/><path transform="translate(42.28589104441653,179.68955874842368)" d="M2.958,0A2.958,2.958,0,1,1,-2.958,0A2.958,2.958,0,1,1,2.958,0" fill="#b41f1f62" stroke-width="2" opacity="0.8"/><path transform="translate(43.083802232891685,180.3055870599419)" d="M2.958,0A2.958,2.958,0,1,1,-2.958,0A2.958,2.958,0,1,1,2.958,0" fill="#b41f1f62" stroke-width="2" opacity="0.8"/><path transform="translate(28.583747154860248,154.76507281164368)" d="M2.958,0A2.958,2.958,0,1,1,-2.958,0A2.958,2.958,0,1,1,2.958,0" fill="#b41f1f62" stroke-width="2" opacity="0.8"/><path transform="translate(29.893057791115098,152.05422508218226)" d="M2.958,0A2.958,2.958,0,1,1,-2.958,0A2.958,2.958,0,1,1,2.958,0" fill="#b41f1f62" stroke-width="2" opacity="0.8"/><path transform="translate(27.44303560624212,152.55915773043353)" d="M2.958,0A2.958,2.958,0,1,1,-2.958,0A2.958,2.958,0,1,1,2.958,0" fill="#b41f1f62" stroke-width="2" opacity="0.8"/><path transform="translate(30.83182391356422,150.47110857509006)" d="M2.958,0A2.958,2.958,0,1,1,-2.958,0A2.958,2.958,0,1,1,2.958,0" fill="#b41f1f62" stroke-width="2" opacity="0.8"/><path transform="translate(23.669030396157723,154.84076869792716)" d="M2.958,0A2.958,2.958,0,1,1,-2.958,0A2.958,2.958,0,1,1,2.958,0" fill="#b41f1f62" stroke-width="2" opacity="0.8"/><path transform="translate(17.266533397358216,224.74958128489243)" d="M2.958,0A2.958,2.958,0,1,1,-2.958,0A2.958,2.958,0,1,1,2.958,0" fill="#b41f1f62" stroke-width="2" opacity="0.8"/><path transform="translate(19.280919015604923,235.72373001201504)" d="M2.958,0A2.958,2.958,0,1,1,-2.958,0A2.958,2.958,0,1,1,2.958,0" fill="#b41f1f62" stroke-width="2" opacity="0.8"/><path transform="translate(25.2325735174054,205.93328034101933)" d="M2.958,0A2.958,2.958,0,1,1,-2.958,0A2.958,2.958,0,1,1,2.958,0" fill="#b41f1f62" stroke-width="2" opacity="0.8"/><path transform="translate(7.792705234092864,179.19250992563457)" d="M2.958,0A2.958,2.958,0,1,1,-2.958,0A2.958,2.958,0,1,1,2.958,0" fill="#b41f1f62" stroke-width="2" opacity="0.8"/><path transform="translate(7.03347579831825,175.73965860919816)" d="M2.958,0A2.958,2.958,0,1,1,-2.958,0A2.958,2.958,0,1,1,2.958,0" fill="#b41f1f62" stroke-width="2" opacity="0.8"/><path transform="translate(19.5439549339726,194.25256111531098)" d="M2.958,0A2.958,2.958,0,1,1,-2.958,0A2.958,2.958,0,1,1,2.958,0" fill="#b41f1f62" stroke-width="2" opacity="0.8"/><path transform="translate(27.55401222088676,188.853451934614)" d="M2.958,0A2.958,2.958,0,1,1,-2.958,0A2.958,2.958,0,1,1,2.958,0" fill="#b41f1f62" stroke-width="2" opacity="0.8"/><path transform="translate(42.792755390154525,184.12938559080658)" d="M2.958,0A2.958,2.958,0,1,1,-2.958,0A2.958,2.958,0,1,1,2.958,0" fill="#b41f1f62" stroke-width="2" opacity="0.8"/><path transform="translate(52.13586590636169,183.21019174083676)" d="M2.958,0A2.958,2.958,0,1,1,-2.958,0A2.958,2.958,0,1,1,2.958,0" fill="#b41f1f62" stroke-width="2" opacity="0.8"/><path transform="translate(48.0769495798304,192.16363451980624)" d="M2.958,0A2.958,2.958,0,1,1,-2.958,0A2.958,2.958,0,1,1,2.958,0" fill="#b41f1f62" stroke-width="2" opacity="0.8"/><path transform="translate(57.60759990396127,192.42979060302787)" d="M2.958,0A2.958,2.958,0,1,1,-2.958,0A2.958,2.958,0,1,1,2.958,0" fill="#b41f1f62" stroke-width="2" opacity="0.8"/><path transform="translate(46.472590540215606,203.4936511253236)" d="M2.958,0A2.958,2.958,0,1,1,-2.958,0A2.958,2.958,0,1,1,2.958,0" fill="#b41f1f62" stroke-width="2" opacity="0.8"/><path transform="translate(43.58639824729744,222.38351718934746)" d="M2.958,0A2.958,2.958,0,1,1,-2.958,0A2.958,2.958,0,1,1,2.958,0" fill="#b41f1f62" stroke-width="2" opacity="0.8"/><path transform="translate(46.18394463385266,198.45022548723819)" d="M2.958,0A2.958,2.958,0,1,1,-2.958,0A2.958,2.958,0,1,1,2.958,0" fill="#b41f1f62" stroke-width="2" opacity="0.8"/><path transform="translate(49.06560182472822,194.65740126358105)" d="M2.958,0A2.958,2.958,0,1,1,-2.958,0A2.958,2.958,0,1,1,2.958,0" fill="#b41f1f62" stroke-width="2" opacity="0.8"/><path transform="translate(36.84670307322813,193.93378545384167)" d="M2.958,0A2.958,2.958,0,1,1,-2.958,0A2.958,2.958,0,1,1,2.958,0" fill="#b41f1f62" stroke-width="2" opacity="0.8"/><path transform="translate(49.712254021606896,197.86725520755044)" d="M2.958,0A2.958,2.958,0,1,1,-2.958,0A2.958,2.958,0,1,1,2.958,0" fill="#b41f1f62" stroke-width="2" opacity="0.8"/><path transform="translate(49.17231010804244,200.407126509117)" d="M2.958,0A2.958,2.958,0,1,1,-2.958,0A2.958,2.958,0,1,1,2.958,0" fill="#b41f1f62" stroke-width="2" opacity="0.8"/><path transform="translate(47.365472100838815,194.2470791735882)" d="M2.958,0A2.958,2.958,0,1,1,-2.958,0A2.958,2.958,0,1,1,2.958,0" fill="#b41f1f62" stroke-width="2" opacity="0.8"/><path transform="translate(67.70380412965096,214.73817017567944)" d="M2.958,0A2.958,2.958,0,1,1,-2.958,0A2.958,2.958,0,1,1,2.958,0" fill="#b41f1f62" stroke-width="2" opacity="0.8"/><path transform="translate(75.42628259303547,204.1445382332795)" d="M2.958,0A2.958,2.958,0,1,1,-2.958,0A2.958,2.958,0,1,1,2.958,0" fill="#b41f1f62" stroke-width="2" opacity="0.8"/><path transform="translate(69.2291990396152,191.33199268609314)" d="M2.958,0A2.958,2.958,0,1,1,-2.958,0A2.958,2.958,0,1,1,2.958,0" fill="#b41f1f62" stroke-width="2" opacity="0.8"/><path transform="translate(196.4212044177657,210.895850213848)" d="M2.958,0A2.958,2.958,0,1,1,-2.958,0A2.958,2.958,0,1,1,2.958,0" fill="#b41f1f62" stroke-width="2" opacity="0.8"/><path transform="translate(109.9805588955569,222.56078310481234)" d="M2.958,0A2.958,2.958,0,1,1,-2.958,0A2.958,2.958,0,1,1,2.958,0" fill="#b41f1f62" stroke-width="2" opacity="0.8"/><path transform="translate(132.87001920768125,213.37768203420637)" d="M2.958,0A2.958,2.958,0,1,1,-2.958,0A2.958,2.958,0,1,1,2.958,0" fill="#b41f1f62" stroke-width="2" opacity="0.8"/><path transform="translate(165.52035296518443,217.15190675933172)" d="M2.958,0A2.958,2.958,0,1,1,-2.958,0A2.958,2.958,0,1,1,2.958,0" fill="#b41f1f62" stroke-width="2" opacity="0.8"/><path transform="translate(223.35197418967346,204.27827761907702)" d="M2.958,0A2.958,2.958,0,1,1,-2.958,0A2.958,2.958,0,1,1,2.958,0" fill="#b41f1f62" stroke-width="2" opacity="0.8"/><path transform="translate(338.4680699159644,145.13919243468672)" d="M2.958,0A2.958,2.958,0,1,1,-2.958,0A2.958,2.958,0,1,1,2.958,0" fill="#b41f1f62" stroke-width="2" opacity="0.8"/><path transform="translate(343.38385375750113,146.5699296129551)" d="M2.958,0A2.958,2.958,0,1,1,-2.958,0A2.958,2.958,0,1,1,2.958,0" fill="#b41f1f62" stroke-width="2" opacity="0.8"/><path transform="translate(342.2530127250884,146.7095455103522)" d="M2.958,0A2.958,2.958,0,1,1,-2.958,0A2.958,2.958,0,1,1,2.958,0" fill="#b41f1f62" stroke-width="2" opacity="0.8"/><path transform="translate(345.4193142617023,142.97272930598456)" d="M2.958,0A2.958,2.958,0,1,1,-2.958,0A2.958,2.958,0,1,1,2.958,0" fill="#b41f1f62" stroke-width="2" opacity="0.8"/><path transform="translate(347.96777483793267,147.7776384551894)" d="M2.958,0A2.958,2.958,0,1,1,-2.958,0A2.958,2.958,0,1,1,2.958,0" fill="#b41f1f62" stroke-width="2" opacity="0.8"/><path transform="translate(343.64368842736894,152.13870077608271)" d="M2.958,0A2.958,2.958,0,1,1,-2.958,0A2.958,2.958,0,1,1,2.958,0" fill="#b41f1f62" stroke-width="2" opacity="0.8"/><path transform="translate(349.14023210083906,152.48044224929254)" d="M2.958,0A2.958,2.958,0,1,1,-2.958,0A2.958,2.958,0,1,1,2.958,0" fill="#b41f1f62" stroke-width="2" opacity="0.8"/><path transform="translate(341.3361218007185,153.85836097523088)" d="M2.958,0A2.958,2.958,0,1,1,-2.958,0A2.958,2.958,0,1,1,2.958,0" fill="#b41f1f62" stroke-width="2" opacity="0.8"/><path transform="translate(345.8098665786292,147.2691033011688)" d="M2.958,0A2.958,2.958,0,1,1,-2.958,0A2.958,2.958,0,1,1,2.958,0" fill="#b41f1f62" stroke-width="2" opacity="0.8"/><path transform="translate(248.91927887154725,195.66633881298503)" d="M2.958,0A2.958,2.958,0,1,1,-2.958,0A2.958,2.958,0,1,1,2.958,0" fill="#b41f1f62" stroke-width="2" opacity="0.8"/><path transform="translate(263.2664743337309,186.03736440248304)" d="M2.958,0A2.958,2.958,0,1,1,-2.958,0A2.958,2.958,0,1,1,2.958,0" fill="#b41f1f62" stroke-width="2" opacity="0.8"/><path transform="translate(263.43987529411515,196.00593701000298)" d="M2.958,0A2.958,2.958,0,1,1,-2.958,0A2.958,2.958,0,1,1,2.958,0" fill="#b41f1f62" stroke-width="2" opacity="0.8"/><path transform="translate(164.02990501800468,178.00319650965048)" d="M2.958,0A2.958,2.958,0,1,1,-2.958,0A2.958,2.958,0,1,1,2.958,0" fill="#b41f1f62" stroke-width="2" opacity="0.8"/><path transform="translate(185.72663349339655,158.60680348563983)" d="M2.958,0A2.958,2.958,0,1,1,-2.958,0A2.958,2.958,0,1,1,2.958,0" fill="#b41f1f62" stroke-width="2" opacity="0.8"/><path transform="translate(217.97387671068282,165.28322519724225)" d="M2.958,0A2.958,2.958,0,1,1,-2.958,0A2.958,2.958,0,1,1,2.958,0" fill="#b41f1f62" stroke-width="2" opacity="0.8"/><path transform="translate(217.58065668667314,179.49463270999377)" d="M2.958,0A2.958,2.958,0,1,1,-2.958,0A2.958,2.958,0,1,1,2.958,0" fill="#b41f1f62" stroke-width="2" opacity="0.8"/><path transform="translate(230.5894635054001,167.91565473842638)" d="M2.958,0A2.958,2.958,0,1,1,-2.958,0A2.958,2.958,0,1,1,2.958,0" fill="#b41f1f62" stroke-width="2" opacity="0.8"/><path transform="translate(296.0408564705858,152.89842860492126)" d="M2.958,0A2.958,2.958,0,1,1,-2.958,0A2.958,2.958,0,1,1,2.958,0" fill="#b41f1f62" stroke-width="2" opacity="0.8"/><path transform="translate(300.5703563265288,166.5489981612959)" d="M2.958,0A2.958,2.958,0,1,1,-2.958,0A2.958,2.958,0,1,1,2.958,0" fill="#b41f1f62" stroke-width="2" opacity="0.8"/><path transform="translate(286.1372606962768,170.5594956133673)" d="M2.958,0A2.958,2.958,0,1,1,-2.958,0A2.958,2.958,0,1,1,2.958,0" fill="#b41f1f62" stroke-width="2" opacity="0.8"/><path transform="translate(272.753641032411,159.12704348462694)" d="M2.958,0A2.958,2.958,0,1,1,-2.958,0A2.958,2.958,0,1,1,2.958,0" fill="#b41f1f62" stroke-width="2" opacity="0.8"/><path transform="translate(329.09401399759736,171.5257516708307)" d="M2.958,0A2.958,2.958,0,1,1,-2.958,0A2.958,2.958,0,1,1,2.958,0" fill="#b41f1f62" stroke-width="2" opacity="0.8"/><path transform="translate(322.0691409363717,163.31843205674068)" d="M2.958,0A2.958,2.958,0,1,1,-2.958,0A2.958,2.958,0,1,1,2.958,0" fill="#b41f1f62" stroke-width="2" opacity="0.8"/><path transform="translate(323.11701627850925,149.01769069512648)" d="M2.958,0A2.958,2.958,0,1,1,-2.958,0A2.958,2.958,0,1,1,2.958,0" fill="#b41f1f62" stroke-width="2" opacity="0.8"/><path transform="translate(313.06829723889314,162.5909090276291)" d="M2.958,0A2.958,2.958,0,1,1,-2.958,0A2.958,2.958,0,1,1,2.958,0" fill="#b41f1f62" stroke-width="2" opacity="0.8"/><path transform="translate(329.33090638655267,146.3192237009066)" d="M2.958,0A2.958,2.958,0,1,1,-2.958,0A2.958,2.958,0,1,1,2.958,0" fill="#b41f1f62" stroke-width="2" opacity="0.8"/><path transform="translate(339.9462464105627,164.58479112383884)" d="M2.958,0A2.958,2.958,0,1,1,-2.958,0A2.958,2.958,0,1,1,2.958,0" fill="#b41f1f62" stroke-width="2" opacity="0.8"/><path transform="translate(329.536319831931,149.69187871437043)" d="M2.958,0A2.958,2.958,0,1,1,-2.958,0A2.958,2.958,0,1,1,2.958,0" fill="#b41f1f62" stroke-width="2" opacity="0.8"/><path transform="translate(332.15760881152255,161.2118017090961)" d="M2.958,0A2.958,2.958,0,1,1,-2.958,0A2.958,2.958,0,1,1,2.958,0" fill="#b41f1f62" stroke-width="2" opacity="0.8"/><path transform="translate(348.01979512604885,148.40877612793247)" d="M2.958,0A2.958,2.958,0,1,1,-2.958,0A2.958,2.958,0,1,1,2.958,0" fill="#b41f1f62" stroke-width="2" opacity="0.8"/><path transform="translate(348.1641180792294,149.44557323365962)" d="M2.958,0A2.958,2.958,0,1,1,-2.958,0A2.958,2.958,0,1,1,2.958,0" fill="#b41f1f62" stroke-width="2" opacity="0.8"/><path transform="translate(375.25975214885693,153.6441601367028)" d="M2.958,0A2.958,2.958,0,1,1,-2.958,0A2.958,2.958,0,1,1,2.958,0" fill="#b41f1f62" stroke-width="2" opacity="0.8"/><path transform="translate(362.6089516206466,153.34356469889826)" d="M2.958,0A2.958,2.958,0,1,1,-2.958,0A2.958,2.958,0,1,1,2.958,0" fill="#b41f1f62" stroke-width="2" opacity="0.8"/><path transform="translate(370.6808997118833,163.86002428002166)" d="M2.958,0A2.958,2.958,0,1,1,-2.958,0A2.958,2.958,0,1,1,2.958,0" fill="#b41f1f62" stroke-width="2" opacity="0.8"/><path transform="translate(378.224641800718,164.33223422789933)" d="M2.958,0A2.958,2.958,0,1,1,-2.958,0A2.958,2.958,0,1,1,2.958,0" fill="#b41f1f62" stroke-width="2" opacity="0.8"/><path transform="translate(388.79596465786017,158.96332053280685)" d="M2.958,0A2.958,2.958,0,1,1,-2.958,0A2.958,2.958,0,1,1,2.958,0" fill="#b41f1f62" stroke-width="2" opacity="0.8"/><path transform="translate(409.64542936374346,167.96391496762863)" d="M2.958,0A2.958,2.958,0,1,1,-2.958,0A2.958,2.958,0,1,1,2.958,0" fill="#b41f1f62" stroke-width="2" opacity="0.8"/><path transform="translate(405.71909807922975,162.9062705413894)" d="M2.958,0A2.958,2.958,0,1,1,-2.958,0A2.958,2.958,0,1,1,2.958,0" fill="#b41f1f62" stroke-width="2" opacity="0.8"/><path transform="translate(405.0412337094808,163.4829668729899)" d="M2.958,0A2.958,2.958,0,1,1,-2.958,0A2.958,2.958,0,1,1,2.958,0" fill="#b41f1f62" stroke-width="2" opacity="0.8"/><path transform="translate(409.89272581032174,165.60981668741988)" d="M2.958,0A2.958,2.958,0,1,1,-2.958,0A2.958,2.958,0,1,1,2.958,0" fill="#b41f1f62" stroke-width="2" opacity="0.8"/><path transform="translate(422.4146760864319,149.15867281346345)" d="M2.958,0A2.958,2.958,0,1,1,-2.958,0A2.958,2.958,0,1,1,2.958,0" fill="#b41f1f62" stroke-width="2" opacity="0.8"/><path transform="translate(427.30004806722445,124.48630449143639)" d="M2.958,0A2.958,2.958,0,1,1,-2.958,0A2.958,2.958,0,1,1,2.958,0" fill="#b41f1f62" stroke-width="2" opacity="0.8"/><path transform="translate(434.0850942617021,121.38263648188422)" d="M2.958,0A2.958,2.958,0,1,1,-2.958,0A2.958,2.958,0,1,1,2.958,0" fill="#b41f1f62" stroke-width="2" opacity="0.8"/><path transform="translate(414.1434502761085,146.82474897442262)" d="M2.958,0A2.958,2.958,0,1,1,-2.958,0A2.958,2.958,0,1,1,2.958,0" fill="#b41f1f62" stroke-width="2" opacity="0.8"/><path transform="translate(430.199578895556,131.61285060291493)" d="M2.958,0A2.958,2.958,0,1,1,-2.958,0A2.958,2.958,0,1,1,2.958,0" fill="#b41f1f62" stroke-width="2" opacity="0.8"/><path transform="translate(75.9075369507791,137.3343232363568)" d="M2.958,0A2.958,2.958,0,1,1,-2.958,0A2.958,2.958,0,1,1,2.958,0" fill="#b41f1f62" stroke-width="2" opacity="0.8"/><path transform="translate(76.96581635053826,135.2979148574932)" d="M2.958,0A2.958,2.958,0,1,1,-2.958,0A2.958,2.958,0,1,1,2.958,0" fill="#b41f1f62" stroke-width="2" opacity="0.8"/><path transform="translate(80.4951928211267,136.58264544246458)" d="M2.958,0A2.958,2.958,0,1,1,-2.958,0A2.958,2.958,0,1,1,2.958,0" fill="#b41f1f62" stroke-width="2" opacity="0.8"/><path transform="translate(79.93444079231631,136.67372510861287)" d="M2.958,0A2.958,2.958,0,1,1,-2.958,0A2.958,2.958,0,1,1,2.958,0" fill="#b41f1f62" stroke-width="2" opacity="0.8"/><path transform="translate(78.90897418967506,136.3601581353405)" d="M2.958,0A2.958,2.958,0,1,1,-2.958,0A2.958,2.958,0,1,1,2.958,0" fill="#b41f1f62" stroke-width="2" opacity="0.8"/><path transform="translate(104.32288571428398,108.79907094541568)" d="M2.958,0A2.958,2.958,0,1,1,-2.958,0A2.958,2.958,0,1,1,2.958,0" fill="#b41f1f62" stroke-width="2" opacity="0.8"/><path transform="translate(197.42666321728484,131.92122754120874)" d="M2.958,0A2.958,2.958,0,1,1,-2.958,0A2.958,2.958,0,1,1,2.958,0" fill="#b41f1f62" stroke-width="2" opacity="0.8"/><path transform="translate(323.9130600720273,113.40725303242834)" d="M2.958,0A2.958,2.958,0,1,1,-2.958,0A2.958,2.958,0,1,1,2.958,0" fill="#b41f1f62" stroke-width="2" opacity="0.8"/><path transform="translate(328.97930259303575,111.32316892002336)" d="M2.958,0A2.958,2.958,0,1,1,-2.958,0A2.958,2.958,0,1,1,2.958,0" fill="#b41f1f62" stroke-width="2" opacity="0.8"/><path transform="translate(330.6279455702261,111.37613632947978)" d="M2.958,0A2.958,2.958,0,1,1,-2.958,0A2.958,2.958,0,1,1,2.958,0" fill="#b41f1f62" stroke-width="2" opacity="0.8"/><path transform="translate(325.1946265546194,117.84277661160513)" d="M2.958,0A2.958,2.958,0,1,1,-2.958,0A2.958,2.958,0,1,1,2.958,0" fill="#b41f1f62" stroke-width="2" opacity="0.8"/><path transform="translate(325.9253115246074,113.1877055710197)" d="M2.958,0A2.958,2.958,0,1,1,-2.958,0A2.958,2.958,0,1,1,2.958,0" fill="#b41f1f62" stroke-width="2" opacity="0.8"/><path transform="translate(91.13400866746542,131.4792384356183)" d="M2.958,0A2.958,2.958,0,1,1,-2.958,0A2.958,2.958,0,1,1,2.958,0" fill="#b41f1f62" stroke-width="2" opacity="0.8"/><path transform="translate(79.90829726290394,116.20998580160767)" d="M2.958,0A2.958,2.958,0,1,1,-2.958,0A2.958,2.958,0,1,1,2.958,0" fill="#b41f1f62" stroke-width="2" opacity="0.8"/><path transform="translate(104.448001176469,118.54143393668073)" d="M2.958,0A2.958,2.958,0,1,1,-2.958,0A2.958,2.958,0,1,1,2.958,0" fill="#b41f1f62" stroke-width="2" opacity="0.8"/><path transform="translate(92.60204787514886,143.1022034081252)" d="M2.958,0A2.958,2.958,0,1,1,-2.958,0A2.958,2.958,0,1,1,2.958,0" fill="#b41f1f62" stroke-width="2" opacity="0.8"/><path transform="translate(89.34451075630022,124.8043185480351)" d="M2.958,0A2.958,2.958,0,1,1,-2.958,0A2.958,2.958,0,1,1,2.958,0" fill="#b41f1f62" stroke-width="2" opacity="0.8"/><path transform="translate(114.25369210083863,112.25434616438588)" d="M2.958,0A2.958,2.958,0,1,1,-2.958,0A2.958,2.958,0,1,1,2.958,0" fill="#b41f1f62" stroke-width="2" opacity="0.8"/><path transform="translate(136.45808523409232,118.27662557996837)" d="M2.958,0A2.958,2.958,0,1,1,-2.958,0A2.958,2.958,0,1,1,2.958,0" fill="#b41f1f62" stroke-width="2" opacity="0.8"/><path transform="translate(112.33987903961497,133.3604836120553)" d="M2.958,0A2.958,2.958,0,1,1,-2.958,0A2.958,2.958,0,1,1,2.958,0" fill="#b41f1f62" stroke-width="2" opacity="0.8"/><path transform="translate(120.62417661464406,142.48911933140198)" d="M2.958,0A2.958,2.958,0,1,1,-2.958,0A2.958,2.958,0,1,1,2.958,0" fill="#b41f1f62" stroke-width="2" opacity="0.8"/><path transform="translate(108.32844789915907,154.25823724427346)" d="M2.958,0A2.958,2.958,0,1,1,-2.958,0A2.958,2.958,0,1,1,2.958,0" fill="#b41f1f62" stroke-width="2" opacity="0.8"/><path transform="translate(104.40638494597715,173.88320368315954)" d="M2.958,0A2.958,2.958,0,1,1,-2.958,0A2.958,2.958,0,1,1,2.958,0" fill="#b41f1f62" stroke-width="2" opacity="0.8"/><path transform="translate(118.58471454981827,177.98345668782486)" d="M2.958,0A2.958,2.958,0,1,1,-2.958,0A2.958,2.958,0,1,1,2.958,0" fill="#b41f1f62" stroke-width="2" opacity="0.8"/><path transform="translate(136.29428801920676,159.30612356769825)" d="M2.958,0A2.958,2.958,0,1,1,-2.958,0A2.958,2.958,0,1,1,2.958,0" fill="#b41f1f62" stroke-width="2" opacity="0.8"/><path transform="translate(142.37799402160726,136.17580309897085)" d="M2.958,0A2.958,2.958,0,1,1,-2.958,0A2.958,2.958,0,1,1,2.958,0" fill="#b41f1f62" stroke-width="2" opacity="0.8"/><path transform="translate(148.29256739495577,137.8429353649194)" d="M2.958,0A2.958,2.958,0,1,1,-2.958,0A2.958,2.958,0,1,1,2.958,0" fill="#b41f1f62" stroke-width="2" opacity="0.8"/><path transform="translate(176.244802208882,140.31132157889624)" d="M2.958,0A2.958,2.958,0,1,1,-2.958,0A2.958,2.958,0,1,1,2.958,0" fill="#b41f1f62" stroke-width="2" opacity="0.8"/><path transform="translate(149.5605285714273,115.80603527747962)" d="M2.958,0A2.958,2.958,0,1,1,-2.958,0A2.958,2.958,0,1,1,2.958,0" fill="#b41f1f62" stroke-width="2" opacity="0.8"/><path transform="translate(159.1848154141635,140.02246099936565)" d="M2.958,0A2.958,2.958,0,1,1,-2.958,0A2.958,2.958,0,1,1,2.958,0" fill="#b41f1f62" stroke-width="2" opacity="0.8"/><path transform="translate(168.332116230491,117.38642255785226)" d="M2.958,0A2.958,2.958,0,1,1,-2.958,0A2.958,2.958,0,1,1,2.958,0" fill="#b41f1f62" stroke-width="2" opacity="0.8"/><path transform="translate(203.5055673469369,111.46066454131687)" d="M2.958,0A2.958,2.958,0,1,1,-2.958,0A2.958,2.958,0,1,1,2.958,0" fill="#b41f1f62" stroke-width="2" opacity="0.8"/><path transform="translate(209.17071010804193,127.38157468069949)" d="M2.958,0A2.958,2.958,0,1,1,-2.958,0A2.958,2.958,0,1,1,2.958,0" fill="#b41f1f62" stroke-width="2" opacity="0.8"/><path transform="translate(248.38146912364755,130.31403000500268)" d="M2.958,0A2.958,2.958,0,1,1,-2.958,0A2.958,2.958,0,1,1,2.958,0" fill="#b41f1f62" stroke-width="2" opacity="0.8"/><path transform="translate(235.8739244657845,123.27569669582817)" d="M2.958,0A2.958,2.958,0,1,1,-2.958,0A2.958,2.958,0,1,1,2.958,0" fill="#b41f1f62" stroke-width="2" opacity="0.8"/><path transform="translate(229.67977539015465,108.10277921611078)" d="M2.958,0A2.958,2.958,0,1,1,-2.958,0A2.958,2.958,0,1,1,2.958,0" fill="#b41f1f62" stroke-width="2" opacity="0.8"/><path transform="translate(225.28979661464382,143.04898738858083)" d="M2.958,0A2.958,2.958,0,1,1,-2.958,0A2.958,2.958,0,1,1,2.958,0" fill="#b41f1f62" stroke-width="2" opacity="0.8"/><path transform="translate(277.24926100840094,109.29692731297928)" d="M2.958,0A2.958,2.958,0,1,1,-2.958,0A2.958,2.958,0,1,1,2.958,0" fill="#b41f1f62" stroke-width="2" opacity="0.8"/><path transform="translate(277.8580317647038,115.30054474977078)" d="M2.958,0A2.958,2.958,0,1,1,-2.958,0A2.958,2.958,0,1,1,2.958,0" fill="#b41f1f62" stroke-width="2" opacity="0.8"/><path transform="translate(302.0653393757475,112.37756903423224)" d="M2.958,0A2.958,2.958,0,1,1,-2.958,0A2.958,2.958,0,1,1,2.958,0" fill="#b41f1f62" stroke-width="2" opacity="0.8"/><path transform="translate(320.3455353901545,108.86987985632823)" d="M2.958,0A2.958,2.958,0,1,1,-2.958,0A2.958,2.958,0,1,1,2.958,0" fill="#b41f1f62" stroke-width="2" opacity="0.8"/><path transform="translate(333.47518933973333,116.44049992447162)" d="M2.958,0A2.958,2.958,0,1,1,-2.958,0A2.958,2.958,0,1,1,2.958,0" fill="#b41f1f62" stroke-width="2" opacity="0.8"/><path transform="translate(366.79938590636084,100.84465346320667)" d="M2.958,0A2.958,2.958,0,1,1,-2.958,0A2.958,2.958,0,1,1,2.958,0" fill="#b41f1f62" stroke-width="2" opacity="0.8"/><path transform="translate(368.4045452581013,121.41693651022251)" d="M2.958,0A2.958,2.958,0,1,1,-2.958,0A2.958,2.958,0,1,1,2.958,0" fill="#b41f1f62" stroke-width="2" opacity="0.8"/><path transform="translate(379.71508974789685,123.07731073079685)" d="M2.958,0A2.958,2.958,0,1,1,-2.958,0A2.958,2.958,0,1,1,2.958,0" fill="#b41f1f62" stroke-width="2" opacity="0.8"/><path transform="translate(400.28124396158273,77.85257201493005)" d="M2.958,0A2.958,2.958,0,1,1,-2.958,0A2.958,2.958,0,1,1,2.958,0" fill="#b41f1f62" stroke-width="2" opacity="0.8"/><path transform="translate(395.7997628331309,77.74081606333948)" d="M2.958,0A2.958,2.958,0,1,1,-2.958,0A2.958,2.958,0,1,1,2.958,0" fill="#b41f1f62" stroke-width="2" opacity="0.8"/><path transform="translate(517.4586769507778,81.11976922090844)" d="M2.958,0A2.958,2.958,0,1,1,-2.958,0A2.958,2.958,0,1,1,2.958,0" fill="#b41f1f62" stroke-width="2" opacity="0.8"/><path transform="translate(517.5616504441746,81.51103101815306)" d="M2.958,0A2.958,2.958,0,1,1,-2.958,0A2.958,2.958,0,1,1,2.958,0" fill="#b41f1f62" stroke-width="2" opacity="0.8"/><path transform="translate(378.27879625449896,90.46959182294995)" d="M2.958,0A2.958,2.958,0,1,1,-2.958,0A2.958,2.958,0,1,1,2.958,0" fill="#b41f1f62" stroke-width="2" opacity="0.8"/><path transform="translate(379.3336076350515,77.24106963666463)" d="M2.958,0A2.958,2.958,0,1,1,-2.958,0A2.958,2.958,0,1,1,2.958,0" fill="#b41f1f62" stroke-width="2" opacity="0.8"/><path transform="translate(394.5496752941149,59.96668166168047)" d="M2.958,0A2.958,2.958,0,1,1,-2.958,0A2.958,2.958,0,1,1,2.958,0" fill="#b41f1f62" stroke-width="2" opacity="0.8"/><path transform="translate(391.1918323889531,64.99552237109765)" d="M2.958,0A2.958,2.958,0,1,1,-2.958,0A2.958,2.958,0,1,1,2.958,0" fill="#b41f1f62" stroke-width="2" opacity="0.8"/><path transform="translate(376.3289691476566,79.49264385639208)" d="M2.958,0A2.958,2.958,0,1,1,-2.958,0A2.958,2.958,0,1,1,2.958,0" fill="#b41f1f62" stroke-width="2" opacity="0.8"/><path transform="translate(448.5379309243672,58.96745824777918)" d="M2.958,0A2.958,2.958,0,1,1,-2.958,0A2.958,2.958,0,1,1,2.958,0" fill="#b41f1f62" stroke-width="2" opacity="0.8"/><path transform="translate(435.62516156062156,68.76318743731281)" d="M2.958,0A2.958,2.958,0,1,1,-2.958,0A2.958,2.958,0,1,1,2.958,0" fill="#b41f1f62" stroke-width="2" opacity="0.8"/><path transform="translate(431.7377787995174,81.92535408502818)" d="M2.958,0A2.958,2.958,0,1,1,-2.958,0A2.958,2.958,0,1,1,2.958,0" fill="#b41f1f62" stroke-width="2" opacity="0.8"/><path transform="translate(418.34028705882156,79.20570980145612)" d="M2.958,0A2.958,2.958,0,1,1,-2.958,0A2.958,2.958,0,1,1,2.958,0" fill="#b41f1f62" stroke-width="2" opacity="0.8"/><path transform="translate(405.3552228331305,59.534364258715414)" d="M2.958,0A2.958,2.958,0,1,1,-2.958,0A2.958,2.958,0,1,1,2.958,0" fill="#b41f1f62" stroke-width="2" opacity="0.8"/><path transform="translate(445.89876830732055,55.05638449335265)" d="M2.958,0A2.958,2.958,0,1,1,-2.958,0A2.958,2.958,0,1,1,2.958,0" fill="#b41f1f62" stroke-width="2" opacity="0.8"/><path transform="translate(462.08294686674435,53.8697485078078)" d="M2.958,0A2.958,2.958,0,1,1,-2.958,0A2.958,2.958,0,1,1,2.958,0" fill="#b41f1f62" stroke-width="2" opacity="0.8"/><path transform="translate(476.24767116446355,50.81543326015799)" d="M2.958,0A2.958,2.958,0,1,1,-2.958,0A2.958,2.958,0,1,1,2.958,0" fill="#b41f1f62" stroke-width="2" opacity="0.8"/><path transform="translate(487.316788163263,50.79702836522165)" d="M2.958,0A2.958,2.958,0,1,1,-2.958,0A2.958,2.958,0,1,1,2.958,0" fill="#b41f1f62" stroke-width="2" opacity="0.8"/><path transform="translate(440.1589297478963,73.57413044318537)" d="M2.958,0A2.958,2.958,0,1,1,-2.958,0A2.958,2.958,0,1,1,2.958,0" fill="#b41f1f62" stroke-width="2" opacity="0.8"/><path transform="translate(455.6593749819908,73.18254590935612)" d="M2.958,0A2.958,2.958,0,1,1,-2.958,0A2.958,2.958,0,1,1,2.958,0" fill="#b41f1f62" stroke-width="2" opacity="0.8"/><path transform="translate(462.2656848019178,61.9708495562013)" d="M2.958,0A2.958,2.958,0,1,1,-2.958,0A2.958,2.958,0,1,1,2.958,0" fill="#b41f1f62" stroke-width="2" opacity="0.8"/><path transform="translate(476.70891771908464,62.970026261061776)" d="M2.958,0A2.958,2.958,0,1,1,-2.958,0A2.958,2.958,0,1,1,2.958,0" fill="#b41f1f62" stroke-width="2" opacity="0.8"/><path transform="translate(500.9479710444152,106.93495747196175)" d="M2.958,0A2.958,2.958,0,1,1,-2.958,0A2.958,2.958,0,1,1,2.958,0" fill="#b41f1f62" stroke-width="2" opacity="0.8"/><path transform="translate(512.30680103241,109.73330324537301)" d="M2.958,0A2.958,2.958,0,1,1,-2.958,0A2.958,2.958,0,1,1,2.958,0" fill="#b41f1f62" stroke-width="2" opacity="0.8"/><path transform="translate(520.7471594717858,91.2045066488763)" d="M2.958,0A2.958,2.958,0,1,1,-2.958,0A2.958,2.958,0,1,1,2.958,0" fill="#b41f1f62" stroke-width="2" opacity="0.8"/><path transform="translate(526.123923097236,107.43282810781511)" d="M2.958,0A2.958,2.958,0,1,1,-2.958,0A2.958,2.958,0,1,1,2.958,0" fill="#b41f1f62" stroke-width="2" opacity="0.8"/><path transform="translate(534.1913360864319,91.177053872962)" d="M2.958,0A2.958,2.958,0,1,1,-2.958,0A2.958,2.958,0,1,1,2.958,0" fill="#b41f1f62" stroke-width="2" opacity="0.8"/><path transform="translate(516.4035987995171,86.41958649792923)" d="M2.958,0A2.958,2.958,0,1,1,-2.958,0A2.958,2.958,0,1,1,2.958,0" fill="#b41f1f62" stroke-width="2" opacity="0.8"/><path transform="translate(517.8999157022781,79.31197165279673)" d="M2.958,0A2.958,2.958,0,1,1,-2.958,0A2.958,2.958,0,1,1,2.958,0" fill="#b41f1f62" stroke-width="2" opacity="0.8"/><path transform="translate(483.70524631452327,60.40284137875324)" d="M2.958,0A2.958,2.958,0,1,1,-2.958,0A2.958,2.958,0,1,1,2.958,0" fill="#b41f1f62" stroke-width="2" opacity="0.8"/><path transform="translate(494.5529436254483,59.18224590084765)" d="M2.958,0A2.958,2.958,0,1,1,-2.958,0A2.958,2.958,0,1,1,2.958,0" fill="#b41f1f62" stroke-width="2" opacity="0.8"/><path transform="translate(503.14856261704426,56.67451407174667)" d="M2.958,0A2.958,2.958,0,1,1,-2.958,0A2.958,2.958,0,1,1,2.958,0" fill="#b41f1f62" stroke-width="2" opacity="0.8"/><path transform="translate(511.40404895558004,65.09164602448755)" d="M2.958,0A2.958,2.958,0,1,1,-2.958,0A2.958,2.958,0,1,1,2.958,0" fill="#b41f1f62" stroke-width="2" opacity="0.8"/><path transform="translate(523.1574328211254,59.709324066479894)" d="M2.958,0A2.958,2.958,0,1,1,-2.958,0A2.958,2.958,0,1,1,2.958,0" fill="#b41f1f62" stroke-width="2" opacity="0.8"/><path transform="translate(533.9405716206456,75.08991911738485)" d="M2.958,0A2.958,2.958,0,1,1,-2.958,0A2.958,2.958,0,1,1,2.958,0" fill="#b41f1f62" stroke-width="2" opacity="0.8"/><path transform="translate(570.4852241776684,132.6134242216276)" d="M2.958,0A2.958,2.958,0,1,1,-2.958,0A2.958,2.958,0,1,1,2.958,0" fill="#b41f1f62" stroke-width="2" opacity="0.8"/><path transform="translate(563.7241873469361,110.31266324774788)" d="M2.958,0A2.958,2.958,0,1,1,-2.958,0A2.958,2.958,0,1,1,2.958,0" fill="#b41f1f62" stroke-width="2" opacity="0.8"/><path transform="translate(551.3372230492164,109.21239629085494)" d="M2.958,0A2.958,2.958,0,1,1,-2.958,0A2.958,2.958,0,1,1,2.958,0" fill="#b41f1f62" stroke-width="2" opacity="0.8"/><path transform="translate(542.2200673229263,120.35527367727036)" d="M2.958,0A2.958,2.958,0,1,1,-2.958,0A2.958,2.958,0,1,1,2.958,0" fill="#b41f1f62" stroke-width="2" opacity="0.8"/><path transform="translate(582.0617390636226,104.44088108174174)" d="M2.958,0A2.958,2.958,0,1,1,-2.958,0A2.958,2.958,0,1,1,2.958,0" fill="#b41f1f62" stroke-width="2" opacity="0.8"/><path transform="translate(604.8556954621822,93.41249531158974)" d="M2.958,0A2.958,2.958,0,1,1,-2.958,0A2.958,2.958,0,1,1,2.958,0" fill="#b41f1f62" stroke-width="2" opacity="0.8"/><path transform="translate(600.1149132052792,116.0491742760405)" d="M2.958,0A2.958,2.958,0,1,1,-2.958,0A2.958,2.958,0,1,1,2.958,0" fill="#b41f1f62" stroke-width="2" opacity="0.8"/><path transform="translate(621.4557695558201,122.85971657955452)" d="M2.958,0A2.958,2.958,0,1,1,-2.958,0A2.958,2.958,0,1,1,2.958,0" fill="#b41f1f62" stroke-width="2" opacity="0.8"/><path transform="translate(625.0857185834307,122.56556545195326)" d="M2.958,0A2.958,2.958,0,1,1,-2.958,0A2.958,2.958,0,1,1,2.958,0" fill="#b41f1f62" stroke-width="2" opacity="0.8"/><path transform="translate(615.7959622088811,131.20378251116927)" d="M2.958,0A2.958,2.958,0,1,1,-2.958,0A2.958,2.958,0,1,1,2.958,0" fill="#b41f1f62" stroke-width="2" opacity="0.8"/><path transform="translate(508.5882841296493,124.4039882625325)" d="M2.958,0A2.958,2.958,0,1,1,-2.958,0A2.958,2.958,0,1,1,2.958,0" fill="#b41f1f62" stroke-width="2" opacity="0.8"/><path transform="translate(506.62245078030946,120.21093668835965)" d="M2.958,0A2.958,2.958,0,1,1,-2.958,0A2.958,2.958,0,1,1,2.958,0" fill="#b41f1f62" stroke-width="2" opacity="0.8"/><path transform="translate(500.8668727490972,129.41301636996468)" d="M2.958,0A2.958,2.958,0,1,1,-2.958,0A2.958,2.958,0,1,1,2.958,0" fill="#b41f1f62" stroke-width="2" opacity="0.8"/><path transform="translate(583.3211635774283,151.67134038259883)" d="M2.958,0A2.958,2.958,0,1,1,-2.958,0A2.958,2.958,0,1,1,2.958,0" fill="#b41f1f62" stroke-width="2" opacity="0.8"/><path transform="translate(577.2067789435741,151.7824210585277)" d="M2.958,0A2.958,2.958,0,1,1,-2.958,0A2.958,2.958,0,1,1,2.958,0" fill="#b41f1f62" stroke-width="2" opacity="0.8"/><path transform="translate(575.5018473469363,153.52238623787343)" d="M2.958,0A2.958,2.958,0,1,1,-2.958,0A2.958,2.958,0,1,1,2.958,0" fill="#b41f1f62" stroke-width="2" opacity="0.8"/><path transform="translate(575.9212109003579,153.6255100947319)" d="M2.958,0A2.958,2.958,0,1,1,-2.958,0A2.958,2.958,0,1,1,2.958,0" fill="#b41f1f62" stroke-width="2" opacity="0.8"/><path transform="translate(548.568943409361,121.59035717756205)" d="M2.958,0A2.958,2.958,0,1,1,-2.958,0A2.958,2.958,0,1,1,2.958,0" fill="#b41f1f62" stroke-width="2" opacity="0.8"/><path transform="translate(550.9357331332503,124.40837846402701)" d="M2.958,0A2.958,2.958,0,1,1,-2.958,0A2.958,2.958,0,1,1,2.958,0" fill="#b41f1f62" stroke-width="2" opacity="0.8"/><path transform="translate(400.3580739255681,93.35731710109667)" d="M2.958,0A2.958,2.958,0,1,1,-2.958,0A2.958,2.958,0,1,1,2.958,0" fill="#b41f1f62" stroke-width="2" opacity="0.8"/><path transform="translate(402.15984328931336,105.99354888245034)" d="M2.958,0A2.958,2.958,0,1,1,-2.958,0A2.958,2.958,0,1,1,2.958,0" fill="#b41f1f62" stroke-width="2" opacity="0.8"/><path transform="translate(405.7727189915945,119.69258315866591)" d="M2.958,0A2.958,2.958,0,1,1,-2.958,0A2.958,2.958,0,1,1,2.958,0" fill="#b41f1f62" stroke-width="2" opacity="0.8"/><path transform="translate(423.2979539015578,110.98587803219789)" d="M2.958,0A2.958,2.958,0,1,1,-2.958,0A2.958,2.958,0,1,1,2.958,0" fill="#b41f1f62" stroke-width="2" opacity="0.8"/><path transform="translate(425.5991180312103,105.33729943739127)" d="M2.958,0A2.958,2.958,0,1,1,-2.958,0A2.958,2.958,0,1,1,2.958,0" fill="#b41f1f62" stroke-width="2" opacity="0.8"/><path transform="translate(437.87723987994923,99.01023167545736)" d="M2.958,0A2.958,2.958,0,1,1,-2.958,0A2.958,2.958,0,1,1,2.958,0" fill="#b41f1f62" stroke-width="2" opacity="0.8"/><path transform="translate(457.90505080431876,102.71086298954378)" d="M2.958,0A2.958,2.958,0,1,1,-2.958,0A2.958,2.958,0,1,1,2.958,0" fill="#b41f1f62" stroke-width="2" opacity="0.8"/><path transform="translate(509.6132171908739,83.4920149032314)" d="M2.958,0A2.958,2.958,0,1,1,-2.958,0A2.958,2.958,0,1,1,2.958,0" fill="#b41f1f62" stroke-width="2" opacity="0.8"/><path transform="translate(470.98721956782447,87.74481611606234)" d="M2.958,0A2.958,2.958,0,1,1,-2.958,0A2.958,2.958,0,1,1,2.958,0" fill="#b41f1f62" stroke-width="2" opacity="0.8"/><path transform="translate(470.31415707082624,112.66353301412437)" d="M2.958,0A2.958,2.958,0,1,1,-2.958,0A2.958,2.958,0,1,1,2.958,0" fill="#b41f1f62" stroke-width="2" opacity="0.8"/><path transform="translate(459.41523978391115,96.10107219736847)" d="M2.958,0A2.958,2.958,0,1,1,-2.958,0A2.958,2.958,0,1,1,2.958,0" fill="#b41f1f62" stroke-width="2" opacity="0.8"/><path transform="translate(473.2590389195652,81.17138845689533)" d="M2.958,0A2.958,2.958,0,1,1,-2.958,0A2.958,2.958,0,1,1,2.958,0" fill="#b41f1f62" stroke-width="2" opacity="0.8"/><path transform="translate(471.0944613925549,79.60082727427198)" d="M2.958,0A2.958,2.958,0,1,1,-2.958,0A2.958,2.958,0,1,1,2.958,0" fill="#b41f1f62" stroke-width="2" opacity="0.8"/><path transform="translate(504.68062679471495,120.31027130433495)" d="M2.958,0A2.958,2.958,0,1,1,-2.958,0A2.958,2.958,0,1,1,2.958,0" fill="#b41f1f62" stroke-width="2" opacity="0.8"/><path transform="translate(517.5712541896737,116.1103705176879)" d="M2.958,0A2.958,2.958,0,1,1,-2.958,0A2.958,2.958,0,1,1,2.958,0" fill="#b41f1f62" stroke-width="2" opacity="0.8"/><path transform="translate(514.5746188235266,122.60507836703755)" d="M2.958,0A2.958,2.958,0,1,1,-2.958,0A2.958,2.958,0,1,1,2.958,0" fill="#b41f1f62" stroke-width="2" opacity="0.8"/><path transform="translate(508.1136990396135,128.73395556588548)" d="M2.958,0A2.958,2.958,0,1,1,-2.958,0A2.958,2.958,0,1,1,2.958,0" fill="#b41f1f62" stroke-width="2" opacity="0.8"/><path transform="translate(510.5103670828307,140.17690418350594)" d="M2.958,0A2.958,2.958,0,1,1,-2.958,0A2.958,2.958,0,1,1,2.958,0" fill="#b41f1f62" stroke-width="2" opacity="0.8"/><path transform="translate(516.4884318847508,142.44522942394633)" d="M2.958,0A2.958,2.958,0,1,1,-2.958,0A2.958,2.958,0,1,1,2.958,0" fill="#b41f1f62" stroke-width="2" opacity="0.8"/><path transform="translate(534.9158853301296,122.40449519652793)" d="M2.958,0A2.958,2.958,0,1,1,-2.958,0A2.958,2.958,0,1,1,2.958,0" fill="#b41f1f62" stroke-width="2" opacity="0.8"/><path transform="translate(528.2001995198057,144.0694107624604)" d="M2.958,0A2.958,2.958,0,1,1,-2.958,0A2.958,2.958,0,1,1,2.958,0" fill="#b41f1f62" stroke-width="2" opacity="0.8"/><path transform="translate(524.7313799999979,135.12206145495657)" d="M2.958,0A2.958,2.958,0,1,1,-2.958,0A2.958,2.958,0,1,1,2.958,0" fill="#b41f1f62" stroke-width="2" opacity="0.8"/><path transform="translate(571.6603491476567,151.1088030182027)" d="M2.958,0A2.958,2.958,0,1,1,-2.958,0A2.958,2.958,0,1,1,2.958,0" fill="#b41f1f62" stroke-width="2" opacity="0.8"/><path transform="translate(557.2958135894332,131.51051523024034)" d="M2.958,0A2.958,2.958,0,1,1,-2.958,0A2.958,2.958,0,1,1,2.958,0" fill="#b41f1f62" stroke-width="2" opacity="0.8"/><path transform="translate(547.1731990636226,134.35362318547186)" d="M2.958,0A2.958,2.958,0,1,1,-2.958,0A2.958,2.958,0,1,1,2.958,0" fill="#b41f1f62" stroke-width="2" opacity="0.8"/><path transform="translate(552.2709205282081,155.65339695313423)" d="M2.958,0A2.958,2.958,0,1,1,-2.958,0A2.958,2.958,0,1,1,2.958,0" fill="#b41f1f62" stroke-width="2" opacity="0.8"/><path transform="translate(560.3097890516183,167.0318830586316)" d="M2.958,0A2.958,2.958,0,1,1,-2.958,0A2.958,2.958,0,1,1,2.958,0" fill="#b41f1f62" stroke-width="2" opacity="0.8"/><path transform="translate(582.779885810321,168.2806218472224)" d="M2.958,0A2.958,2.958,0,1,1,-2.958,0A2.958,2.958,0,1,1,2.958,0" fill="#b41f1f62" stroke-width="2" opacity="0.8"/><path transform="translate(580.6649276350508,174.20070475999546)" d="M2.958,0A2.958,2.958,0,1,1,-2.958,0A2.958,2.958,0,1,1,2.958,0" fill="#b41f1f62" stroke-width="2" opacity="0.8"/><path transform="translate(608.1393761104409,174.48201273187715)" d="M2.958,0A2.958,2.958,0,1,1,-2.958,0A2.958,2.958,0,1,1,2.958,0" fill="#b41f1f62" stroke-width="2" opacity="0.8"/><path transform="translate(569.5155126530585,166.7291549497304)" d="M2.958,0A2.958,2.958,0,1,1,-2.958,0A2.958,2.958,0,1,1,2.958,0" fill="#b41f1f62" stroke-width="2" opacity="0.8"/><path transform="translate(581.4182881152428,167.07986972388653)" d="M2.958,0A2.958,2.958,0,1,1,-2.958,0A2.958,2.958,0,1,1,2.958,0" fill="#b41f1f62" stroke-width="2" opacity="0.8"/><path transform="translate(600.0815668667433,154.61121242677973)" d="M2.958,0A2.958,2.958,0,1,1,-2.958,0A2.958,2.958,0,1,1,2.958,0" fill="#b41f1f62" stroke-width="2" opacity="0.8"/><path transform="translate(596.2251295078004,146.6634640681732)" d="M2.958,0A2.958,2.958,0,1,1,-2.958,0A2.958,2.958,0,1,1,2.958,0" fill="#b41f1f62" stroke-width="2" opacity="0.8"/><path transform="translate(609.9376774549792,141.2536072203011)" d="M2.958,0A2.958,2.958,0,1,1,-2.958,0A2.958,2.958,0,1,1,2.958,0" fill="#b41f1f62" stroke-width="2" opacity="0.8"/><path transform="translate(611.6351394717863,147.5126740277119)" d="M2.958,0A2.958,2.958,0,1,1,-2.958,0A2.958,2.958,0,1,1,2.958,0" fill="#b41f1f62" stroke-width="2" opacity="0.8"/><path transform="translate(669.8431741656632,204.9691688252342)" d="M2.958,0A2.958,2.958,0,1,1,-2.958,0A2.958,2.958,0,1,1,2.958,0" fill="#b41f1f62" stroke-width="2" opacity="0.8"/><path transform="translate(706.5188111404532,184.626945695632)" d="M2.958,0A2.958,2.958,0,1,1,-2.958,0A2.958,2.958,0,1,1,2.958,0" fill="#b41f1f62" stroke-width="2" opacity="0.8"/><path transform="translate(699.4723296518578,186.35042120713115)" d="M2.958,0A2.958,2.958,0,1,1,-2.958,0A2.958,2.958,0,1,1,2.958,0" fill="#b41f1f62" stroke-width="2" opacity="0.8"/><path transform="translate(698.6816212725057,187.48695303564864)" d="M2.958,0A2.958,2.958,0,1,1,-2.958,0A2.958,2.958,0,1,1,2.958,0" fill="#b41f1f62" stroke-width="2" opacity="0.8"/><path transform="translate(694.6720575270074,186.78902720793076)" d="M2.958,0A2.958,2.958,0,1,1,-2.958,0A2.958,2.958,0,1,1,2.958,0" fill="#b41f1f62" stroke-width="2" opacity="0.8"/><path transform="translate(702.1867216086398,183.72064334219158)" d="M2.958,0A2.958,2.958,0,1,1,-2.958,0A2.958,2.958,0,1,1,2.958,0" fill="#b41f1f62" stroke-width="2" opacity="0.8"/><path transform="translate(698.4735401200446,184.34348766882204)" d="M2.958,0A2.958,2.958,0,1,1,-2.958,0A2.958,2.958,0,1,1,2.958,0" fill="#b41f1f62" stroke-width="2" opacity="0.8"/><path transform="translate(695.961360360141,185.01128433650456)" d="M2.958,0A2.958,2.958,0,1,1,-2.958,0A2.958,2.958,0,1,1,2.958,0" fill="#b41f1f62" stroke-width="2" opacity="0.8"/><path transform="translate(694.7022026170434,185.27609839635443)" d="M2.958,0A2.958,2.958,0,1,1,-2.958,0A2.958,2.958,0,1,1,2.958,0" fill="#b41f1f62" stroke-width="2" opacity="0.8"/><path transform="translate(693.3622133493363,185.458123183133)" d="M2.958,0A2.958,2.958,0,1,1,-2.958,0A2.958,2.958,0,1,1,2.958,0" fill="#b41f1f62" stroke-width="2" opacity="0.8"/><path transform="translate(691.7917341896732,186.78272226718582)" d="M2.958,0A2.958,2.958,0,1,1,-2.958,0A2.958,2.958,0,1,1,2.958,0" fill="#b41f1f62" stroke-width="2" opacity="0.8"/><path transform="translate(685.3249454501774,187.13826516480776)" d="M2.958,0A2.958,2.958,0,1,1,-2.958,0A2.958,2.958,0,1,1,2.958,0" fill="#b41f1f62" stroke-width="2" opacity="0.8"/><path transform="translate(737.7685986794686,157.26463663066897)" d="M2.958,0A2.958,2.958,0,1,1,-2.958,0A2.958,2.958,0,1,1,2.958,0" fill="#b41f1f62" stroke-width="2" opacity="0.8"/><path transform="translate(742.0734775990363,139.73798832122793)" d="M2.958,0A2.958,2.958,0,1,1,-2.958,0A2.958,2.958,0,1,1,2.958,0" fill="#b41f1f62" stroke-width="2" opacity="0.8"/><path transform="translate(648.552737478989,166.70008859092468)" d="M2.958,0A2.958,2.958,0,1,1,-2.958,0A2.958,2.958,0,1,1,2.958,0" fill="#b41f1f62" stroke-width="2" opacity="0.8"/><path transform="translate(658.0575110444142,183.1907276117272)" d="M2.958,0A2.958,2.958,0,1,1,-2.958,0A2.958,2.958,0,1,1,2.958,0" fill="#b41f1f62" stroke-width="2" opacity="0.8"/><path transform="translate(635.161381464583,176.79275072528617)" d="M2.958,0A2.958,2.958,0,1,1,-2.958,0A2.958,2.958,0,1,1,2.958,0" fill="#b41f1f62" stroke-width="2" opacity="0.8"/><path transform="translate(608.9066086674643,182.11141900865414)" d="M2.958,0A2.958,2.958,0,1,1,-2.958,0A2.958,2.958,0,1,1,2.958,0" fill="#b41f1f62" stroke-width="2" opacity="0.8"/><path transform="translate(640.5592199759872,169.66396873884014)" d="M2.958,0A2.958,2.958,0,1,1,-2.958,0A2.958,2.958,0,1,1,2.958,0" fill="#b41f1f62" stroke-width="2" opacity="0.8"/><path transform="translate(649.3895971908737,186.6689591031377)" d="M2.958,0A2.958,2.958,0,1,1,-2.958,0A2.958,2.958,0,1,1,2.958,0" fill="#b41f1f62" stroke-width="2" opacity="0.8"/><path transform="translate(681.2537576710656,201.76513820038736)" d="M2.958,0A2.958,2.958,0,1,1,-2.958,0A2.958,2.958,0,1,1,2.958,0" fill="#b41f1f62" stroke-width="2" opacity="0.8"/><path transform="translate(672.5527642496963,193.88773690877179)" d="M2.958,0A2.958,2.958,0,1,1,-2.958,0A2.958,2.958,0,1,1,2.958,0" fill="#b41f1f62" stroke-width="2" opacity="0.8"/><path transform="translate(677.221785186071,183.81357691157837)" d="M2.958,0A2.958,2.958,0,1,1,-2.958,0A2.958,2.958,0,1,1,2.958,0" fill="#b41f1f62" stroke-width="2" opacity="0.8"/><path transform="translate(717.675162160861,204.4736791496589)" d="M2.958,0A2.958,2.958,0,1,1,-2.958,0A2.958,2.958,0,1,1,2.958,0" fill="#b41f1f62" stroke-width="2" opacity="0.8"/><path transform="translate(715.3009028571396,178.59867837053753)" d="M2.958,0A2.958,2.958,0,1,1,-2.958,0A2.958,2.958,0,1,1,2.958,0" fill="#b41f1f62" stroke-width="2" opacity="0.8"/><path transform="translate(719.7148909963958,188.09249232415368)" d="M2.958,0A2.958,2.958,0,1,1,-2.958,0A2.958,2.958,0,1,1,2.958,0" fill="#b41f1f62" stroke-width="2" opacity="0.8"/><path transform="translate(737.423130612241,189.8106697336857)" d="M2.958,0A2.958,2.958,0,1,1,-2.958,0A2.958,2.958,0,1,1,2.958,0" fill="#b41f1f62" stroke-width="2" opacity="0.8"/><path transform="translate(746.7331615606213,171.00835127540086)" d="M2.958,0A2.958,2.958,0,1,1,-2.958,0A2.958,2.958,0,1,1,2.958,0" fill="#b41f1f62" stroke-width="2" opacity="0.8"/><path transform="translate(754.8907430492163,181.30734050474985)" d="M2.958,0A2.958,2.958,0,1,1,-2.958,0A2.958,2.958,0,1,1,2.958,0" fill="#b41f1f62" stroke-width="2" opacity="0.8"/><path transform="translate(722.0195231452544,182.60625279318128)" d="M2.958,0A2.958,2.958,0,1,1,-2.958,0A2.958,2.958,0,1,1,2.958,0" fill="#b41f1f62" stroke-width="2" opacity="0.8"/><path transform="translate(772.741438223286,150.9028215320377)" d="M2.958,0A2.958,2.958,0,1,1,-2.958,0A2.958,2.958,0,1,1,2.958,0" fill="#b41f1f62" stroke-width="2" opacity="0.8"/><path transform="translate(765.3220112845102,167.688886030483)" d="M2.958,0A2.958,2.958,0,1,1,-2.958,0A2.958,2.958,0,1,1,2.958,0" fill="#b41f1f62" stroke-width="2" opacity="0.8"/><path transform="translate(776.8515745258069,179.63883965153764)" d="M2.958,0A2.958,2.958,0,1,1,-2.958,0A2.958,2.958,0,1,1,2.958,0" fill="#b41f1f62" stroke-width="2" opacity="0.8"/><path transform="translate(794.2543616806688,152.38499617373964)" d="M2.958,0A2.958,2.958,0,1,1,-2.958,0A2.958,2.958,0,1,1,2.958,0" fill="#b41f1f62" stroke-width="2" opacity="0.8"/><path transform="translate(791.3508292917136,167.22300688408495)" d="M2.958,0A2.958,2.958,0,1,1,-2.958,0A2.958,2.958,0,1,1,2.958,0" fill="#b41f1f62" stroke-width="2" opacity="0.8"/><path transform="translate(774.8849408643423,166.13137254448839)" d="M2.958,0A2.958,2.958,0,1,1,-2.958,0A2.958,2.958,0,1,1,2.958,0" fill="#b41f1f62" stroke-width="2" opacity="0.8"/><path transform="translate(700.1627322448949,154.94773012804035)" d="M2.958,0A2.958,2.958,0,1,1,-2.958,0A2.958,2.958,0,1,1,2.958,0" fill="#b41f1f62" stroke-width="2" opacity="0.8"/><path transform="translate(723.1383594957952,136.12998859726576)" d="M2.958,0A2.958,2.958,0,1,1,-2.958,0A2.958,2.958,0,1,1,2.958,0" fill="#b41f1f62" stroke-width="2" opacity="0.8"/><path transform="translate(705.7819904441744,136.4150256055418)" d="M2.958,0A2.958,2.958,0,1,1,-2.958,0A2.958,2.958,0,1,1,2.958,0" fill="#b41f1f62" stroke-width="2" opacity="0.8"/><path transform="translate(748.3673989195645,135.7782857868424)" d="M2.958,0A2.958,2.958,0,1,1,-2.958,0A2.958,2.958,0,1,1,2.958,0" fill="#b41f1f62" stroke-width="2" opacity="0.8"/><path transform="translate(741.5868878271276,119.20550819590744)" d="M2.958,0A2.958,2.958,0,1,1,-2.958,0A2.958,2.958,0,1,1,2.958,0" fill="#b41f1f62" stroke-width="2" opacity="0.8"/><path transform="translate(773.3331356542585,130.41965959717618)" d="M2.958,0A2.958,2.958,0,1,1,-2.958,0A2.958,2.958,0,1,1,2.958,0" fill="#b41f1f62" stroke-width="2" opacity="0.8"/><path transform="translate(629.5925429291688,137.43280884873593)" d="M2.958,0A2.958,2.958,0,1,1,-2.958,0A2.958,2.958,0,1,1,2.958,0" fill="#b41f1f62" stroke-width="2" opacity="0.8"/><path transform="translate(629.3761918847508,148.93019385877233)" d="M2.958,0A2.958,2.958,0,1,1,-2.958,0A2.958,2.958,0,1,1,2.958,0" fill="#b41f1f62" stroke-width="2" opacity="0.8"/><path transform="translate(676.1216227851114,165.05918963060594)" d="M2.958,0A2.958,2.958,0,1,1,-2.958,0A2.958,2.958,0,1,1,2.958,0" fill="#b41f1f62" stroke-width="2" opacity="0.8"/></g><g class="mark-group role-title"><g transform="translate(-0.5,-22)"><path class="background" aria-hidden="true" d="M0,0h0v0h0Z" pointer-events="none"/><g><g class="mark-text role-title-text" role="graphics-symbol" aria-roledescription="title" aria-label="Title text 'Survey Clusters in Gambia'" pointer-events="none"><text text-anchor="start" transform="translate(0,14)" font-family="sans-serif" font-size="18px" font-weight="600" fill="#000" opacity="1">Survey Clusters in Gambia</text></g></g><path class="foreground" aria-hidden="true" d="" pointer-events="none" display="none"/></g></g></g><path class="foreground" aria-hidden="true" d="" display="none"/></g></g></g></svg>