<svg xmlns="http://www.w3.org/2000/svg" xmlns:xlink="http://www.w3.org/1999/xlink" version="1.1" class="marks" width="992" height="413" viewBox="0 0 992 413"><rect width="992" height="413" fill="white"/><g fill="none" stroke-miterlimit="10" transform="translate(198,28)"><g class="mark-group role-frame root" role="graphics-object" aria-roledescription="group mark container"><g transform="translate(0,0)"><path class="background" aria-hidden="true" d="M0,0h600v0h-600Z"/><g><g class="mark-group role-scope concat_0_group" role="graphics-object" aria-roledescription="group mark container"><g transform="translate(0,0)"><path class="background" aria-hidden="true" d="M0.5,0.5h600v300h-600Z" stroke="#ddd"/><g><g class="mark-group role-axis" aria-hidden="true"><g transform="translate(0.5,300.5)"><path class="background" aria-hidden="true" d="M0,0h0v0h0Z" pointer-events="none"/><g><g class="mark-rule role-axis-grid" pointer-events="none"><line transform="translate(0,0)" x2="0" y2="-300" stroke="#ddd" stroke-width="1" opacity="1"/><line transform="translate(46,0)" x2="0" y2="-300" stroke="#ddd" stroke-width="1" opacity="1"/><line transform="translate(92,0)" x2="0" y2="-300" stroke="#ddd" stroke-width="1" opacity="1"/><line transform="translate(138,0)" x2="0" y2="-300" stroke="#ddd" stroke-width="1" opacity="1"/><line transform="translate(185,0)" x2="0" y2="-300" stroke="#ddd" stroke-width="1" opacity="1"/><line transform="translate(231,0)" x2="0" y2="-300" stroke="#ddd" stroke-width="1" opacity="1"/><line transform="translate(277,0)" x2="0" y2="-300" stroke="#ddd" stroke-width="1" opacity="1"/><line transform="translate(323,0)" x2="0" y2="-300" stroke="#ddd" stroke-width="1" opacity="1"/><line transform="translate(369,0)" x2="0" y2="-300" stroke="#ddd" stroke-width="1" opacity="1"/><line transform="translate(415,0)" x2="0" y2="-300" stroke="#ddd" stroke-width="1" opacity="1"/><line transform="translate(462,0)" x2="0" y2="-300" stroke="#ddd" stroke-width="1" opacity="1"/><line transform="translate(508,0)" x2="0" y2="-300" stroke="#ddd" stroke-width="1" opacity="1"/><line transform="translate(554,0)" x2="0" y2="-300" stroke="#ddd" stroke-width="1" opacity="1"/><line transform="translate(600,0)" x2="0" y2="-300" stroke="#ddd" stroke-width="1" opacity="1"/></g></g><path class="foreground" aria-hidden="true" d="" pointer-events="none" display="none"/></g></g><g class="mark-group role-axis" role="graphics-symbol" aria-roledescription="axis" aria-label="X-axis titled 'Mean Temperature Exposure (째C)' for a linear scale with values from 31.4 to 32.1"><g transform="translate(0.5,300.5)"><path class="background" aria-hidden="true" d="M0,0h0v0h0Z" pointer-events="none"/><g><g class="mark-rule role-axis-tick" pointer-events="none"><line transform="translate(0,0)" x2="0" y2="5" stroke="#888" stroke-width="1" opacity="1"/><line transform="translate(46,0)" x2="0" y2="5" stroke="#888" stroke-width="1" opacity="1"/><line transform="translate(92,0)" x2="0" y2="5" stroke="#888" stroke-width="1" opacity="1"/><line transform="translate(138,0)" x2="0" y2="5" stroke="#888" stroke-width="1" opacity="1"/><line transform="translate(185,0)" x2="0" y2="5" stroke="#888" stroke-width="1" opacity="1"/><line transform="translate(231,0)" x2="0" y2="5" stroke="#888" stroke-width="1" opacity="1"/><line transform="translate(277,0)" x2="0" y2="5" stroke="#888" stroke-width="1" opacity="1"/><line transform="translate(323,0)" x2="0" y2="5" stroke="#888" stroke-width="1" opacity="1"/><line transform="translate(369,0)" x2="0" y2="5" stroke="#888" stroke-width="1" opacity="1"/><line transform="translate(415,0)" x2="0" y2="5" stroke="#888" stroke-width="1" opacity="1"/><line transform="translate(462,0)" x2="0" y2="5" stroke="#888" stroke-width="1" opacity="1"/><line transform="translate(508,0)" x2="0" y2="5" stroke="#888" stroke-width="1" opacity="1"/><line transform="translate(554,0)" x2="0" y2="5" stroke="#888" stroke-width="1" opacity="1"/><line transform="translate(600,0)" x2="0" y2="5" stroke="#888" stroke-width="1" opacity="1"/></g><g class="mark-text role-axis-label" pointer-events="none"><text text-anchor="start" transform="translate(0,17)" font-family="sans-serif" font-size="13px" fill="#000" opacity="1">31.45</text><text text-anchor="middle" transform="translate(46.15384615384666,17)" font-family="sans-serif" font-size="13px" fill="#000" opacity="0">31.50</text><text text-anchor="middle" transform="translate(92.30769230769332,17)" font-family="sans-serif" font-size="13px" fill="#000" opacity="1">31.55</text><text text-anchor="middle" transform="translate(138.46153846153996,17)" font-family="sans-serif" font-size="13px" fill="#000" opacity="0">31.60</text><text text-anchor="middle" transform="translate(184.61538461538336,17)" font-family="sans-serif" font-size="13px" fill="#000" opacity="1">31.65</text><text text-anchor="middle" transform="translate(230.76923076923,17)" font-family="sans-serif" font-size="13px" fill="#000" opacity="0">31.70</text><text text-anchor="middle" transform="translate(276.9230769230767,17)" font-family="sans-serif" font-size="13px" fill="#000" opacity="1">31.75</text><text text-anchor="middle" transform="translate(323.0769230769233,17)" font-family="sans-serif" font-size="13px" fill="#000" opacity="0">31.80</text><text text-anchor="middle" transform="translate(369.23076923076997,17)" font-family="sans-serif" font-size="13px" fill="#000" opacity="1">31.85</text><text text-anchor="middle" transform="translate(415.38461538461337,17)" font-family="sans-serif" font-size="13px" fill="#000" opacity="0">31.90</text><text text-anchor="middle" transform="translate(461.53846153846,17)" font-family="sans-serif" font-size="13px" fill="#000" opacity="1">31.95</text><text text-anchor="middle" transform="translate(507.6923076923067,17)" font-family="sans-serif" font-size="13px" fill="#000" opacity="0">32.00</text><text text-anchor="middle" transform="translate(553.8461538461501,17)" font-family="sans-serif" font-size="13px" fill="#000" opacity="1">32.05</text><text text-anchor="end" transform="translate(600,17)" font-family="sans-serif" font-size="13px" fill="#000" opacity="0">32.10</text></g><g class="mark-rule role-axis-domain" pointer-events="none"><line transform="translate(0,0)" x2="600" y2="0" stroke="#888" stroke-width="1" opacity="1"/></g><g class="mark-text role-axis-title" pointer-events="none"><text text-anchor="middle" transform="translate(300,36)" font-family="sans-serif" font-size="15px" font-weight="600" fill="#000" opacity="1">Mean Temperature Exposure (째C)</text></g></g><path class="foreground" aria-hidden="true" d="" pointer-events="none" display="none"/></g></g><g class="mark-group role-axis" role="graphics-symbol" aria-roledescription="axis" aria-label="Y-axis titled 'Discipline Type' for a discrete scale with 4 values: Nonviolent Discipline, Psychological Aggression, Physical Punishment, Severe Physical Punishment"><g transform="translate(0.5,0.5)"><path class="background" aria-hidden="true" d="M0,0h0v0h0Z" pointer-events="none"/><g><g class="mark-rule role-axis-tick" pointer-events="none"><line transform="translate(0,37)" x2="-5" y2="0" stroke="#888" stroke-width="1" opacity="1"/><line transform="translate(0,112)" x2="-5" y2="0" stroke="#888" stroke-width="1" opacity="1"/><line transform="translate(0,187)" x2="-5" y2="0" stroke="#888" stroke-width="1" opacity="1"/><line transform="translate(0,262)" x2="-5" y2="0" stroke="#888" stroke-width="1" opacity="1"/></g><g class="mark-text role-axis-label" pointer-events="none"><text text-anchor="end" transform="translate(-7,41)" font-family="sans-serif" font-size="13px" fill="#000" opacity="1">Nonviolent Discipline</text><text text-anchor="end" transform="translate(-7,116)" font-family="sans-serif" font-size="13px" fill="#000" opacity="1">Psychological Aggression</text><text text-anchor="end" transform="translate(-7,191)" font-family="sans-serif" font-size="13px" fill="#000" opacity="1">Physical Punishment</text><text text-anchor="end" transform="translate(-7,266)" font-family="sans-serif" font-size="13px" fill="#000" opacity="1">Severe Physical Punishment</text></g><g class="mark-rule role-axis-domain" pointer-events="none"><line transform="translate(0,0)" x2="0" y2="300" stroke="#888" stroke-width="1" opacity="1"/></g><g class="mark-text role-axis-title" pointer-events="none"><text text-anchor="middle" transform="translate(-176.470703125,150) rotate(-90) translate(0,-3)" font-family="sans-serif" font-size="15px" font-weight="600" fill="#000" opacity="1">Discipline Type</text></g></g><path class="foreground" aria-hidden="true" d="" pointer-events="none" display="none"/></g></g><g class="mark-rule role-mark concat_0_layer_0_marks" role="graphics-symbol" aria-roledescription="rule mark container"><line transform="translate(35.89310430629655,37.5)" x2="105.05937140869858" y2="0" stroke="black"/><line transform="translate(126.65840201725436,112.5)" x2="109.20474136994784" y2="0" stroke="black"/><line transform="translate(186.00732688946604,187.5)" x2="123.74206906408395" y2="0" stroke="black"/><line transform="translate(450.9185420472801,262.5)" x2="134.17497465169254" y2="0" stroke="black"/></g><g class="mark-symbol role-mark concat_0_layer_1_marks" role="graphics-symbol" aria-roledescription="symbol mark container"><path transform="translate(88.42279001064584,37.5)" d="M6.124,0A6.124,6.124,0,1,1,-6.124,0A6.124,6.124,0,1,1,6.124,0" fill="#fef3c7" stroke-width="2" opacity="0.7"/><path transform="translate(181.26077270222828,112.5)" d="M6.124,0A6.124,6.124,0,1,1,-6.124,0A6.124,6.124,0,1,1,6.124,0" fill="#fcd34d" stroke-width="2" opacity="0.7"/><path transform="translate(247.87836142150803,187.5)" d="M6.124,0A6.124,6.124,0,1,1,-6.124,0A6.124,6.124,0,1,1,6.124,0" fill="#f97316" stroke-width="2" opacity="0.7"/><path transform="translate(518.0060293731264,262.5)" d="M6.124,0A6.124,6.124,0,1,1,-6.124,0A6.124,6.124,0,1,1,6.124,0" fill="#b91c1c" stroke-width="2" opacity="0.7"/></g><g class="mark-group role-title"><g transform="translate(-191.470703125,-22)"><path class="background" aria-hidden="true" d="M0,0h0v0h0Z" pointer-events="none"/><g><g class="mark-text role-title-text" role="graphics-symbol" aria-roledescription="title" aria-label="Title text 'Mean Temperature Exposure 6 months before interview, by discipline type'" pointer-events="none"><text text-anchor="start" transform="translate(0,14)" font-family="sans-serif" font-size="18px" font-weight="600" fill="#000" opacity="1">Mean Temperature Exposure 6 months before interview, by discipline type</text></g></g><path class="foreground" aria-hidden="true" d="" pointer-events="none" display="none"/></g></g></g><path class="foreground" aria-hidden="true" d="" display="none"/></g></g><g class="mark-group role-scope concat_1_group" role="graphics-object" aria-roledescription="group mark container"><g transform="translate(0,345)"><path class="background" aria-hidden="true" d="M0,0h600v30h-600Z"/><g><g class="mark-text role-mark concat_1_marks" role="graphics-object" aria-roledescription="text mark container"><text text-anchor="start" transform="translate(0,33)" font-family="sans-serif" font-size="10px" fill="gray">Note: Points show mean temperature; error bars show 95% confidence intervals. Gradient from 31.3째C to 32.0째C.</text></g></g><path class="foreground" aria-hidden="true" d="" display="none"/></g></g><g class="mark-group role-legend" role="graphics-symbol" aria-roledescription="legend" aria-label="Symbol legend titled 'Discipline Type' for fill color with 4 values: Nonviolent Discipline, Psychological Aggression, Physical Punishment, Severe Physical Punishment"><g transform="translate(620,0)"><path class="background" aria-hidden="true" d="M0,0h169v72h-169Z" pointer-events="none"/><g><g class="mark-group role-legend-entry"><g transform="translate(0,18)"><path class="background" aria-hidden="true" d="M0,0h0v0h0Z" pointer-events="none"/><g><g class="mark-group role-scope" role="graphics-object" aria-roledescription="group mark container"><g transform="translate(0,0)"><path class="background" aria-hidden="true" d="M0,0h168.7421875v12h-168.7421875Z" pointer-events="none" opacity="1"/><g><g class="mark-symbol role-legend-symbol" pointer-events="none"><path transform="translate(6,6)" d="M5,0A5,5,0,1,1,-5,0A5,5,0,1,1,5,0" fill="#fef3c7" stroke-width="1.5" opacity="0.7"/></g><g class="mark-text role-legend-label" pointer-events="none"><text text-anchor="start" transform="translate(16,10)" font-family="sans-serif" font-size="12px" fill="#000" opacity="1">Nonviolent Discipline</text></g></g><path class="foreground" aria-hidden="true" d="" pointer-events="none" display="none"/></g><g transform="translate(0,14)"><path class="background" aria-hidden="true" d="M0,0h168.7421875v12h-168.7421875Z" pointer-events="none" opacity="1"/><g><g class="mark-symbol role-legend-symbol" pointer-events="none"><path transform="translate(6,6)" d="M5,0A5,5,0,1,1,-5,0A5,5,0,1,1,5,0" fill="#fcd34d" stroke-width="1.5" opacity="0.7"/></g><g class="mark-text role-legend-label" pointer-events="none"><text text-anchor="start" transform="translate(16,10)" font-family="sans-serif" font-size="12px" fill="#000" opacity="1">Psychological Aggression</text></g></g><path class="foreground" aria-hidden="true" d="" pointer-events="none" display="none"/></g><g transform="translate(0,28)"><path class="background" aria-hidden="true" d="M0,0h168.7421875v12h-168.7421875Z" pointer-events="none" opacity="1"/><g><g class="mark-symbol role-legend-symbol" pointer-events="none"><path transform="translate(6,6)" d="M5,0A5,5,0,1,1,-5,0A5,5,0,1,1,5,0" fill="#f97316" stroke-width="1.5" opacity="0.7"/></g><g class="mark-text role-legend-label" pointer-events="none"><text text-anchor="start" transform="translate(16,10)" font-family="sans-serif" font-size="12px" fill="#000" opacity="1">Physical Punishment</text></g></g><path class="foreground" aria-hidden="true" d="" pointer-events="none" display="none"/></g><g transform="translate(0,42)"><path class="background" aria-hidden="true" d="M0,0h168.7421875v12h-168.7421875Z" pointer-events="none" opacity="1"/><g><g class="mark-symbol role-legend-symbol" pointer-events="none"><path transform="translate(6,6)" d="M5,0A5,5,0,1,1,-5,0A5,5,0,1,1,5,0" fill="#b91c1c" stroke-width="1.5" opacity="0.7"/></g><g class="mark-text role-legend-label" pointer-events="none"><text text-anchor="start" transform="translate(16,10)" font-family="sans-serif" font-size="12px" fill="#000" opacity="1">Severe Physical Punishment</text></g></g><path class="foreground" aria-hidden="true" d="" pointer-events="none" display="none"/></g></g></g><path class="foreground" aria-hidden="true" d="" pointer-events="none" display="none"/></g></g><g class="mark-text role-legend-title" pointer-events="none"><text text-anchor="start" transform="translate(0,10)" font-family="sans-serif" font-size="13px" font-weight="bold" fill="#000" opacity="1">Discipline Type</text></g></g><path class="foreground" aria-hidden="true" d="" pointer-events="none" display="none"/></g></g></g><path class="foreground" aria-hidden="true" d="" display="none"/></g></g></g></svg>