<svg xmlns="http://www.w3.org/2000/svg" xmlns:xlink="http://www.w3.org/1999/xlink" version="1.1" class="marks" width="1183" height="516" viewBox="0 0 1183 516"><rect width="1183" height="516" fill="white"/><g fill="none" stroke-miterlimit="10" transform="translate(170,27)"><g class="mark-group role-frame root" role="graphics-object" aria-roledescription="group mark container"><g transform="translate(0,0)"><path class="background" aria-hidden="true" d="M0,0h700v0h-700Z"/><g><g class="mark-group role-scope concat_0_group" role="graphics-object" aria-roledescription="group mark container"><g transform="translate(0,0)"><path class="background" aria-hidden="true" d="M0,0h700v400h-700Z" stroke="#ddd" stroke-width="0"/><g><g class="mark-group role-axis" aria-hidden="true"><g transform="translate(0.5,400.5)"><path class="background" aria-hidden="true" d="M0,0h0v0h0Z" pointer-events="none"/><g><g class="mark-rule role-axis-grid" pointer-events="none"><line transform="translate(0,-400)" x2="0" y2="400" stroke="#ddd" stroke-width="1" opacity="1"/><line transform="translate(32,-400)" x2="0" y2="400" stroke="#ddd" stroke-width="1" opacity="1"/><line transform="translate(64,-400)" x2="0" y2="400" stroke="#ddd" stroke-width="1" opacity="1"/><line transform="translate(95,-400)" x2="0" y2="400" stroke="#ddd" stroke-width="1" opacity="1"/><line transform="translate(127,-400)" x2="0" y2="400" stroke="#ddd" stroke-width="1" opacity="1"/><line transform="translate(159,-400)" x2="0" y2="400" stroke="#ddd" stroke-width="1" opacity="1"/><line transform="translate(191,-400)" x2="0" y2="400" stroke="#ddd" stroke-width="1" opacity="1"/><line transform="translate(223,-400)" x2="0" y2="400" stroke="#ddd" stroke-width="1" opacity="1"/><line transform="translate(255,-400)" x2="0" y2="400" stroke="#ddd" stroke-width="1" opacity="1"/><line transform="translate(286,-400)" x2="0" y2="400" stroke="#ddd" stroke-width="1" opacity="1"/><line transform="translate(318,-400)" x2="0" y2="400" stroke="#ddd" stroke-width="1" opacity="1"/><line transform="translate(350,-400)" x2="0" y2="400" stroke="#ddd" stroke-width="1" opacity="1"/><line transform="translate(382,-400)" x2="0" y2="400" stroke="#ddd" stroke-width="1" opacity="1"/><line transform="translate(414,-400)" x2="0" y2="400" stroke="#ddd" stroke-width="1" opacity="1"/><line transform="translate(445,-400)" x2="0" y2="400" stroke="#ddd" stroke-width="1" opacity="1"/><line transform="translate(477,-400)" x2="0" y2="400" stroke="#ddd" stroke-width="1" opacity="1"/><line transform="translate(509,-400)" x2="0" y2="400" stroke="#ddd" stroke-width="1" opacity="1"/><line transform="translate(541,-400)" x2="0" y2="400" stroke="#ddd" stroke-width="1" opacity="1"/><line transform="translate(573,-400)" x2="0" y2="400" stroke="#ddd" stroke-width="1" opacity="1"/><line transform="translate(605,-400)" x2="0" y2="400" stroke="#ddd" stroke-width="1" opacity="1"/><line transform="translate(636,-400)" x2="0" y2="400" stroke="#ddd" stroke-width="1" opacity="1"/><line transform="translate(668,-400)" x2="0" y2="400" stroke="#ddd" stroke-width="1" opacity="1"/><line transform="translate(700,-400)" x2="0" y2="400" stroke="#ddd" stroke-width="1" opacity="1"/></g></g><path class="foreground" aria-hidden="true" d="" pointer-events="none" display="none"/></g></g><g class="mark-group role-axis" role="graphics-symbol" aria-roledescription="axis" aria-label="X-axis titled 'Mean Temperature Exposure (°C)' for a linear scale with values from 30.2 to 32.4"><g transform="translate(0.5,400.5)"><path class="background" aria-hidden="true" d="M0,0h0v0h0Z" pointer-events="none"/><g><g class="mark-rule role-axis-tick" pointer-events="none"><line transform="translate(0,0)" x2="0" y2="5" stroke="#888" stroke-width="1" opacity="1"/><line transform="translate(32,0)" x2="0" y2="5" stroke="#888" stroke-width="1" opacity="1"/><line transform="translate(64,0)" x2="0" y2="5" stroke="#888" stroke-width="1" opacity="1"/><line transform="translate(95,0)" x2="0" y2="5" stroke="#888" stroke-width="1" opacity="1"/><line transform="translate(127,0)" x2="0" y2="5" stroke="#888" stroke-width="1" opacity="1"/><line transform="translate(159,0)" x2="0" y2="5" stroke="#888" stroke-width="1" opacity="1"/><line transform="translate(191,0)" x2="0" y2="5" stroke="#888" stroke-width="1" opacity="1"/><line transform="translate(223,0)" x2="0" y2="5" stroke="#888" stroke-width="1" opacity="1"/><line transform="translate(255,0)" x2="0" y2="5" stroke="#888" stroke-width="1" opacity="1"/><line transform="translate(286,0)" x2="0" y2="5" stroke="#888" stroke-width="1" opacity="1"/><line transform="translate(318,0)" x2="0" y2="5" stroke="#888" stroke-width="1" opacity="1"/><line transform="translate(350,0)" x2="0" y2="5" stroke="#888" stroke-width="1" opacity="1"/><line transform="translate(382,0)" x2="0" y2="5" stroke="#888" stroke-width="1" opacity="1"/><line transform="translate(414,0)" x2="0" y2="5" stroke="#888" stroke-width="1" opacity="1"/><line transform="translate(445,0)" x2="0" y2="5" stroke="#888" stroke-width="1" opacity="1"/><line transform="translate(477,0)" x2="0" y2="5" stroke="#888" stroke-width="1" opacity="1"/><line transform="translate(509,0)" x2="0" y2="5" stroke="#888" stroke-width="1" opacity="1"/><line transform="translate(541,0)" x2="0" y2="5" stroke="#888" stroke-width="1" opacity="1"/><line transform="translate(573,0)" x2="0" y2="5" stroke="#888" stroke-width="1" opacity="1"/><line transform="translate(605,0)" x2="0" y2="5" stroke="#888" stroke-width="1" opacity="1"/><line transform="translate(636,0)" x2="0" y2="5" stroke="#888" stroke-width="1" opacity="1"/><line transform="translate(668,0)" x2="0" y2="5" stroke="#888" stroke-width="1" opacity="1"/><line transform="translate(700,0)" x2="0" y2="5" stroke="#888" stroke-width="1" opacity="1"/></g><g class="mark-text role-axis-label" pointer-events="none"><text text-anchor="start" transform="translate(0,17)" font-family="sans-serif" font-size="13px" fill="#000" opacity="1">30.2</text><text text-anchor="middle" transform="translate(31.818181818182282,17)" font-family="sans-serif" font-size="13px" fill="#000" opacity="0">30.3</text><text text-anchor="middle" transform="translate(63.636363636363434,17)" font-family="sans-serif" font-size="13px" fill="#000" opacity="1">30.4</text><text text-anchor="middle" transform="translate(95.45454545454572,17)" font-family="sans-serif" font-size="13px" fill="#000" opacity="0">30.5</text><text text-anchor="middle" transform="translate(127.27272727272799,17)" font-family="sans-serif" font-size="13px" fill="#000" opacity="1">30.6</text><text text-anchor="middle" transform="translate(159.09090909090915,17)" font-family="sans-serif" font-size="13px" fill="#000" opacity="0">30.7</text><text text-anchor="middle" transform="translate(190.90909090909145,17)" font-family="sans-serif" font-size="13px" fill="#000" opacity="1">30.8</text><text text-anchor="middle" transform="translate(222.72727272727258,17)" font-family="sans-serif" font-size="13px" fill="#000" opacity="0">30.9</text><text text-anchor="middle" transform="translate(254.54545454545487,17)" font-family="sans-serif" font-size="13px" fill="#000" opacity="1">31.0</text><text text-anchor="middle" transform="translate(286.3636363636371,17)" font-family="sans-serif" font-size="13px" fill="#000" opacity="0">31.1</text><text text-anchor="middle" transform="translate(318.1818181818183,17)" font-family="sans-serif" font-size="13px" fill="#000" opacity="1">31.2</text><text text-anchor="middle" transform="translate(350.00000000000057,17)" font-family="sans-serif" font-size="13px" fill="#000" opacity="0">31.3</text><text text-anchor="middle" transform="translate(381.8181818181817,17)" font-family="sans-serif" font-size="13px" fill="#000" opacity="1">31.4</text><text text-anchor="middle" transform="translate(413.63636363636397,17)" font-family="sans-serif" font-size="13px" fill="#000" opacity="0">31.5</text><text text-anchor="middle" transform="translate(445.4545454545463,17)" font-family="sans-serif" font-size="13px" fill="#000" opacity="1">31.6</text><text text-anchor="middle" transform="translate(477.27272727272737,17)" font-family="sans-serif" font-size="13px" fill="#000" opacity="0">31.7</text><text text-anchor="middle" transform="translate(509.09090909090975,17)" font-family="sans-serif" font-size="13px" fill="#000" opacity="1">31.8</text><text text-anchor="middle" transform="translate(540.9090909090909,17)" font-family="sans-serif" font-size="13px" fill="#000" opacity="0">31.9</text><text text-anchor="middle" transform="translate(572.7272727272732,17)" font-family="sans-serif" font-size="13px" fill="#000" opacity="1">32.0</text><text text-anchor="middle" transform="translate(604.5454545454554,17)" font-family="sans-serif" font-size="13px" fill="#000" opacity="0">32.1</text><text text-anchor="middle" transform="translate(636.3636363636376,17)" font-family="sans-serif" font-size="13px" fill="#000" opacity="1">32.2</text><text text-anchor="middle" transform="translate(668.1818181818178,17)" font-family="sans-serif" font-size="13px" fill="#000" opacity="0">32.3</text><text text-anchor="end" transform="translate(700,17)" font-family="sans-serif" font-size="13px" fill="#000" opacity="1">32.4</text></g><g class="mark-rule role-axis-domain" pointer-events="none"><line transform="translate(0,0)" x2="700" y2="0" stroke="#888" stroke-width="1" opacity="1"/></g><g class="mark-text role-axis-title" pointer-events="none"><text text-anchor="middle" transform="translate(350,36)" font-family="sans-serif" font-size="15px" font-weight="600" fill="#000" opacity="1">Mean Temperature Exposure (°C)</text></g></g><path class="foreground" aria-hidden="true" d="" pointer-events="none" display="none"/></g></g><g class="mark-group role-axis" role="graphics-symbol" aria-roledescription="axis" aria-label="Y-axis titled 'ECDI Domain' for a discrete scale with 5 values: Overall ECDI, Literacy-Numeracy, Physical, Socio-Emotional, Approaches to Learning"><g transform="translate(0.5,0.5)"><path class="background" aria-hidden="true" d="M0,0h0v0h0Z" pointer-events="none"/><g><g class="mark-rule role-axis-tick" pointer-events="none"><line transform="translate(0,46)" x2="-5" y2="0" stroke="#888" stroke-width="1" opacity="1"/><line transform="translate(0,123)" x2="-5" y2="0" stroke="#888" stroke-width="1" opacity="1"/><line transform="translate(0,200)" x2="-5" y2="0" stroke="#888" stroke-width="1" opacity="1"/><line transform="translate(0,276)" x2="-5" y2="0" stroke="#888" stroke-width="1" opacity="1"/><line transform="translate(0,353)" x2="-5" y2="0" stroke="#888" stroke-width="1" opacity="1"/></g><g class="mark-text role-axis-label" pointer-events="none"><text text-anchor="end" transform="translate(-7,49.65384615384616)" font-family="sans-serif" font-size="13px" fill="#000" opacity="1">Overall ECDI</text><text text-anchor="end" transform="translate(-7,126.57692307692308)" font-family="sans-serif" font-size="13px" fill="#000" opacity="1">Literacy-Numeracy</text><text text-anchor="end" transform="translate(-7,203.5)" font-family="sans-serif" font-size="13px" fill="#000" opacity="1">Physical</text><text text-anchor="end" transform="translate(-7,280.4230769230769)" font-family="sans-serif" font-size="13px" fill="#000" opacity="1">Socio-Emotional</text><text text-anchor="end" transform="translate(-7,357.34615384615387)" font-family="sans-serif" font-size="13px" fill="#000" opacity="1">Approaches to Learning</text></g><g class="mark-rule role-axis-domain" pointer-events="none"><line transform="translate(0,0)" x2="0" y2="400" stroke="#888" stroke-width="1" opacity="1"/></g><g class="mark-text role-axis-title" pointer-events="none"><text text-anchor="middle" transform="translate(-149.04248046875,200) rotate(-90) translate(0,-3)" font-family="sans-serif" font-size="15px" font-weight="600" fill="#000" opacity="1">ECDI Domain</text></g></g><path class="foreground" aria-hidden="true" d="" pointer-events="none" display="none"/></g></g><g class="mark-group role-axis" role="graphics-symbol" aria-roledescription="axis" aria-label="Y-axis titled 'Domain' for a discrete scale with 5 values: Overall ECDI, Literacy-Numeracy, Physical, Socio-Emotional, Approaches to Learning"><g transform="translate(700.5,0.5)"><path class="background" aria-hidden="true" d="M0,0h0v0h0Z" pointer-events="none"/><g><g class="mark-rule role-axis-tick" pointer-events="none"><line transform="translate(0,46)" x2="5" y2="0" stroke="#888" stroke-width="1" opacity="1"/><line transform="translate(0,123)" x2="5" y2="0" stroke="#888" stroke-width="1" opacity="1"/><line transform="translate(0,200)" x2="5" y2="0" stroke="#888" stroke-width="1" opacity="1"/><line transform="translate(0,276)" x2="5" y2="0" stroke="#888" stroke-width="1" opacity="1"/><line transform="translate(0,353)" x2="5" y2="0" stroke="#888" stroke-width="1" opacity="1"/></g><g class="mark-text role-axis-label" pointer-events="none"><text text-anchor="start" transform="translate(7,49.65384615384616)" font-family="sans-serif" font-size="13px" fill="#000" opacity="1">Overall ECDI</text><text text-anchor="start" transform="translate(7,126.57692307692308)" font-family="sans-serif" font-size="13px" fill="#000" opacity="1">Literacy-Numeracy</text><text text-anchor="start" transform="translate(7,203.5)" font-family="sans-serif" font-size="13px" fill="#000" opacity="1">Physical</text><text text-anchor="start" transform="translate(7,280.4230769230769)" font-family="sans-serif" font-size="13px" fill="#000" opacity="1">Socio-Emotional</text><text text-anchor="start" transform="translate(7,357.34615384615387)" font-family="sans-serif" font-size="13px" fill="#000" opacity="1">Approaches to Learning</text></g><g class="mark-rule role-axis-domain" pointer-events="none"><line transform="translate(0,0)" x2="0" y2="400" stroke="#888" stroke-width="1" opacity="1"/></g><g class="mark-text role-axis-title" pointer-events="none"><text text-anchor="middle" transform="translate(149.04248046875,200) rotate(90) translate(0,-3)" font-family="sans-serif" font-size="15px" font-weight="600" fill="#000" opacity="1">Domain</text></g></g><path class="foreground" aria-hidden="true" d="" pointer-events="none" display="none"/></g></g><g class="mark-rule role-mark concat_0_layer_0_marks" role="graphics-symbol" aria-roledescription="rule mark container"><line transform="translate(48.3636363636367,320)" x2="640.5000000000008" y2="0" stroke="#999999" stroke-width="1.5" stroke-dasharray="3,3"/><line transform="translate(48.3636363636367,240)" x2="640.5000000000008" y2="0" stroke="#999999" stroke-width="1.5" stroke-dasharray="3,3"/><line transform="translate(48.3636363636367,160)" x2="640.5000000000008" y2="0" stroke="#999999" stroke-width="1.5" stroke-dasharray="3,3"/><line transform="translate(48.3636363636367,79.99999999999999)" x2="640.5000000000008" y2="0" stroke="#999999" stroke-width="1.5" stroke-dasharray="3,3"/></g><g class="mark-rule role-mark concat_0_layer_1_marks" role="graphics-symbol" aria-roledescription="rule mark container"><line transform="translate(230.3636363636365,61.53846153846154)" x2="43.59090909090929" y2="0" stroke="black"/><line transform="translate(486.8181818181823,30.769230769230774)" x2="52.49999999999977" y2="0" stroke="black"/><line transform="translate(72.22727272727285,138.46153846153845)" x2="79.54545454545458" y2="0" stroke="black"/><line transform="translate(371.0000000000002,107.6923076923077)" x2="36.90909090909088" y2="0" stroke="black"/><line transform="translate(327.0909090909099,215.3846153846154)" x2="35.3181818181809" y2="0" stroke="black"/><line transform="translate(340.13636363636346,184.6153846153846)" x2="122.1818181818183" y2="0" stroke="black"/><line transform="translate(222.09090909090926,292.3076923076923)" x2="39.77272727272734" y2="0" stroke="black"/><line transform="translate(593.727272727274,261.53846153846155)" x2="63.000000000000114" y2="0" stroke="black"/><line transform="translate(350.95454545454606,369.2307692307692)" x2="38.181818181817334" y2="0" stroke="black"/><line transform="translate(201.0909090909096,338.46153846153845)" x2="63.63636363636343" y2="0" stroke="black"/></g><g class="mark-symbol role-mark concat_0_layer_2_marks" role="graphics-symbol" aria-roledescription="symbol mark container"><path transform="translate(252.00000000000057,61.53846153846154)" d="M5,0A5,5,0,1,1,-5,0A5,5,0,1,1,5,0" fill="#10b981" stroke-width="2" opacity="0.7"/><path transform="translate(512.9090909090917,30.769230769230774)" d="M-5,-5h10v10h-10Z" fill="#ef4444" stroke-width="2" opacity="0.7"/><path transform="translate(112.00000000000014,138.46153846153845)" d="M5,0A5,5,0,1,1,-5,0A5,5,0,1,1,5,0" fill="#10b981" stroke-width="2" opacity="0.7"/><path transform="translate(389.4545454545456,107.6923076923077)" d="M-5,-5h10v10h-10Z" fill="#ef4444" stroke-width="2" opacity="0.7"/><path transform="translate(344.90909090909093,215.3846153846154)" d="M5,0A5,5,0,1,1,-5,0A5,5,0,1,1,5,0" fill="#10b981" stroke-width="2" opacity="0.7"/><path transform="translate(401.22727272727263,184.6153846153846)" d="M-5,-5h10v10h-10Z" fill="#ef4444" stroke-width="2" opacity="0.7"/><path transform="translate(241.8181818181824,292.3076923076923)" d="M5,0A5,5,0,1,1,-5,0A5,5,0,1,1,5,0" fill="#10b981" stroke-width="2" opacity="0.7"/><path transform="translate(625.2272727272729,261.53846153846155)" d="M-5,-5h10v10h-10Z" fill="#ef4444" stroke-width="2" opacity="0.7"/><path transform="translate(370.04545454545473,369.2307692307692)" d="M5,0A5,5,0,1,1,-5,0A5,5,0,1,1,5,0" fill="#10b981" stroke-width="2" opacity="0.7"/><path transform="translate(232.90909090909076,338.46153846153845)" d="M-5,-5h10v10h-10Z" fill="#ef4444" stroke-width="2" opacity="0.7"/></g><g class="mark-group role-title"><g transform="translate(-164.04248046875,-22)"><path class="background" aria-hidden="true" d="M0,0h0v0h0Z" pointer-events="none"/><g><g class="mark-text role-title-text" role="graphics-symbol" aria-roledescription="title" aria-label="Title text 'Temperature Exposure by Child Development Status (ECDI Domains)'" pointer-events="none"><text text-anchor="start" transform="translate(0,14)" font-family="sans-serif" font-size="18px" font-weight="600" fill="#000" opacity="1">Temperature Exposure by Child Development Status (ECDI Domains)</text></g></g><path class="foreground" aria-hidden="true" d="" pointer-events="none" display="none"/></g></g></g><path class="foreground" aria-hidden="true" d="" display="none"/></g></g><g class="mark-group role-scope concat_1_group" role="graphics-object" aria-roledescription="group mark container"><g transform="translate(0,444)"><path class="background" aria-hidden="true" d="M0,0h700v40h-700Z"/><g><g class="mark-text role-mark concat_1_marks" role="graphics-object" aria-roledescription="text mark container"><text text-anchor="start" transform="translate(0,38)" font-family="sans-serif" font-size="10px" fill="gray">Note: Points show mean temperature for children on-track vs not-on-track. Green circles = on track, red squares = not on track. Error bars = 95% CI.</text></g></g><path class="foreground" aria-hidden="true" d="" display="none"/></g></g><g class="mark-group role-legend" role="graphics-symbol" aria-roledescription="legend" aria-label="Symbol legend titled 'Development Status' for shape and fill color with 2 values: On Track, Not On Track"><g transform="translate(883,0)"><path class="background" aria-hidden="true" d="M0,0h125v44h-125Z" pointer-events="none"/><g><g class="mark-group role-legend-entry"><g transform="translate(0,18)"><path class="background" aria-hidden="true" d="M0,0h0v0h0Z" pointer-events="none"/><g><g class="mark-group role-scope" role="graphics-object" aria-roledescription="group mark container"><g transform="translate(0,0)"><path class="background" aria-hidden="true" d="M0,0h86.6875v12h-86.6875Z" pointer-events="none" opacity="1"/><g><g class="mark-symbol role-legend-symbol" pointer-events="none"><path transform="translate(6,6)" d="M5,0A5,5,0,1,1,-5,0A5,5,0,1,1,5,0" fill="#10b981" stroke-width="1.5" opacity="0.7"/></g><g class="mark-text role-legend-label" pointer-events="none"><text text-anchor="start" transform="translate(16,10)" font-family="sans-serif" font-size="12px" fill="#000" opacity="1">On Track</text></g></g><path class="foreground" aria-hidden="true" d="" pointer-events="none" display="none"/></g><g transform="translate(0,14)"><path class="background" aria-hidden="true" d="M0,0h86.6875v12h-86.6875Z" pointer-events="none" opacity="1"/><g><g class="mark-symbol role-legend-symbol" pointer-events="none"><path transform="translate(6,6)" d="M-5,-5h10v10h-10Z" fill="#ef4444" stroke-width="1.5" opacity="0.7"/></g><g class="mark-text role-legend-label" pointer-events="none"><text text-anchor="start" transform="translate(16,10)" font-family="sans-serif" font-size="12px" fill="#000" opacity="1">Not On Track</text></g></g><path class="foreground" aria-hidden="true" d="" pointer-events="none" display="none"/></g></g></g><path class="foreground" aria-hidden="true" d="" pointer-events="none" display="none"/></g></g><g class="mark-text role-legend-title" pointer-events="none"><text text-anchor="start" transform="translate(0,10)" font-family="sans-serif" font-size="13px" font-weight="bold" fill="#000" opacity="1">Development Status</text></g></g><path class="foreground" aria-hidden="true" d="" pointer-events="none" display="none"/></g></g></g><path class="foreground" aria-hidden="true" d="" display="none"/></g></g></g></svg>